<?xml version="1.0" encoding="utf-8"?>
<!-- Generator: Adobe Illustrator 25.4.1, SVG Export Plug-In . SVG Version: 6.00 Build 0)  -->
<svg version="1.1"
	 id="svg46" inkscape:version="1.1 (c4e8f9e, 2021-05-24)" sodipodi:docname="boom.svg" xmlns:inkscape="http://www.inkscape.org/namespaces/inkscape" xmlns:sodipodi="http://sodipodi.sourceforge.net/DTD/sodipodi-0.dtd" xmlns:svg="http://www.w3.org/2000/svg"
	 xmlns="http://www.w3.org/2000/svg" xmlns:xlink="http://www.w3.org/1999/xlink" x="0px" y="0px" viewBox="0 0 2736 3648"
	 style="enable-background:new 0 0 2736 3648;" xml:space="preserve">
<sodipodi:namedview  bordercolor="#666666" borderopacity="1.0" id="namedview48" inkscape:current-layer="g52" inkscape:cx="1369.6582" inkscape:cy="1824" inkscape:pagecheckerboard="0" inkscape:pageopacity="0.0" inkscape:pageshadow="2" inkscape:window-height="776" inkscape:window-maximized="1" inkscape:window-width="1440" inkscape:window-x="0" inkscape:window-y="25" inkscape:zoom="0.15076754" pagecolor="#ffffff" showgrid="false">
	</sodipodi:namedview>
<g id="g52" inkscape:groupmode="layer" inkscape:label="Image">
	<path id="path136" d="M1524.4,2760.1c-0.7-0.3-1.5-1.1-1.7-1.8c-0.3-0.7-1.5-0.8-2.9-0.3c-1.4,0.5-4.7,0.1-7.6-0.9
		c-2.9-1-5.4-1.4-5.6-1c-0.2,0.5-1.9,0.4-3.7-0.1c-2.3-0.7-3.8-0.5-4.9,0.5c-3.1,2.7-3.9,2.6-3.6-0.4c0.2-2.3-0.1-2.9-1.5-3.2
		c-0.9-0.2-1.3-0.5-0.7-0.7c0.5-0.2-0.6-1-2.5-1.8c-1.9-0.8-3.4-1.9-3.3-2.5c0.1-0.6-0.3-0.9-0.9-0.7c-0.6,0.2-0.7,0.9-0.1,1.5
		c0.7,0.8,0.2,1.4-1.5,2c-2.7,1-12.5-3.1-12.1-5.1c0.4-1.9-3.1-10.2-5-11.9c-1.2-1-4.7-9-9.6-21.8c-4.3-11.1-8.6-21.9-9.7-23.9
		c-1-2.1-5.3-12.2-9.5-22.6c-4.2-10.4-8.9-22-10.5-25.8s-5.1-11.6-7.9-17.3c-2.8-5.7-6.6-14.1-8.4-18.8c-3.7-9.4-6.1-14.1-11.1-21.3
		c-4.9-7.2-27.7-59.6-30.5-70.3c-0.5-1.8-1.3-3.4-1.9-3.5s-1.8-1.9-2.8-3.9c-0.9-2-2.5-4.3-3.4-5.1s-2.2-2.5-2.9-3.7
		c-0.6-1.2-2.2-4-3.6-6.1c-3.6-5.8-4.7-8.2-4.3-10.1c0.5-2.2-6.3-20.4-8-21.7c-1.5-1.1-3.9-7-3-7.3c0.8-0.3-9.7-29.3-13.7-37.6
		c-1.8-3.8-4.5-11.8-6.1-18c-1.6-6.2-3.2-11.5-3.7-11.9c-1.9-1.5-8.5-23.3-13.5-44.7c-2.1-9-3.7-13.8-7.5-22.3c-1.3-3-2.2-6.1-2-6.8
		c0.3-0.8-0.4-2.4-1.6-3.9c-1.4-1.7-2.2-3.7-2.3-6c-0.1-1.9-1.7-7.5-3.4-12.5c-2.5-7-3.2-10.4-3-14.9c0.1-4.5-0.6-8.1-3.4-16.2
		c-2-5.7-4.2-13.9-5.1-18.1c-1.7-8.4-2.4-9.5-5.5-8.4c-1.2,0.4-2.7,0.5-3.3,0.2c-1.8-0.8-19.7-0.5-24.8,0.4
		c-8.9,1.6-12.7,1.8-19.6,1.1c-5.2-0.6-8.5-0.2-12.9,1.2c-3.2,1.1-7.9,2-10.4,2.1c-2.5,0.1-6,0.9-7.8,1.9c-1.8,0.9-3.9,1.5-4.7,1.2
		c-0.8-0.3-2.8-0.2-4.4,0.2c-1.7,0.4-3.6,0.6-4.2,0.4c-0.7-0.1-4.2,0.4-7.8,1.2c-3.7,0.8-9.1,1.9-12.1,2.4c-3,0.5-9.5,1.9-14.3,3
		c-4.9,1.1-12.4,2.8-16.8,3.6s-8.4,2.1-9,2.7c-0.6,0.6-3.3,1-6.1,0.8c-3.9-0.3-7.2,0.4-14.6,3c-5.2,1.8-10.3,3.2-11.2,3
		c-0.9-0.2-4.4,0.6-7.8,1.8c-9.8,3.4-21.5,6.3-23.2,5.7c-0.9-0.3-3.9,0.6-7.7,2.4c-3.7,1.8-8.2,3.2-11.2,3.6
		c-4.4,0.6-13.2,2.8-22.6,5.8c-1.7,0.5-3.2,0.7-3.3,0.4c-0.1-0.3-6.2,1.3-13.6,3.6c-7.4,2.3-16.7,4.7-20.7,5.2
		c-6.1,0.9-19.4,5.6-24.2,8.7c-0.3,0.2-3,0.7-6,1.2c-12.9,2-18,3.1-26.6,5.8c-5,1.6-10.4,3-12.1,3.3c-4.8,0.7-22,5.4-38.7,10.6
		c-8.4,2.6-16.6,4.8-18.1,5c-1.5,0.1-4.1,1.3-5.8,2.6c-2.1,1.7-3.8,2.3-5.9,2.3c-1.6,0-9.3,2-17.2,4.6
		c-19.4,6.3-41.9,12.8-49.1,14.1c-6.4,1.2-18.8,4.4-41.3,10.9c-15.3,4.4-18.6,5.2-22.4,5.8c-15.3,2.1-32.7,6.7-54,14.3
		c-10.3,3.7-16.7,5.6-17.8,5.2c-2.9-1-10.2,1.2-12.6,3.8c-1.2,1.3-2.2,2.5-2.3,2.6c-0.1,0.2-3.6-0.6-7.9-1.8
		c-4.2-1.1-9-1.9-10.7-1.7c-2.8,0.3-5.2-0.7-15.8-6.6c-2.6-1.4-5.8-2.7-7.2-2.7c-2.2-0.1-2.6-0.5-3.5-4.8c-0.8-3.3-2.2-6-4.7-9.2
		c-4.2-5.3-6.5-11.3-5.1-13.4c0.5-0.8,1.6-4.3,2.3-7.6c1.2-5.4,1.1-6.3-0.8-8.6c-1.7-2.1-2-3.3-1.5-6.9c0.3-2.4,1.3-5.4,2.3-6.7
		c1-1.3,1.4-2.6,1-3c-0.4-0.3-0.2-1.3,0.5-2.2c0.7-0.9,0.9-1.4,0.4-1.3c-1.6,0.5,1.1-2.5,2.9-3.2c0.9-0.3,3-2.4,4.7-4.6
		c3.4-4.4,6.1-7.3,23.1-24.9c6.4-6.6,13.6-14.6,16.2-17.7c2.5-3.2,5.5-6.1,6.7-6.5c1.1-0.4,2.9-1.8,3.9-3c1-1.2,2.6-2.9,3.4-3.8
		s1.9-2.5,2.3-3.6c1-2.7,7.5-9.7,10-10.6c1.1-0.4,1.8-1.1,1.6-1.7c-0.2-0.5,0.7-1.8,1.9-2.8c1.2-1,2.9-2.6,3.8-3.4
		c7.7-7.6,16.6-15.4,17.1-14.7c0.1,0.2,0.6-0.4,1.2-1.3c0.5-0.9,1.9-2.2,3.1-3c5.5-3.5,11-7.8,12.5-9.8c0.9-1.2,3.4-3.6,5.6-5.3
		s6.8-5.5,10.2-8.5c3.5-2.9,8.6-7,11.3-9c2.8-2,6.1-4.8,7.5-6.1c1.3-1.3,5-4.1,8.1-6.1s8.6-6.6,12.1-10.2
		c8.8-8.8,10.9-10.7,13.4-12.1c1.2-0.7,2.5-1.9,3-2.7c0.5-0.8,0.9-1.2,1-1c0.1,0.2,4.7-3.2,10.2-7.8c14.9-12.2,16.8-13.8,23.7-20.9
		c3.5-3.6,7.2-6.8,8.2-7.2c2.3-0.8,10.6-9.1,10.2-10.1c-0.1-0.4,1.2-1.6,2.9-2.6c1.7-1,4.4-3.4,5.8-5.2c2.5-3.2,10.4-9.6,14.8-11.9
		c1.2-0.6,2.2-1.7,2.4-2.5c0.4-1.7,15-16.2,16-15.8c0.4,0.2,2.9-2,5.7-4.9c2.8-2.8,5.5-5.3,6-5.5c0.5-0.2,4-3.4,7.7-7.1
		c3.7-3.7,9.4-8.7,12.7-11.2c5.5-4.1,8.8-7.2,16.7-15.9c4.2-4.6,4.9-5.3,8.4-8.6c1.7-1.6,3-3.6,3-4.4s0.9-1.8,2-2.2
		c1.1-0.4,4.7-3.6,8.2-7.2s9.3-9.3,13-12.8c13.2-12.3,13.3-12.8,2.7-15.3c-6.1-1.4-18.2-5-24.5-7.2c-0.8-0.3-1.4-0.3-1.3,0
		c0.1,0.3-1.8,0-4.2-0.6c-2.4-0.6-4.9-0.9-5.6-0.7c-0.7,0.2-4.6-1.2-8.7-3.1c-5-2.4-10.1-3.8-15.2-4.3c-11.1-1.1-23.9-3.5-30.3-5.7
		c-3-1-11-3.1-17.7-4.6s-13.9-3.5-16-4.4c-2.1-0.9-6.8-2-10.4-2.5c-3.6-0.5-8.7-1.7-11.2-2.6c-2.5-1-7-2.6-9.8-3.5
		c-2.9-1-6.6-2.4-8.4-3.2c-1.7-0.8-6-2-9.5-2.8c-3.5-0.8-8.9-2.1-11.8-3c-3-0.9-6-1.7-6.6-1.9c-0.7-0.2-4.3-1.6-8-3
		c-3.8-1.5-8.9-3.1-11.5-3.7c-2.5-0.5-8.6-2.6-13.4-4.6s-13.3-4.8-18.8-6.2c-5.5-1.4-13.5-4.1-17.7-6c-4.2-1.9-10.8-4.7-14.6-6.2
		c-3.8-1.5-9.9-4.1-13.7-5.7c-3.8-1.6-7.8-3-8.9-3.2c-1.1-0.2-4.7-1.5-8-2.9c-7.7-3.3-17.3-6.8-34.7-12.6c-7.7-2.6-18-6.4-23-8.5
		c-5-2.1-10.3-3.9-11.8-3.9c-3.2-0.1-13.9-4.1-28.5-10.7c-5.7-2.5-11.3-4.8-12.5-4.9c-1.2-0.2-3-0.9-4-1.6c-1-0.7-2.4-1.1-3.1-0.8
		s-2.3-0.2-3.7-0.9c-1.4-0.7-4.3-1.5-6.4-1.8c-3.3-0.4-9.4-3.1-20.6-9.2c-1.4-0.8-4-1.5-5.7-1.6s-7.2-2.5-12.1-5.2
		c-4.9-2.8-9.3-4.9-9.7-4.7c-1.1,0.4-8.1-2.3-19.1-7.4c-5-2.3-11.2-4.8-13.8-5.6c-2.6-0.8-5.4-1.7-6.1-2.1
		c-1.3-0.7-25.6-10.6-43.7-17.8c-4.7-1.9-13.2-5.4-18.8-7.8c-16.1-6.8-27.1-10.6-34-11.8c-3.5-0.6-6.8-1.4-7.3-1.8
		c-0.5-0.4-3.1-0.9-5.7-1.1c-2.7-0.2-6-1.2-7.3-2.2c-1.4-1-7.2-2.9-13-4.2s-12-2.8-13.8-3.4c-1.8-0.6-5.6-1.2-8.5-1.3
		c-6.4-0.4-8.3-1.3-14.7-6.9c-3.7-3.2-5.3-5.5-6.3-8.6c-0.8-2.4-2.3-4.9-3.6-5.9c-1.2-0.9-1.9-1.8-1.4-2c0.5-0.2,0.3-3.3-0.4-7
		c-2.2-11.9,1.2-25.1,8.5-32.5c3.3-3.4,5.3-6.2,7.8-11.2c0.8-1.5,2-2.4,3.6-2.6c1.4-0.2,3.5-1.4,5-2.9c1.4-1.4,3.7-3,5.2-3.6
		c1.5-0.5,3.6-2,4.8-3.2c1.5-1.6,6.5-3.9,18.5-8.3c9-3.4,19.1-7.3,22.3-8.8c3.3-1.5,11.7-5.3,18.7-8.5c30.7-14.1,98-39.4,107.4-40.5
		c5.4-0.6,6-0.8,7.1-3c1.2-2.2,1.6-2.4,6.7-2.7c3.7-0.2,9-1.6,16.1-4.2c5.8-2.1,11.1-3.8,11.7-3.7c0.6,0.1,7.8-2.1,16-4.8
		c8.2-2.8,16.1-5.1,17.6-5.1c1.4,0,4.1-0.7,5.9-1.4c9.9-4,24.6-9.5,30.2-11.2c3.6-1.1,6.3-2.3,6.2-2.8c-0.6-1.7,4.2-2.3,6.9-0.8
		c1.7,0.9,4.4,1.3,6.6,0.8c2.1-0.4,4.9-0.8,6.4-0.9c1.5-0.1,3.3-0.9,4.2-1.8c0.9-0.9,5.6-3,10.5-4.7c4.9-1.6,11-3.8,13.6-4.9
		c14-5.7,26.8-9.3,31-8.9c1.5,0.2,5-1,9.5-3.1c12.5-5.9,19.9-8.2,49.4-15.9c2.1-0.6,8.9-2.9,15.1-5.3c6.2-2.4,14-5.2,17.4-6.2
		c7.6-2.3,5.9-1.7,37.9-14.4c45.5-18,49.2-19.6,49.2-20.6c0-0.5,0.3-1.9,0.6-3.2c0.6-2.2,0.8-2.2,4-0.5c3.4,1.7,3.4,1.7,13-2.4
		c5.3-2.3,10.8-4.1,12.2-4.1c1.4,0,5.8-1.5,9.7-3.3c9.7-4.5,13.4-5.4,14.1-3.4c1.1,2.9,15.9,0.4,36.3-6.2
		c13.5-4.3,19.4-5.7,24.1-5.5c2.3,0.1,5.6-0.7,8.8-2.2c2.8-1.3,6.3-2.3,7.7-2.1c1.8,0.1,3.4-0.5,5.5-2.1c2.3-1.7,4.1-2.3,7.8-2.5
		c5.9-0.3,10.2-1.8,12.9-4.4c1.5-1.5,3.2-2,7.5-2.4c3.1-0.2,7.5-1.2,10-2.2c2.6-1,5-1.4,5.8-0.9c0.8,0.5,2,0.6,2.7,0.4
		s2-0.1,3.1,0.4c1,0.5,5.7,1.7,10.4,2.8c4.7,1.1,8.8,2.2,9.2,2.6c0.3,0.4,1.4,0.3,2.5,0c1.1-0.4,1.9-0.1,1.9,0.6
		c0,0.7,3.3,2.8,7.3,4.5c4,1.8,7.8,3.9,8.4,4.6c1.9,2.2,5.9,0.2,6.2-3.1c0.1-1.5,1-3,1.9-3.4c0.9-0.3,4.5-4.2,8-8.5
		c3.4-4.3,7.8-9.8,9.7-12.2s4.6-6.3,6.1-8.7c1.5-2.4,3.4-5.3,4.3-6.3s2.9-4.2,4.3-7.1c1.4-2.9,3.5-6.2,4.6-7.5
		c1.1-1.2,2.7-4.1,3.6-6.3c0.9-2.3,2.6-5,3.7-6.2c1.2-1.2,2-2.5,1.8-3s0.9-2.6,2.3-4.6c4.5-6.2,11.2-18.4,18.5-33.7
		c3.8-8,7.9-15.6,9.1-16.9c1.1-1.3,2.7-3.8,3.4-5.7c1.3-3.4,11.3-19.3,12.4-19.8c1.2-0.4,7.6-9.5,7.3-10.3c-0.3-0.9,4-9.2,5-9.6
		c0.4-0.1,2.1-3.4,3.8-7.3c3.8-8.3,11.5-21.4,13.6-23.2c0.8-0.7,1.9-3.1,2.3-5.3c0.5-2.2,2.4-6.6,4.4-9.7c2-3.1,4.7-8.4,6.1-11.7
		c1.4-3.3,4.1-8.8,6.1-12.2c11.1-19.3,13.3-22.9,14.1-23.1c0.5-0.2,2.6-3.9,4.6-8.4c2.1-4.4,5.1-10.3,6.7-13.1
		c1.6-2.8,3.5-7.1,4.2-9.7c0.7-2.5,1.9-5.1,2.8-5.8c0.9-0.6,1.4-1.7,1.2-2.4c-0.3-0.7,0.8-2.7,2.3-4.4c1.5-1.7,4-5.5,5.4-8.3
		c5.9-11.7,11.3-21.8,14.1-25.9c1.7-2.6,2.5-4.7,1.9-5.2c-0.6-0.5-0.5-0.7,0.1-0.6c0.6,0.1,1.7-1,2.3-2.5c0.6-1.5,2.9-6.1,5.2-10.1
		c13.3-24.2,15-27.5,19.4-37.1c2.1-4.7,4.8-9.2,6-10c1.2-0.8,3.5-4.3,5.1-7.8c4.8-10.1,15.2-29.1,17.6-32.1c1.2-1.5,2.2-3.6,2.2-4.5
		c0-2,7-16.8,8.1-17.2c0.4-0.1,0.5-0.9,0.2-1.7c-0.3-0.8,0.7-2.9,2.1-4.7c1.4-1.8,3-5.1,3.6-7.5c0.7-3.3,1.8-4.9,4.9-7.2
		c2.2-1.6,4.5-4.2,5.1-5.8c0.6-1.6,1.6-3.1,2.2-3.3c0.6-0.2,1.7-1.9,2.5-3.7c1.9-4.4,7.9-10.8,11.4-12.1c1.6-0.6,3.9-0.5,5.2,0.1
		c1.3,0.6,3.6,1,5.1,0.8c1.5-0.2,4,0.4,5.6,1.3c1.6,0.9,3.9,1.2,5.1,0.8c3.5-1.3,8.4-0.2,10.1,2.2c1.1,1.7,3.1,2.3,7.8,2.7
		c6.6,0.5,14.1,3.1,14.9,5.2c0.2,0.7,0.8,1.1,1.3,0.9c0.5-0.2,1.7,1.4,2.8,3.5c1.1,2.1,3,5.3,4.4,7.2c1.3,1.9,3.7,6,5.2,9.3
		s3.5,7.3,4.3,9.1c0.9,1.7,5.4,13,10.1,25c4.7,12,9,22.3,9.4,22.9c0.5,0.6,0.4,1.2-0.1,1.4c-0.5,0.2-0.7,0.6-0.3,0.9
		s2.5,4.7,4.8,9.7c2.3,5,5.1,10.8,6.3,12.8c1.2,2,2,4.1,1.8,4.5s-0.3,1.1-0.2,1.4c0.1,0.4,0.5,2.5,0.9,4.8c0.4,2.5,1.4,4.8,2.4,5.7
		c0.9,0.8,1.5,1.8,1.3,2.2c-0.7,1.4,6.9,22.1,9.2,24.9c1.7,2.2,2,3,1.2,3.6c-1.3,1-0.1,4.5,2.5,7.5c1.1,1.2,1.9,3,1.9,3.9
		c0,0.9,0.9,4.7,2,8.4c2.7,8.6,6.6,22.3,10,34.7c1.5,5.3,3.9,14,5.5,19.3c1.6,5.3,2.9,11.5,3,13.9c0.1,2.3,0.6,7.2,1.2,10.7
		c0.6,3.6,1.5,8.5,1.9,11c0.4,2.5,1.4,6.4,2.1,8.7c0.8,2.3,1.2,5.2,1.1,6.4c-0.2,1.2,0.9,6,2.4,10.7s2.6,9,2.5,9.5
		c-0.1,0.5,0.9,6,2.2,12.2c1.3,6.2,2.8,13.5,3.3,16.2c0.5,2.8,2.7,10.8,5,17.9c2.3,7.1,4.7,15.5,5.3,18.8c2.6,13.3,7.5,29.6,9.9,33
		c2.2,3.1,2.7,3.3,7.4,2.8c3.6-0.4,5.4-1.1,6.5-2.3c0.8-0.9,2.7-2.2,4.2-2.7c1.5-0.5,5.5-3,9-5.4c4.3-3,9.4-5.6,16.1-8.1
		c5.4-2,13-5.5,16.9-7.7c4.9-2.8,14.2-6.6,30.1-12.3c17.2-6.1,23.6-8.8,25.1-10.4c2.2-2.3,20.5-9.9,22.6-9.4c2.2,0.5,6-1.7,5-2.9
		c-1.1-1.3-1-1.4,4.4-1.4c3.4,0,4.9-0.5,6.6-2c1.3-1.2,11.7-5.6,27-11.3c52-19.7,98-38.2,100.8-40.6c1-0.9,5.8-3,10.6-4.8
		c18.3-6.6,28.5-11,35.3-15c2.9-1.7,13.5-6.6,23.7-10.9s21.4-9.1,25.1-10.9c4.7-2.2,7.2-2.9,8.5-2.5c1.5,0.5,2.8,0,6.7-2.6
		c2.7-1.8,6.8-4,9.1-5c2.3-1,7.4-3.3,11.4-5.1c4-1.8,13.8-5.9,21.7-9.1s17.4-7.3,21-9.3c3.7-2,7.1-3.3,7.9-3.1
		c1.3,0.4,10.7-3.1,44.6-16.7c9.4-3.8,25.3-9.9,35.2-13.6l18-6.7l7.3,0.9c4,0.5,7.4,1.2,7.6,1.6c0.1,0.4,1.2,0.6,2.3,0.6
		s2.3,0.5,2.6,1.2s2.1,1.2,4.1,1.2c2.6-0.1,5.7,1.3,11.1,4.8c7.8,5.1,10.1,7.6,12.7,13.4c1.1,2.4,2.8,4.2,5.7,5.7
		c6.6,3.6,7.1,4.3,5.3,7.2c-0.9,1.4-1.4,3.3-1.1,4.2c0.3,0.9,0.2,2.6-0.1,3.9c-0.4,1.3-0.3,2.6,0.1,2.9c1.4,1.1,1.4,5.3,0.1,9
		c-0.7,1.9-1.7,6.2-2.2,9.6c-0.8,5.7-1.2,6.3-5.4,9c-2.5,1.6-4.8,3.7-5.1,4.7c-0.3,1-1.7,2.5-3,3.4c-2.5,1.6-6.6,6.9-9.4,12.2
		c-1,1.8-2,3.3-2.2,3.4c-2.5,0.9-11.8,12.4-15.5,19.2c-2.6,4.6-5,8.6-5.5,8.8c-0.5,0.2-1.9,2.9-3.1,6c-2.8,7.1-6,11.8-13.3,19.4
		c-3.2,3.3-6.4,7.2-7.1,8.6c-0.7,1.4-3.2,4.8-5.6,7.6s-4.3,5.6-4.3,6.4c0,0.8-1.1,2.1-2.4,2.9c-1.3,0.8-3.9,4.3-5.9,7.6
		c-2,3.4-5.4,8-7.6,10.3c-2.2,2.3-3.9,4.6-3.7,5.1c0.2,0.5-0.7,1.8-1.9,3c-2.4,2.3-8,14.7-6.9,15.2c0.8,0.4-5.2,5.9-7.1,6.6
		c-1.9,0.7-6.4,5.7-7.4,8.2c-0.5,1.2-1.3,2.4-1.8,2.6c-0.5,0.2-2.2,2.7-3.7,5.5c-1.5,2.8-3.7,5.8-4.9,6.7c-1.1,0.9-2.2,2-2.3,2.5
		c-0.1,0.5-2,2.8-4.2,5.1c-6.9,7.3-12.2,15.7-11.4,17.9c0.2,0.6-0.4,1.6-1.3,2.3c-2.9,2.1-8.5,10-8.5,11.9c0,1-4.2,6.3-9.6,12
		c-5.3,5.6-10.4,11.5-11.4,13.1c-0.9,1.6-2.8,4.1-4.1,5.5c-2.7,2.9-8.2,12-12.1,19.9c-1.4,2.9-3.7,6-4.9,6.9s-2.9,2.5-3.5,3.7
		c-0.7,1.3-2.9,2.8-5.2,3.6c-2.2,0.8-3.8,1.7-3.4,1.9c1,0.8-4.9,9.9-9.3,14.4c-2.3,2.4-5.6,6.7-7.3,9.5c-1.7,2.9-4.4,6-6.1,7
		c-1.7,1-3.3,2.6-3.6,3.6c-0.4,1-1,1.9-1.5,2.1s-1.7,2.6-2.9,5.3c-1.4,3.5-4.7,7.8-11,14.3c-4.9,5.1-9.1,10-9.3,10.8
		c-0.3,1.5-6.3,8-8,8.6c-0.5,0.2-1.4,1.7-2.1,3.4l-1.3,3l2.6,0.4c1.4,0.2,4.5,1,6.9,1.8c2.3,0.8,4.9,1.2,5.7,0.9
		c0.8-0.3,3.3,0,5.6,0.7c2.3,0.7,6.9,1.6,10.3,2c3.4,0.4,11.3,1.8,17.6,3.1c6.3,1.3,13.2,2.2,15.4,2c2.6-0.2,4.1,0.2,4.5,1.3
		c0.4,1.1,2.7,1.7,7.3,1.7c3.7,0.1,7.8,0.6,9.2,1.2c1.4,0.6,5.1,1.4,8.1,1.8c3.1,0.4,6.4,1,7.4,1.3c2.9,1.1,16.8,2.9,18.2,2.4
		c0.7-0.3,2.4,0.1,3.7,0.8c1.3,0.7,7.3,2,13.2,2.8c5.9,0.8,12.3,1.9,14.3,2.5c5,1.3,8.6,1.7,10.3,1.1c0.8-0.3,5.7,0.5,10.9,1.8
		c5.2,1.3,14,2.9,19.6,3.6c5.5,0.7,13.4,1.9,17.4,2.6c4.1,0.7,9.6,1.5,12.4,1.8c2.8,0.3,8.7,1.7,13.3,3c4.5,1.4,9.6,2.8,11.2,3.1
		c19.8,4.2,27.2,6,28.4,6.9c0.6,0.4,0.9,0.4,0.8-0.1c-0.2-0.5,2.4,0.3,5.7,1.7c3.3,1.4,9.2,3.5,13.1,4.6c12.1,3.6,23.6,8.2,42.1,17
		c24.3,11.6,23.4,11.2,38,17.6c7.2,3.2,15.6,6.4,18.6,7.1s10.4,3.6,16.4,6.4c14.8,6.7,27.3,11.5,29,10.8c0.8-0.3,1.5-0.1,1.7,0.3
		c0.7,1.8,13.1,7.1,15,6.4c1.1-0.4,2.1-0.4,2.3,0c0.3,0.8,15.2,5.4,22.7,7.1c15.8,3.6,30.2,5.7,32.6,4.8c0.8-0.3,6.5,1.9,12.7,5
		c10.7,5.2,11.4,5.7,12.1,9c0.6,2.7,1.6,4.1,4.4,5.8c2,1.3,3.4,2.9,3.3,3.6c-0.2,0.8,0,0.9,0.5,0.4c1.3-1.6,5.5,7.9,4.5,10.1
		c-0.5,1-0.4,3.1,0.1,4.6c0.5,1.5,0.7,3.1,0.3,3.5c-0.4,0.5,0,2,0.8,3.5c0.9,1.6,1.1,2.8,0.4,3c-0.6,0.2,0.2,1,1.6,1.7
		c2.9,1.5,2.5,3.1-1.1,4.5c-1.3,0.5-1.9,1.6-1.7,3.2c0.2,1.5-0.6,3-1.9,3.9c-1.4,0.9-1.9,2.1-1.5,3.3c0.7,1.9-0.8,3.8-5.3,6.6
		c-1.3,0.8-2.9,2.7-3.6,4c-0.6,1.4-1.9,2.8-2.8,3.1c-0.9,0.3-2.3,1.5-3.2,2.5c-6.2,7.5-8.4,9.4-14.1,12c-6.1,2.8-6.2,2.8-11,0.8
		c-2.7-1.1-5.2-2-5.7-1.9c-1.9,0.4-2.4,0.4-3.6,0.1c-2-0.4-16.6,2.1-20.6,3.6c-1.9,0.7-3.7,0.9-3.8,0.4s-2.9-0.5-6.1,0
		c-3.2,0.5-8.8,1.1-12.6,1.4c-3.7,0.2-8.7,0.9-11.1,1.5s-8.1,1.5-12.6,1.9c-10.3,1-26,3.4-31.8,4.9c-2.4,0.6-7.3,1.2-10.9,1.4
		c-3.6,0.1-6.6,0.5-6.7,0.7c-0.1,0.2-5.4,1.4-11.7,2.5c-6.3,1.1-14.4,2.7-18,3.6c-3.6,0.8-7,1.4-7.5,1.3c-0.6-0.1-2.9,0.2-5.2,0.6
		c-2.3,0.5-7.5,1.3-11.5,1.9c-4.1,0.6-11.4,2.1-16.3,3.4s-11.3,2.2-14.1,2.1c-2.9-0.1-9.4,0.7-14.5,1.9c-16.4,3.8-18.3,4.1-40.9,7.4
		c-5.3,0.8-15.6,1.9-23,2.6c-7.4,0.6-15.9,1.5-19,1.9c-8.3,1-17.1,1.9-24.1,2.5c-3.4,0.3-10.1,1-14.8,1.7c-4.7,0.6-10,1.2-11.8,1.3
		c-1.7,0-5.3,0.3-7.8,0.5c-2.6,0.2-6.6,0.3-9,0.2c-6.4-0.4-18.6,0.4-21.2,1.4c-2.3,0.9-4.9,1.1-15.4,1.2c-5.1,0.1-11.4,0.7-17.5,1.7
		c-1.3,0.2-5,0.6-8.1,0.9c-3.2,0.3-7,1-8.5,1.5c-1.5,0.5-6.3,1.1-10.7,1.1c-8.4,0.2-9.6,0.9-8.1,4.7c3.9,9.8,4.9,12,5.5,11.8
		c0.3-0.1,1.6,1.7,2.7,4.1c5.7,11.6,9.8,19.1,10.8,19.9c0.6,0.5,2.7,4.2,4.7,8.2c4.8,9.9,7.3,14.2,8.5,15c0.6,0.4,1.4,2,1.8,3.6
		c0.4,1.6,2.6,5.4,4.9,8.3c2.6,3.4,5.6,8.7,7.9,14.3c2,4.9,5.1,10.6,6.7,12.7c1.7,2.1,3,4.2,2.9,4.6c-0.3,1.3,6.1,13.2,11.4,21.7
		c6.4,10.1,7.9,12.7,9.2,15.8c0.7,1.8,3.8,6.8,6.8,11.3c3,4.4,5.5,9.1,5.7,10.3c0.1,1.3,1,3,1.8,3.7c0.9,0.8,3.5,6,5.9,11.6
		c2.4,5.6,5.4,11.4,6.8,12.9c1.4,1.5,4,6,5.9,10c1.9,4,5,9.7,6.9,12.7c1.9,3,3.6,6,3.7,6.6c0.1,0.7,1,1.9,1.9,2.7
		c1,0.8,3.1,4.3,4.7,7.8c1.6,3.5,3.5,6.6,4.2,6.9c0.7,0.3,1.9,2.2,2.6,4.2c0.7,2,1.7,3.4,2.2,3.3c0.5-0.2,1.7,1.9,2.6,4.6
		c2.2,6,6.7,14.1,9,16.1c0.9,0.8,3.6,5.8,6,11.1c2.4,5.3,5.6,11.8,7.1,14.4c1.6,2.7,3.1,5.7,3.4,6.7c0.9,3.1,6.8,12.3,8.4,13.3
		c0.8,0.5,3,4.1,4.7,7.9c1.8,3.8,4.4,8.6,5.8,10.6c1.4,2,3.3,5.2,4.3,7c2.1,4.1,4,7.4,7.3,12.9c5.2,8.6,7.1,11.3,9.2,13.1
		c1.2,1,2.4,2.8,2.6,4c0.6,2.3,8.1,15.3,11.2,19.2c2.3,2.9,7.5,11,15,23.2c2.9,4.8,7.1,10.8,9.2,13.5c2.1,2.6,3.7,5.2,3.6,5.7
		s1.1,2.5,2.8,4.5c1.6,2,3.5,4.6,4.2,5.8c3.4,6.1,7.2,11.3,11.1,15.1c2.9,2.9,4.7,5.6,5.5,8.3c0.7,2.2,1.8,4.5,2.4,5
		c0.7,0.5,2.5,2.8,4,5.2c7.3,11,17.4,25.2,22.6,31.7c2,2.5,5.3,7.5,7.3,11.2c2,3.6,4.2,7.2,4.7,7.9s1.5,2.2,2.2,3.5
		c1.6,3.1,7.2,12.9,10.3,18.1c1.4,2.4,3.6,6.4,4.8,8.9c2.8,5.8,18.6,32.7,21.2,35.8c1.1,1.3,2.6,4.1,3.3,6.2
		c0.8,2.1,2.5,4.9,3.9,6.1c6.6,6,13.4,20,11.7,24.2c-0.5,1.3-0.9,2.9-0.8,3.6c0.1,0.7,0.3,2.6,0.6,4.3c0.5,3.7-5.9,17.4-9.2,19.4
		c-5.1,3.2-6.7,5.3-5.9,7.4c0.5,1.5,0.1,2.6-1.3,3.5c-2.5,1.7-8.2,2.7-8.6,1.5c-0.2-0.5-0.7-0.7-1.2-0.5c-0.5,0.2-0.6,1.3-0.1,2.5
		c1.1,3.1-0.1,6.6-2.2,6.6c-1,0-2-0.7-2.3-1.5c-0.5-1.4-2.2-1.3-5.5,0.2c-2.3,1.1-12.8,0.8-14.8-0.3c-0.9-0.5-3.2-0.4-5.3,0.4
		c-3.3,1.2-4.5,0.9-11.8-2.7c-4.5-2.2-9.9-5-12.1-6.2s-4.2-2-4.4-1.8c-0.5,0.4-10.7-3.5-29.5-11.2c-5.9-2.4-15.1-5.8-20.3-7.5
		c-5.2-1.7-13.2-4.6-17.6-6.4c-4.5-1.9-10.5-3.8-13.4-4.4c-7.9-1.5-9.9-2.3-9.8-4.1c0-1-1.2-2-3.2-2.6c-4.3-1.4-29.5-12.2-41.4-17.8
		c-5.2-2.5-13-6.1-17.2-8.1c-4.2-2-9.2-4.6-11-5.8c-1.8-1.2-8.4-4.7-14.6-7.7c-6.2-3-11.4-5.9-11.6-6.4s-0.8-0.7-1.4-0.5
		c-1.2,0.4-5.3-1.7-8.5-4.5c-7-6.1-26.3-18.4-39.7-25.2c-4.7-2.4-11.3-6.8-14.6-9.7c-3.3-2.9-7.2-5.9-8.7-6.7
		c-1.5-0.8-2.3-1.6-1.9-1.7c0.5-0.2,0-0.5-1-0.7c-1-0.2-2.5-1.3-3.4-2.5c-0.8-1.2-6.7-5-13.1-8.4c-6.5-3.5-14.3-8.7-17.7-11.8
		c-3.4-3.1-8.1-6.5-10.4-7.7c-4.6-2.4-18.6-12.1-22.6-15.7c-1.4-1.2-7.2-5.1-13-8.6s-11.3-7.2-12.3-8.3c-1-1.1-4.9-3.5-8.7-5.3
		c-3.7-1.9-9.8-5.2-13.4-7.4c-13.6-8.3-17.7-10.6-24.2-13.5c-3.7-1.7-6.9-3.5-7-4c-0.6-1.6-13.9-12.8-19.4-16.3
		c-2.8-1.8-6-4.1-7-5.2c-1-1.1-3.2-2.9-4.9-4.1c-1.7-1.1-4.4-3.5-6.1-5.2c-1.7-1.7-6-4.8-9.5-6.9c-3.5-2.1-9.9-6.9-14.1-10.8
		c-4.2-3.9-9.3-8.2-11.3-9.5c-6.6-4.3-15.8-12.1-27.7-23.6c-0.8-0.8-2.5-2.4-3.8-3.6c-4-3.9-5.6-3.5-8.1,1.8c-1.2,2.6-2.1,5-2,5.4
		c0.1,0.3-1.5,4.2-3.6,8.6c-2.1,4.4-3.7,9.2-3.6,10.7c0.2,1.5-1.2,5.9-3,9.8c-1.8,3.9-2.9,6.6-2.3,5.9s0.1,0.8-1,3.2
		c-1.1,2.4-2.4,6.4-3,8.9c-0.5,2.5-2.5,7.9-4.3,11.9c-5.1,11.5-7.6,18.6-7.7,21.9c-0.1,1.6-1.8,7-3.9,11.8c-2.1,4.9-3.7,9.2-3.5,9.6
		c0.2,0.4-0.2,2-0.9,3.5c-0.6,1.5-0.9,3.7-0.6,4.9c0.3,1.2-0.3,4.6-1.5,7.5c-1.1,2.9-1.9,5.8-1.7,6.3c0.2,0.5-0.2,1.8-0.9,2.8
		c-0.7,1-1.4,3.6-1.6,5.8s-0.9,4.9-1.5,6.2c-0.7,1.3-1.2,4.6-1.2,7.3c0,2.8-0.3,5.8-0.6,6.8c-0.3,1-1,7-1.5,13.3
		c-0.5,6.3-1.2,13.8-1.5,16.5c-0.3,2.8-0.4,7-0.2,9.4s-0.1,4.9-0.7,5.4c-0.6,0.5-1.1,2.7-1,4.8c0.1,2.1,0,4.5-0.3,5.2
		s-1.3,8.6-2.4,17.4c-1.1,8.8-2.6,19.8-3.4,24.5c-0.8,4.7-1.6,11.4-1.7,15c-0.1,3.6-0.4,7-0.7,7.7c-0.3,0.7-0.2,2,0.1,3
		c0.4,1-0.2,3.2-1.2,4.9c-1.1,1.9-1.6,5.1-1.4,8c0.2,2.7-0.1,6.5-0.9,8.5c-0.7,2-1.1,4.2-0.8,4.9s0,3.8-0.6,6.9
		c-1.5,7.9-3.4,26.7-3.3,31.7c0.1,2.3-0.7,6.2-1.8,8.6c-1,2.4-2.1,6.9-2.3,9.9c-0.2,3-1.2,12.8-2.1,21.7c-1,8.9-1.6,17.3-1.5,18.7
		c0.1,1.3,0.2,2.5,0.2,2.6c-0.3,7.4-0.2,14,0.3,15.2c0.3,0.9-0.5,4.5-1.8,8.1c-2.2,6-2.5,7.5-1.5,9.2c0.2,0.4-0.1,0.8-0.6,1
		c-0.5,0.2-0.6,0.7-0.1,1c0.5,0.4,0.6,1.1,0.2,1.5c-0.4,0.5-0.4,3.1-0.1,6c0.3,2.8,0.3,5.5-0.1,6c-0.4,0.5-0.9,2.7-1.1,4.9
		c-1.5,12.4-3.1,23.7-4,28c-0.6,2.7-0.9,5.3-0.8,5.7c0.6,1.7-0.5,13.1-1.3,13.4c-1.3,0.5-2.9,8.6-2.8,14.2c0.1,2.8-1,8.2-2.4,11.8
		c-3.1,8.3-6.2,20.9-6.4,26c-0.1,2.1-1.2,5.5-2.4,7.6c-1.2,2.1-2,5-1.7,6.7c0.6,3.8-2.1,7.5-6.7,9.1c-1.9,0.7-3.8,1.8-4.2,2.4
		c-0.4,0.6-4.2,2.6-8.5,4.4c-4.3,1.8-8.2,3.8-8.7,4.4C1531.3,2759.4,1525.9,2760.9,1524.4,2760.1L1524.4,2760.1z M2122.5,2347.9
		c-4.6-6.4-10.9-15.7-11.8-17.7c-0.8-1.7-12.1-17.6-19.9-27.9c-1.7-2.3-4-6.5-5.1-9.3c-1.3-3.4-3.4-6.6-6.1-9.5
		c-2.3-2.4-5.3-5.4-6.6-6.8s-2.7-3.3-3-4.2c-0.3-1-3.6-6.1-7.3-11.5c-5.4-8-13.6-21.5-17.5-28.7c-0.4-0.7-2-3.5-3.7-6.1
		c-1.6-2.6-3.7-5.9-4.6-7.4c-0.9-1.4-2.8-4.8-4.3-7.6c-1.5-2.7-3.4-5.7-4.4-6.6c-1-0.9-2.2-2.8-2.8-4.3c-0.5-1.5-3-5.4-5.4-8.8
		c-2.4-3.4-5.2-7.8-6.3-9.8c-1-2-2.3-4-2.9-4.5c-0.5-0.4-2.6-4.3-4.6-8.5c-2-4.3-4.8-9.5-6.2-11.6c-1.4-2.1-3.8-6.1-5.3-8.9
		c-1.5-2.8-3.2-5.4-3.7-5.8c-0.5-0.4-2.5-3.7-4.4-7.3s-4.9-8.6-6.8-11.1c-1.9-2.5-4.1-5.8-4.9-7.3c-0.8-1.5-2.4-4-3.4-5.7
		c-1.1-1.7-2.3-4.3-2.8-5.9c-0.5-1.6-2.7-5.6-4.9-8.8c-2.2-3.3-5.4-8.9-7-12.5c-1.6-3.6-3.8-7.3-4.7-8.1c-1-0.9-2.8-3.9-4.1-6.8
		c-2.3-4.9-3.8-7.8-11.5-21.5c-1.8-3.1-5.1-8.2-7.4-11.3c-4.8-6.4-7.3-12.2-5.5-12.9c0.8-0.3,0.8-0.5-0.1-0.8
		c-0.7-0.2-3.9-4.6-7.2-9.9c-3.3-5.3-6.4-10.3-7-11.3c-0.6-0.9-2.2-4.2-3.5-7.2c-2.6-6-5.8-11.9-7.4-13.8c-0.6-0.7-1.6-2.4-2.4-3.9
		c-4.5-9-6-11.7-7.5-13c-0.9-0.8-2.7-4-4.1-7.1c-1.3-3.1-3.6-7.6-5-10c-1.4-2.4-2.7-5.2-2.9-6.2c-0.4-2.3-5.3-10.8-8-13.7
		c-1-1.1-2.6-3.8-3.5-5.8c-2.8-6.6-7.7-16.3-9.6-18.8c-1-1.4-3.3-5.6-5.1-9.3c-1.8-3.7-4.9-9-7-11.6c-2.2-2.7-4.9-7.7-6.4-11.5
		c-1.4-3.7-3.2-7.3-3.9-8c-0.7-0.7-2.6-3.8-4.2-7s-3.4-6.3-4-6.9c-0.7-0.6-2.6-4.1-4.3-7.7c-1.7-3.6-4-7.7-5.1-9.2
		c-1.1-1.5-2.8-4.3-3.9-6.3c-1.1-2-3.8-5.3-6.1-7.4c-2.3-2.1-4.7-5.1-5.4-6.6c-1.9-4-6.1-9.8-8.2-11.5c-1.6-1.2-1.7-2.3-1.1-6.9
		c0.7-5,0.6-5.7-1.6-8c-3-3.3-3.5-4.5-3-9.1c0.3-3,0-3.9-1.3-4.7c-1.1-0.7-1.5-1.5-1.2-2.5c0.3-0.8,0-3.7-0.5-6.5
		c-0.6-2.7-0.8-5.8-0.4-6.8c0.4-1,0.6-4.2,0.6-7.2s0.4-6.5,1-7.9c0.6-1.4,0.9-3.1,0.7-3.6c-0.6-1.7,3.4-6.8,6-7.8
		c1.3-0.5,2.8-1.8,3.3-3c1.4-2.9,6.7-7.2,8.2-6.5c0.7,0.3,2.5,0.1,4.1-0.5c3.7-1.4,18.9-1.4,27.6-0.1c7.1,1.1,17.4,0.7,27.1-0.9
		c3.2-0.5,8.4-1.4,11.5-1.9c3.2-0.5,7.9-1.1,10.5-1.3c2.6-0.2,11.2-0.7,19.2-1.3c8-0.6,18.7-1.3,23.9-1.6c5.1-0.3,10.6-0.9,12.1-1.2
		c10.2-2.2,25-3.7,34.1-3.6c12.3,0.2,20.2-0.2,26.7-1.3c7-1.2,19.4-2.2,25.4-2c7.4,0.2,29.2-0.9,31.2-1.7c0.9-0.3,5.8-0.7,10.8-0.9
		c17.4-0.5,23.8-1.1,26.8-2.2c1.7-0.6,7.3-1.7,12.4-2.4s13.5-1.8,18.5-2.5c15.4-2.1,22.1-3,26.3-3.8c2.2-0.4,4.5-0.6,5.2-0.4
		s4.8-0.6,9.2-1.9c4.4-1.2,8.9-2.1,10.1-2c2.2,0.3,16.5-4.5,16.2-5.4c-0.5-1.4-6-4.5-15.7-8.9c-5.9-2.7-14.9-6.7-19.9-8.9
		c-5-2.3-10.8-4.7-12.8-5.4c-2-0.7-8.2-3.2-13.7-5.5c-5.5-2.3-14.9-5.1-20.9-6.2c-12.7-2.4-26.1-5.3-36.1-7.7
		c-8.3-2-20.3-3.7-21.9-3.1c-0.6,0.2-1.9-0.3-2.8-1.1c-0.9-0.8-3.8-1.6-6.5-1.8c-2.6-0.2-8.7-1.1-13.5-2c-4.8-0.9-10.6-1.8-13-1.8
		c-2.4-0.1-4.5-0.5-4.6-1c-0.3-0.9-13.4-2.4-16.1-1.8c-0.8,0.2-3.6-0.4-6.2-1.3c-2.6-0.9-6.5-1.7-8.8-1.8c-2.2-0.1-6-0.8-8.5-1.6
		c-5.6-1.8-11-2.5-13.3-1.7c-1,0.3-5.3-0.2-9.7-1.2s-8.3-1.7-8.7-1.6c-0.4,0.2-4-0.3-8-1.1c-4-0.7-9.6-1.4-12.6-1.6
		c-5.5-0.3-32.6-4.7-40.2-6.6c-2.3-0.6-4.5-0.9-4.9-0.8c-0.4,0.2-1.4,0-2.2-0.2c-3.7-1.3-15.9-3.8-16.9-3.4
		c-0.6,0.2-4.1-0.1-7.6-0.8c-3.6-0.7-10.9-2-16.4-3.1s-10.8-1.6-11.8-1.2c-1,0.4-2.6,0.2-3.5-0.3c-0.9-0.5-4.1-1.3-7-1.6
		c-7.2-0.8-31.8-6.5-37.3-8.6c-2.4-0.9-6.9-2.1-9.8-2.7c-4.1-0.7-6.4-1.9-9.5-5c-6.8-6.7-11.1-9.6-13-8.9c-0.4,0.2-1.2-0.9-1.7-2.3
		c-0.6-1.4-1.9-3.5-3.1-4.7c-5.5-5.9-5.8-6.5-7.4-14c-1.2-6-1.2-8.3,0.2-11.3c0.9-2.1,2.8-6.6,4.1-10.1c1.4-3.5,3-6.6,3.6-6.9
		c0.6-0.3,3.1-1.4,5.5-2.4c2.4-1,4.7-2.6,5.1-3.5c0.4-0.9,2.1-2.1,3.7-2.7c1.6-0.6,7-3.6,12-6.6c8-4.9,15-11,21.7-19
		c2-2.3,3.9-4,5-4.2c0.4-0.1,1.3-1.4,2.1-2.9c2.2-4.2,7.2-9,11.3-10.8c2.6-1.2,4.5-3.1,6.6-6.7c1.6-2.8,4.7-6.5,6.8-8.3
		c2.1-1.8,4.8-4.8,6.1-6.7c1.2-1.9,3.2-4.6,4.4-6.1c1.2-1.4,2.9-3.9,3.9-5.5c1.9-3.1,8.2-8.8,10.6-9.7c0.8-0.3,3.1-2.4,5.1-4.8
		c3.4-4,4.7-6,9.2-14.5c1.1-2.1,3.8-4.8,6.5-6.6c2.6-1.7,4.9-3.7,5.3-4.6c0.3-0.9,1.2-1.9,1.9-2.1c0.7-0.3,2.7-2.7,4.5-5.4
		c1.7-2.7,3.5-5,3.9-5.1c0.4-0.2,1-1.8,1.2-3.6c0.3-2.5,1.5-4,5.1-6.7c3.5-2.6,4.7-4.1,4.7-6c0-2.7,4.1-8.7,7.6-11.2
		c6.2-4.4,8.4-6.3,8.1-7c-0.2-0.5,0.9-2.2,2.3-4c1.4-1.7,2.4-3.6,2.2-4.2s0.3-1.9,1-3c0.8-1,1.2-2.4,1-3.1c-0.4-1.2,0.3-2.1,5.6-7.3
		c1.2-1.2,3.1-3.8,4.3-5.8c1.7-2.9,2.8-3.8,5.1-4.2c1.7-0.3,2.9-0.9,2.7-1.4c-0.2-0.5,1.5-3.4,3.8-6.5c2.2-3.1,4.9-6.7,5.8-8.2
		c0.9-1.4,2.7-3.5,3.9-4.6c1.2-1.1,2-2.7,1.7-3.5c-0.3-0.9,0.6-3.1,2.1-5.1c1.5-1.9,3.5-4.7,4.6-6.2s2.5-2.9,3.1-3.1
		c0.7-0.3,2-1.7,2.9-3.2c0.9-1.5,2.2-2.9,2.8-3.1c0.6-0.2,2.8-3.9,4.8-8.1c2.6-5.4,5-8.7,8-11.1c2.3-1.9,4.5-3.4,4.9-3.5
		c0.4,0,1.4-2,2.4-4.4c0.9-2.4,2.3-4.5,3.1-4.8s1.7-2,2-3.9c0.6-3.2,1.3-4.1,3.2-4.5c0.4-0.1,0.6-0.5,0.4-1s0.6-1.4,1.7-2.2
		c1.1-0.7,3.1-3.6,4.4-6.3c1.3-2.7,3.6-6.7,5-8.8c1.4-2.1,2.4-4.3,2.2-4.7c-1-2.7-20,3.1-34.5,10.6c-4.2,2.2-12,5.7-17.4,7.8
		c-16.9,6.8-43.6,18.3-48.3,20.9c-1.5,0.8-5.7,2.8-9.5,4.5c-3.8,1.7-13.4,6-21.4,9.6c-9.2,4.1-14.9,6.3-15.7,5.9
		c-0.8-0.4-2.7,0.4-5.2,2.2c-2.4,1.6-14.8,7-30.5,13.2c-14.6,5.7-30.3,12-34.8,14s-11.6,5-15.7,6.6c-4.1,1.7-13,5.4-19.9,8.3
		c-6.9,2.9-22.7,9.3-35.3,14.2c-12.6,4.9-24,9.6-25.5,10.4c-1.5,0.8-11.2,4.8-21.8,8.9c-10.9,4.2-22.9,9.5-28,12.4
		c-4.9,2.7-12.6,6.5-17.1,8.5s-11.3,5.2-14.9,7.2c-3.7,2-9.5,4.8-12.9,6.2c-3.4,1.4-6.9,3.4-7.7,4.3c-0.8,1-2,1.6-2.6,1.5
		c-1.3-0.3-10.7,5.2-15.4,8.9c-1.8,1.4-4.4,3-5.6,3.5c-10.2,3.7-36.5,15-42.5,18.3c-6,3.3-15.4,6.8-15.7,6c-0.2-0.4-0.6-0.4-0.9,0.1
		s-2.1,0.3-3.9-0.2c-2.6-0.9-3.9-0.7-7.2,1.1c-3.5,1.9-4.3,2-7.4,0.6c-1.9-0.9-5.2-1.7-7.3-1.8c-7.5-0.3-17.4-3.4-18.2-5.7
		c-0.4-1.2-1.3-2.4-2-2.7c-0.7-0.3-2.4-2.8-3.7-5.5c-1.4-2.7-3.1-5.6-3.7-6.4c-1.6-1.9-4.7-15.9-4.2-18.9c0.2-1.2-0.2-3.8-0.9-5.7
		c-0.7-1.9-1-4.9-0.8-6.8c0.2-1.9,0.1-4.5-0.4-5.7c-0.5-1.2-0.6-2.6-0.4-3.1c0.5-1.1,0.2-2.6-2-10.6c-1-3.5-2.1-8.6-2.5-11.3
		c-0.4-2.8-2.1-9.4-3.8-14.6c-3-9.4-5.3-20.5-4.6-22.8c0.6-2.2-0.4-7.2-3.6-18.9c-6.4-23.2-7.7-28.1-7.5-29.2c0.1-0.6-0.5-4-1.4-7.5
		c-0.9-3.5-1.9-7.7-2.3-9.3c-0.3-1.6-1.7-6.6-3-11.1c-1.3-4.5-2.4-9.7-2.5-11.7s-0.6-4.2-1.2-5.1s-1.4-4.3-1.7-7.6
		c-0.3-3.3-1.4-8.6-2.4-11.7c-1-3.2-2.4-9.6-3.2-14.3c-0.8-4.7-2.7-13.3-4.3-19.2c-1.6-5.9-3.4-13.6-4.1-17.1
		c-0.7-3.6-2.2-9-3.4-12.1c-1.2-3.1-4.9-13.9-8.4-24.1c-3.4-10.2-8.3-24-10.7-30.7c-4.8-13.1-5-13.6-8.2-23.6
		c-2-6.2-5.5-11.3-7.2-10.7c-0.4,0.1-1.9,1.9-3.3,3.9c-1.4,2-3.2,3.8-4,4.1c-0.8,0.3-2.5,2.8-3.9,5.6c-1.4,2.8-2.8,5.4-3.2,5.7
		s-3.5,6.3-6.9,13.3c-3.4,7-6.6,12.8-7,13c-0.4,0.2-0.8,1.2-0.7,2.3c0,1.1-0.7,2.7-1.7,3.4c-2.4,1.8-5.5,8.1-6.8,14
		c-0.6,2.6-2.5,7-4.2,9.6c-1.7,2.7-3.8,6.4-4.6,8.2c-0.8,1.8-2.5,4-3.8,4.8c-1.2,0.8-2.9,3.5-3.7,5.9c-0.8,2.4-2.7,6.8-4.2,9.8
		c-4.8,9.4-11.1,23.2-12.2,26.7c-0.6,1.8-2.4,5.5-4.1,8.2c-1.7,2.7-3.1,5.8-3,7c0.1,1.2-0.5,2.3-1.2,2.6s-1.7,2-2.2,4
		c-0.5,1.9-1.7,4.1-2.7,4.8c-2.1,1.7-5.6,8.4-19.4,38c-6,12.7-12,25.1-13.4,27.5c-5.7,9.6-7.3,13.2-7.3,15.9c0,1.6-1.2,4-2.7,5.6
		c-2.1,2.1-2.5,3.5-2.1,6.2c0.3,1.9,0,4-0.8,4.7c-0.8,0.6-2.8,3.7-4.5,6.8s-4.4,7-5.9,8.6c-1.5,1.6-4.1,5.8-5.8,9.4
		c-2.8,5.9-8.3,15.6-14.5,25.3c-3.4,5.3-8.5,14.5-10.4,18.5c-0.8,1.8-3.1,5.5-5,8.2c-1.9,2.7-3.7,5.5-3.8,6.2
		c-0.1,0.7-1.3,3.8-2.5,6.8c-1.2,3-2.3,6.8-2.4,8.5c-0.1,1.7-1.2,3.8-2.5,4.9c-2.6,2.1-8.8,11.1-15.9,23c-3.8,6.4-8.4,12.7-10,13.8
		c-0.2,0.2-2,3.6-3.9,7.6s-4.2,7.6-5,7.9c-2,0.7-8.2,7.4-7.7,8.2c0.6,0.9-4.4,7.7-9.1,12.3c-2.2,2.1-5.5,6.7-7.3,10.2
		c-3.3,6.2-4.7,8.1-11.4,15.4c-1.8,1.9-3.4,4.4-3.5,5.6s-1.6,3.1-3.3,4.4s-4,4.3-5.3,6.6c-2,3.7-4.8,6.7-11.1,12.1
		c-0.9,0.8-3.4,3.2-5.5,5.3c-2.7,2.7-6.3,5-11.7,7.4c-4.3,1.9-8.7,4.4-9.7,5.6c-1.7,1.8-2.8,2-8,1.7c-3.3-0.2-8.3-0.2-11.2,0.1
		c-6.9,0.7-13.3-1.1-17.6-4.7c-1.9-1.6-4.9-3.3-6.7-3.6c-5-1-9-5.4-12.7-14l-3.3-7.5l-4.4-0.1c-4.4-0.1-20.6,3.9-27.5,6.9
		c-2,0.9-6.9,2.1-10.7,2.7c-3.9,0.6-8.4,1.4-10.1,1.9c-1.7,0.4-3.6,0.7-4.3,0.5c-0.7-0.1-3.9,0.7-7.2,1.8c-3.3,1.1-6.5,1.9-7.2,1.7
		c-0.7-0.2-2.9,0.1-4.8,0.6c-2,0.6-3.7,0.7-3.8,0.3c-0.1-0.4-0.7-0.3-1.3,0.1c-0.6,0.5-5,2.8-10,5.2c-7.7,3.7-9.3,4.2-11.8,3.6
		c-2.1-0.5-3-0.3-3.5,0.8c-1,2.2-3.5,2.8-9.3,2.3c-2.9-0.2-7.2,0.3-9.9,1.2c-3.1,1.1-5.5,1.3-7,0.6c-1.6-0.8-3.8-0.5-7.8,1
		c-3,1.1-10.1,3.1-15.7,4.5c-5.6,1.4-11.2,2.9-12.4,3.5c-7.8,3.3-63.2,23.3-77.1,27.9c-30,9.8-32.2,10.5-33.4,10.2
		c-1.1-0.2-13.2,3.3-30.9,9c-4.5,1.4-12.3,3.8-17.4,5.2c-5.1,1.4-10.8,3.4-12.7,4.5c-1.8,1-4.9,2-6.9,2.2c-1.9,0.2-7.2,1.5-11.8,2.9
		c-25.9,8.3-38.1,11.9-39.8,11.7c-1.8-0.2-3.8,0.3-21.7,5.5c-4.2,1.2-12.4,3.5-18.2,5.1c-5.8,1.6-10.8,3-11.1,3.2
		c-0.5,0.3-5.9,1.8-20.5,5.6c-1.9,0.5-7.7,2.2-13,3.8c-5.3,1.6-10.7,3.1-12.1,3.3c-1.4,0.2-20.5,6.8-42.6,14.6
		c-34.9,12.3-40.2,14.5-41.4,16.3c-1.3,2.1-1.2,2.2,4.3,4.4c12.2,5,31.8,14,32,14.8c0.2,0.4,0.8,0.6,1.3,0.4c0.6-0.2,1,0.2,1.1,0.9
		c0,1.4,2.7,3,4.1,2.5c0.4-0.2,3.6,1,7.1,2.7c3.5,1.6,7.6,2.8,9.1,2.6c1.5-0.2,5.1,0.8,7.9,2.2c2.8,1.4,7.8,3.5,11,4.7
		c3.3,1.1,12.4,4.7,20.4,7.8c7.9,3.2,17.4,6.6,21,7.7c3.6,1.1,9.4,3,12.8,4.4c9.6,3.8,12.2,4.7,15.3,5.4c1.6,0.4,5.4,1.7,8.6,3
		c3.1,1.3,8.4,3.2,11.7,4.2c3.3,1,10.5,4.1,16,6.8c5.5,2.7,10.5,4.8,11.1,4.6c0.6-0.2,5.4,1.4,10.7,3.7c5.3,2.2,10.9,4.3,12.5,4.7
		s4.9,1.6,7.4,2.8c2.5,1.2,7.8,3.2,11.8,4.4c4,1.3,8,2.7,9,3.3c1,0.6,3.6,1.2,5.8,1.4c2.2,0.2,9.8,3.2,16.9,6.6
		c7.1,3.4,13.4,6,14,5.8c0.6-0.2,3.8,0.8,7.2,2.1c3.4,1.4,7.9,2.7,10,3c2.1,0.3,4.2,0.6,4.6,0.8c0.9,0.5,20,6.5,23.3,7.3
		c4.9,1.2,21.4,8.5,23.9,10.5c1.7,1.3,4,1.9,6.5,1.7c2.3-0.2,7.8,1,12.7,2.8c4.8,1.8,9.2,3,9.8,2.8c0.5-0.2,2.6,0.5,4.6,1.6
		c2,1.1,5.5,2.2,7.7,2.5s4.8,0.8,5.8,1.3c4,1.8,10.5,3.4,11.8,2.9c0.8-0.3,3.5,0.6,6,2s6,2.6,7.7,2.7c1.8,0.1,4.9,0.8,7,1.5
		c2.1,0.7,6.3,1.7,9.3,2.3c3.1,0.5,9.6,2.1,14.5,3.5c9.2,2.6,18.4,4.9,23.5,5.8c6.5,1.1,10.7,2.2,17.6,4.2c4,1.2,8.1,2.3,9.1,2.5
		c1,0.2,5.4,1.4,9.8,2.5c4.4,1.2,8.4,2,8.9,1.8c0.5-0.2,3.4,0.6,6.4,1.6c6.7,2.4,12,3.7,17.1,4.3c2.1,0.2,7.4,1.2,11.6,2.2
		c4.2,1,8.3,1.5,9,1.3c0.7-0.3,4.6,0.8,8.7,2.3c4,1.5,10,2.9,13.3,3.2c3.3,0.2,10.6,1.6,16.3,3c5.7,1.4,11.1,2.2,12.1,1.9
		c2.2-0.8,5.3-0.6,11.5,0.5c6.1,1.2,15.1,2.1,18.2,1.9c1.4-0.1,4.6,0.8,7.2,2c2.6,1.2,7,3.1,9.9,4.2c3.5,1.4,5.5,2.9,6.1,4.5
		c0.5,1.3,2.3,3.1,4.1,4c1.8,0.9,3.5,2.3,3.8,3.1c0.3,0.8,1.5,3.7,2.7,6.5c1.4,3.3,2,6.4,1.8,8.9c-0.2,2.1,0.4,6.9,1.4,10.7
		c1.5,5.7,1.5,7.4,0,10.7c-0.9,2.1-1.4,4.6-1.1,5.6c0.3,0.9-1.4,5.7-3.8,10.7c-3.9,8-5,9.3-9.4,12c-2.8,1.7-4.9,3.4-4.7,3.9
		c0.2,0.4-0.3,1-1,1.3c-0.7,0.3-1.3,1-1.3,1.7c0,0.8-2.6,2.2-6.9,3.9c-5.5,2.1-7.7,3.5-10.7,6.9c-2.1,2.3-6.9,6.8-10.7,10.1
		c-3.8,3.2-7.5,6.6-8.2,7.4s-2.1,1.8-3,2.1s-3.4,3-5.5,5.8c-2.1,2.9-5,5.9-6.3,6.7c-1.3,0.8-2.3,1.9-2.2,2.3c0.2,0.5-0.1,1-0.6,1.2
		c-0.5,0.2-3.2,2.6-5.9,5.3c-2.7,2.8-5.3,5.1-5.8,5.3c-0.8,0.3-6.9,6.5-22,22.5c-3.6,3.8-7.9,7.7-9.6,8.8c-1.7,1-3.5,2.6-4,3.6
		c-0.5,0.9-2.8,3-5,4.5c-2.2,1.6-4.1,3.2-4.2,3.7c-0.3,1.5-12.9,14-19.5,19.4c-2.3,1.8-5.2,4.3-6.5,5.6c-1.3,1.2-4.4,4-6.8,6.2
		c-2.4,2.2-6.2,5.8-8.4,8c-2.2,2.2-4.6,4.2-5.5,4.5c-0.8,0.3-1.6,1-1.7,1.5c-0.1,0.5-2.3,2-4.8,3.3c-3.2,1.6-5.6,3.8-7.8,7.1
		c-1.8,2.6-6.6,7.4-10.7,10.5c-4.1,3.2-8.2,6.7-9.1,7.9c-0.9,1.2-1.7,1.8-1.9,1.4c-0.1-0.4-0.8,0.2-1.4,1.3s-2.6,3.2-4.4,4.6
		c-1.8,1.4-4.6,3.8-6.1,5.2c-2.9,2.8-3.4,3.2-5,4c-0.5,0.3-0.6,0.8-0.1,1.2s-0.6,1.6-2.4,2.6c-1.8,1.1-4.6,3.3-6.2,5
		s-3.2,3.1-3.6,3.1c-0.4,0.1-1.8,1-3,2.2c-1.2,1.1-2.8,2.2-3.4,2.5c-0.6,0.2-1.4,1-1.8,1.7c-0.3,0.7-1.8,1.8-3.3,2.5
		c-1.5,0.7-4.2,3.2-6.1,5.5c-1.9,2.3-7.5,7.9-12.5,12.4c-5,4.5-10.8,9.8-12.9,11.7s-6.1,4.8-8.8,6.4c-2.7,1.6-6.2,4.2-7.7,5.8
		c-1.5,1.6-4.1,3.7-5.8,4.7c-4.5,2.7-16.2,14.2-15.5,15.1c0.4,0.4,3,0,5.8-0.9c2.9-1,5.7-1.6,6.3-1.5c1.4,0.3,20.7-4.7,32.1-8.3
		c4.7-1.5,9.3-2.7,10.2-2.8c2,0,15-3.7,29-8.3c6.1-2,13.3-3.7,16.1-3.9c2.9-0.2,5.5-0.8,6.1-1.6c0.6-0.7,2.7-1.4,4.7-1.6
		c2-0.2,5.1-1,6.8-1.9c1.8-0.9,4.4-1.6,5.9-1.6c1.5,0,7.4-1.5,13.1-3.4c13.1-4.3,26.7-7.8,32.1-8.2c2.3-0.2,10.6-2.4,18.4-5
		c7.8-2.6,17.6-5.4,21.7-6.3c4.1-0.9,12-2.9,17.7-4.5c5.7-1.6,10.8-2.7,11.4-2.6c0.6,0.1,4.3-0.7,8.2-1.8s8.5-2.1,10.2-2.2
		c1.7-0.1,4.8-0.6,6.7-1.2c2-0.6,3.7-0.8,3.8-0.6c0.1,0.3,2.2-0.3,4.6-1.2c2.4-0.9,7.3-2.3,10.8-3.1c3.5-0.8,9.4-2.4,13.1-3.5
		c7-2.1,11.6-3.2,19.2-4.3c2.5-0.4,8-1.7,12.3-2.9s10.3-2.5,13.4-2.8c3.1-0.3,9.3-1.7,13.7-2.9c4.4-1.3,12-2.8,16.8-3.3
		c4.8-0.6,11.9-1.7,15.7-2.6c3.9-0.8,13.1-1.9,20.6-2.3c7.5-0.4,17.2-1.4,21.6-2c4.4-0.7,8.7-1,9.5-0.7c0.8,0.3,4.3,0,7.8-0.7
		c3.5-0.7,7.8-1.1,9.6-1c1.8,0.1,6.4-0.3,10.3-1c3.8-0.7,11.1-1.1,16.1-1c5,0.2,10.9-0.2,13-0.8s4.8-1,6-1c1.2,0,5,0,8.5,0.1
		c9.8,0.1,13.4-0.1,15.5-0.9c1.1-0.4,2.8-0.1,3.8,0.7c1,0.8,2.9,1.1,4.1,0.6c1.2-0.4,3.6-0.4,5.3,0.2c2.3,0.8,4.5,0.5,9-1.2
		c5.9-2.1,6-2.1,13,0.8c3.9,1.7,8.5,3.3,10.3,3.6c2,0.3,4.3,1.8,5.8,3.7c1.4,1.7,4,3.9,5.9,4.8c3,1.5,3.4,2.1,4.4,6.4
		c0.6,2.6,0.9,6.8,0.7,9.2c-0.2,2.4,0.7,8.6,1.9,13.7c3.5,14.6,4,17.1,3.9,18.8c0,0.9,0.6,3.8,1.5,6.4c2,5.9,6,21,5.8,22
		c-0.1,0.4,0.9,4.4,2.2,8.8s2.5,9.6,2.8,11.6c0.2,2,0.7,4.2,1,5c2.3,6.3,7.2,23.5,7.7,27.2c0.7,5.2,6.1,23.6,9.4,31.9
		c1.4,3.6,2,6.6,1.6,9c-0.4,2.9,0.8,7.5,6.4,24.5c3.8,11.5,9.1,26.6,11.9,33.5c2.7,6.9,5.8,14.9,6.9,17.7c1.1,2.8,3.5,8.2,5.5,11.8
		c2,3.7,6.5,14.2,10.2,23.4c3.6,9.2,10.1,24.3,14.4,33.6s9,19.7,10.6,23.3s3.6,7.8,4.5,9.5c1,1.7,3.6,7.7,5.9,13.3
		c2.3,5.6,4.7,11,5.3,11.9c1.8,2.8,7.4,14.2,7.8,15.9c0.2,0.9,1.2,2.5,2.2,3.7c2.2,2.5,5,1.9,6.2-1.3c1.3-3.4,3.2-16.8,2.5-18.6
		c-0.3-0.9-0.1-3.6,0.4-6.1c0.5-2.5,0.7-4.6,0.3-4.8c-0.4-0.2-0.3-0.8,0.2-1.4c0.6-0.8,0.8-0.6,0.6,0.5c-0.3,1.4-0.1,1.3,0.8-0.2
		c0.6-1,0.8-3.5,0.5-5.5c-0.8-4.9,0-11.5,2.2-17.1c1-2.5,1.7-7,1.5-10.2c-0.1-3.1,0.4-6.8,1.2-8.3c1.5-2.9,4.7-29.6,3.8-32
		c-0.3-0.8-0.3-1.9,0.1-2.3c0.3-0.4,0.4-3.6,0.1-7c-0.3-3.4,0.1-7.8,0.8-9.7s1.1-4.8,1-6.3c-0.2-1.6,0.7-4.8,1.8-7.2
		c1.5-3.1,1.8-4.9,0.9-6.1c-0.7-0.9-0.8-1.9-0.3-2c1.1-0.4,2.1-13.4,1.3-18c-0.3-1.9-0.1-3.9,0.5-4.4c1.3-1.1,4-18.4,3.5-22.4
		c-0.2-1.5,0.5-4.5,1.6-6.7s1.7-4.8,1.4-6s0.7-4.3,2.1-7c1.4-2.9,2.2-5.9,1.8-7.2c-0.4-1.3-0.3-4.1,0.1-6.3s1.3-8.8,2-14.6
		c0.7-5.8,1.4-11.1,1.7-11.8c0.3-0.7,0.3-1.9,0-2.7c-0.9-2.4,0.9-15.6,3.1-23.6c0.6-2.3,0.9-4.3,0.7-4.5s0.4-0.8,1.4-1.4
		c1-0.6,1.9-2.5,2-4.5c0.1-1.9,1.4-6.1,2.9-9.2c1.5-3.3,2.5-7.1,2.3-8.8c-0.3-1.7,0.1-4.2,0.7-5.6c1.1-2.3,3.3-10.7,5.5-21.1
		c0.4-2,2.4-7.1,4.4-11.4c2-4.2,4.4-10.3,5.5-13.4c1.1-3.1,2.8-6.1,3.9-6.7c1.2-0.7,2.3-2.8,2.7-5.6c1.3-8.4,3.8-14.7,6-15.5
		c0.7-0.2,1.5-1.9,1.9-3.6c1-4.5,2.3-8.1,6.1-16.9c1.8-4.2,3-7.9,2.6-8.1c-0.4-0.2,0.4-2.1,1.9-4.3s2.8-4.7,2.9-5.6
		c0.2-0.9,0.9-2.8,1.6-4.3c0.7-1.5,1.1-3,0.8-3.4c-0.3-0.3,0.1-0.7,0.8-0.8c0.7-0.1,1-0.7,0.6-1.3s0-1.3,0.7-1.6
		c0.8-0.3,2.5-3,3.9-6c5-10.8,14.7-34.7,14.4-35.5c-0.2-0.4,0.7-2,1.9-3.5c2.1-2.6,2.6-6.9,0.8-8.3c-0.5-0.4,0.7-1.6,2.7-2.7
		c2-1.1,3.6-2.7,3.6-3.5c0-1.4,2.9-4,5.9-5.3c0.8-0.3,1.1-1.9,0.8-3.6c-0.5-3-0.5-3,1.6-1.5c3,2.1,5.9,1.3,7.7-2.2
		c0.8-1.6,2.2-3,3.1-3c0.9,0,10.4-3.1,21-6.7c10.7-3.7,20-6.7,20.8-6.8c2.7-0.3,15.5,12.9,17.3,17.9c0.4,1,1.9,3,3.4,4.4
		c5,4.7,5.5,5.2,6.1,7.1c0.4,1,1.2,1.9,1.8,2.1c0.6,0.1,1.6,1.5,2.2,3.1c0.6,1.6,2.2,3.7,3.7,4.7c1.5,1,3.3,2.7,4,3.6
		c0.8,1,2.2,2.1,3.2,2.4c1,0.3,2.1,1.4,2.4,2.3c0.6,1.6,9.6,11.9,12.9,14.7c0.8,0.7,1.7,1.7,1.9,2.2c0.4,1,17.2,17.8,21,21.1
		c1.2,1,5.6,5.2,9.8,9.2c4.2,4,8.4,7.8,9.3,8.3c1,0.5,5.5,4.4,10.1,8.5c13.4,12.2,32.2,26.7,39.5,30.6c3.7,2,8.7,5,11.2,6.7
		c2.5,1.7,6.4,4.1,8.8,5.3c4.1,2.1,14.2,8.3,19,11.8c1.2,0.8,5.1,3.4,8.7,5.6s6.7,4.4,6.8,4.7s2.5,2,5.3,3.6
		c2.8,1.6,8.3,5.4,12.3,8.3c10.3,7.7,10.8,8,25.9,18.5c7.5,5.2,13.8,9.7,13.9,10c0.2,0.5,7.9,6.3,14,10.4c2,1.3,5.5,3.4,7.9,4.6
		c2.4,1.2,7.2,4.2,10.7,6.7c3.5,2.5,8.5,6,11,7.7c2.5,1.7,9.9,7.1,16.3,11.9c6.5,4.8,13.8,9.8,16.3,11.1c2.5,1.3,7.6,4.6,11.3,7.3
		c3.7,2.7,9.7,6.5,13.2,8.3c3.5,1.9,9.3,5.2,12.9,7.5c3.6,2.3,14.7,8.1,24.8,12.9c10.1,4.8,23.9,11.7,30.7,15.3
		C2121.8,2355,2128.4,2355.9,2122.5,2347.9L2122.5,2347.9z"/>
</g>
</svg>
