<?xml version="1.0" encoding="utf-8"?>
<!-- Generator: Adobe Illustrator 25.4.1, SVG Export Plug-In . SVG Version: 6.00 Build 0)  -->
<svg version="1.1"
	 id="svg162" inkscape:version="1.1 (c4e8f9e, 2021-05-24)" sodipodi:docname="buty.svg" xmlns:inkscape="http://www.inkscape.org/namespaces/inkscape" xmlns:sodipodi="http://sodipodi.sourceforge.net/DTD/sodipodi-0.dtd" xmlns:svg="http://www.w3.org/2000/svg"
	 xmlns="http://www.w3.org/2000/svg" xmlns:xlink="http://www.w3.org/1999/xlink" x="0px" y="0px" viewBox="0 0 3456 4608"
	 style="enable-background:new 0 0 3456 4608;" xml:space="preserve">
<sodipodi:namedview  bordercolor="#666666" borderopacity="1.0" id="namedview164" inkscape:current-layer="g168" inkscape:cx="1730.0794" inkscape:cy="2304" inkscape:pagecheckerboard="0" inkscape:pageopacity="0.0" inkscape:pageshadow="2" inkscape:window-height="776" inkscape:window-maximized="0" inkscape:window-width="1365" inkscape:window-x="0" inkscape:window-y="25" inkscape:zoom="0.12022569" pagecolor="#ffffff" showgrid="false">
	</sodipodi:namedview>
<g id="g168" inkscape:groupmode="layer" inkscape:label="Image">
	<path id="path601" d="M2548.6,3062.1c-2.5-0.5-8.2-1-12.7-1.1c-8-0.2-8.3-0.3-11.1-3.6c-2.6-3.1-3.2-3.3-7.1-2.8
		c-3.4,0.5-4.4,0.2-4.8-1.1c-1-3-3.6-5.2-5.3-4.7c-1,0.3-2.6-0.5-4-2c-1.3-1.4-3.1-2.5-4-2.5c-2.5,0-18.7-5.7-21.2-7.4
		c-1.2-0.9-3-1.6-4-1.6s-1.8-0.4-1.8-0.8c0-1.3-9.4-5.4-11.6-5c-1.4,0.2-1.9-0.2-1.9-1.7c0-1.4-1.7-2.9-6.3-5.2
		c-3.5-1.7-7.8-3.4-9.5-3.8c-1.7-0.3-4.3-1.2-5.7-2c-4.6-2.6-11.2-5.6-12.5-5.6c-0.7,0-3.1-1.3-5.3-3c-2.3-1.6-5.6-3.2-7.4-3.6
		s-4.4-1.7-5.8-3c-1.4-1.3-3.3-2.4-4.2-2.4c-3.7,0-13.3-5.1-14.9-7.9c-1-1.7-3.9-4-7.3-5.6c-3.1-1.5-5.9-3.1-6.1-3.5
		s-2.7-1.1-5.5-1.5c-2.7-0.4-5-1.1-5-1.6c0-1.5-4.7-2.2-6.9-1c-1.7,0.9-2.2,0.8-2.7-0.3c-0.7-1.7-6.2-3.9-7.7-2.9
		c-0.6,0.4-0.8,0.2-0.4-0.4c0.9-1.4-2.9-4.7-4.7-4c-0.8,0.3-2-0.1-2.7-0.9c-0.7-0.8-1.8-1.4-2.6-1.4c-1.6,0-10.9-5.5-14.4-8.5
		c-4-3.5-10.2-6.7-12-6.2c-0.9,0.2-3.4-1-5.5-2.9c-2.1-1.8-6.6-4.8-9.9-6.5s-7.6-4.5-9.5-6.1c-5.2-4.5-20.8-11.7-25.2-11.7
		c-2.1,0-4.4-0.6-5.1-1.4c-0.8-0.8-2.5-1.7-3.8-2.1c-3.5-1.1-12.6-6.3-14-8c-0.7-0.8-1.7-1.5-2.3-1.5c-0.6,0-2.3-0.6-3.7-1.4
		c-1.4-0.7-4.2-1.7-6.1-2c-2-0.4-4.7-1.6-6.1-2.7c-1.4-1.1-4.6-2.4-7.1-2.9s-5.4-1.6-6.4-2.5c-1-0.9-3-1.6-4.5-1.6
		c-1.5,0-3.7-0.5-4.9-1.2c-3.6-2-9-3.7-11.6-3.8c-2.2,0-6.4-1.9-25.4-11.1c-3.2-1.6-6.9-2.9-8.1-2.9c-2.5,0-9.2-2.5-11.3-4.3
		c-1.5-1.2-11-4.6-13.1-4.7c-0.8,0-4.8-1.3-9-2.9c-14.1-5.3-17.9-6.3-21.1-5.6c-2.6,0.6-3.2,0.3-3.6-1.3c-0.6-2.2-3-3.2-8.3-3.2
		c-1.9,0-4.2-0.7-5.1-1.5c-0.9-0.8-4.6-2-8.1-2.6c-3.5-0.6-7.8-2-9.6-3c-1.7-1.1-5.6-2.2-8.5-2.5c-2.9-0.3-9.1-2.1-13.8-4
		c-4.7-1.8-9.2-3.3-10.1-3.3s-1.9-0.3-2.3-0.7c-1.4-1.4-8.2-3.3-9.9-2.7c-1,0.3-2.3,0.2-3-0.3s-3-1.5-5.2-2.2
		c-2.2-0.7-5.6-2.4-7.5-3.6c-2.3-1.4-6.5-2.6-12-3.3c-6-0.8-10.3-2-14.5-4.2c-4.1-2.1-7.3-3.1-10.2-3c-2.5,0.1-4.6-0.5-5.4-1.4
		c-0.7-0.8-4.4-2.4-8.3-3.5c-3.9-1.2-8.2-2.8-9.4-3.6c-1.3-0.8-5.1-2.1-8.5-2.8c-3.4-0.7-7.8-1.9-9.7-2.6c-14.3-5-20.9-7-32.8-9.9
		c-4.5-1.1-9.3-2.7-10.5-3.5c-1.2-0.8-3-1.5-3.9-1.5c-1,0-5.7-1.4-10.5-3c-11.1-3.8-21.8-7-23.9-7c-0.9,0-2.9-0.9-4.5-2.1
		c-2.1-1.5-3.7-1.9-5.8-1.5c-2.2,0.5-3.6,0-6-2c-1.7-1.5-3.5-2.4-3.8-2c-0.3,0.3-1.3,0-2.2-0.7c-0.9-0.7-3.6-1.9-6.1-2.7
		s-4.9-1.7-5.4-2.2s-2.4-0.8-4.2-0.8c-1.8,0-3.5-0.4-3.8-1c-0.3-0.5-2.1-1.7-4-2.6c-2.7-1.3-3.7-1.4-5.3-0.4c-2.5,1.6-6.9,0.5-7.7-2
		c-0.6-1.9-7.5-5.1-10.9-5.1c-4.8,0-27.9-7.5-29.7-9.6c-0.6-0.7-2.8-1.7-4.8-2s-4.5-1.3-5.6-2c-1.1-0.7-3.6-1.4-5.6-1.4
		c-2,0-6.3-1.3-9.5-2.9c-5.7-2.8-15.8-6.7-19.9-7.7c-7.7-1.8-16.2-5-17.5-6.5c-2-2.3-9-5.9-11.6-5.9c-1.1,0-3.9-1.3-6-3
		c-2.2-1.6-4.8-3-5.9-3s-3.1-0.7-4.5-1.5c-1.4-0.8-3.3-1.4-4.3-1.5c-1,0-5-1.6-8.9-3.5s-8.1-3.5-9.4-3.5c-2.6,0-20.8-9.2-28.3-14.4
		c-2.8-1.9-6.5-3.8-8.3-4.2c-1.8-0.4-5.7-2-8.8-3.5c-3-1.6-7.5-3.8-10-4.9s-7.4-3.7-11-5.6c-3.6-2-9.2-4.6-12.6-5.8
		s-7.1-3.2-8.2-4.4s-2.7-2.1-3.4-2.1c-1.5,0-7.1-2.8-10.7-5.3c-1.4-1-4.3-1.7-6.6-1.7c-2.9,0-4.7-0.6-6-2.1
		c-2-2.2-10.5-6.9-12.5-6.9c-0.6,0-3.6-1.6-6.5-3.5c-4.1-2.7-5.9-3.4-7.9-2.9c-1.9,0.5-3.2,0.1-4.8-1.4c-2.8-2.6-12.9-7.2-15.7-7.2
		c-1.2,0-7-2.3-12.8-5.1c-5.9-2.8-14.5-6.9-19.1-9.1s-9.6-4.6-11-5.3c-1.4-0.7-4.2-1.7-6.3-2c-2.1-0.4-4-1.1-4.3-1.6
		c-0.3-0.5-3.2-0.9-6.4-0.9c-4.4,0-6.5-0.5-8.4-2.1c-2.7-2.1-26.9-13.9-28.5-13.9c-0.5,0-1.4-0.7-2.1-1.5c-0.7-0.8-2.9-1.8-4.9-2.1
		c-2-0.4-5-1.6-6.6-2.8c-1.7-1.2-4.6-2.8-6.5-3.5c-1.9-0.7-4.2-2-5.1-2.7c-1.4-1.2-6.7-3.1-18.4-6.6c-2.2-0.7-5.3-2.2-7-3.4
		c-5-3.6-9.2-5.4-12.8-5.4c-2.1,0-4.1-0.7-5.1-1.9c-1-1.1-4.7-3.2-8.4-4.7c-3.7-1.5-7.8-3.5-9.2-4.4c-3.3-2.2-13.7-6.9-15.4-6.9
		c-1.8,0-12.6-4.4-23.1-9.4c-4.9-2.4-11.5-5.1-14.5-6.1c-3-1-7-2.4-8.8-3.1s-3.9-1.4-4.6-1.4c-0.7,0-3.6-1.6-6.4-3.5
		s-5.8-3.5-6.6-3.5c-0.8,0-3.2-0.9-5.3-2s-4.3-2-5-2c-1.2,0-4.5-1.3-15-6.1c-2.4-1.1-5.1-1.9-6-1.9s-5.4-1.5-9.9-3.4
		c-8.1-3.4-9.2-3.9-15-6.9c-1.7-0.9-4.3-1.6-5.8-1.6s-4.3-0.7-6.3-1.5c-2-0.8-5.3-1.6-7.2-1.7c-2-0.1-4.9-1.1-6.6-2.5
		c-1.7-1.3-4-2.3-5.1-2.3s-5.8-2-10.6-4.5s-9.4-4.5-10.4-4.5c-1,0-3.8-1.1-6.2-2.5c-2.4-1.4-5-2.5-5.7-2.5c-1.7,0-9.9-2.7-14.1-4.6
		c-1.7-0.8-3.6-1.4-4.3-1.4c-2.8,0-18.5-6.2-20-7.8c-1.8-2.1-7.3-4.2-10.8-4.2c-1.3,0-2.4-0.4-2.4-1s-1.2-1.3-2.8-1.6
		c-1.5-0.4-3.2-1-3.8-1.4c-0.5-0.4-6.4-2.9-13-5.5s-14.1-5.8-16.6-7.1s-5.9-2.4-7.5-2.4c-1.6,0-4.7-1.1-6.9-2.5s-4.7-2.5-5.6-2.5
		c-1.9,0-21.1-8.8-35.1-16c-5.3-2.7-10.3-5-11.1-5c-1.4,0-16.3-7.4-18.4-9.2c-0.7-0.5-1.8-1.1-2.5-1.2s-2.4-1-3.8-1.9
		c-1.4-0.9-3-1.7-3.7-1.7s-5.7-2.3-11-5s-11.6-5.7-13.8-6.5s-5.6-2-7.6-2.7c-2-0.7-4.3-1.8-5-2.5s-4.3-1.9-7.9-2.9
		c-4.9-1.3-7.3-2.6-10-5.4c-4.7-5-18.4-11-25.1-11c-1.4,0-3.8-0.9-5.2-2c-1.4-1.1-2.9-2-3.2-2s-2.8-1.8-5.3-4.1
		c-5.1-4.5-11.4-7.9-14.5-7.9c-1.8,0-11.2-3.9-14.7-6c-0.8-0.5-3.5-1.9-6-3c-2.5-1.2-7.2-3.4-10.5-5c-3.3-1.6-7.3-2.9-8.8-2.9
		c-1.5,0-6.9-2-12.1-4.5s-10-4.5-10.9-4.5c-0.9,0-1.9-0.4-2.2-0.9c-0.3-0.5-2.5-1.9-4.8-3.1c-2.3-1.2-5.4-2.8-6.8-3.6
		c-1.4-0.8-4.3-1.4-6.5-1.5c-2.2,0-5.3-0.7-6.9-1.5c-1.6-0.8-3.7-1.5-4.8-1.5c-2.4,0-9.4-7.1-8.1-8.4c1-1-1.9-3.6-4.1-3.6
		c-2.8,0-9.4-2.3-10.9-3.8c-0.6-0.6-1.8-1.2-2.5-1.2c-2,0-9.3-3.9-9.3-5c0-0.5,0.5-1,1-1c2.1,0-0.9-3.5-4.7-5.5
		c-5.7-3-9.3-5.7-9.3-7.2c0-1.4-5.4-6.8-11.4-11.7c-2-1.6-3.6-3.7-3.6-4.9c0-1.1-0.7-2.9-1.6-3.8c-0.9-1-1.7-3.9-1.9-6.5
		c-0.3-3.8-0.9-5.3-2.9-6.9c-2.2-1.8-2.6-2.9-2.6-7.1c0-4-0.6-6-3-9.5c-3.2-4.7-3.5-6-2.1-8.7c2.8-5.6,3.5-7.7,3.3-10.4
		c-0.3-3.5,3.4-14.3,5.4-15.9c0.8-0.6,1.4-2.8,1.4-4.8s0.6-4.5,1.4-5.6c0.7-1.1,1.9-3.8,2.6-6s1.8-4.7,2.5-5.5
		c1.4-1.7,3.7-8.4,4.1-12c1-9.6,1.8-13.7,2.9-15c2.6-3.1,11.5-24.1,11.5-27.1c0-1.1,0.4-2.8,0.9-3.7s1.1-3.5,1.4-5.7s1-6.6,1.7-9.9
		s1-8.3,0.8-11.2c-0.4-4.8-0.2-5.2,1.9-5.8c1.3-0.3,2.3-1,2.3-1.5c0-0.5,1.3-2.5,3-4.4c1.6-1.9,3-4,3-4.8c0-1.4,5.4-12.4,7.2-14.6
		c0.6-0.7,1.2-2.9,1.3-4.9c0.2-2,0.8-4.1,1.4-4.7c0.6-0.6,1.1-1.9,1.1-3s0.6-2.7,1.4-3.6c8.5-9.3,10.6-12,10.6-13.6
		c0-1,0.9-3.2,1.9-4.9c1.1-1.7,2.2-4.3,2.4-5.6c0.8-4.3,1.7-5.7,5.6-8.8c2.7-2.1,3.7-3.7,3.4-4.9c-0.3-1,0.2-2.4,1.1-3.1
		c0.9-0.7,1.6-2.3,1.6-3.5c0-2.5,2.6-6.6,4.2-6.6c0.6,0,4.4-3.4,8.5-7.5c5.1-5.2,7.6-8.5,8-10.8c0.4-2,2.2-4.7,4.5-6.9
		c2.1-2,3.8-4.5,3.8-5.6s1.4-4.1,3.1-6.8c3-4.7,7.4-14.5,6.5-14.5c-1.4,0,1.9-5.9,3.9-7c2.3-1.2,3.5-5.1,3.6-11.2
		c0-1.5,1.1-3.8,2.5-5.2c1.7-1.7,2.5-3.6,2.5-6c0-2.7,0.7-4.2,3-6.2c3.2-2.8,4.9-8.6,3.2-10.6c-1.2-1.5,1.8-5.7,4.1-5.7
		c0.9,0,2-1.6,2.7-3.7c1.6-4.8,6.7-15.1,9.2-18.5c1.1-1.5,1.7-3.1,1.4-3.6c-0.3-0.5,1.7-3.3,4.4-6.1c2.7-2.9,4.9-6.1,4.9-7.1
		s0.7-2.4,1.5-3.1s1.5-1.9,1.5-2.7c0-2.5,3.8-9,6.7-11.5c4.1-3.5,5.3-5.3,5.9-8.5c0.3-1.6,1.2-3.2,1.9-3.6c0.8-0.4,1.4-1.4,1.4-2.2
		c0-1.9,7.2-12.6,10.4-15.2c1.4-1.2,3.3-3.7,4.1-5.5c0.8-1.8,1.9-4,2.4-4.8s2.1-4,3.5-7.1c1.4-3.1,4.4-7.5,6.6-9.8c3-3.2,4-5,4-7.5
		c0-3.5,2.1-6.2,5.5-6.8c2.2-0.4,7.3-9.8,7.5-13.7c0-1.5,1.8-4,4.5-6.5c3.2-3,5.5-6.5,8.1-12.6c2-4.7,4.4-9.4,5.4-10.5
		c3-3.5,3.3-4.6,1.6-6.4c-1.5-1.7-1.4-1.9,1.7-4c3.4-2.4,9.5-11.3,9-13.5c-0.1-0.7,0.6-2.1,1.8-3.1s2-2.4,2-3c0-0.7,0.7-1.8,1.5-2.5
		s1.5-2,1.5-2.9s1.1-3.2,2.5-5.1s2.5-4.4,2.5-5.6s0.7-2.7,1.5-3.4s1.5-2.5,1.5-4c0-1.8,0.8-3.1,2.2-3.9c2.3-1.2,2.9-2.3,8.1-12.8
		c1.6-3.2,3.3-6.5,3.8-7.3c0.5-0.8,1.2-2.2,1.5-3c1.9-5.1,7.1-15.8,8.5-17.5c2.3-2.8,7-12.2,7-13.9c0-2.1,4.9-11.6,6.1-11.6
		c0.5,0,0.9-0.6,0.9-1.3c0-0.7,0.9-2.9,2-5c1.1-2.1,2-4.6,2-5.6c0-1,0.7-2.4,1.5-3.1s1.5-2.1,1.5-3.1c0-1,0.5-2.1,1-2.4
		c0.5-0.3,1-1.3,1-2.1c0-0.8,1.5-3,3.3-4.8c4.6-4.6,8-12.2,7.3-16.3c-0.4-2.7,0.1-4,3.2-7.6c4.9-5.6,6.9-9.8,7.7-16.1
		c0.4-2.8,1.3-6.2,2-7.6s1.3-3,1.3-3.6c0-0.6,0.9-2.8,2-5c1.2-2.3,1.9-5.5,1.8-7.6c-0.1-2.6,0.5-4.7,2.3-7
		c3.2-4.4,7.9-14.2,7.9-16.6c0-1,0.7-2.7,1.5-3.8c0.8-1.1,1.5-3.2,1.5-4.8c0-2.5,2.5-8.3,4.1-9.7c1.1-0.9,3.9-6.9,3.9-8.5
		c0-0.9,0.5-1.5,1.1-1.5s0.9-0.6,0.6-1.4c-0.3-0.8,1-3.4,2.9-5.8c1.9-2.4,3.4-4.8,3.5-5.3c0-0.6,1.4-2.8,3-4.9c1.9-2.6,3-5.1,3-7.3
		c0-2.6,0.6-3.7,2.8-5c2.7-1.6,6.2-6.3,6.2-8.5c0-0.6,0.8-1.9,1.7-3c0.9-1,1.8-3.3,1.8-5.1c0.5-13.2,0.3-12.6,4.1-16.3
		c2.7-2.7,3.5-4.2,3.1-6c-0.3-1.5,0.4-3.6,1.9-5.6c1.3-1.8,3.3-5.2,4.4-7.5c2.4-5.1,4.6-7.1,11.7-10.6c2.9-1.4,5.5-3,5.8-3.6
		c0.3-0.5,2.1-1,3.9-1c1.8,0,5.8-0.9,8.9-1.9c5.9-2,8.8-1.8,15.9,1.3c2.5,1.1,5.1,1.4,8.2,1c3.3-0.4,5.1-0.2,6.8,1
		c3.2,2.3,7.8,2,10.5-0.5c3.2-3,6.2-1.9,12.6,4.6c2.9,3,5.8,5.5,6.5,5.5c0.6,0,1.3,0.3,1.5,0.8c0.3,0.7,1.8,1.6,11.2,6.5
		c3.2,1.7,3.7,2.4,3.2,4.4c-0.8,3.1,1.2,6.1,5.4,8.4c5.2,2.8,7.6,5.2,8.4,8.2c0.5,2.2,1.5,2.9,5.2,3.8c3.9,1,4.5,1.5,4.5,3.8
		c0,1.6,1.3,4.3,3.3,6.6c1.8,2.2,4.6,6,6.1,8.4c1.5,2.5,4.2,6.1,5.9,8s4.5,5.6,6.1,8.2c1.6,2.6,3.3,4.7,3.7,4.8
		c1.6,0,5.6,4.9,8.8,10.5c1.9,3.3,5.5,8.8,8.1,12.2c2.6,3.4,5.1,7.4,5.4,8.8c0.4,1.4,2.2,3.8,4,5.3c1.9,1.5,3.4,3.4,3.4,4.2
		c0,1.9,2.1,7.6,4.3,11.7c0.9,1.8,1.7,3.7,1.7,4.4c0,2.4,6.2,8.8,10.5,10.8c4.7,2.2,5.9,4.1,2.6,4.1c-2.3,0-1.9,2.8,0.8,5.7
		c2.6,2.8,8.1,11.5,8.1,12.8c0,2.7,4.8,6.9,8.5,7.5c3.6,0.6,4,1,4.5,4.3c0.3,2,1.8,5.5,3.3,7.7c1.5,2.2,2.7,4.6,2.7,5.4
		c0,0.7,1.1,2.4,2.5,3.7s2.5,3.1,2.5,4.1c0,3.1,2,6.3,5.3,8.4c3.5,2.2,6.6,6.9,6.7,10.1c0,1.2,1,2.9,2.1,3.9c1.1,1,2,2.6,2,3.6
		c0,1,1.6,3.1,3.5,4.7s3.8,4.1,4,5.6c1.4,7.9,6.7,17.6,9.6,17.6c1.4,0,5.8,7.4,5.8,9.7c0,1.2,1.1,3,2.3,4c1.3,1,2.9,2.8,3.5,4.1
		c0.7,1.2,2.8,2.9,4.7,3.7c2.4,1,3.4,2,3.3,3.2c-0.4,2.7,1.1,6.2,3.1,7.3c1.2,0.6,1.7,1.7,1.3,3c-0.4,1.4,0.1,2.2,1.3,2.6
		c6.1,1.9,8.6,3.6,8.1,5.4c-1.3,5.1,4.8,14,9.7,14c2.7,0,5.4,2.6,3.4,3.2c-2.6,0.9-0.9,6.8,3.2,11.1c2.2,2.3,4,4.7,4,5.3
		c0,0.6,0.8,1.4,1.9,1.6c1.3,0.3,2,1.7,2.4,4.6c0.3,2.2,1.5,5.4,2.6,7c1.2,1.6,2.1,3.6,2.1,4.4c0,2.4,5,8.7,13.3,17
		c6,5.9,7.7,8.2,7.2,9.7c-0.4,1.2,0.1,2.6,1.3,3.8c1,1,2.2,3,2.5,4.5c0.4,1.5,2,3.5,3.6,4.4c1.6,1,3.5,3,4.1,4.5
		c1.3,3.1,4.3,6.2,8.1,8.1c1.5,0.8,4.8,3.9,7.5,6.9c2.7,3.1,8.1,8.3,12.1,11.7c4,3.4,7.2,6.6,7.2,7.1c0,1.4,6,8,7.3,8
		c0.6,0,4.3,2.2,8.1,4.8c8.6,5.8,12.1,7.3,16.7,7c3.4-0.2,9.3,2.8,11.1,5.8c0.8,1.3,5.6,3.1,10.1,3.9c4.2,0.8,7,2.1,9,4.3
		c1,1.2,3,2.1,4.3,2.1s4.1,0.9,6.2,2c2.1,1.1,7.4,2.4,11.7,3c8.4,1.1,18.4,4.5,23.4,8.1c2.6,1.9,4.1,2.1,9.3,1.7
		c3.4-0.2,7.8,0,9.7,0.5c4,1.1,9.6,1.7,19.5,2.2c3.8,0.2,9.2,0.8,12,1.5c3.7,0.9,5.7,0.9,7.8,0c2.1-0.9,3.5-0.8,5.6,0
		c1.6,0.6,5.3,1.1,8.2,1c3-0.1,6.4,0.1,7.6,0.5c1.2,0.4,2.5,0.2,2.8-0.3c0.4-0.6,1.8-1,3.3-1c1.4,0,3.4-0.7,4.3-1.6
		c1.5-1.4,2.2-1.4,6.1-0.1c3.3,1.1,7.3,1.3,16.1,0.9c6.5-0.3,12-0.9,12.3-1.4s3-0.9,6-0.9c4.2,0,5.8-0.5,7.2-2c1-1.2,3-2,4.7-2
		c1.7,0,7.7-0.9,13.3-1.9c9.4-1.7,13-3.2,15.3-6.5c0.4-0.5,1-0.6,1.5-0.3c1.3,0.8,10.8-1.9,13.9-3.9c1.5-1,3.1-2.8,3.6-4.1
		s1.7-2.6,2.7-3c2.5-0.9,9.2-5.6,13.6-9.6c3.3-3,4.3-4.6,4.6-7.9c0-0.4,0.6-0.8,1.3-0.8c0.7,0,1.8-1.3,2.5-2.9
		c0.7-1.6,5.5-7.2,10.7-12.5c5.2-5.3,9.5-10.2,9.5-10.9s2-2.8,4.5-4.7c2.5-1.9,4.5-3.8,4.5-4.1c0.1-1.7,8.3-10.4,10.9-11.5
		c1.6-0.7,3.7-2.6,4.5-4.2c0.8-1.6,2.2-3.2,3.1-3.5c0.8-0.3,1.5-1.7,1.5-3c0-1.3,0.8-3.5,1.8-4.8c2.5-3.4,4.2-7.6,4.2-10.5
		c0-1.7,0.8-2.8,2.5-3.4c1.5-0.6,2.5-1.7,2.5-2.9c0-1.2,1.2-2.6,3-3.6c1.7-0.9,3-2.2,3-3s0.6-1.5,1.4-1.5c0.8,0,2.6-2.6,4-5.8
		c1.9-4.2,3.8-6.5,7-8.7c2.4-1.6,5.3-4.7,6.5-6.7s3.2-5,4.4-6.5c1.3-1.5,2.6-4.7,3-7s1.1-4.2,1.6-4.2s0.9-0.6,0.9-1.3
		c0-0.7,0.9-2.1,2.1-3.1c1.2-1,1.8-2.4,1.5-3.3c-0.3-0.9,0.8-3,3-5.2c2-2,4.7-5.8,6-8.4c1.3-2.6,3.7-5.6,5.4-6.8c1.7-1.2,3-3,3-4
		c0-2.8,1.1-5,2.5-5c1.6,0,4.5-4.3,4.5-6.8c0-1,0.9-2.7,2.1-3.8c1.7-1.5,2-2.7,1.6-6.2c-0.4-3.2,0-4.9,1.4-6.7
		c1-1.3,1.9-2.9,1.9-3.5c0-0.6,0.4-1.1,1-1.1s1.3-1.2,1.7-2.8s1.6-4,2.7-5.4c1.3-1.8,1.8-3.6,1.4-5.5c-0.7-3.6,0.7-5.5,5.9-7.8
		c2.3-1,4.6-2.9,5.2-4.2s1.8-2.3,2.7-2.3c1.9,0,9.4-7.4,9.4-9.3c0-0.7,1.1-2.9,2.5-4.7s2.5-4,2.5-4.7c0-2,1.2-1.6,4.9,1.7
		c1.9,1.6,3.5,3,3.6,3s1.8-0.6,3.6-1.4c2-0.8,7.2-1.4,12.8-1.4l9.4,0l3.7,3.9c3.9,4.1,5.9,4.6,11.6,3c3.3-0.9,5.4,0,9.2,4.2
		c0.9,1,2.4,1.8,3.4,1.8c1,0,2.5,1.2,3.4,2.8c1.8,3.1,10.1,10.1,14.9,12.6c3.2,1.7,4.4,3.4,4.4,6.7c0,2.3,3.6,5,6.7,5
		c1.3,0,3,0.8,3.8,1.8c4.6,5.3,10.5,12.7,10.5,13.4c0,1.1,5.9,9.7,7.3,10.6c2.7,1.7,8.4,3.5,10.9,3.4c1.9-0.1,3.3,0.8,4.8,2.8
		c1.1,1.6,2,3.1,2,3.3c0,0.3-1.8,1.2-3.9,2.1l-3.9,1.6l0.6,5.8c0.7,6.6,1.3,8.4,4.8,13.2c1.4,2,2.3,4.2,1.9,5.2
		c-0.3,1.1,0.1,2.1,1.1,2.7c0.9,0.5,2.2,2.5,2.8,4.3c0.7,2,2.9,4.7,5.6,6.7c3.8,2.9,4.7,4.2,5.8,8.9c1.2,5.3,5,10.2,7.9,10.3
		c1.4,0,7,6.3,7.8,8.8c0.3,1,2.6,3.5,5,5.6s6.1,6.2,8.1,9.2c2,3,3.9,5.5,4.3,5.5c0.4,0,2.5,2.7,4.7,6.1c2.9,4.3,5.7,7.1,9.8,9.6
		c5.2,3.2,8.7,7.4,8.7,10.4c0,0.6,1.4,2.7,3,4.6c1.7,1.9,3,4,3,4.8s1.5,2.8,3.2,4.5c1.8,1.7,5.5,6.1,8.2,9.8s7.2,8.2,10,10
		c2.8,1.9,5.2,3.9,5.4,4.6c0.9,3,9.5,14.7,14.1,19.1c2.8,2.7,5,5.5,5,6.2c0,3.8,12.2,13.4,17.1,13.4c4.2,0,4.8,2.5,1.4,6
		c-3.1,3.3-2.7,4.6,2.1,6.6c1.9,0.8,3.4,2.1,3.4,2.9s1.2,2.3,2.7,3.2c3.4,2.2,11.3,9.7,11.3,10.7c0,0.7,1.8,2.7,9,10.1
		c1.6,1.7,3,3.5,3,4.1s0.7,1.7,1.5,2.4s1.5,2,1.5,2.9c0,2.2,12.3,15.1,14.4,15.1c1.1,0,1.6,0.9,1.6,2.9c0,3.8,3.4,7.9,6.8,8.3
		c2.4,0.3,2.7,0.7,2.8,4c0,2.7,1,4.8,3.5,7.8c5.2,6.2,10.3,11.4,12.3,12.5c1.1,0.6,1.9,2.3,2,4.2c0.1,1.9,1.3,4.4,2.8,6
		c1.4,1.5,2.9,4,3.3,5.6s3.3,5.3,6.5,8.4s6.5,7,7.4,8.8c0.9,1.8,2.6,4.6,3.9,6.1c1.3,1.5,2.9,4.2,3.6,6c1.3,3.2,5.5,7.5,12.4,12.7
		c2.2,1.6,3.7,3.6,3.5,4.5c-0.3,2.1,1.6,5.7,5.3,9.9c1.6,1.8,2.9,3.9,2.9,4.6c0,0.7,2.5,4.1,5.5,7.6c3.8,4.4,5.5,7.2,5.5,9.1
		c0,1.7,1.6,4.7,4.2,8c2.3,2.9,5.5,6.9,6.9,9c1.5,2.1,3.5,4.6,4.5,5.7c1.7,1.8,2.6,3.1,7.8,12.1c1.1,1.9,3.8,4.4,6,5.6
		c2.6,1.4,4.4,3.3,5,5.3c0.6,1.7,1.8,4,2.8,5.1s1.6,2.4,1.2,3s0.2,2,1.3,3.3s2.2,3.6,2.7,5c0.9,2.6,6.2,8.7,13.7,15.6
		c1.9,1.8,3.8,4.7,4.2,6.4c0.4,1.9,3.5,6.1,7.6,10.6c3.8,4.1,7.5,8.7,8.3,10.1s4.3,5.5,7.9,8.8c4.9,4.6,6.6,7.1,7.2,9.9
		c0.5,2.8,2.7,5.8,8.8,12.1c4.5,4.6,8.7,9.3,9.4,10.3c3.6,5.1,14.3,15.1,16.2,15.1c2.3,0,2.7,1,1.1,2.6c-1.6,1.6,0.3,5.2,6,11.4
		c2.8,3,6.6,7.2,8.3,9.4c1.8,2.1,4.9,4.9,7,6.3c2.2,1.4,3.8,3.2,3.8,4.3c0,2.7,4.6,7.9,8.9,9.9c3.2,1.5,3.6,2.1,3.4,4.9
		c-0.2,2.8,0.3,3.5,3.7,5.7c2.2,1.4,4.4,3.4,5,4.5s2.7,4,4.8,6.4s5.5,7,7.7,10.2c2.2,3.2,5.7,7.3,7.8,9.3s3.8,4.2,3.8,4.9
		s2.2,3.7,4.9,6.6s5.2,6.1,5.5,7.3s4.7,6.2,9.6,11.3c4.9,5.1,9,9.8,9,10.6c0,1.4,8,10.5,17.2,19.5c2.6,2.5,4.8,5.1,4.8,5.7
		c0,1.5,8.2,11.8,17.6,22.1c4.5,4.9,8.4,9.9,8.8,11.1c0.7,2.4,1.8,2.6,4.5,1.1c2.3-1.3,5.8,1.6,4.1,3.3c-2,2-1,4.3,3.4,7.7
		c3.5,2.6,4.5,4,4.5,6.2c0,3.5,6.3,12,11.4,15.5c3.1,2.1,3.6,3,3.1,5c-0.9,3.4,0.6,5.6,7.3,10.9c3.3,2.6,6.5,6,7.2,7.8
		c0.7,1.7,3.1,5.3,5.3,7.8c2.2,2.5,6.3,7.4,9.1,10.9s6,7.2,7.2,8.3s4.2,4.5,6.5,7.5c3,3.9,5.8,6.1,9.5,7.8c4.8,2.2,5.2,2.6,5.2,5.7
		c0,2.3,0.8,4.1,2.5,5.7c1.4,1.3,2.2,2.7,2,3.1c-0.6,1,5,6.2,13.5,12.5c3.5,2.6,5.9,5,5.3,5.2c-1.7,0.6-0.3,3.3,4.7,8.8
		c2.5,2.8,5.9,7,7.6,9.4c1.6,2.4,3.7,5.1,4.5,6s2.2,3,3,4.5c0.8,1.6,3.1,4.7,5.1,7s4.6,5.7,5.9,7.6s3.6,4.9,5.1,6.5
		c1.5,1.6,3,4.1,3.3,5.5c0.8,3.2,11.4,14,13.9,14c1.4,0,1.7,0.5,1.3,1.9c-0.4,1.2,0.3,3,1.7,4.8c1.3,1.6,3.9,5.5,5.8,8.7
		s6.9,9.4,11.2,13.8c5.3,5.4,7.8,8.7,7.8,10.3c0,2.9,12.5,17.3,15.7,18.2c1.5,0.4,2.6,1.8,3.3,4.2c1.3,4.7,6.4,10.3,11.8,13.1
		c2.5,1.3,4.1,2.7,3.9,3.5c-0.3,0.7,0.4,2.3,1.4,3.7c1,1.3,1.9,3.1,1.9,3.9c0,1.9,12.1,19.8,15.4,22.9c1.8,1.7,3.2,2.2,5,1.7
		c2.1-0.5,2.6-0.2,3.2,1.9c0.3,1.4,0.4,3.2,0,4.1c-0.9,2.4,3,8.7,8,12.8c3.3,2.8,4.4,4.4,4.4,6.6c0,1.6,0.5,3.2,1,3.5
		c1.8,1.1,4.1,7.9,3.6,10.5c-0.5,2.9,2.4,11.4,5,14.2c1.4,1.5,1.8,3.7,1.8,9.3c0,6.2,0.4,7.7,2.3,9.7c1.2,1.3,2.2,3,2.2,3.7
		s0.7,2.6,1.7,4.1c1.5,2.6,1.5,3.1,0.1,6.1c-1.7,3.4-1.2,5.4,1.7,7.8c0.9,0.7,1.6,1.9,1.6,2.7s1.6,4.1,3.5,7.4
		c1.9,3.3,3.5,6.5,3.5,7.1s1,2.2,2.2,3.5c2,2.2,2.2,3.2,2,16.2c-0.1,9.3-0.7,15.8-1.8,19.7c-0.9,3.2-1.9,7.4-2.1,9.3
		s-1.4,4.3-2.4,5.3c-1.6,1.5-1.8,2.6-1.3,6.1c0.6,3.9,0.4,4.5-2.2,6.3c-1.6,1.1-3.7,2.2-4.8,2.4c-1.3,0.2-3.1,2.7-5.2,7
		c-2,4.1-4,6.9-5.3,7.3c-1.2,0.4-3.9,3-6.1,5.8c-2.2,2.8-4.4,5.6-5,6.2c-0.6,0.6-2.5,2.4-4.3,4.2s-3.9,4.5-4.7,6
		c-0.8,1.5-2.9,4.2-4.7,5.9c-1.8,1.7-3.2,3.8-3.2,4.7s-0.9,1.8-1.9,2.2c-1.1,0.3-2.2,1.4-2.5,2.4c-0.3,1-1.9,2.8-3.6,4
		c-2.4,1.8-3,3-3,6c0,2.8-0.9,5-3.6,8.4c-2,2.5-4.5,4.9-5.5,5.2c-1,0.3-1.9,1.4-1.9,2.5s-0.6,2.2-1.3,2.7c-2,1.3-3.6,5.7-3,8.5
		c0.4,2,0,2.7-1.5,3.2c-1.1,0.4-2.9,2.2-4.1,4.1c-1.1,1.9-2.5,3.5-3.1,3.5s-2.7,1.5-4.6,3.2c-1.9,1.8-4.9,4.5-6.5,6
		c-1.7,1.5-3.8,2.8-4.9,2.8c-1.3,0-2.2,1.2-3,3.8c-1.5,4.6-5.4,9-9.7,10.8c-3.9,1.6-18.8,16.3-22.1,21.7c-1.3,2.1-3.2,4.2-4.2,4.8
		c-1.1,0.6-1.9,1.6-1.9,2.3s-1,1.3-2.2,1.2c-1.7-0.1-2.5,0.8-3.4,3.4c-0.9,2.7-1.7,3.5-3.5,3.6c-1.3,0-3.8,0.9-5.5,2
		c-4.2,2.6-10.6,10.4-9.9,12.1c0.3,0.8-0.1,1.3-1,1.3c-0.8,0-1.5,0.9-1.5,2c0,1.1-0.7,2-1.6,2c-0.9,0-1.3,0.4-0.9,1
		c0.3,0.6-0.3,1-1.4,1c-1.1,0-2.7,0.7-3.6,1.6c-1.2,1.2-2.8,1.5-6.2,1.1c-5.6-0.6-10,0.5-15.3,4c-2.8,1.8-4,3.4-4,5
		c0,1.7-0.6,2.3-2.2,2.3c-1.2,0-3,0.7-4,1.6c-1.5,1.4-2.1,1.4-3.4,0.4c-1.2-1-2.1-1-4.1-0.1c-1.4,0.6-3.4,1.1-4.5,1.1s-2,0.7-2,1.5
		c0,2.6-3.3,3.3-11.9,2.9c-7.5-0.4-8.3-0.3-7.7,1.2c1.6,4.1-5,6.1-8.1,2.4c-2.2-2.5-4.8-2.6-6.5-0.1c-1.1,1.5-2.8,2-8.3,2.2
		c-3.8,0.1-8.6-0.1-10.6-0.5c-3.7-0.8-9.8,0.7-12.8,3c-0.8,0.6-3.7,1.4-6.4,1.8c-2.9,0.4-5.9,1.5-7.1,2.7c-2.1,2-2.3,2-5.7,0.4
		c-3.3-1.6-3.9-1.6-8.2-0.1c-3.9,1.3-6,1.4-12.6,0.5c-7.6-1-24.8-0.8-27.9,0.3C2553.8,3062.8,2551.1,3062.6,2548.6,3062.1
		L2548.6,3062.1z M2740.6,2768.2c0-0.6,1-1.9,2.2-2.9c2.1-1.7,2.1-2.1,0.9-5.4c-0.8-2.1-1-5-0.6-7.2c0.6-3.2,0.3-4-2.8-7.3
		c-1.9-2-3.8-4.6-4.2-5.8c-0.4-1.2-1.7-3.2-2.9-4.5c-3.4-3.6-7.7-9.6-7.7-10.8c0-0.6,0.4-1.1,1-1.1s1-1.1,1-2.4
		c0-1.8-1.2-3.2-4.5-5.2c-2.5-1.6-4.7-3.7-4.9-4.8s-0.7-3.3-1-4.8c-0.3-1.5-1.6-3.6-2.7-4.5c-1.2-0.9-3.7-3.2-5.6-5
		s-3.8-3.2-4.2-3.2c-0.9,0-6.9-8.7-6.9-10.1c0-0.5-0.8-1.8-1.8-2.7c-4.1-4.2-9-11-10.2-14.2c-1.4-3.7-4-7-13-17.1
		c-3-3.4-6.2-7.3-7.1-8.8c-0.9-1.5-3.1-4-4.9-5.6c-1.8-1.6-5.1-5.7-7.3-9c-6.6-9.6-19.4-25.1-22.7-27.5c-1.9-1.3-3-3-3-4.4
		c0-2.4-8.1-10.6-10.5-10.6c-0.7,0-1.6-1.1-1.9-2.5c-0.4-1.4-4.4-5.7-9.6-10.2c-7.3-6.3-8.9-8.1-8.4-9.9c0.4-1.7-0.5-3.1-4.5-6.4
		c-2.8-2.3-5.1-4.9-5.1-5.8c0-3-3.3-8.4-6-9.8c-1.6-0.8-3-2.6-3.4-4.2c-0.6-2.6-10.5-13.3-12.3-13.3c-0.4,0-1.9-1.9-3.3-4.1
		s-4.2-5.2-6.4-6.6c-3.5-2.2-3.8-2.8-3.3-5.8c0.3-1.8,0.1-3.7-0.4-4.3s-1.7-2.5-2.7-4.4c-1.4-2.7-3.5-4.2-10.6-7.7
		c-8.7-4.2-8.8-4.3-7.1-6.2c1.7-1.9,1.7-2.1-1-5.6c-2.5-3.3-7.9-7.4-9.7-7.4c-1.2,0-15,13.8-16.2,16.2c-0.7,1.3-2.2,2.4-3.8,2.6
		c-1.5,0.2-3.2,1-3.8,1.8c-0.7,0.8-1.8,1.4-2.5,1.4s-1.8,0.7-2.5,1.5s-2.3,1.5-3.6,1.5c-1.3,0-3,0.9-3.8,2.1c-0.8,1.2-3,2.4-4.8,2.8
		c-2.1,0.4-3.7,1.5-4.3,2.9c-0.5,1.2-1.4,2.2-1.8,2.2c-1.6,0-7.7,5.3-7.7,6.7c0,0.8-0.4,1.2-0.9,0.9c-0.5-0.3-2,0.8-3.2,2.4
		s-2.8,3-3.4,3c-0.6,0-2.4,1.4-3.9,3s-3.5,3-4.2,3s-1.9,0.9-2.6,2s-1.7,2-2.2,2c-0.5,0-2.2,1.2-3.8,2.7c-2.6,2.5-3.4,2.7-9.3,2.4
		c-6.4-0.3-6.4-0.3-8.5,3.2c-1.8,3-2.8,3.6-6.7,4.2c-2.5,0.4-5.3,1.4-6.2,2.3c-0.9,0.9-4.3,2.9-7.6,4.4l-6,2.8l-7.5-1.7
		c-4.1-0.9-9.6-2.5-12.1-3.5c-2.5-1-5.5-1.6-6.6-1.3s-3.8-0.4-6.1-1.6c-2.2-1.1-5.6-2.1-7.6-2.1c-3.8,0-4-0.3-5.1-8.5
		c-0.8-5.8-1.5-6.5-7.2-6.5c-2.4,0-4.8-0.7-5.8-1.6c-2-2-2-3.4-0.1-3.4c2,0,1.9-3-0.2-7.2c-0.9-1.8-2.3-4.6-3.1-6.2
		c-0.9-1.7-1.2-4.4-0.9-6.7c0.3-2.4,0-4.5-0.9-5.6c-0.8-1-1.4-2.8-1.4-4.1c0-1.2-0.6-3.1-1.2-4.2c-1.6-2.6,0.2-8.6,4.2-13.6
		c2.5-3.1,2.9-4.4,2.4-7.2c-0.5-2.6-0.1-4.2,2-7.3c1.4-2.2,2.6-4.2,2.6-4.6s0.9-1.8,2-3.2c1.1-1.4,2-3.4,2-4.5c0-1.1,1.3-2.7,3-3.6
		c2.7-1.5,5.1-5.1,6.3-9.2c0.2-0.8,2.6-2.6,5.3-3.9c5.6-2.7,7.4-4.6,7.4-7.8c0-1.9,0.5-2.3,3-2.3c2.6,0,3-0.4,3.6-3.5
		c0.6-3,1-3.5,3.5-3.5c1.6,0,2.9-0.4,2.9-1c0-0.5,1-1.9,2.2-3c1.2-1.1,3.1-4,4.3-6.3c1.9-3.7,2.9-4.5,8.4-6.5
		c3.4-1.2,6.8-2.8,7.5-3.5c0.7-0.7,3.2-2.4,5.5-3.8c2.3-1.4,6.9-5.1,10.2-8.2c3.9-3.8,6.8-5.8,8.3-5.8c1.3,0,2.6-0.4,2.9-0.9
		c0.3-0.5,2.6-1.4,5.1-2.1c3-0.8,4.5-1.8,4.5-2.9c0-2.3-3.2-6.8-7.7-11c-2.1-2-5.2-5.4-6.8-7.6c-1.6-2.2-4.6-5.6-6.6-7.5
		c-2-1.9-4.2-5.1-4.9-7s-3.6-5.8-6.4-8.5c-2.8-2.8-5.6-5.9-6.2-7c-1.1-1.9-1.3-1.9-4-0.4c-1.6,0.9-4.1,1.9-5.7,2.3
		c-1.5,0.4-5.5,3.4-8.8,6.6s-7.1,6.2-8.5,6.5c-1.3,0.3-3.6,0.7-4.9,1c-1.4,0.3-2.5,1.1-2.5,1.9c0,0.8-3.3,4.3-7.2,7.9
		s-8.6,8.3-10.2,10.6c-1.6,2.2-3.6,4.1-4.3,4.1s-4.3,3.1-8,6.8c-4.7,4.8-8,7.2-10.9,8c-2.3,0.7-4.4,1.9-4.7,2.7
		c-0.3,0.8-1.8,1.5-3.2,1.5c-2,0-2.5,0.4-2,1.6c0.3,0.9,0.2,1.3-0.2,1c-0.5-0.3-1.6,1-2.5,2.9c-0.9,1.9-2.3,3.5-3,3.5
		c-0.8,0-2,0.7-2.6,1.5c-0.7,0.8-2.1,1.5-3.1,1.5s-2.5,0.7-3.3,1.5c-0.8,0.8-3.2,2.1-5.3,2.8c-2.1,0.7-4.3,2.1-4.8,3.2
		c-0.6,1.1-3,3.8-5.4,6.1c-4,3.7-4.3,4.2-3,6.2c1.8,2.9,0.1,4.9-2.9,3.3c-2.6-1.4-6.9-1.4-7.7-0.1c-0.3,0.6-1.7,0.7-3.1,0.4
		c-1.6-0.4-3.1,0-4.4,1.1c-1.6,1.5-2.4,1.5-5.3,0.5c-3.1-1.1-3.7-1-6.2,0.9c-3.2,2.5-6.2,2.7-8.9,0.6c-2.2-1.7-11.3-1.9-16.4-0.3
		c-3,0.9-3.5,0.8-5.3-1.6c-1.5-2-2.9-2.6-5.8-2.6c-3.4,0-3.8-0.3-5-3.8c-0.7-2.1-2.1-4.6-3.1-5.8s-3-4.7-4.5-8s-3.1-6.7-3.5-7.5
		c-0.4-0.8-2.3-1.6-4.3-1.8c-2.6-0.2-4.5-1.3-6.9-4l-3.3-3.7l0.7-11.5c0.5-8.9,0.4-11.9-0.7-13.6c-1.7-2.6-2.1-11.2-0.6-12.7
		c1.8-1.8,1.4-4.2-1.3-6.6c-3.2-2.8-3.3-6.9-0.2-8.1c2.1-0.8,4.6-3.1,11.7-10.9c1.7-1.8,3-4.4,3-5.7c0-1.4,0.8-2.9,1.9-3.5
		c1.1-0.6,2.2-1.9,2.6-3c0.4-1.2,1.5-2,3-2c1.4,0,2.5-0.7,2.8-1.8c0.3-1,2-2.6,3.9-3.4c1.9-0.9,6.6-4.6,10.4-8.2
		c3.8-3.6,8.8-8.2,11-10.1c2.2-1.9,7.3-6.5,11.3-10.2c4-3.7,8.9-7.7,10.8-8.8s5.3-4,7.4-6.2c2.4-2.5,4.9-4.1,6.3-4.1
		c1.5,0,3.3-1.3,5-3.5c1.5-1.9,6.2-5.6,10.6-8.1s8.2-5.4,8.5-6.4c1.1-3.3,6.2-8,8.8-8c3,0,13.2-10.3,12.2-12.3
		c-1.5-2.6-4.8-5.7-6.1-5.7c-0.7,0-1.3-0.9-1.3-1.9s-1.4-2.9-3-4.1c-1.7-1.2-3-3-3-4c0-1-1.7-3.1-3.8-4.7c-5.1-3.8-8.2-7.5-8.2-9.6
		c0-3.6-2.9-8.7-5.7-9.9c-1.5-0.7-4.7-2.5-7.1-4.1c-4.2-2.8-4.3-2.9-2.2-4.4c1.1-0.8,2.1-1.8,2.1-2.2c0-1.2-8.3-9.7-10.7-11
		c-1.2-0.6-2.5-2.6-2.9-4.3c-0.4-1.7-1.6-4.1-2.6-5.2s-2.3-3.7-2.9-5.6c-0.7-2.6-1.9-4-4.3-5.2c-4.5-2.1-9.7-6.7-9.7-8.4
		c0-2.3-3.8-9.1-5.4-9.7c-2-0.7-8.2,4.1-9.7,7.5c-0.6,1.5-2,3-3.1,3.3s-2.5,1.8-3.3,3.3s-2.8,3.6-4.5,4.7c-3,1.9-3.5,3.1-3.2,6.8
		c0.1,1-0.3,1.8-0.9,1.8c-0.7,0-0.9,1-0.5,2.5c0.6,2.2,0.2,2.6-3.6,3.7c-4.9,1.4-8,3.7-7.4,5.4c0.7,1.8-1.4,3.4-4.5,3.4
		c-1.5,0-3.3,0.7-4,1.5s-3.3,2.5-5.7,3.6c-3.2,1.4-4.8,3-5.8,5.4c-1.3,3.2-8.1,8.7-15.2,12.4c-3.4,1.7-10.4,7.2-11.4,8.7
		c-1,1.6-12.7,12.8-13.7,13.2c-2.3,0.8-20.4,19.8-21.2,22.3c-0.7,2-1.7,2.9-3.2,2.9c-3.1,0-6,2.4-5.3,4.3c0.4,1.1,0.2,1.4-0.7,1.1
		c-0.7-0.3-2.6,0.6-4.2,1.9c-1.6,1.3-4.3,3-6.1,3.7c-1.8,0.7-3.8,1.9-4.4,2.7c-0.7,0.8-2.7,2.1-4.6,2.9c-1.9,0.8-3.7,2.3-3.9,3.4
		c-0.6,2.1-1.3,2.3-7.8,2c-2.8-0.1-4.7,0.5-6.2,1.9c-2.8,2.6-3.4,2.6-6.3-0.4c-1.3-1.4-3.1-2.5-4.1-2.5s-3.7-1.1-6.1-2.5
		c-3.8-2.2-5.1-2.4-10.1-1.9l-5.7,0.6l-5.1-5.4c-2.8-3-7.4-7-10.3-8.9c-2.8-2-5.1-4.3-5.1-5.2c0-0.9-1.2-2.6-2.8-3.8
		s-2.7-2.7-2.7-3.4c0-1.6-6.9-9-9.6-10.4c-2.2-1.1-4.4-7-4.4-11.6c0-1.5,0.9-4.3,2-6.3c2.3-4.4,1.5-6.6-2.9-8.2
		c-3.7-1.3-3.9-3.4-0.6-6.3c2.9-2.5,4.6-9.6,4.3-18.4c-0.2-5.8-0.1-6.2,4.3-10.8c2.5-2.6,6.1-5.7,8-6.8c7.8-4.4,22.5-18.2,21.6-20.4
		c-0.7-1.8,3-5,8.7-7.6c2.7-1.2,5.1-3,5.4-4c0.3-1,1.3-1.9,2.4-1.9c1,0,1.9-0.5,1.9-1.1c0-1.9,15.4-15.8,17.6-15.8
		c2.3,0,15.4-13.1,15.4-15.4c0-1.3,3.3-3.8,10-7.7c1.5-0.9,4.3-3.1,6.2-5c1.9-1.9,5-4.5,6.9-5.9c1.9-1.4,4.5-4.2,5.7-6.2
		c1.6-2.8,2.8-3.8,4.7-3.8c2.4,0,6-3.4,30.5-28.6c1.6-1.7,3-3.7,3-4.6c0-0.8,1.6-3,3.5-4.9c1.9-1.9,3.5-4.2,3.5-5.3
		c0-3.8-12.9-17.7-16.4-17.7c-0.6,0-3.1-1.4-5.4-3.1c-3.2-2.4-4.1-3.6-3.6-5.1c1.3-4.2-4.6-13.2-10.8-16.4c-1.5-0.8-3.3-2.7-4-4.3
		c-1.8-4.2-10.5-13.1-14-14.3c-2.5-0.9-2.9-1.4-2.4-3.7c0.6-3-3.3-9.9-8.6-14.8c-1.8-1.7-4.3-4.5-5.6-6.3c-1.3-1.7-4-3.9-6-4.9
		c-2.5-1.2-4-2.7-4.7-4.9c-0.6-1.8-2.5-4.7-4.2-6.5c-1.8-1.8-3.2-4-3.2-4.8s-3.8-5.3-8.5-9.8s-8.5-8.7-8.5-9.1s-3.6-4.7-8.1-9.3
		c-4.5-4.7-9.7-10.7-11.8-13.5c-5.8-7.9-12.5-16.6-13.2-17.1c-0.4-0.3-2.5-3.1-4.8-6.2c-2.3-3.1-5.2-6.8-6.4-8.1
		c-1.2-1.3-3.8-4.6-5.8-7.3c-3.6-5-8.6-10.2-15.9-16.7c-2.5-2.3-4.7-5.3-5.3-7.3c-0.6-2.3-2.3-4.4-5.1-6.4c-2.3-1.6-4.7-3.5-5.4-4.2
		c-3.5-3.8-8.1-10.7-8.7-13.1c-1-4-4.1-5.2-8.2-3.3c-2.2,1-3.4,2.3-3.4,3.6c0,1.1-0.9,2.7-2,3.7c-1.1,0.9-2,2.2-2,2.9
		s-0.4,1.3-0.8,1.5c-0.5,0.2-2.2,3.3-4,7c-1.8,3.8-4.1,7.2-5.4,7.9c-3.6,1.9-8.8,8.1-8.8,10.6c0,1.4-0.9,2.8-2.2,3.5
		c-3.4,1.8-7.7,7.1-7.7,9.6c0,2.4-3.5,6.6-6.3,7.6c-1.9,0.7-2.4,2.7-0.8,2.7c0.6,0,1,0.5,1,1.1s-1,0.9-2.2,0.8
		c-3.1-0.4-8.7,5.7-8.7,9.5c0,1.6-0.7,3-1.5,3.4c-0.8,0.3-2.7,2.5-4.1,4.9s-4.1,5.7-6,7.4c-1.9,1.7-3.9,4.2-4.4,5.6s-2.2,3-3.6,3.6
		c-3.5,1.3-5.4,3.9-4.7,6.6c0.4,1.7,0,2.2-1.8,2.5c-1.5,0.2-3.5,2.1-5.5,5.1c-1.7,2.6-4.1,5.8-5.3,7.1s-2.1,3-2.1,3.8
		c0,0.9-2.9,4.5-6.5,8.2c-3.6,3.6-6.5,6.9-6.5,7.2s-1.6,3.9-3.5,8c-2.9,6.1-3.9,7.4-5.8,7.4c-1.6,0-2.8,0.9-3.5,2.5
		c-0.6,1.4-1.6,2.5-2.2,2.5c-1.3,0-13.3,8.9-17.5,13c-1.7,1.6-3.6,3-4.2,3c-1.2,0-1.6,1.3-1.2,3.9c0.1,1-0.7,1.2-3,0.9
		c-3.7-0.5-11.2,2-16.9,5.8c-2.1,1.4-4.3,2.3-4.9,2c-1.4-0.9-17.2,1.3-20.7,2.9c-4.1,1.8-14,3.8-20,4.1c-2.9,0.1-6.7,1.1-8.9,2.3
		c-2.2,1.2-5.8,2.4-8.2,2.8c-4,0.6-8.4,3.4-8.4,5.4c0,0.5-1.7,0.9-3.8,0.9c-2.1,0-10.9,0.3-19.8,0.7c-12.9,0.5-16.8,1-20.4,2.7
		c-6.7,3-32.8,4.2-40.7,1.8c-3.2-1-5.4-1-10,0c-3.7,0.8-16,1.2-33.9,1.2c-29.7,0-43.2-0.6-47.9-2.2c-1.6-0.5-4.5-1-6.5-1
		c-2,0-6.5-1.4-9.9-3c-6.9-3.3-11.9-3.9-12.8-1.5c-0.9,2.3-4.7,1.8-7.2-0.9c-2.8-3-8-4.5-16.1-4.7c-3.9-0.1-8.1-0.9-10.6-2.1
		c-2.3-1-5.6-2.1-7.5-2.3c-1.8-0.2-5.3-1.8-7.6-3.5c-4.5-3.2-6.3-3.7-6.3-2.1c0,1-3.4,1.1-8.2,0.3c-1.5-0.3-3-1.3-3.3-2.3
		c-0.3-1-1.2-1.7-1.9-1.4c-0.8,0.3-1.3-0.1-1.2-1.3c0.1-1.1-1.3-2.5-3.8-3.8c-2.2-1.1-4.7-2.8-5.8-3.8s-2.8-1.8-4.1-1.8
		c-1.2,0-3.6-0.9-5.2-2s-3.8-2-4.7-2c-0.9,0-3-1.1-4.6-2.5c-1.6-1.4-3.4-2.5-4-2.5c-2.5,0-7.3-3.5-16.1-11.8
		c-2.5-2.3-6.2-4.7-8.3-5.3c-2.1-0.6-5.7-2.6-8.1-4.6c-5.2-4.3-12.3-7.5-15.7-7.1c-1.8,0.2-2.8-0.4-3.7-2c-1.6-3.1-6.5-8.2-8-8.2
		c-0.7,0-1.9-1-2.7-2.2c-4.8-7.3-14-13.8-21.5-15.2c-1.2-0.2-2.7-0.7-3.2-1c-1.3-0.8-1.3-4.2,0-5c1.8-1.1,1-4.3-1.7-6.4
		c-1.5-1.1-3.6-3.4-4.8-5c-3.1-4.3-13.1-12.1-15.4-12.1c-1.4,0-2.5-1.2-3.7-4.4c-0.9-2.4-3.9-6.8-6.6-9.8c-2.7-2.9-5.4-6.9-6-8.9
		c-0.8-2.5-2.2-4.1-4.7-5.5c-2.7-1.5-4.5-3.6-6.9-8.4c-1.8-3.5-4.5-7.5-6.1-8.7c-3.6-2.8-6.5-7.1-6.6-9.9c-0.1-1.2-3.1-5.5-6.8-9.6
		c-5.7-6.2-13.8-19.3-13.8-22.2c0-1.3-6-9.8-10.2-14.4c-2.1-2.3-3.8-4.9-3.8-5.6c0-0.8-0.7-2-1.6-2.7c-0.9-0.7-2.2-2.9-3-4.9
		c-0.8-2-3-5-4.9-6.8c-1.9-1.8-3.5-4-3.5-4.9c0-0.9-1.3-3.2-3-5.1c-1.7-1.9-3-4.1-3-5c0-1.8-7.5-12.3-9.7-13.6
		c-0.8-0.5-2.4-3.3-3.8-6.3s-5.6-9-9.4-13.4s-8.5-10.5-10.2-13.6c-1.7-3.1-4.6-6.6-6.4-7.7c-4.2-2.7-6-5.6-4.5-7
		c1.8-1.8,1.2-3.7-1-3.7c-1.5,0-1.9-0.5-1.5-1.8c0.4-1.2-0.4-2.8-2.4-4.7c-2.6-2.4-2.9-3.4-2.4-6.2c0.5-2.5,0.3-3.3-0.9-3.3
		c-1.7,0-5.3-4.9-4.9-6.6c0.1-0.6-1.3-2.3-3.3-3.8c-1.9-1.5-3.5-3.4-3.5-4.2c0-3.5-6.6-15.1-10.2-17.9c-2-1.6-3.7-3.8-3.8-4.8
		c0-1-2.1-4.8-4.6-8.5c-2.5-3.7-5.5-8.2-6.8-10.1c-1.2-1.9-4.2-5.5-6.7-8c-5.1-5.3-6.8-8.1-7.6-12.5c-0.9-5.3-1.4-6-5.4-8.5
		c-2.1-1.3-4.5-3.5-5.1-4.8c-2.6-4.8-5.9-1.8-8,7.1c-0.7,3.3-2.1,6.6-3.1,7.3s-2.2,2.8-2.9,4.8s-2.5,6-4.1,9c-1.6,3-2.9,6.2-2.9,7
		s-0.9,3.3-2,5.4s-1.7,4.1-1.4,4.4s-0.1,1.7-1,3.1s-1.6,3.6-1.6,5c0,1.4-0.4,2.7-0.9,3.1c-0.9,0.6-7.1,12.9-7.1,14.1
		c0,0.3-1.1,1.9-2.5,3.6c-1.7,2-2.3,3.7-1.9,5.2c0.4,1.5-0.1,2.8-1.5,4.1c-1.1,1-2.1,2.5-2.1,3.3s-0.9,2.6-2,4c-1.1,1.4-2,3.4-2,4.5
		c0,2.4-1.5,5.4-4.6,9.1c-1.3,1.6-2.4,4.1-2.4,5.8s-0.4,2.9-0.9,2.9c-1.1,0-3.1,7.8-2.4,9.6c0.3,0.8-0.2,1.6-1.1,2
		c-0.9,0.3-3.1,2-5,3.8c-2.7,2.5-3.5,4.2-4,8.1c-0.5,3.6-1.3,5.6-3.1,7c-1.4,1.1-2.5,3.1-2.5,4.3c0,1.2-1.2,3.3-2.6,4.7
		c-1.8,1.6-2.4,3-2,4.3c0.4,1.4-0.4,3-2.7,5.5c-1.8,1.9-5.1,7-7.3,11.2c-2.2,4.2-5.4,9.3-7.1,11.4s-3.4,4.9-3.8,6.4s-2.1,5-3.8,7.8
		c-2.6,4.3-2.9,5.2-1.7,6.6c1.2,1.4,0.6,2.2-4.1,6.5c-3,2.7-5.4,5.5-5.2,6.2s-0.4,1.9-1.2,2.6c-0.8,0.7-1.5,2-1.5,2.8
		c0,2.2-2.3,8.2-3.1,8.2c-0.4,0-1,1.1-1.3,2.4c-0.3,1.3-2.6,4.5-5.1,7c-2.5,2.5-4.5,5.4-4.5,6.5c0,1.1-0.4,2.2-0.9,2.5
		c-0.5,0.3-1.9,2.4-3,4.6c-1.2,2.3-3.5,5.2-5.1,6.6c-1.6,1.4-3,3-3,3.7c0,0.6-1.4,3.2-3,5.7c-1.6,2.5-3,5.4-3,6.6
		c0,1.1-1.4,3.4-3,4.9c-1.7,1.6-3,3.6-3,4.4c0,0.9-1.1,3.4-2.5,5.6s-2.5,5-2.5,6.2c0,1.6-0.7,2.3-2.7,2.5c-3.4,0.4-6.3,4.4-7,9.6
		c-0.4,3.3-1.7,5.2-6.4,9.9c-4,3.9-5.9,6.6-5.9,8.2c0,1.3-1.2,3.6-2.8,5.1c-4.9,4.7-8.3,9.8-7.6,11.5c0.4,1-0.2,2.4-1.6,3.7
		c-1.2,1.1-2,2.7-1.7,3.4c0.3,0.8,0.1,1.7-0.5,2c-0.6,0.4-1.9,2.6-2.9,4.9c-1,2.3-3.9,6.3-6.3,8.9c-2.5,2.5-5.5,6.5-6.6,8.9
		c-1.2,2.3-2.6,5.2-3.2,6.2s-1.5,2.7-1.9,3.5s-1.5,2.8-2.4,4.3c-0.9,1.6-1.7,3.9-1.8,5.2s-1.9,4-3.9,6c-2.1,2-3.8,4.1-3.8,4.6
		c0,0.6-1.3,3.7-3,7.1s-3,6.9-3,7.9c0,1-0.7,1.9-1.5,1.9c-0.9,0-1.6,1-1.7,2.8c-0.1,1.5-0.2,3.5-0.3,4.4c-0.1,0.9-0.9,2.3-1.8,3.3
		c-1.7,1.7-1.5,7.9,0.3,10.2c1.3,1.7,1.4,9.4,0.1,10.7c-0.7,0.7-1.2,2-1.2,3s-0.4,1.8-0.9,1.8s-1.2,1-1.6,2.2
		c-0.6,2-8.4,14.1-13.4,20.8c-3.3,4.5-3.3,6.3,0.1,9.8c1.7,1.8,3.8,3.2,4.5,3.2c0.8,0,3.2,0.9,5.3,2c2.1,1.1,5.8,2.3,8.2,2.6
		c2.4,0.4,4.8,1,5.3,1.4c0.5,0.4,2.6,1.1,4.5,1.5c1.9,0.4,4.7,1.6,6.2,2.6s4.2,1.9,6,1.9c4.8,0,14.1,4.9,15.6,8.2
		c1,2.2,2.9,3.2,9.5,5.3c4.5,1.5,11,4,14.5,5.6c3.6,1.7,7.9,2.9,10.2,2.9c4,0,9.1,2.4,14.3,6.7c2.9,2.4,6.1,3.4,16.7,5.5
		c3.6,0.7,8.9,2.5,11.8,4c3.2,1.7,8.9,3.4,14.5,4.4c6.4,1.1,12.2,3,19.2,6.2c9.2,4.3,10.8,4.7,20.1,5.2c7.2,0.4,10.8,1.1,12.8,2.3
		c1.5,1,2.7,2.1,2.7,2.5c0,0.9,3.6,2.2,14.5,5.2c4.4,1.2,10.5,2.9,13.5,3.8s7.3,1.6,9.5,1.5c4.4-0.1,12.3,3.1,14.3,5.9
		c0.7,1,2.2,1.8,3.2,1.8s3.4,0.6,5.2,1.4c1.8,0.8,6.7,2.4,10.8,3.6s10,3.3,13.1,4.6c4,1.7,7.5,2.4,12.3,2.4c6.1,0,6.7,0.2,7.6,2.5
		c1.1,2.8,4.3,4.7,11.5,6.5c2.8,0.7,6.8,2.2,9,3.3c3.8,1.9,8,3.1,15,4.3c1.7,0.3,5.5,1.8,8.5,3.3c5.9,3,18.2,7.4,24,8.5
		c1.9,0.4,4.4,1.3,5.5,1.9c2.2,1.4,14.7,5.6,16.6,5.6c0.7,0,5.1,1.8,9.8,4.1c4.7,2.2,10,4.3,11.6,4.6c1.7,0.3,4.2,1.2,5.7,1.9
		c1.5,0.7,3.7,1.4,5,1.4c3.6,0,11.4,2.8,21.3,7.6c10.3,5,22.4,9.8,27.4,10.9c1.9,0.4,6.4,2.3,10.1,4.2c5.3,2.8,8.3,3.6,15,4.2
		c4.6,0.4,8.5,1.2,8.7,1.8c1.3,3.9,5.5,6,15.8,8.1c1.6,0.3,4.1,1.4,5.5,2.4c1.4,1,7.4,3.4,13.3,5.4s11.5,4,12.5,4.5
		c6.1,3.3,13.8,6.2,18,6.7c2.6,0.3,5.9,1.4,7.3,2.3c1.4,1,3.6,2.1,5,2.5c1.4,0.4,11.3,5,22,10.2c26.9,13.2,28.6,13.9,36,16.3
		c6.3,2,8.7,3.3,15.9,8.6c2.8,2.1,4.5,2.5,10.2,2.5c6.7,0,6.8,0,6.6,2.7c-0.2,2.5,0.5,3,7.8,6c4.4,1.8,10.2,4.5,13,5.9
		c2.8,1.4,10.2,4.6,16.5,7.1c6.3,2.5,11.7,4.9,12,5.4c0.3,0.5,2.9,0.8,5.8,0.7c4.8-0.2,5.4,0,7.7,3c1.4,1.7,4.2,3.7,6.2,4.4
		c2.1,0.7,5.1,2.2,6.7,3.5s4.3,2.6,6,3c1.7,0.4,4.6,2,6.5,3.6s4.4,2.9,5.5,2.9c1.1,0,3.8,1.1,6,2.5c2.2,1.4,4.7,2.5,5.5,2.5
		c0.8,0,3.2,0.9,5.2,2c2.1,1.1,5.2,2,6.9,2s3.9,0.6,4.8,1.4c2.7,2.5,18.4,10.2,22.1,10.9c2,0.4,5.6,2.5,8.5,5
		c5.3,4.6,9.9,6.7,14.9,6.7c3.2,0,6.3,1.7,10.3,5.7c2.2,2.2,4.8,3.1,14,5.2c2.3,0.5,5.6,2.1,7.2,3.4c1.8,1.5,6.5,3.4,11.6,4.8
		c4.8,1.3,11.2,3.8,14.3,5.7c3.5,2.1,7.7,3.7,10.9,4.2c3,0.4,6.5,1.7,8,2.9c3.5,2.8,5.3,3.6,13.2,5.7c8.1,2.1,12.8,3.9,20.6,7.6
		c5.6,2.7,12.3,5.2,24.9,9.4c2.8,0.9,7.1,2.8,9.6,4.1s5.8,2.4,7.3,2.4c1.5,0,4.4,1.4,6.4,3c2.5,2,5.6,3.3,9,3.9
		c2.9,0.5,5.7,1.3,6.4,2c0.6,0.6,2.1,1.1,3.3,1.1c1.2,0,4,0.9,6.3,2c2.3,1.1,4.8,2,5.6,2s4.5,1.4,8.2,3c4.1,1.8,7.5,2.8,8.7,2.4
		c1.2-0.4,4.7,0.6,9.1,2.7c3.9,1.8,9,3.4,11.3,3.5c2.6,0.1,5.3,1,6.9,2.3c1.5,1.2,4.1,2.1,5.9,2.1c1.7,0,4.1,0.7,5.3,1.5
		c3.4,2.4,15,6.5,18.4,6.5c1.7,0,4.3,0.6,5.7,1.4c7.2,3.8,11.4,5.6,13.5,5.6c1.2,0,4,0.9,6.2,2c4.7,2.4,7.7,2.6,6.9,0.5
		c-0.4-1.1,0.1-1.5,2.3-1.5c1.9,0,4.4,1.4,7.3,4c4.6,4.1,8.6,5.6,12.1,4.5c1.3-0.4,3.9,0.4,7.6,2.5c3.9,2.2,6.8,3.2,9.7,3.1
		c2.3,0,4.7,0.4,5.3,0.9s3.4,1.4,6,1.9s8,1.8,11.8,3s9.7,2.5,13,2.9c3.3,0.4,7.1,1.4,8.5,2.1c1.4,0.7,6.1,2,10.5,2.7
		s9.5,2.1,11.4,2.9c1.8,0.9,3.6,1.3,3.9,1s1.8,0.1,3.4,0.9s4.9,1.5,7.4,1.5c2.8,0,9.7,1.8,17.8,4.5c7.3,2.5,13.9,4.5,14.6,4.5
		s3.3,0.9,5.5,1.9c2.3,1.1,6.8,2.7,10.1,3.6c5.7,1.6,14,4.3,21.5,7c2.4,0.9,4.1,1,5.4,0.2c1-0.6,4.7-0.8,8.1-0.6
		c5,0.3,6.9,0.9,9.4,3.1c2.4,2,4.3,2.7,7.5,2.7c2.6,0,4.8,0.6,5.5,1.5c0.7,0.8,2.1,1.5,3.2,1.5s2.9,0.5,4.1,1.2
		c1.2,0.6,3.7,1.1,5.6,1s4.1,0.4,5,1.2c0.9,0.8,3.4,1.7,5.6,2.1s4.9,1.3,6,2.1c1.1,0.8,3.2,1.4,4.7,1.4c4.8,0,23.8,5,33.9,9
		c7,2.7,11.1,4.1,15.5,5.2c2.2,0.5,5,1.6,6.3,2.5c3.1,2,10.4,4.3,17.3,5.3c3.1,0.5,8.1,2,11.1,3.5c3,1.4,5.9,2.6,6.3,2.6
		s1.9,1,3.1,2.1c1.3,1.2,4.1,2.3,6.6,2.6c2.4,0.3,5.4,1.1,6.8,1.9c4,2.2,25.3,11.4,26.5,11.4c0.6,0,2.9-0.9,5-2
		c4.7-2.4,6-2.1,6.8,1.7c0.6,2.9,4,5.3,7.6,5.3c1.7,0,5.3,1.2,19.6,6.7c2.8,1.1,7.2,2.2,9.9,2.6s7.5,2,10.7,3.7s6.6,3,7.5,3
		c0.9,0,4.1,0.8,7.2,1.9s8.1,2.7,11.1,3.7c3,1,7.8,3.3,10.7,5.1c4.2,2.7,6.6,3.4,12.5,4c4,0.4,8,1.2,8.8,1.9s2.6,1.8,4,2.4
		c1.4,0.6,3.2,1.5,4,2c4.5,2.9,14.8,5.9,18.1,5.4c3.2-0.5,3.8-0.2,5.7,2.4c1.3,1.8,3.4,3.3,5.4,3.7c1.8,0.4,5.9,2,9.1,3.6
		c3.2,1.6,6.7,2.9,7.7,2.9c1,0,4.5,1.6,7.8,3.5s6.3,3.5,6.8,3.5c0.5,0,3,1.6,5.7,3.5c4.6,3.3,7.6,4.6,13.9,6
		c1.5,0.3,2.8,1.3,2.8,2.1s0.7,1.5,1.5,1.5s3.3,0.9,5.5,2s4.9,2,6.1,2c1.2,0,3.6,1.2,5.4,2.8c8,6.8,10.9,8.8,13.8,9.9
		c1.7,0.6,5.3,2.5,7.8,4.2c2.6,1.7,5.3,3.1,6.2,3.1s1.7,0.4,1.9,0.9c0.5,1.3,10.8,6,10.8,4.9c0-0.5,0.5-0.6,1-0.3
		c0.7,0.4,0.7,1.1-0.1,2.1c-1.3,1.6,0.3,4.4,2.6,4.4c1.2,0,11.1,7.4,19.3,14.6c2.4,2.1,6.6,5.2,9.5,7.1c2.8,1.8,6.3,4.5,7.7,5.9
		c3.5,3.6,11.7,9.4,13.1,9.4c2.5,0,7.8,5,8.4,8c1.1,4.9,25.8,31,29.4,31C2739.7,2769.3,2740.6,2768.8,2740.6,2768.2L2740.6,2768.2z
		 M2582.3,2547.8c-0.3-0.9,0-1.5,0.9-1.5c0.9,0,1.2,0.6,0.9,1.5c-0.3,0.8-0.7,1.5-0.9,1.5S2582.6,2548.6,2582.3,2547.8z
		 M2147.8,2885.1c-1.6-1.6-1.5-2.8,0.3-2.8c0.8,0,1.5,0.2,1.5,0.4s0.3,1.1,0.6,2C2151,2886.6,2149.6,2886.8,2147.8,2885.1
		L2147.8,2885.1z"/>
</g>
</svg>
