<?xml version="1.0" encoding="utf-8"?>
<!-- Generator: Adobe Illustrator 25.4.1, SVG Export Plug-In . SVG Version: 6.00 Build 0)  -->
<svg version="1.1"
	 id="svg182" inkscape:version="1.1 (c4e8f9e, 2021-05-24)" sodipodi:docname="deska.svg" xmlns:inkscape="http://www.inkscape.org/namespaces/inkscape" xmlns:sodipodi="http://sodipodi.sourceforge.net/DTD/sodipodi-0.dtd" xmlns:svg="http://www.w3.org/2000/svg"
	 xmlns="http://www.w3.org/2000/svg" xmlns:xlink="http://www.w3.org/1999/xlink" x="0px" y="0px" viewBox="0 0 3456 4608"
	 style="enable-background:new 0 0 3456 4608;" xml:space="preserve">
<sodipodi:namedview  bordercolor="#666666" borderopacity="1.0" id="namedview184" inkscape:current-layer="g188" inkscape:cx="1730.0794" inkscape:cy="2304" inkscape:pagecheckerboard="0" inkscape:pageopacity="0.0" inkscape:pageshadow="2" inkscape:window-height="776" inkscape:window-maximized="0" inkscape:window-width="1365" inkscape:window-x="0" inkscape:window-y="25" inkscape:zoom="0.12022569" pagecolor="#ffffff" showgrid="false">
	</sodipodi:namedview>
<g id="g188" inkscape:groupmode="layer" inkscape:label="Image">
	<path id="path323" d="M952.7,3377.6c0.6-6.5-0.8-8.1-6.6-7.4c-7.1,0.9-12.1,2.8-14,5.2c-1.8,2.2-1.9,2.2-4.5,0.5
		c-1.7-1.2-4.1-1.7-6.6-1.5c-2.3,0.2-5-0.4-6.4-1.3c-1.8-1.2-3.6-1.4-7-0.9c-2.5,0.4-5.3,0.7-6.1,0.7c-3,0-12.6-2.3-17.5-4.2
		c-3.2-1.2-7.6-1.9-12-1.9c-3.9,0-7.5-0.5-8.1-1.1c-0.6-0.6-3.3-1.2-6.1-1.4c-2.8-0.2-6.1-0.9-7.4-1.7c-1.3-0.7-5.7-1.4-9.9-1.4
		c-6-0.1-9.4-0.8-17.3-3.7c-9.9-3.7-16.3-6.8-20.6-10c-1.3-1-3.4-1.8-4.8-1.8c-1.4,0-2.4-0.6-2.4-1.5c0-1.6-1.4-1.8-7.5-0.7
		c-3.9,0.7-4.1,0.6-8.8-4.9c-4.1-4.8-5.6-5.9-10.6-7.3c-3.7-1-6.1-2.3-6.7-3.6c-1.6-3.4-12.5-14.1-16.5-16.1
		c-2.1-1.1-3.9-2.7-3.9-3.5s-0.6-2.8-1.4-4.2s-2-3.9-2.7-5.5s-3.4-5.2-5.9-8.2c-4.8-5.7-10-13.6-10-15.2c0-0.5-1.2-2.2-2.6-3.7
		c-2.6-2.8-11.2-26.3-13.8-37.6c-0.7-3-2-6.7-2.9-8c-0.9-1.4-1.5-3.4-1.3-4.5c0.4-2.2,0.9-15.9,0.7-18.7c-0.1-1-0.8-1.8-1.6-1.8
		s-1.5-0.6-1.6-1.2c-0.3-2.9,0.4-6.4,1.7-8.8c1.3-2.4,4.3-17,4.8-23.7c0.2-1.8,1-4,1.9-5s1.9-4.5,2.3-7.8c0.4-3.3,1.6-8,2.7-10.5
		s2.2-7,2.5-10s1.2-6.6,2.1-8s1.7-4.6,1.8-7.2c0.1-2.7,0.9-5.4,1.8-6.3c0.9-0.9,1.6-3.3,1.6-5.4c0-2.1,0.7-5.1,1.5-6.7
		c2.7-5.2,5.5-12,5.5-13c0-1.5,2.9-7.2,4.1-7.9c0.5-0.3,0.9-1.6,0.9-2.8c0-1.2,1.1-3.3,2.5-4.6s2.5-3.3,2.5-4.4s0.7-2.9,1.5-4
		s1.5-3.5,1.5-5.3s0.6-4,1.4-4.8s2.2-3.6,3.2-6.2c1-2.6,4-8.8,6.6-13.7s5.1-10.1,5.4-11.5c0.5-2.3,6-14.3,8.2-18
		c0.5-0.8,2.1-4,3.6-7c2.9-5.8,6-10.6,10.1-15.5c3.6-4.3,14.5-19.7,15.2-21.5c0.3-0.8,2.7-4.4,5.2-8s5.2-7.6,5.9-8.9
		c0.7-1.3,3.5-5.1,6.3-8.5s5.9-8.2,7-10.6c1.1-2.5,3.7-6.8,5.7-9.5s4.4-6.1,5.1-7.5s3.7-5.3,6.7-8.7c2.9-3.4,5.4-6.7,5.4-7.4
		c0-1.9,8.4-16.9,11.9-21.4c1.7-2.1,3.1-4.5,3.1-5.2c0-0.7,0.6-1.7,1.4-2.1c0.7-0.4,1.9-1.8,2.5-3s2.9-4.3,5.1-6.8s4-5.3,4-6.2
		c0-1.9,4-8.1,8.7-13.5c1.8-2.1,4.4-6.1,5.7-9c1.3-2.9,3.6-6.5,5-8c1.4-1.5,3.3-4.1,4.1-5.7s1.9-2.9,2.4-2.9s1.6-1.8,2.4-3.9
		c0.9-2.1,2.7-5.2,4.2-6.7c1.4-1.6,2.9-4.1,3.2-5.7s1.2-3.1,1.9-3.4c0.7-0.3,2.2-2.4,3.2-4.7c1-2.3,3.9-6.4,6.5-9.1s4.6-5.6,4.6-6.3
		c0.1-2.1,4.6-9.3,9.1-14.2c7.5-8.2,11.4-15,11.9-20.4c0-0.5,0.7-0.6,1.5-0.3c1.3,0.5,6.6-6,6.6-8.2c0-0.5,0.6-1.4,1.3-2
		c0.7-0.6,2.4-3.3,3.7-5.9c1.3-2.6,3.8-6.2,5.7-8c1.8-1.8,3.3-4.1,3.3-5.1s1.1-2.9,2.4-4.1s2.9-3.5,3.5-5c0.6-1.5,3.6-5.4,6.7-8.7
		c3.1-3.3,7.5-8.9,9.9-12.6c2.9-4.5,5.2-6.8,6.9-7.3c1.9-0.5,3.2-2,5-6c1.3-3,2.8-5.7,3.4-6c0.6-0.4,1.1-1.4,1.1-2.2
		c0-1.9,5.6-8.3,12.5-14.1c2.8-2.4,5.6-5.4,6.3-6.8s4.2-5.4,7.8-8.9s6.4-6.9,6.4-7.6c0-0.6,1.9-3,4.1-5.3s4.8-5.6,5.5-7.3
		c0.7-1.8,3.1-4.9,5.2-7c2.1-2.1,4.4-5.5,5.1-7.5c0.7-2.1,1.8-4.1,2.5-4.5c0.7-0.4,1.8-2.4,2.5-4.4c0.6-2,2-4,3-4.5
		c3.6-1.8,15-15,16.4-19.1c1.4-4.1,2-4.9,10.1-15.3c4.9-6.3,8.6-12.4,8.6-14.5c0-0.8,1.1-2.2,2.4-3c1.3-0.9,2.9-2.9,3.5-4.6
		s1.9-3.2,3-3.5c1.1-0.3,2.2-1.7,2.6-3.1c0.8-3.1,5-9.3,9.9-14.7c2-2.2,3.6-4.7,3.6-5.7c0-1,0.5-2,1-2.4c0.6-0.3,2.2-2.9,3.6-5.7
		s3.5-6,4.6-7.2c1.1-1.2,2.5-3.4,3-4.9c0.5-1.5,1.3-2.8,1.8-2.8s2-2.4,3.5-5.2c1.5-2.9,4.8-7.3,7.4-9.8c5.3-5.1,7.7-8.9,11-17.2
		c1.2-3.1,2.9-6.2,3.7-6.9c0.8-0.6,1.4-1.9,1.4-2.8s1.4-3.3,3-5.3c1.7-2,3.9-5.7,5-8.2c1.1-2.5,2.4-4.8,3-5.1
		c0.5-0.3,3.7-4.1,6.9-8.3c3.3-4.2,8.7-11,12-15.1c3.6-4.5,6-8.4,6-9.8c0-1.3,1.3-3.6,2.8-5.1c2.6-2.5,5.7-6.3,10.7-13.2
		c1.1-1.5,3.5-4.7,5.3-7.1s4-5.5,5-6.8c2-2.8,8.2-10.3,12.1-14.6c3.5-3.9,7.2-9.1,9.7-13.7c1.1-2,5.4-7.7,9.5-12.7
		c4.1-4.9,9.7-12.2,12.5-16.1s7.1-9.2,9.8-11.8s4.8-5.3,4.8-5.9s0.6-1.8,1.3-2.5c0.7-0.7,2.4-2.9,3.7-4.8c1.3-1.9,4.2-5.4,6.4-7.8
		c2.2-2.4,5.1-6.2,6.5-8.6c4.9-8.4,6.5-10.6,7.7-10.6c0.6,0,1.4-0.8,1.7-1.8c1.7-4.8,9.6-17,15.1-23.2c2.5-2.8,4.5-5.5,4.5-6
		s1.5-2.7,3.2-4.9c3.2-3.9,4.7-6.2,9.8-14.9c2.3-3.9,7.2-9.8,23.9-28.4c2.7-3,6.5-7.8,8.3-10.5s5.3-7,7.7-9.5
		c2.4-2.5,6.7-7.4,9.5-11s6.4-7.6,7.9-8.9c1.8-1.7,2.6-3.4,2.6-5.8c0-4.5,1.6-7.3,4.1-7.3c2.4,0,11.5-8.8,15.2-14.6
		c1.4-2.2,3.9-5.3,5.6-7c1.7-1.6,3.1-3.5,3.1-4.2c0-0.7,3.8-5.1,8.5-9.8c8.4-8.5,16.2-17.9,18.5-22.6c0.7-1.3,2.5-3.7,4-5.4
		c1.5-1.7,3.4-4.2,4.1-5.6c1.4-2.6,5.4-7.6,13.6-16.8c2.3-2.6,4.2-5.1,4.2-5.5c0-1.2,13.7-15.6,18.1-19c3.8-3,13.9-15.7,13.9-17.5
		c0-0.5,0.4-1,1-1s1-1.1,1-2.5c0-1.5,1.5-4,3.8-6.4c2.1-2.2,4.9-5.2,6.2-6.9s5-5.8,8.1-9.4c3.1-3.5,5.9-7.4,6.3-8.6s2.1-3.3,3.9-4.6
		c1.8-1.4,5.1-5.3,7.4-8.8c4.4-6.7,7.2-10,22.7-26.9c5.3-5.8,10.4-11.8,11.2-13.5c0.9-1.7,5-6.1,9.2-9.9c4.2-3.8,9.3-9,11.4-11.5
		c7.8-9.5,11.4-13.6,15.7-18.6c2.5-2.8,6.3-7.3,8.5-9.9s5.7-6.4,7.9-8.4c2.1-2,5.7-5.7,8-8.1c2.3-2.5,5.7-6.1,7.7-8
		c5-5,13-14.5,13-15.6c0-0.5,3.4-4.5,7.6-8.9c4.2-4.4,9.4-10.7,11.5-14c2.2-3.3,6.5-8.7,9.7-12s7.4-8,9.4-10.5s5.7-6.8,8.2-9.5
		s4.6-5.4,4.6-5.8c0-0.5,1.8-2.7,4-5c5.8-6.1,12.5-14.7,14.5-18.5c1-1.8,4.8-6.5,8.7-10.3c3.8-3.8,6.9-7.6,6.9-8.3s0.6-1.8,1.3-2.4
		s1.9-2.9,2.7-5.2s2.1-4.5,3.1-5c1-0.5,3.3-3.6,5.2-6.8c3.6-6.1,7.4-10.7,14.4-17.4c2.3-2.2,4.5-5,4.9-6.2c1-3.2,6-10.3,12.8-18.1
		c3.3-3.8,6.9-8.7,8-10.8s2.3-3.8,2.7-3.8s1.8-2.1,3.1-4.8c1.3-2.6,4.2-7,6.6-9.7c2.3-2.7,4.3-5.7,4.3-6.6s1.8-3.6,4.1-6
		s5.3-6.2,6.7-8.4s5.1-6.9,8.2-10.4c6.6-7.6,12-15.2,12-16.6c0-0.6-0.9-1.6-2-2.3c-1.1-0.7-2-2.1-2-3.2c0-1.1-1.5-4.5-3.4-7.6
		c-2.7-4.5-3.3-6.4-2.9-9c0.3-2,0-4-0.7-4.8c-0.9-1.1-0.9-2.3,0-5.3c0.7-2.1,1.6-4.9,2-6.3s1.1-4.1,1.5-6s2.2-6.4,4-10
		c1.8-3.6,3.6-8,4-9.7c0.4-1.8,1.3-3.7,2-4.3c0.8-0.6,1.4-2,1.4-3c0-1,0.4-2.7,0.9-3.6c1.3-2.6,3.3-8.4,3.8-11.2
		c0.9-4.6,6.5-15.2,8.4-15.7c1.7-0.4,4.1-3.6,7.9-10.3c0.8-1.4,1.5-5,1.5-8c0.1-5.4,0.2-5.5,2.9-5.3c2.2,0.2,3.9-0.9,8.1-5.4
		c2.9-3.1,5.6-6.8,5.9-8.2c0.3-1.4,1.7-4,3.2-5.6c1.4-1.6,4.4-5.3,6.6-8.2c2.2-2.9,4.3-5.2,4.8-5.2c0.4,0,2.6-3,4.8-6.8
		s6.8-9.9,10.2-13.8s7-8.2,7.9-9.8c2.3-3.7,15.4-17.2,17.1-17.6c0.7-0.2,2.3-1.3,3.6-2.6c2.8-2.8,11.3-15.2,11.3-16.5
		c0-0.5,1.5-1.7,3.4-2.6c4.2-2,13.6-11.2,13.6-13.3c0-0.4,1.4-2.1,3-3.6c1.7-1.6,3-3.9,3-5.2c0-1.8,0.9-2.8,3.6-3.9
		c2-0.8,4-1.3,4.5-0.9c0.5,0.3,3-1.3,5.6-3.6c2.6-2.3,6-4.8,7.5-5.6c1.5-0.8,2.8-1.8,2.8-2.3c0-0.5,1.6-2.7,3.5-5
		c1.9-2.3,3.2-4.7,3-5.4c-1.1-2.9,18.6-23.6,22.4-23.6c0.6,0,1.6-0.9,2.1-2c0.6-1.1,2-2,3-2s2-0.6,2-1.4c0-1.5,10-9.7,13.3-10.9
		c1-0.4,1.5-1.2,1.1-1.7c-0.4-0.6,0.1-0.9,1.2-0.8c1.3,0.2,1.9-0.4,2.2-1.9c0.2-1.4,0.8-2,1.7-1.7c0.9,0.3,1.5-0.3,1.7-1.8
		c0.2-1.5,1.9-3.1,5.1-4.8c2.8-1.5,4.8-3.2,4.8-4.2c0-0.9,0.9-2,2-2.3s2-1,2-1.5c0-0.5,1.3-2.2,3-3.8c2-2,3.6-2.8,5-2.5
		c1.2,0.3,2,0,2-0.6c0-2.2,5.6-7.2,11.1-9.9c3-1.5,5.4-3.2,5.4-3.8s2.1-3.4,4.8-6.3c3.3-3.6,5.3-5,6.5-4.6c1.1,0.4,2.4-0.3,3.6-1.9
		c1-1.3,3.2-2.7,4.9-3.1c4.4-1,13.5-6.1,18-10.1c4.5-4.1,17.5-10.4,21.4-10.4c1.5,0,5.8-1.8,9.5-4c3.7-2.2,7.6-4,8.6-4
		c2.4,0,13.7-3.7,17.7-5.8c1.7-0.9,5.9-1.6,10-1.7c3.9-0.1,8.8-0.7,11-1.3c2.2-0.6,8.7-1.1,14.5-1.2c5.8,0,13.6-0.7,17.3-1.5
		c4.3-0.9,8.5-1.2,11.5-0.7c2.6,0.4,6.7,0.6,9.2,0.6c29.1-1.1,66.1,0.7,69.1,3.3c1.1,1,5.1,1.5,12.5,1.8c8.5,0.3,12.6,0.9,18.9,3.1
		c4.4,1.5,9,2.7,10.2,2.6s2.4,0.5,2.7,1.4s1.7,1.5,3.1,1.5c1.4,0,4.2,0.9,6.1,1.9c2,1.1,4.2,1.7,5,1.4c0.7-0.3,5.5,1.6,10.6,4.2
		c5.1,2.6,10.1,5.1,11,5.6c1,0.5,2.4,0.9,3.2,0.9s1.5,0.4,1.5,0.8c0,1.1,6,3.2,9.1,3.2c1.3,0,3.3,0.7,4.4,1.5s2.9,1.5,4,1.5
		c1.1,0,3,0.6,4.1,1.4s3.9,1.9,6.1,2.5c4.3,1.1,9.1,4.7,15.2,11.4c1.9,2.1,5.5,4.8,8,6c2.5,1.2,5.4,3.5,6.5,5
		c1.1,1.5,2.6,2.8,3.3,2.8c0.7,0,1.3,0.7,1.3,1.5s0.7,1.5,1.6,1.5s3.9,2.1,6.6,4.6c4.4,4.1,5.3,4.6,8.9,4.2c2.2-0.2,3.9,0,3.9,0.5
		c0,0.5,0.9,0.7,2,0.4c1.5-0.4,3.1,0.7,6,4c2.2,2.5,3.9,5,3.8,5.6c-0.1,0.6,0.5,1.1,1.3,1.1s2.1,1.4,2.9,3c1.9,4.1,6.1,8.5,8.2,8.5
		c0.9,0,2.5,0.9,3.5,2s2.3,2,3,2c4.2,0,15.5,9,15.5,12.3c0,0.5,1.8,2.9,4,5.4c2.2,2.5,4,4.9,4,5.4c0,1.4,14.1,21.8,15.1,21.8
		c0.5,0,0.9,1.2,0.9,2.6c0,3,1.7,6.6,3.6,7.7c0.7,0.4,1.4,1.4,1.4,2.2s0.6,2.6,1.4,4.2c0.8,1.6,2.4,5.1,3.6,7.8
		c1.2,2.8,2.6,5.8,3.1,6.7c0.5,1,0.9,2.6,0.9,3.8c0,1.1,0.4,2,1,2s1,0.6,1,1.3c0,0.7,0.9,3.1,2,5.2s2,5.1,2,6.6
		c0,1.5,0.5,2.9,1.1,3.1c1.2,0.4,1.8,2.7,1.9,7.5c0.1,2.5,0.7,3.5,2.8,4.5c2.3,1.1,2.9,2.3,4,7.8c0.7,3.6,2.1,8.1,3.1,10
		c1,1.9,2.5,4.8,3.4,6.5s1.8,5.4,2.2,8.4c0.4,3.6,2.5,9.3,6,16.6c3.4,6.9,5.2,12,4.9,13.2c-0.3,1.1,0.3,3.3,1.4,4.9
		c1.8,2.7,1.9,4.1,1.3,22.8c-0.4,12.9-1.1,20.8-1.9,22.3c-0.7,1.3-1.6,7.4-2,13.7c-0.4,6.3-1.2,12-1.8,12.7
		c-1.4,1.8-2.3,5.2-3.2,12.3c-0.8,6.1-3.4,17.6-5.3,23c-0.6,1.7-1.4,5.5-1.9,8.5c-0.5,3-1.8,8.4-2.9,11.9s-2,7.4-2,8.6
		c0,1.2-0.5,2.6-1,3.2s-1.2,2.8-1.4,5.1c-0.2,2.2-0.9,5-1.5,6.2c-1.2,2.3-3,13.4-3.5,22.2c-0.6,10.3-1.8,15.5-4.1,18
		c-2.6,2.9-4.6,11.8-6.1,27.5c-0.5,5.6-3.6,15.5-5.6,18.1c-0.5,0.6-1.5,3.8-2.4,7s-2.4,8.1-3.5,10.7s-2.5,7.6-3,11
		c-0.5,3.4-1.7,7.3-2.6,8.6c-3.2,4.8-5.3,9.5-5.9,13.2c-0.4,2.3-1.8,4.9-4,6.9c-2.3,2.2-3.4,4.2-3.4,6.1c0,1.6-0.7,3.9-1.6,5.3
		s-1.4,3.1-1,3.9s-0.3,2.5-1.4,3.8c-5,5.9-10.1,13.5-10.6,15.8c-0.3,1.4-1.2,3.8-2,5.3c-0.8,1.6-1.5,3.3-1.5,3.8s-1.2,2.5-2.6,4.4
		c-1.4,1.9-2.4,4-2.1,4.7c0.4,1.2-0.7,3.5-8.1,17.1c-1.8,3.2-2.9,6.2-2.6,6.7c0.3,0.5-1.7,4.2-4.5,8.2c-2.8,4-5,7.8-5,8.4
		c0,0.6-1.1,2.2-2.5,3.5s-2.5,2.8-2.5,3.4c0,0.6-1.3,3.8-2.9,7.1c-5,10.4-8.1,18.2-8.1,20.6c0,2.3-2.9,8.7-6.2,13.9
		c-0.9,1.4-2.1,4.5-2.8,7c-1.1,4.3-5,13.3-9.1,21.2c-1.1,2-1.9,4.4-1.9,5.4s-1.9,3.4-4.1,5.5c-3.1,2.9-4,4.4-3.6,6
		c0.6,2.2-2.1,8.9-3.5,8.9c-0.5,0-2,2.6-3.4,5.8c-1.4,3.2-3,6.4-3.5,7.2s-1.8,3.5-3,6c-6,12.7-11.4,23-12.1,23
		c-0.4,0-0.8,0.8-0.8,1.8c0,1-0.9,3.1-2,4.8s-2,3.7-2,4.6c0,0.9-0.7,2.2-1.6,2.9c-0.9,0.7-1.3,1.9-1.1,2.5c0.3,0.7-0.2,1.8-1,2.5
		s-3.1,4.7-5,8.8c-1.9,4.2-4.5,8.6-5.7,9.9c-1.2,1.3-4,5.1-6.2,8.6c-6.7,10.5-12.2,18.9-15.2,23c-1.5,2.1-3.4,5.1-4.2,6.5
		c-3.2,6-13.9,21.2-17.7,25.1c-1.3,1.4-2.4,3.3-2.4,4.3s-0.7,2-1.5,2.3s-1.5,1.1-1.5,1.8c0,2-3.1,7.8-6.6,12
		c-4.2,5.2-13.4,19.1-13.5,20.2c0,0.9-8.3,11-12.9,15.8c-1.6,1.6-4.6,6.6-6.6,10.9c-3.8,8.1-11.3,20.3-15.9,25.7
		c-1.4,1.7-2.6,3.7-2.6,4.5c0,0.8-1.1,2.7-2.5,4.2c-3.9,4.3-8.5,11-14.2,20.5c-1.6,2.6-5.2,7.3-8.1,10.5s-5.5,6.9-5.8,8.3
		c-1.1,4.9-4,9.3-11.4,17.5c-7,7.7-9.4,11.1-22.5,31.5c-2.8,4.3-6.8,10.4-9,13.5s-5.1,7.8-6.3,10.4s-4.5,7.2-7.1,10.2
		c-2.6,3-5.8,7.6-7.2,10c-2.5,4.6-8.9,13.5-14.6,20c-3,3.4-14.2,24.5-14.2,26.6c0,0.5-2.5,3.4-5.5,6.4s-5.5,5.8-5.5,6.3
		s-4.1,5.4-9.1,11s-9.5,11.1-9.9,12.2s-5.3,6.6-10.9,12.2c-5.6,5.6-10.1,10.8-10.1,11.5c0,0.7-2.6,4-5.8,7.3
		c-6.7,7-14.3,16-15.7,18.3c-0.5,0.9-2.9,3.6-5.3,5.9s-5.2,6.2-6.2,8.5c-1.8,4.1-6.5,9.8-8.2,9.8c-0.4,0-1.1,0.9-1.4,2
		s-4,5.7-8.1,10.2s-9.3,10.2-11.5,12.7s-6,6.8-8.5,9.5c-2.5,2.8-5.3,6.4-6.2,8.1c-0.9,1.7-4.2,5.8-7.2,9.1
		c-7.5,8.1-12.2,13.9-13.9,17.1c-0.8,1.5-2.9,4.2-4.8,6.2s-4.1,5.1-4.9,7c-2.8,6.3-10,16.5-15.7,22c-3.1,3-7.6,8.4-10.1,12
		c-2.4,3.6-7.8,10-12,14.3c-4.5,4.7-8.7,10.1-10.3,13.5c-1.5,3.1-4.8,8.1-7.4,11.2c-2.6,3-5.6,7.5-6.7,10s-3.4,5.8-5.1,7.4
		c-1.7,1.6-3.1,3.5-3.1,4.1c0,0.6-2.1,3.2-4.8,5.6c-2.6,2.5-5.5,5.6-6.5,6.9c-0.9,1.3-3.1,4.4-4.7,6.7s-3,4.6-3,5.1s-2.1,3-4.8,5.8
		s-5.4,6.1-6.1,7.6c-0.8,1.4-4.5,5.4-8.2,8.7c-3.8,3.4-6.9,6.8-6.9,7.7c0,0.8-2.4,4.1-5.3,7.2c-2.9,3.1-6.7,7.7-8.4,10.2
		c-4,6-15.9,18.8-18.1,19.4c-0.9,0.3-2.8,2.6-4.2,5c-1.4,2.6-3.6,5-5.3,5.6c-1.5,0.6-3.6,2.5-4.5,4c-0.9,1.6-2.2,2.9-2.8,2.9
		c-1.8,0-5.2,4.2-6.9,8.5c-1,2.5-3.3,5.4-6.1,7.5c-5.5,4.2-5.8,4.5-11.4,11.6c-2.5,3.1-6,7.1-7.9,8.8c-7.7,7-13.3,13.3-15.4,17.2
		c-1.2,2.3-6.6,8.8-12,14.4c-5.4,5.6-9.8,10.6-9.8,11.1c0,1-7.1,7.8-8.2,7.8c-0.4,0-1.4,1.3-2.2,2.8c-3.4,6.5-16.5,21.8-30.1,35.1
		c-1.9,1.9-3.8,4.4-4.2,5.5c-0.6,1.9-3,4.8-13.3,16.1c-2,2.2-5.2,6-7.1,8.5s-4.1,5-4.9,5.6c-0.8,0.6-1.1,1.8-0.8,2.8
		c0.4,1.2,0.1,1.6-1.2,1.6c-1,0-3.1,1.7-4.7,3.8c-4.6,6.1-4.8,6.3-7.4,8.6c-3.1,2.7-11.7,11.6-17.6,18.2c-8.1,9-21,22.5-21.6,22.5
		c-0.3,0-2.1,1.5-4,3.2c-9.2,8.7-20.5,18.4-22,19c-1,0.4-1.8,1.3-1.8,2.1c0,0.8-2.7,3.1-6,5.2s-6,4.1-6,4.5c0,0.4-2.2,3.6-5,7
		s-5,6.6-5,7s-1.9,3-4.2,5.8s-5.6,6.6-7.2,8.7c-1.7,2-6.7,7.4-11.2,11.9s-8.9,9.6-9.8,11.4s-2.7,3.7-4,4.4s-4.8,3.5-7.7,6.3
		c-2.9,2.8-7.2,6.5-9.6,8.3c-2.3,1.8-4.2,3.9-4.2,4.6c0,2.2-8.8,9.3-15.6,12.6c-3.5,1.7-6.4,3.4-6.4,3.8c0,0.3-1.4,2.2-3.1,4.1
		c-1.7,1.9-3.5,4.5-3.9,5.7c-0.9,2.3-6.1,6-11.7,8.2c-2,0.8-3.2,2-3.2,3.2c0,1-0.4,1.9-0.9,1.9c-1.1,0-7.7,5.6-10.5,8.9
		c-4.4,5.2-9.1,9.2-11.5,9.8c-3.7,0.9-9.4,3.9-11.1,5.9c-0.8,0.9-3.2,2.6-5.4,3.6s-5.1,2.5-6.5,3.2s-4.3,2.2-6.5,3.2
		s-4.6,2.7-5.3,3.6c-0.7,1-2,1.8-2.9,1.8c-2.2,0-8.6,5.8-10,9.2c-1,2.4-1.7,2.8-4.6,2.6c-2.3-0.2-4.4,0.6-6.9,2.5
		c-2.1,1.6-4.2,2.5-5.2,2.1c-1.5-0.6-7.2,3.2-11.9,7.8c-1,1-2.4,1.8-3.2,1.8c-0.8,0-2.4,1.4-3.6,3c-2.3,3.2-10.2,8.9-17.8,12.8
		c-2.5,1.3-8.3,6.1-12.8,10.6c-4.6,4.6-9.5,8.6-11.1,9c-1.5,0.4-3,1-3.3,1.4c-0.6,0.9-12.8,8.1-13.7,8.1c-0.3,0-2.3,1.6-4.4,3.5
		c-2.1,1.9-4.5,3.5-5.2,3.5s-2.4,1.1-3.6,2.5c-1.3,1.4-3.8,2.9-5.5,3.5c-1.8,0.6-4.4,2.4-5.9,4c-1.6,1.8-3.6,3-5.2,3
		c-1.8,0-4.1,1.5-7.4,5c-2.7,2.8-5.6,5-6.5,5c-1.7,0-12.5,7.7-12.5,9c0,0.4-1.9,1.6-4.2,2.6s-6.6,3.8-9.4,6.1
		c-2.8,2.3-7.8,5.6-11,7.3s-6.5,3.5-7.3,4c-1.4,0.9-9.4,4.6-15,7c-1.4,0.6-5.4,2.8-9,5s-7.6,4.5-9,5.1c-10.8,5-17.1,8.3-18.1,9.5
		c-0.6,0.8-1.5,1.4-2,1.4c-0.5,0-2.5,1.1-4.5,2.5c-2,1.4-5,2.5-6.6,2.5c-3.7,0-6.7,1.5-9.4,4.9c-1.8,2.2-2.9,2.6-6.9,2.4
		c-2.7-0.1-5.9,0.4-7.4,1.2c-1.4,0.8-5.6,2.6-9.1,4c-8,3.2-8.6,3.4-18.1,7.9c-4.2,2-8,3.6-8.6,3.6c-0.6,0-1.6,0.7-2.3,1.5
		s-2.1,1.5-3.1,1.5s-2.5,0.7-3.3,1.5c-0.8,0.8-3,1.5-4.9,1.5s-3.8,0.4-4.3,0.9s-2.8,1.4-4.9,2.1c-6,1.9-14.5,6-14.5,7.1
		c0,0.5-2.6,0.9-5.8,0.9c-4.6,0-6.3,0.5-8.2,2.2c-1.3,1.2-3.2,2.3-4.2,2.4c-1,0.1-3.5,0.8-5.5,1.6c-2,0.8-6,2-8.7,2.5
		s-9.5,2.2-15,3.7c-5.5,1.5-11.8,3.1-14,3.6s-5.3,1.5-6.9,2.1c-1.6,0.6-6.7,1.1-11.4,1c-6.3-0.1-9.9,0.3-13.6,1.7
		c-2.8,1-7.1,2.2-9.6,2.6s-7.7,1.7-11.5,2.9c-7.8,2.4-8.7,2.5-26.5,3.1c-12.4,0.4-26,3.2-27.6,5.7c-0.4,0.6-1.9,0.7-3.7,0.4
		c-3-0.7-3-0.6-2.5,2.7c0.3,1.8,0.8,4.4,1.2,5.6c0.6,1.9,0.4,2.2-1.5,2.2C952.3,3382.7,952.2,3382.4,952.7,3377.6L952.7,3377.6z
		 M934.9,3258c2.8-0.3,7.5-0.9,10.5-1.4c3-0.5,11.1-1.4,18-1.9c21.3-1.6,37.2-4.4,40.9-7.4c0.7-0.6,4.2-1.4,7.7-1.7
		c3.5-0.4,7.1-1.3,8-2s2.8-1.5,4.3-1.6c8.6-0.7,16.9-2.1,18.6-3.1c5.1-2.9,9.7-4.1,14.3-3.6c3.7,0.4,6.8-0.2,13.9-2.5
		c5-1.7,10.1-3.1,11.3-3.1c1.3,0,2.4-0.8,2.7-1.8c0.4-1.4,1.1-1.7,3-1.4c1.6,0.3,2.9-0.1,3.7-1.2c1-1.4,1.7-1.5,4.5-0.4
		c2.6,1,3.9,1,6.5-0.1c1.8-0.7,5.4-1.7,8-2.2c4.1-0.7,17.6-7.1,48-22.6c3.4-1.8,7.4-3.2,8.7-3.3c1.4,0,3.8-1,5.5-2.1s3.7-2,4.6-2
		c0.9,0,5.6-2,10.4-4.4s9.7-4.7,10.9-5c1.2-0.3,3.9-1.9,6-3.6s4.7-3,5.8-3c1.1,0,10.8-4.4,21.6-9.7c13.8-6.8,21.2-11.1,25.1-14.5
		c3-2.7,7.3-5.7,9.6-6.9s6.6-4.4,9.6-7.2c3-2.9,6.5-5.9,7.7-6.7c2.2-1.5,2.2-1.7,0.7-5c-0.8-1.9-1.8-5.6-2.2-8.2
		c-0.3-2.6-1-4.8-1.4-4.8s-2.1-2.8-3.6-6.2c-1.5-3.4-3.8-7.8-5.1-9.8c-2.1-3.2-2.3-4.4-1.8-13c0.2-5.2,0.4-13.8,0.4-19
		c0-8.2,0.3-10.2,2.5-14.7c1.4-2.9,2.6-6.4,2.6-7.9c0-1.5,0.7-3.4,1.5-4.3c1.3-1.5,3-4.5,11.4-20.8c1.3-2.5,2.5-5.1,2.6-5.6
		c0.6-2.8,3.9-9.5,4.6-9.5c1.6,0,6.4-6.1,8-10.2c0.9-2.2,3.5-6.2,5.9-9c2.9-3.4,4.1-5.6,3.8-6.9c-0.3-1.1-0.1-2.2,0.4-2.5
		c1.7-1.1,0-2.1-4.3-2.7c-2.4-0.3-6.2-1.5-8.5-2.6c-7-3.4-8.9-2.8-12.2,3.6c-1.2,2.3-2.7,4.4-3.5,4.7c-0.7,0.3-2.2,2.5-3.4,4.9
		c-2.8,6-8.4,10.8-12.6,10.8c-3.8,0-7,2.8-6,5.4c0.3,0.9,0.2,1.6-0.4,1.6s-3.1,1.4-5.7,3.1c-4.1,2.8-4.9,3-7,1.9
		c-1.3-0.7-3.5-1-4.9-0.6c-2.6,0.6-9.6-2-9.6-3.6c0-0.4-0.7-0.8-1.6-0.8c-0.9,0-3.9-1.1-6.8-2.4c-2.9-1.3-7.6-2.7-10.5-2.9
		s-6.4-1.2-7.7-2.1s-2.9-1.6-3.6-1.6c-1.6,0-5.8-4-5.8-5.6c0-2.1-2-2.6-5-1.4c-3.7,1.5-8.7,0.5-7-1.5c0.6-0.8,0.8-2.5,0.5-4
		c-0.6-2.2-1.1-2.6-3.3-2.1c-2.1,0.5-3.4-0.1-6.1-2.7c-1.9-1.8-4.1-4.5-4.9-6s-1.8-2.7-2.2-2.7c-1,0-5.9-10.1-5.9-12.2
		c0-0.8-1-2.8-2.2-4.3c-1.2-1.5-2.4-4.4-2.8-6.4c-0.5-2.9-1.2-3.8-3.6-4.5c-1.6-0.5-4.3-1.5-6-2.2c-5.6-2.5-7.6-2.7-9.3-1.1
		c-0.9,0.8-4,3.6-6.9,6.2c-3.1,2.8-5,5.2-4.7,6c0.3,0.9-0.5,1.6-2.3,2.1c-1.6,0.4-3.1,1-3.3,1.4c-0.3,0.4-3.2,2.4-6.5,4.5
		c-3.3,2.1-8,5.8-10.4,8.4c-4.5,4.7-10.5,9.2-12.1,9.2c-0.5,0-3.5,2.2-6.8,4.9s-7.4,5.7-9.3,6.6s-5.3,3.3-7.6,5.1
		c-2.3,1.9-4.6,3.4-5.1,3.4s-2.8,1.4-5.1,3s-4.8,3-5.6,3s-1.7,0.4-2,0.9s-2.7,1.4-5.3,2.1c-7.7,2-20.3,7.1-27.4,11
		c-5.7,3.2-6.8,3.5-8.4,2.4c-1-0.7-2.3-1-2.9-0.6c-3.9,2.8-16,3.9-19.5,1.7c-0.6-0.4-2.4-0.4-4-0.1c-1.6,0.4-3.2,0.2-3.5-0.4
		c-0.4-0.6-1.4-1.1-2.4-1.1c-1,0-3.5-0.9-5.7-2c-2.7-1.4-5.9-2-10.2-2c-3.4,0-6.5-0.4-6.8-1c-0.3-0.5-3-2.6-6-4.5
		c-2.9-2-7.2-5.5-9.4-8c-4.3-4.7-9.4-6.8-16.6-7.1c-2.2-0.1-5.4-0.4-7.2-0.8c-2.8-0.6-3.6-0.3-6.5,2.9c-1.8,2-3.7,4.4-4.2,5.3
		c-2.1,4-11.7,18.1-12.6,18.7c-0.6,0.3-1,1.5-1,2.7c0,1.1-2,4.3-4.4,7c-2.4,2.7-6.3,8.6-8.6,13.1c-5.7,11.3-10,19.5-13.2,24.8
		c-1.5,2.5-2.8,5.9-3,7.5s-0.7,3.4-1.1,3.9c-0.4,0.6-1.6,2-2.6,3.2c-1,1.2-2.4,4.1-3.1,6.5s-1.9,5.8-2.7,7.5s-1.1,4-0.8,5
		c0.4,1.3,0.3,1.4-0.4,0.5c-1.1-1.6-3.9,3.5-4.7,8.8c-0.3,1.9-1.9,5.5-3.6,7.9c-1.7,2.4-3.3,5.6-3.6,7c-0.3,1.4-1.2,3.2-1.9,4.1
		s-2,3.9-2.8,6.9c-0.9,3-2.1,6-2.7,6.8c-0.7,0.8-0.9,2.7-0.5,4.6c0.5,2.6,0,4.3-3,9.1c-3.6,5.8-3.7,6.1-3.8,16.8
		c-0.1,9.2-0.4,11-1.8,11.4c-3.4,1.1-5.8,7.1-6.1,15.4c-0.2,4.3-0.8,8.5-1.5,9.3c-1.4,1.7-1.9,21.9-0.6,24c0.5,0.8,3.1,3.4,5.9,5.9
		s5.4,5,5.8,5.7s1.9,1.2,3.3,1.2c2.8,0,5.7,1.5,9,4.8c1.3,1.2,3,2.2,3.7,2.2s2,0.6,2.6,1.4s3.7,1.8,6.9,2.1s6.6,1.3,7.8,2.1
		c3.6,2.3,12.9,3.3,37.9,4c13.2,0.3,24.2,0.8,24.4,1c0.2,0.2,1.1,0.1,2-0.2C929.2,3258.8,932.2,3258.3,934.9,3258L934.9,3258z
		 M1413.1,3040c2.6-4.1,3.9-5.2,6.1-5.2c2.6,0,19.1-11.8,23.9-17c2.1-2.3,5.6-5.4,7.8-6.8c5.3-3.3,12.3-9.3,19.3-16.5
		c3.1-3.2,7-6.5,8.7-7.4c1.7-0.9,5.4-3.5,8.2-5.8c2.9-2.3,5.6-4.4,6.1-4.6c0.5-0.2,1.8-1.9,2.8-3.8c1.1-1.9,2.8-3.6,3.9-3.8
		c1.1-0.2,2.5-1.6,3.1-3.3c0.6-1.6,2.4-3.5,4-4.3c5.4-2.5,9.3-5.2,9.9-6.9c0.3-1,1-1.8,1.6-1.8s3.3-2.2,6.2-4.8
		c2.9-2.7,6.2-5.5,7.5-6.4c1.3-0.9,6.6-5.6,11.7-10.4c5.1-4.9,11.4-10.6,13.9-12.8c3.3-2.9,4.5-4.8,4.5-6.7c0-1.5,0.6-3.1,1.3-3.5
		c0.7-0.4,2.1-2.9,3-5.5c1.2-3.1,2.9-5.4,5.2-7c2-1.4,3.7-3.5,4.1-5c0.3-1.5,1.6-3.7,3-4.9c1.3-1.2,2.4-2.8,2.4-3.4
		c0-0.6,0.7-2.6,1.5-4.2s2.2-5.6,3-8.7c0.8-3.1,2.6-7.3,4-9.3c1.4-2,2.5-4.9,2.5-6.5c0-2.5,3.5-10.4,5.2-11.7
		c1.2-0.9,3.7-9.2,3.2-10.5c-0.3-0.7,0-2.2,0.6-3.4c0.6-1.1,1.5-4.4,2.1-7.2c0.8-4.4,0.7-5.5-0.7-7c-0.9-1-2.2-1.8-3-1.8
		s-1.8-0.9-2.3-1.9c-1.1-2.1-16.3-14.1-20.8-16.5c-3.7-1.9-9.2-8.1-9.2-10.4c0-1.5-7.9-10.9-8.4-10c-3,5.2-3.1,10.8-0.2,10.8
		c0.9,0,1.2,0.7,0.9,2c-0.4,1.4,0.1,2.2,2,2.9c2.8,1.1,4.2,3.7,2.6,4.7c-0.7,0.4-0.9,3.4-0.5,8.8c0.4,5.7,0.2,8.8-0.8,10.6
		c-0.7,1.4-1.8,3.6-2.4,5c-1.8,4-8.2,12.3-14.4,18.6c-3.2,3.2-5.8,6.2-5.8,6.7s-1.8,3-4,5.6c-2.4,2.9-4.3,6.3-4.6,8.4
		c-0.4,2.3-1.5,4.2-3,5.2c-1.3,0.9-3.5,4-4.8,6.9c-1.3,2.9-2.9,5.6-3.5,6c-0.6,0.4-0.9,1.6-0.5,2.7c0.7,2.2-2,5.8-4.3,5.8
		c-1.6,0-13.2,11.6-13.2,13.2c0,0.5-0.9,2.1-2,3.5s-2,3.5-2,4.7s-0.5,2.7-1.1,3.3s-1.3,2.4-1.5,4c-0.2,1.6-1,4.2-1.9,5.8
		c-0.8,1.6-1.5,3.4-1.5,4c0,0.6-1.2,2.6-2.6,4.5c-2.7,3.6-6.4,11.1-6.4,12.9c0,0.6-1.4,2.1-3.1,3.3c-1.7,1.3-3.5,3.2-3.9,4.4
		c-0.5,1.4-2.9,2.9-6.6,4.3c-6.3,2.4-11.8,7.5-15.5,14.5c-1.1,2.2-2.7,4.7-3.4,5.5c-0.7,0.8-1.4,2.6-1.6,4c-0.2,1.7-1.5,3-4,4.2
		c-3.7,1.7-8.4,6.9-11.2,12.4c-0.9,1.7-3.3,5.3-5.4,8s-4.7,6.7-5.8,8.9c-1.1,2.2-3.2,5.4-4.7,7.2c-1.5,1.8-3.5,5.8-4.5,9
		c-1.3,4.1-3,7-6.1,10c-5.5,5.4-5.6,7.3-0.3,7.3C1410.7,3042.7,1411.7,3042.2,1413.1,3040L1413.1,3040z M921.8,2982.1
		c-0.7-1.8-3.3-1.9-3.3-0.1c0,0.7,0.9,1.4,1.9,1.4C921.7,2983.5,922.1,2983.1,921.8,2982.1z M1016,2887c2.3-0.9,5-3.1,6.2-4.9
		c1.4-2.1,3.2-3.4,5.5-3.8c2.5-0.5,5.8-3.1,13.2-10.6c5.4-5.5,10.6-10,11.6-10c1,0,3.5-1.8,5.6-4.1c7.8-8.3,19.6-18.9,20.8-18.9
		c1.5,0,9.8-7.7,11.5-10.7c1-1.8,3.4-3.9,5.2-4.9c4.7-2.3,34.2-32.9,37.8-39.1c2.4-4,4-5.6,7.7-7.2c5.4-2.3,10.7-7.5,11.6-11.2
		c0.8-3.3,1.5-4.2,5.3-6.5c5.3-3.3,15.3-13.4,14.7-14.9c-0.3-0.8,1.3-3.2,3.9-5.7c7.1-7,14.8-16.3,14.8-18c0-0.9,1.2-2.3,2.6-3.2
		c3.5-2.3,6.7-9.9,5.8-14.2c-0.6-3.1-0.4-3.4,1.9-3.4c2.5,0,5.7-3.1,5.7-5.6c0-1.6-5.1-1.2-9.1,0.8c-1.9,0.9-6.7,2.2-10.7,2.8
		c-6.2,1-7.6,1.6-9.4,3.9c-1.2,1.7-3.4,3.1-5.4,3.4c-1.8,0.3-3.8,1.3-4.5,2.1c-0.9,1-3.3,1.5-8.4,1.5c-3.9,0-7.6,0.5-8.2,1
		c-0.7,0.7-1.7,0.3-3.2-1c-1.3-1.2-3.5-2-5.5-2c-2,0-4.7-1-6.7-2.5c-2-1.5-4.7-2.5-6.7-2.5c-1.8,0-3.3-0.4-3.3-0.9
		c0-1.4-6-3.5-7-2.5c-0.5,0.5-1,1.8-1.2,2.9c-0.2,1.1-1.2,2.2-2.3,2.4c-2.4,0.5-4.9,3.4-8,9.2c-1.3,2.5-3.8,5.9-5.6,7.5
		c-3.3,3.2-6.4,9.1-5.4,10.6c0.3,0.5-0.1,0.9-0.8,0.9c-2,0-17.5,14.7-19.4,18.4c-0.9,1.7-4,5.8-6.9,9.1c-5.2,5.9-7.3,9.1-11.6,17
		c-1.2,2.2-2.7,4.7-3.5,5.5s-2.8,4.2-4.5,7.5s-4.8,8.4-6.9,11.5s-4,6.8-4.4,8.4c-0.4,1.6-1.8,4.2-3.2,5.8c-1.3,1.6-2.4,3.4-2.4,4
		c0,1.1-7.3,17.2-9,19.8c-2.2,3.4-3.3,6.7-3.5,10.9c-0.1,2.6-1.7,7.2-3.9,11.5c-3.4,6.7-4.8,13.6-2.7,13.6c1.7,0-0.1,8.4-2.1,10
		c-2.3,1.9-3.6,8-1.6,8C1011.3,2888.7,1013.8,2887.9,1016,2887L1016,2887z M1421.7,2829.5c2.1-2.3,4.7-5.8,5.7-7.8s3.7-5,5.9-6.8
		s4.1-4,4.1-4.8c0-1.8,2.9-6.6,4.7-7.7c0.7-0.4,2.2-2.5,3.3-4.7c1.1-2.1,2.8-4.1,3.9-4.5s3.9-3.2,6.3-6.3c5.3-6.9,6.6-8.1,10.1-8.8
		c1.5-0.3,2.8-1,2.8-1.5s0.7-0.9,1.5-0.9c2,0,5.2-1.8,9.3-5.2c1.8-1.5,3.7-2.8,4.3-2.8s1.5-1.2,2-2.8c1.4-3.9,7-7.4,12.7-7.8
		c10.9-0.8,18.8-1.6,19.4-2c0.4-0.2,2.8-0.6,5.5-0.9c2.7-0.3,6.1-0.8,7.5-1.1c4.7-0.9,12.4,2.1,18.8,7.5c9.9,8.3,11,8.5,13.4,2.7
		c0.7-1.8,3.2-4.7,5.5-6.5s4.1-4,4.1-5c0-2.7,5.3-7.1,11.7-9.7c3.2-1.3,6.3-2.4,6.9-2.4c0.6,0,1.4-1.4,1.7-3
		c0.8-3.9,4.6-5.8,8.3-4.1c2.8,1.3,9,0.6,11.2-1.2c0.7-0.6,4.4-1.1,8.1-1.2c4.1-0.1,7.4-0.6,8.4-1.4c0.9-0.7,3.4-1.7,5.6-2.1
		c3.4-0.6,4.2-0.4,5,1.1c0.7,1.4,2.1,1.9,5.5,1.9c3.8,0,4.5,0.3,4.5,2c0,1.1,0.5,2,1,2c1.1,0,5.9,4.2,12.2,10.8
		c2.5,2.6,5,4.2,6.4,4.2c2.6,0,6.3,3.2,6.3,5.4c0,2,4.4,4.6,7.8,4.6c3.7,0,5.2,1.7,5.2,5.7c0,3.6,2.1,5.3,6.4,5.3
		c2.4,0,4.1-1.4,15.1-13c1.3-1.4,2.4-3,2.4-3.6s1.8-3,4.1-5.5c2.3-2.4,6.2-6.9,8.8-9.9s9.8-10.9,16.2-17.6
		c14.8-15.7,22.3-24.2,23.5-27.2c1.1-2.7,12.2-14.6,33.2-35.8c7.8-7.9,14.3-14.9,14.3-15.6c0-0.7,2-3.5,4.5-6.3
		c2.5-2.8,4.5-5.3,4.5-5.7c0-0.4,2-1.6,4.5-2.8c3.6-1.8,4.9-3.2,7.1-7.7c1.4-3,4.4-7.5,6.5-9.8s3.9-4.7,3.9-5.2c0-0.5,1.3-2.2,3-3.8
		s3-3.3,3-3.8s3-4.4,6.8-8.6s8.3-9.7,10.2-12.1c1.9-2.4,4.6-5.3,5.8-6.5c1.3-1.1,3.2-3.6,4.2-5.6c1-1.9,3.3-4.9,5-6.5
		c1.8-1.6,4-4.9,5.1-7.3s4.3-6.7,7.4-9.7c3-3,5.5-6.2,5.5-7s1.2-2.8,2.8-4.2c2.7-2.6,9.6-11.8,14.9-19.7c1.5-2.2,5.4-7,8.8-10.6
		s7.5-8.3,9-10.5c1.6-2.2,4.8-5.9,7.2-8.2s4.6-5.5,4.9-7s1.7-3.9,2.9-5.2s2.5-3.4,2.9-4.5s1.6-3.1,2.9-4.5c1.2-1.4,4.2-4.9,6.5-7.8
		c5.1-6.4,16.8-19.5,20.6-23c1.5-1.4,2.8-2.9,2.8-3.5c0-1.4,3.9-6.3,9.1-11.6c2.5-2.5,5.9-6.4,7.5-8.6c1.6-2.2,4.2-5.3,5.7-7
		c1.5-1.7,3-3.9,3.4-5c0.3-1.1,2.8-4.6,5.5-7.8c2.7-3.2,4.9-6.3,4.9-6.9s3.1-4.3,6.9-8.2c10.1-10.5,26.1-28.4,26.1-29.1
		c0-0.4,3.4-4.5,7.5-9.1s7.5-8.9,7.5-9.5s3.4-4.6,7.5-8.9s7.5-8.3,7.5-8.9s3.5-4.8,7.8-9.4c9.4-10.2,12.9-14.5,17.5-21.7
		c1.9-3,4.9-6.8,6.6-8.3c5.9-5.6,6.6-12.6,0.9-9.9c-1.2,0.6-2.9,1.1-3.8,1c-0.8,0-4.4,0.7-8,1.6c-7.5,1.9-12.2,2.2-20.5,1.2
		c-3.3-0.4-7.6-0.8-9.5-0.9s-4-0.4-4.5-0.7c-0.5-0.3-5-0.6-9.9-0.8c-8.9-0.2-12.2-0.7-22.5-3.3c-4.3-1.1-6.5-2.4-10.5-6.4
		c-2.8-2.8-6.7-6.1-8.8-7.3s-3.8-2.7-3.8-3.2c0-0.5-0.9-0.9-1.9-0.9c-1.1,0-2.2-0.9-2.6-2.2c-0.4-1.2-2.2-3.5-4.1-5.1
		c-1.9-1.6-3.4-3.7-3.4-4.8c0-1.2-0.7-1.9-1.9-1.9c-1.1,0-2.2-0.9-2.6-2s-1-2-1.4-2s-1.8-2-3-4.5c-1.2-2.5-2.7-4.7-3.2-5.1
		c-0.5-0.3-0.9-1.6-0.9-2.9s-1-3.6-2.2-5.1c-1.5-2-2.3-4.6-2.6-8.9c-0.4-6-2.1-10-5.2-12.3c-1.2-0.9-1.8-3.7-2.2-10.8
		c-0.3-5.3-1-10.4-1.6-11.3c-0.6-1-0.6-3.6-0.1-6.2c0.5-2.5,0.9-7.5,0.9-11.3c0-3.7,0.7-8.4,1.5-10.4c2.1-5,1.9-10.6-0.6-14.8
		c-1.7-2.9-2.7-3.6-5.3-3.6c-1.9,0-4.6,1.1-6.6,2.5c-1.9,1.4-3.8,2.5-4.3,2.5s-2.1,0.9-3.6,2.1c-7.7,5.9-10.7,7.3-16.7,7.7
		c-13,0.8-17.7,0.4-23.2-2.2c-2.9-1.4-5.6-2.5-6-2.5c-0.3,0-2.1-1.2-4-2.6c-2.5-1.9-4.7-2.6-8.3-2.7c-4.8-0.1-4.9-0.2-5.6-3.7
		c-0.4-2-1.6-4.6-2.7-5.8c-1.1-1.2-1.7-2.7-1.3-3.3c0.4-0.7-1.5-3.3-4.8-6.4l-5.5-5.2v-7c0-5-0.6-8.2-2.1-11.5
		c-2.5-5.2-2.8-12.8-0.7-15.6c1.6-2.2,2-6,0.7-6.9c-0.5-0.3-0.6-1.7-0.4-3c0.8-4.2-2.2-4.2-8.3-0.2c-3,2-5.8,3.6-6.3,3.6
		c-0.5,0-1.7,0.9-2.7,2c-1,1.1-2.5,2-3.3,2c-0.8,0-3.8,1.9-6.5,4.2c-4.3,3.6-5.7,4.2-10.1,4.4c-2.8,0.1-6.9,0.9-9.1,1.7
		s-6.5,2.5-9.5,3.6c-3,1.2-6.3,2.1-7.3,2.1s-4.6,1.4-7.9,3.1l-6.1,3.1l-1.7-2.2c-1.6-2.1-2.3-2.2-15.6-2c-7.6,0.1-17.7,0.4-22.4,0.6
		c-14.6,0.8-15.4,0.8-19,0.2c-1.9-0.3-4.8-1.1-6.5-1.7c-2.3-0.9-3.5-0.9-5.3,0.1c-2,1.1-3,1-6.5-0.8c-6.7-3.3-16.9-8.1-20.9-9.8
		c-2-0.9-4.1-2.2-4.5-2.8s-2-2-3.5-3s-2.8-2.4-2.8-3.2s-2.6-4.1-5.8-7.4s-6.9-7.2-8.3-8.8c-3.2-3.6-7.7-7.3-8.9-7.3
		c-0.5,0-1.1-1.3-1.4-2.8c-0.3-1.5-2.4-5.6-4.7-9c-2.3-3.4-4.4-7.9-4.7-10s-1.9-5.3-3.4-7.1c-1.6-1.8-2.8-4-2.8-4.8
		s-0.5-2.3-1.2-3.4c-0.9-1.5-0.9-2.5,0-4.5c1.2-2.7,0.7-5.6-1-5.6c-2,0-7.8,7.1-7.8,9.5c0,1.5-0.9,2.8-2.2,3.5
		c-3.6,1.8-9.8,8.2-11.2,11.4c-0.7,1.7-8.6,10.4-17.5,19.5s-16.9,17.8-17.7,19.5s-2.3,3.9-3.3,5c-0.9,1.1-2.3,3.6-3,5.5
		c-1.6,4.2-11.1,14.3-16.2,17.2c-2.2,1.2-4.4,3.6-5.4,5.7c-4.1,9-6.4,13.1-9.7,17.7c-6.5,8.9-13.1,16.4-15.2,17
		c-2.7,0.9-8.9,6.8-13.6,13.1c-2.1,2.9-3.9,5.4-3.9,5.7c0,1-7.4,10.2-14.2,17.8c-3.7,4.1-6.8,8.2-6.8,9.1s-1.3,2.5-2.9,3.7
		c-1.6,1.2-3.2,3-3.6,4.2s-1.8,3.7-3.1,5.7c-3.1,4.6-18.7,23.3-23.5,28.1c-2,2-4.3,5-5.2,6.6c-0.8,1.6-3.6,5.2-6.1,7.9
		c-2.5,2.7-5.9,7.4-7.5,10.5s-4,6.5-5.3,7.6c-3,2.6-6.4,7.1-8.6,11.1c-0.9,1.8-3.5,5.1-5.8,7.5c-2.2,2.4-5.1,5.8-6.4,7.7
		c-1.3,1.9-4.4,5.5-6.9,8c-2.5,2.5-5.3,6.4-6.3,8.6c-1,2.2-3.6,5.8-5.9,8c-2.3,2.2-5.9,7-8.1,10.6c-2.2,3.7-4.8,7.4-5.9,8.4
		c-1.1,1-2,2.3-2,3c0,3.3-5.8,11.9-14.4,21.2c-5.3,5.8-9.7,11.5-10,13c-0.5,2.5-8.3,12.2-18.4,23c-2.3,2.5-4.2,5.3-4.2,6.2
		s-0.7,2.3-1.5,2.9s-1.5,2-1.5,3c0,1-2.5,4.2-5.5,7.3c-3.1,3.1-5.5,6.4-5.5,7.6c0,1.2-1.5,3.2-3.5,4.7c-2.4,1.8-3.5,3.5-3.5,5.2
		c0,1.6-1.4,3.8-3.9,6.1c-4.3,4-6.5,6.9-13.6,17.8c-3.4,5.3-5.6,7.7-8.3,8.8c-2.8,1.3-4.2,2.8-6.2,7c-1.4,3-2.8,5.4-3.2,5.4
		c-0.4,0-1.2,1.7-1.7,3.8c-0.6,2.3-2.2,4.7-4,6c-1.7,1.2-3,2.7-3,3.3s-1.8,3.2-4,5.9s-4,5.2-4,5.8c0,1.6-6.5,12.3-10.7,17.6
		c-5.5,7-9.2,12.9-9.3,14.9c0,1-3.2,5-7.1,8.9l-7,7.2l0.3,6.8c0.2,4.2-0.1,6.8-0.8,6.8c-1,0-8.5,8.3-8.5,9.5c0,0.3-1.1,2.1-2.5,3.9
		c-1.4,1.8-2.5,3.8-2.5,4.5c0,0.7-0.9,2.4-2,3.8c-1.1,1.4-1.8,3.3-1.5,4.2c0.4,1.1-1.6,3.9-6,8.3c-3.6,3.7-6.5,7.5-6.5,8.5
		c0,1-1.8,3.5-3.9,5.6s-4.2,5.2-4.5,6.8c-0.3,1.6-1.7,4.3-3.1,6c-3.9,4.6-2.9,6.8,1.9,4.3c1.5-0.8,3.6-1.4,4.6-1.4
		c1.7,0,9.9-3.9,12.3-5.9c1.1-0.9,11-1.8,27.1-2.5c9.3-0.4,17.6,0.8,21,3.1c2.3,1.5,3.9,1.7,3,0.3c-0.3-0.6-0.2-1,0.4-1
		s2,1.5,3.2,3.2c3.7,5.3,9.5,10.6,12.6,11.3c1.6,0.4,4,1.7,5.3,3c1.4,1.3,4.8,3.3,7.7,4.5c4.1,1.8,5.3,2.8,5.5,4.8
		c0.2,2.1,1.2,2.9,4.6,3.9c2.8,0.9,4.8,2.3,5.7,4c0.8,1.5,3,4.2,5,6.1c2.3,2.2,3.6,4.4,3.6,6c0,1.4,1.1,4.8,2.5,7.5
		c1.8,3.5,2.5,6.5,2.5,10.6c0,4.2,0.4,5.9,1.5,6.3c1.2,0.5,1.5,2.6,1.5,10.6c0,5.5,0.5,12,1.2,14.4c1,3.8,0.9,5.7-1,13.3
		c-1.2,4.9-2.4,10.7-2.8,12.9c-0.3,2.2-1.3,5.6-2.2,7.5s-1.8,5.5-2,8c-0.3,2.5-1,5.2-1.7,6c-0.6,0.8-2.3,4-3.6,7s-3.4,7.1-4.7,9
		s-2.3,4.3-2.3,5.2c0,0.9-0.4,2-0.9,2.3c-0.5,0.3-2.1,2.9-3.5,5.8c-3.3,6.7-4.8,9.1-6.2,10c-0.6,0.4-0.9,1.6-0.6,2.8
		c0.3,1.1,0,2-0.6,2c-1.8,0-1.3,3.9,0.7,4.9c1,0.5,2.7,0.8,3.8,0.5c1.1-0.3,3.3,0.2,4.9,1s3.4,1.6,4,1.6c0.6,0,3.5,2.4,6.6,5.4
		c4.7,4.5,6.3,5.4,10.3,5.9c3.9,0.4,10.7,3.8,13.6,6.8c1.3,1.3,10.8,5.9,11.2,5.4c0.3-0.3,1.8,0.6,3.3,2c1.5,1.4,3.9,2.9,5.3,3.2
		c1.4,0.4,4.1,1.6,6,2.7c1.9,1.1,6.3,2.3,9.8,2.7c4.2,0.4,7.1,1.3,8.5,2.6c1.2,1.1,4.7,3,7.7,4.2s5.8,2.7,6.1,3.3
		c0.7,1.2,11.7,3.5,17.3,3.6C1417.4,2833.7,1418.4,2833.2,1421.7,2829.5L1421.7,2829.5z M2094.9,2140.4c2.8-1.3,5.5-2.1,6.2-1.9
		c1.5,0.5,33.6-16,38.3-19.7c6.2-4.8,13.6-9.8,15.6-10.4c1.1-0.4,4.2-2.6,6.9-5.1s7.7-5.8,11-7.5c7.2-3.6,17.2-11.3,25.1-19.3
		c3.1-3.2,6.3-5.8,7-5.8c1.5,0,11.4-7.6,13.3-10.1c1.6-2.2,2.9-3.4,8.1-7.9c7.3-6.1,15.2-14.1,16.1-16.3c0.9-2.1,3-5.1,12.5-17.8
		c4.8-6.4,12.4-21.7,12.8-25.9c0.2-1.6,1.5-4.7,3-6.8c1.4-2.1,2.6-4.5,2.6-5.4s0.6-2.1,1.4-2.7c2.1-1.7,5.4-20,3.8-21
		c-0.7-0.4-1.3-3.2-1.4-6.3c-0.1-4.8-0.5-5.7-2.4-6.6c-2.5-1.1-13.8,0.1-18.9,2.1c-1.6,0.6-4.4,1.2-6,1.3
		c-4.3,0.2-12.7,2.4-14.5,3.8c-0.8,0.6-3.3,2-5.5,3c-10.6,4.9-14.9,7.5-19.7,12.1c-2.9,2.7-7.1,6.2-9.3,7.8
		c-3.8,2.7-10.5,10.2-10.5,11.7c0,0.4-2.5,3.1-5.5,6.1c-3,3-5.5,5.9-5.5,6.5c0,0.6-1.3,2.8-3,5c-1.6,2.2-3,4.7-3,5.7
		c-0.1,7.1-19.1,27.8-24,26.2c-1.1-0.3-2-1-2-1.4s-3.2-0.8-7-0.8c-7,0-7,0-10.2,4c-1.8,2.2-4.4,5.4-5.9,7.2
		c-1.5,1.7-6.3,10.6-10.8,19.7s-9.5,18.3-11.1,20.5c-5,6.9-8,13.5-8,17.5c0,2.5-1.1,5.7-3.1,9.2c-2,3.4-3.3,7.1-3.6,10.3
		c-0.3,2.8-1,5.7-1.7,6.5c-0.7,0.8-1.7,3.9-2.4,6.8C2081.7,2143,2085.3,2144.9,2094.9,2140.4L2094.9,2140.4z M1779.1,1963.1
		c1.7-0.3,4.9-1.7,7-3.2c5.7-4,7.5-4.9,11.2-5.7c1.8-0.4,3.5-1.3,3.8-2.1c0.3-0.8,2.2-1.6,4.2-2c7.1-1.1,10.2-3,28.2-17.4
		c4.1-3.3,8-6,8.6-6c0.6,0,5.1-4.2,10-9.3c4.9-5.1,10-10.2,11.4-11.3s5.5-5.2,9.1-9c3.7-3.8,7.9-8,9.4-9.3c2.1-1.8,2.4-2.5,1.4-3.2
		c-1-0.6,0.4-2.7,5.4-7.9c3.7-3.9,6.7-7.7,6.7-8.5c0-0.8,1.4-2.9,3.1-4.7c4.6-5,19.1-34.9,19.6-40.6c0.2-2.6,1-5.6,1.8-6.7
		s1.6-4,2-6.5c1-6.5,2.4-35.4,2.5-50.6l0.1-13.1l-3.2-1.6c-1.8-0.9-3.5-1.4-3.9-1.1c-0.4,0.2-3.3,0.8-6.5,1.3
		c-7.4,1.1-20.6,5.9-26,9.3c-2.7,1.7-5.8,2.8-9,3c-4.7,0.3-5,0.5-8.5,5.9c-2,3.1-5.7,7.6-8.1,10c-2.4,2.4-5.4,6.3-6.5,8.6
		c-1.2,2.3-5,7.1-8.6,10.7s-6.5,7.3-6.5,8.1c0,0.8-1.6,3.2-3.5,5.3c-1.9,2.1-3.5,4.3-3.5,4.9c0,1.1-4.8,7.6-8,10.8
		c-1.1,1.1-2,2.8-2,3.7c0,0.9-0.4,1.9-0.8,2.1s-2.2,3.4-4,6.9c-1.8,3.5-5.6,8.9-8.6,11.9c-3.3,3.4-6.8,8.4-9,13.1
		c-2.3,4.8-4.9,8.5-7.1,10.2c-3.6,2.7-4.4,5.3-2.3,7.3c0.9,0.9,0.1,2.3-3.1,5.9c-2.3,2.6-4.8,5.5-5.5,6.3c-1.9,2.1-4.6,7.6-4.6,9.3
		c0,0.8-0.8,2.5-1.8,3.8c-1,1.3-2.2,3.7-2.6,5.4c-0.7,3-7,16.1-12.7,26.5c-6.2,11.3-7.3,14.1-6.1,16.1c0.7,1.1,1,3,0.7,4.2
		c-0.5,2.1,1.9,9.7,3.1,9.7c0.3,0,1.3-0.4,2.3-0.9c1.1-0.6,2.6-0.5,4.2,0.4C1764.7,1964.4,1770.5,1964.4,1779.1,1963.1
		L1779.1,1963.1z M2362.9,1899.9c0-0.6,0.7-1.7,1.6-2.4c0.9-0.7,2.8-3.3,4.3-5.8c1.5-2.5,4.5-7.2,6.6-10.5c4.4-6.8,8.8-15.6,11.5-23
		c1-2.8,2.8-6.8,4-9s2.8-5.8,3.5-8c0.7-2.2,1.9-4.4,2.7-4.8c0.7-0.4,1.4-1.9,1.4-3.2c0-1.3,1.1-3.7,2.5-5.3s2.5-3.7,2.5-4.5
		c0-1.6,4.1-9.9,6.1-12.3c0.6-0.7,1.2-2.7,1.4-4.4c0.1-1.7,0.8-3.6,1.4-4.2c0.6-0.6,1.1-1.7,1.1-2.4c0-1.4,5.5-11.9,7.4-14.3
		c1.7-2,16.9-33.5,18.6-38.5c0.8-2.2,2.5-5.8,3.9-7.9c6.1-9.4,12.3-20.4,13.6-24.1c0.8-2.2,2.1-4.7,2.8-5.5c0.8-0.9,2.2-3.4,3.3-5.5
		c1-2.2,2.5-5.1,3.3-6.5c2.2-3.9,4.9-12.2,5-15.2c0-1.6,1.2-3.9,2.9-5.7c1.6-1.6,3.6-5.2,4.6-8c0.9-2.7,2.3-5.5,3-6.1
		c0.7-0.6,1.9-3.1,2.6-5.6s1.9-5,2.6-5.6c0.8-0.6,1.4-1.8,1.4-2.7c0-1.7,3.7-9.9,5.6-12.2c0.6-0.8,1.4-2.8,1.7-4.5
		c1.2-6.7,4-15,5.3-15.8c0.8-0.4,1.4-2.1,1.4-3.7c0-1.6,1.1-4.9,2.4-7.3c1.3-2.4,3.2-8.2,4.1-12.8c0.9-4.6,2.3-9.9,3.1-11.8
		c0.8-1.9,1.4-4.6,1.4-6.2c0-1.5,0.5-4,1-5.5c0.6-1.5,1.4-5.7,2-9.4s1.6-8,2.5-9.6s1.5-4.3,1.5-6c0-2.6,0.7-5.8,3.6-16.5
		c0.2-0.8,1-4.2,1.7-7.5c0.7-3.3,1.9-6.9,2.5-8.1c0.6-1.2,1.4-5.2,1.8-9c0.4-3.8,1.2-8,1.9-9.4c0.7-1.4,1.5-4.1,1.9-6.1
		c0.4-2,1.3-4.2,2.1-4.9c0.8-0.7,1.5-2.4,1.5-3.9s1.4-8,3.1-14.6c2.2-8.6,3.2-14.9,3.4-22.5c0.2-5.8,0.8-11.8,1.4-13.4
		c1.6-4.1,1.2-21.6-0.6-24.3c-0.8-1.2-1.6-5.9-1.8-10.6c-0.2-4.6-1-9.5-1.7-10.8s-1.6-4.6-2-7.4c-1.6-10.6-2.6-14.6-4.2-16.3
		c-0.9-1-1.4-2.1-1.2-2.3c0.3-0.3-0.4-2.2-1.5-4.4s-2-5.3-2-6.9c0-1.7-1.1-5.3-2.5-8s-2.5-5.4-2.5-5.9s-0.7-1.7-1.5-2.6
		c-1.3-1.4-2.2-4.9-2.4-9.6c0-0.6-1-2.1-2.1-3.4c-1.1-1.3-2-2.9-2-3.6c0-0.7-1.2-2.3-2.8-3.6c-1.5-1.3-4.5-4.5-6.7-7.2
		c-4.9-6-11.1-10.4-26.4-18.6c-1.4-0.8-5.2-3.5-8.3-6.2s-7.5-5.6-9.7-6.6c-2.2-1-4-2.4-4-3.1c0-0.7-0.6-1.2-1.3-1.2
		s-2.8-1.6-4.7-3.5c-1.9-1.9-4.2-3.5-5.2-3.5c-1,0-3.8-2.1-6.3-4.6c-2.5-2.5-5.8-5.1-7.3-5.8c-4.6-2-9.9-5.9-10.8-8.1
		c-0.5-1.1-1.5-1.9-2.2-1.8c-0.7,0.1-2.2-0.4-3.4-1.2c-1.2-0.8-3-1.5-3.9-1.5c-1.8,0-11.4-4.4-17.3-7.9c-1.8-1.1-6.4-2.1-11.5-2.5
		c-4.7-0.4-9.6-0.9-11-1.1s-5.2-0.6-8.5-0.9s-9.8-1.3-14.5-2.1c-4.7-0.8-12.3-1.8-17-2.3c-10.3-1.1-43.2-0.6-45.7,0.7
		c-1,0.5-6.2,1.4-11.6,2.1s-11.4,1.8-13.4,2.6c-2.2,0.9-7.2,1.6-13.2,1.6c-6.9,0.1-10.8,0.7-13.8,2c-2.3,1-4.2,2.3-4.2,2.7
		c0,0.5-2.5,1-5.5,1.3s-6.3,1.1-7.2,2c-1,0.8-3.9,2.3-6.4,3.2s-5.2,2.4-5.9,3.2c-0.7,0.8-2,1.4-3,1.4s-3.4,1.6-5.4,3.6
		c-3.5,3.6-7.8,6.4-9.8,6.4c-1.2,0-10,7-10.6,8.4c-0.9,2.2-4.3,4.6-6.4,4.6c-2.5,0-9.1,5.5-23.5,19.7c-5.2,5.1-10,9.2-10.8,9.2
		s-1.4,0.3-1.4,0.8c0,1.3-10.6,12.2-11.8,12.2c-0.6,0-1.2,0.3-1.2,0.8s-4.9,6.1-11,12.7s-11,12.3-11,12.7s-1.1,1.3-2.4,2
		c-4.8,2.6-37.6,33.9-37.6,35.8c0,0.4-0.3,1.5-0.6,2.4c-0.4,1-0.1,1.6,1,1.6c1,0,1.6,0.8,1.6,2.2c0,2.9,2.2,8.8,3.3,8.8
		c3.1,0,5.8,7,3.6,9.6c-0.5,0.7-0.7,2.3-0.4,3.7c0.5,1.8,0,3.1-1.5,4.7c-1.2,1.2-2.6,3.5-3.2,5.1c-0.9,2.5-0.7,3.3,1.1,5.2
		c2.6,2.8,2.6,4.5,0,11.5c-1.5,4-3.2,6.5-6,8.6c-2.6,2-3.9,3.8-3.9,5.5c0,2.5-2,4.8-6,6.9c-1.1,0.6-2.9,2.8-4,4.8s-3.7,5.7-5.9,8.1
		c-3.9,4.3-4,4.6-3.5,10.3c0.5,5.7,0.4,5.9-3.2,9.3c-2,1.9-4.3,3.8-5,4.2c-1.5,0.9-6.6,11.2-6.6,13.3c0,0.8-1.8,3-4,5
		c-2.8,2.6-4,4.5-4,6.4c0,2.6-3.9,8.3-9.7,14c-1.3,1.3-2.4,2.9-2.4,3.6c0,0.7-3.4,5.1-7.6,9.8c-4.2,4.7-8.8,11.1-10.4,14.3
		c-1.6,3.2-3.5,6.6-4.2,7.5c-0.8,0.9-2.4,3.6-3.6,6c-1.2,2.4-4.4,6.6-7.2,9.3c-2.7,2.7-5,5.5-5,6.2s-2.5,3.9-5.5,7.2
		s-5.5,6.7-5.5,7.6c0,0.9-2.7,4.4-6.1,7.9c-3.8,3.9-7.1,8.6-8.9,12.7c-1.6,3.5-4.4,7.9-6.2,9.8c-4.7,4.8-5.7,6.2-7.8,10.9
		c-1,2.3-4.1,6.6-6.9,9.4c-2.8,2.8-5.7,6.6-6.6,8.5c-0.9,1.8-2.2,4.5-3,5.8s-1.5,3.4-1.5,4.6c0,1.8,0.6,2.1,4.9,2.3
		c3.8,0.1,6.4-0.6,11.1-2.9c7.1-3.6,8.6-3.5,20.5,1.2c1.1,0.4,3.8,1,6,1.3c9.2,1.2,12.1,2,16.5,4.6c2.9,1.7,5.6,2.6,7.1,2.3
		c1.9-0.4,3.4,0.5,6.7,4.1c2.4,2.5,4.7,4.6,5.2,4.6s0.9,0.6,0.9,1.4c0,1.4,4.9,3.6,8,3.6c2.5,0,5.1,3.2,4,5c-1.4,2.2-1.2,4,0.5,4
		c0.8,0,1.7,1.3,2.1,3c0.5,2.3,1.2,3,3.1,3c2.3,0,2.4,0.3,1.8,3.5c-0.5,2.8-0.3,3.5,1,3.5c1.7,0,1.9,0.8,1.6,8.3
		c-0.1,3.4,0.3,4.9,1.4,5.3c2.2,0.8,3.1,6.2,1.6,9c-1.1,2-1,2.7,0.5,4.3c2.3,2.5,3.6,8.6,4.1,19.1c0.3,6.8,0.8,8.8,2.3,10
		c2.9,2.3,3.5,11.2,1.3,17.7c-1.5,4.3-1.7,7.7-1.4,19.5c0.3,9.5,0.8,14.5,1.6,15c0.7,0.4,1,2.3,0.9,4.3c-0.3,3,0,3.6,1.5,3.3
		c1.2-0.2,1.9,0.4,2.1,1.9c0.2,1.4,0.8,2,1.7,1.7c0.8-0.3,1.6,0.3,2,1.4c0.3,1.1,2.8,3.7,5.5,5.8c4.3,3.5,5.7,5.5,6.6,10.2
		c0.1,0.7,1.5,2.3,3.1,3.5c1.5,1.2,3.5,3,4.3,4c0.8,1,1.8,1.8,2.2,1.8c1.6,0,7.8,4.9,6.7,5.2c-0.7,0.2-0.9,1.1-0.5,2.2
		c0.5,1.4,1.3,1.6,3.9,1.1c1.8-0.4,3.4-1.1,3.6-1.6c0.4-1.1,3.1-1.2,3.2-0.1c0.5,5.1,2.1,6.9,6.9,8.2c2.1,0.6,4.3,1.7,5,2.5
		c0.7,0.8,2.1,1.5,3.2,1.5c1.1,0,2.2,0.9,2.5,2c0.4,1.4,1.4,2,3.4,2c1.6,0,4.6,0.8,6.6,1.9s5.6,2.1,7.9,2.5
		c4.1,0.6,4.3,0.5,14.2-7.9c5.5-4.7,10.1-8.9,10.1-9.2c0-0.4,3.2-4.1,7-8.2s7-7.9,7-8.3c0-0.4,1.2-1.3,2.8-1.8s4.3-3,6.1-5.4
		c1.9-2.5,3.7-4.5,4.2-4.5s3.9-2.3,7.6-5.1c3.7-2.8,9.5-6.5,12.8-8.1c3.3-1.7,6.1-3.4,6.3-3.9c0.2-0.5,0.8-0.9,1.4-0.9
		s3.5-1.6,6.4-3.5s6.9-4.2,8.8-5s5.6-2.8,8.2-4.5c3.5-2.2,5.9-3,9.5-3c2.6,0,5.9-0.4,7.3-1c1.4-0.5,6.4-1.5,11.2-2.1
		c7.7-1,8.8-1,9.6,0.5c0.5,0.9,2,1.6,3.4,1.6c6.2,0,18.1,10.3,19.8,17.2c0.4,1.7,1.4,2.8,2.8,3c1.9,0.3,3.9,2.8,7.4,9.6
		c0.4,0.7-0.1,2.8-1.1,4.5c-1.7,3.2-1.7,3.3,0.9,7.1c2.6,3.8,9.3,8.5,12.2,8.5c0.8,0,1.4,0.4,1.4,0.9s3.6,2.1,8.1,3.5
		c6.3,2,8.5,2.4,10.1,1.5c3.3-1.8,8.7-0.2,12,3.7c1.7,1.9,3.9,3.4,5,3.4c2.5,0,7.8,5.2,7.8,7.7c0,1,1.4,2.7,3,3.8s3,2.7,3,3.5
		c0,2.3,19.4,21,21.8,21c0.6,0,1.2,0.5,1.2,1.1c0,0.6,0.6,0.9,1.2,0.7C2362.4,1901.2,2362.9,1900.5,2362.9,1899.9L2362.9,1899.9z"/>
</g>
</svg>
