<?xml version="1.0" encoding="utf-8"?>
<!-- Generator: Adobe Illustrator 25.4.1, SVG Export Plug-In . SVG Version: 6.00 Build 0)  -->
<svg version="1.1"
	 id="svg172" inkscape:version="1.1 (c4e8f9e, 2021-05-24)" sodipodi:docname="kask.svg" xmlns:inkscape="http://www.inkscape.org/namespaces/inkscape" xmlns:sodipodi="http://sodipodi.sourceforge.net/DTD/sodipodi-0.dtd" xmlns:svg="http://www.w3.org/2000/svg"
	 xmlns="http://www.w3.org/2000/svg" xmlns:xlink="http://www.w3.org/1999/xlink" x="0px" y="0px" viewBox="0 0 3456 4608"
	 style="enable-background:new 0 0 3456 4608;" xml:space="preserve">
<sodipodi:namedview  bordercolor="#666666" borderopacity="1.0" id="namedview174" inkscape:current-layer="g178" inkscape:cx="1730.0794" inkscape:cy="2304" inkscape:pagecheckerboard="0" inkscape:pageopacity="0.0" inkscape:pageshadow="2" inkscape:window-height="776" inkscape:window-maximized="0" inkscape:window-width="1365" inkscape:window-x="0" inkscape:window-y="25" inkscape:zoom="0.12022569" pagecolor="#ffffff" showgrid="false">
	</sodipodi:namedview>
<g id="g178" inkscape:groupmode="layer" inkscape:label="Image">
	<path id="path444" d="M1921.6,3391.8c-7.8-0.9-17,1.3-21,5.2c-1.8,1.8-3.6,2.7-5.2,2.7c-1.3,0-3,0.2-3.8,0.4
		c-0.8,0.2-4.2,0.5-7.5,0.6c-3.4,0.1-7.4,0.8-9,1.5c-1.6,0.7-3.5,1-4.2,0.6c-0.7-0.4-4-0.6-7.3-0.5l-6,0.2l-2.4,3.8
		c-1.3,2.1-2.2,4.3-2,5c0.2,0.7,0,1.3-0.6,1.5c-1.2,0.4-12.6-3.2-15.2-4.7c-1-0.6-2.6-0.9-3.5-0.6c-0.9,0.3-2.5,0.1-3.4-0.5
		c-2.1-1.3-17.2-3-19.5-2.3c-0.9,0.3-2.2,0.3-2.9-0.1c-1.8-0.9-15.6-1.3-19.6-0.5c-1.9,0.3-5.6,0.3-8.3-0.2
		c-2.7-0.4-5.3-0.5-5.9-0.1s-2.9,1.6-5.3,2.7c-3.5,1.7-4.8,1.8-7.6,0.8c-4.1-1.4-15.2-0.8-21.1,1.1c-2.4,0.8-5.5,1.1-7.1,0.6
		c-1.8-0.5-5-0.1-9.1,1.1c-4.3,1.3-7.7,1.7-10.7,1.2c-2.4-0.4-5.8-0.3-7.5,0.3c-1.7,0.6-3.5,0.7-4,0.3c-1.6-1.3-7.3,1.2-7.7,3.4
		c-0.2,1.1-0.6,1.5-0.8,0.9c-0.7-1.9-3.6-1.3-6.9,1.6c-2.5,2.1-4,2.8-6.2,2.7c-1.6-0.1-5.7,0.5-9,1.3c-5.4,1.2-6.2,1.7-7.4,4.1
		c-1.1,2.3-1.8,2.7-4,2.5c-3.4-0.3-7.7,1.1-11.8,4.1c-2.9,2.1-3.5,2.2-5.1,1.1c-1.7-1.2-2-1.1-4.2,1.3c-3,3.1-5.5,4-9.4,3.4
		c-1.7-0.3-7.1,0.7-12.2,2.1c-10.2,2.8-18.4,4-24.1,3.5c-3.4-0.3-15,2.4-26.6,6.3c-2.3,0.7-3.7,0.7-4,0c-0.2-0.7-3.4-1.6-7-2.2
		c-5.1-0.7-7.7-0.5-11.1,0.8c-4.1,1.6-4.5,1.6-5.6-0.5c-1.1-2.3-1.8-2.6-11.4-5.3c-5-1.4-5.5-1.4-7,0.6c-2.2,2.8-3.9,2.3-3.6-1.1
		c0.3-3.3-0.2-3.6-4.6-2.5c-1.9,0.5-4.5,0.4-5.8-0.1c-1.3-0.6-2.5-0.6-2.7-0.2c-0.2,0.4-1.1,0.6-1.9,0.3s-2.7-0.4-4.1-0.3
		c-1.4,0.1-4.4-0.6-6.7-1.6c-2.3-1-5.1-1.4-6.3-1c-1.2,0.4-3.9,0.6-6.2,0.4c-3.8-0.3-4.1-0.1-5.5,2.4l-1.4,2.7l-4.1-2.4
		c-2.2-1.3-7.4-3-11.5-3.7s-8.9-2.4-10.9-3.7c-1.9-1.3-4.5-2.3-5.8-2.3c-1.2,0-5.3-0.3-9.1-0.7c-3.8-0.4-7.2-0.4-7.6,0.1
		c-0.4,0.5-1.1,0.5-1.6,0.1c-0.5-0.4-1.7-0.5-2.8-0.1c-1.3,0.4-2.1,0-2.6-1.7c-0.9-2.5-2.8-2.5-4,0c-0.6,1.2-0.9,1.2-1.2,0.1
		c-0.3-0.8-2-1.7-3.9-2.1c-2.9-0.6-3.6-1.3-4.7-4.4c-1.2-3.5-1.5-3.7-5.3-3.4c-2.2,0.1-5.4-0.2-7.1-0.9c-2-0.7-3.8-0.7-4.8,0.1
		c-1.3,1-1.8,0.8-2.4-0.7c-0.4-1.3-1.3-1.8-2.6-1.3c-1.1,0.4-2.1,0-2.4-0.8c-0.3-0.8-0.9-1.3-1.4-1.1c-0.5,0.2-1.3-0.7-1.7-2
		c-0.5-1.5-2.6-3.1-5.9-4.6c-7.7-3.4-8.5-3.8-8.8-4.6c-0.1-0.4-3.5-1.3-7.6-2.1c-4-0.8-7.5-1.8-7.6-2.3c-0.2-0.4-3.3-1.6-7-2.6
		c-3.7-1-8.1-2.6-9.9-3.5c-1.8-0.9-4-1.8-4.9-2s-2.5-1.1-3.4-1.9c-0.9-0.8-3.1-1.8-4.8-2.1c-5.6-1-12.1-4.7-14.5-8.3
		c-1.6-2.4-3.3-3.7-5.9-4.3c-2-0.5-3.9-1.4-4.1-1.9c-0.2-0.6-2.2-2.7-4.3-4.6c-2.9-2.6-4.5-3.4-6.1-2.8c-2.5,0.9-5.6-0.7-7.5-3.8
		c-1.7-2.8-16.8-11.1-18.9-10.4c-1.5,0.5-5.2-2.6-6.1-5.1c-0.6-1.7-7-5.9-14.3-9.2c-11.8-5.5-13.2-6.3-14.6-8.5
		c-2.7-4.2-8-7.8-11.1-7.4c-1.6,0.2-3.8-0.5-5-1.6c-1.1-1-2.9-1.9-3.9-1.9c-1.1,0-2.1-0.6-2.4-1.3c-0.3-0.7-0.9-1.2-1.4-1
		c-1.4,0.5-6.2-2.3-8.2-4.8c-1-1.2-2.7-2.1-3.8-2.1c-1.2,0.1-2.3-0.7-2.7-1.9c-0.4-1.1-2.1-3-3.9-4c-2-1.2-3.3-2.7-3.4-4
		c-0.1-2-1.6-3.3-10.1-8.6c-1.9-1.2-4.2-3.2-5-4.3c-2.4-3.3-7.9-7.1-12.3-8.5c-3.1-1-4.1-1.8-4.3-3.6c-0.2-2.3-3.9-7.4-5.1-7
		c-0.4,0.1-2.2-1.2-4.1-2.8c-1.9-1.7-4-2.9-4.8-2.6c-1.8,0.6-2.5-1.7-1.2-3.8c0.6-0.9,0.6-3,0-4.7s-1.9-3.4-2.9-3.8
		c-2.1-0.8-3.2-3.1-1.8-3.6c0.5-0.2,1.5-1.5,2.2-2.9c1.1-2.1,0.8-3.8-1.4-10.4c-1.6-4.8-2.4-8.4-1.9-9.4c0.9-1.8-2.9-14.3-4.5-14.7
		c-0.7-0.2-1-1.8-0.7-4.2c0.3-3,0.1-4.3-1.2-5.5c-1.1-1.1-1.8-3-2.1-6.3c-0.4-4.1-0.8-4.9-2.7-6c-1.9-1.1-2.2-1.8-2.2-4.7
		c0.1-4.6-1-7.6-5.9-16.1c-6.2-10.8-7.9-15-9.6-23.9c-1.5-7.7-1.7-8.2-4-9.1c-1.3-0.5-2.7-1.7-3-2.7c-0.3-1-1.5-3.5-2.6-5.6
		c-2-3.7-1.9-3.8,0.5-4.6c2-0.7,2.3-1.3,1.7-3.2c-0.5-1.4-1.3-2.2-2.1-1.9c-2.7,0.9-7.3-10.3-6.5-15.8c0.4-2.4-0.3-5.5-2.6-11.5
		c-3-8-3.1-8.1-5.4-7.4c-2,0.7-2.5,0.4-3-1.8c-0.4-1.9-1.1-2.5-2.7-2.4c-1.5,0.1-2.3-0.6-3.1-2.8c-0.5-1.6-0.6-3.1-0.1-3.2
		c1.5-0.5,0.7-4.9-1.5-7.5c-1.1-1.3-3.1-5.2-4.5-8.5c-2.1-5.1-2.3-6.9-1.5-11.9c0.9-5.7,0.8-5.9-1.7-8.1c-2.5-2.2-3.3-5.2-1.6-5.8
		c1.6-0.5-0.4-3.9-2.3-3.9c-1.1,0-3.8-0.8-6.1-1.7c-3.6-1.5-4.1-2.1-3.6-3.8c2.6-8.3,2.6-8-2.1-20.4c-2.5-6.5-5.3-12.9-6.2-14.2
		c-1.2-1.6-1.7-3.8-1.7-7.1c0-5.1-1.6-8.3-3.8-7.6c-2.1,0.7-3.1-3.9-1.5-6.9c1.3-2.3,1.2-3-0.6-5.1c-1.7-2-1.9-3.2-1.5-6.9
		c0.5-4.2,0.4-4.5-1.9-6.3c-2.3-1.8-2.5-2.4-3.1-9.2c-0.9-9.5-1.3-10.6-4-10.1c-2.3,0.4-2.9-0.5-3.4-6.6c-0.2-1.7,0.2-3.6,0.7-4.3
		c0.6-0.7,0.7-1.5,0.2-1.9c-0.5-0.4-1.2-3.1-1.5-6c-1.3-10-4.5-22.8-5.9-23.7c-0.7-0.5-1.4-1.2-1.4-1.7c0-0.5-0.8-1.9-1.6-3.2
		c-1.7-2.4-1.5-6,0.5-9.4c1.4-2.4-0.1-11.2-2-11.6c-1.7-0.4-3.1-8.2-2.2-11.9c0.6-2.4,0.2-4.2-2.3-9.9c-2.9-6.6-3-7.2-1.9-13.1
		c0.6-3.4,0.7-6.5,0.2-6.9c-0.5-0.4-0.7-2-0.5-3.5c0.4-2.5,0.2-2.9-2.9-4c-3-1.1-3.4-1.5-3-3.7c0.2-1.3,0.8-2.6,1.3-2.7
		c0.5-0.2,0.9-1.9,0.9-3.9s0.7-4.1,1.6-4.6c1.1-0.7,1.1-2.5,0.2-6.9c-0.7-3.3-1.8-6.7-2.5-7.7c-0.8-1-1-3.6-0.6-6.4
		c0.6-4.4,0.5-5.1-2.8-11.2c-4.5-8.3-4.5-9.8,0.2-10.4c2.9-0.4,3.4-0.8,3-2.1c-0.3-0.9-1.6-2.5-2.9-3.7c-2.2-1.9-2.3-2.4-1.8-8.4
		c0.6-7.1,0.4-8.4-2-10.4c-1.4-1.1-1.5-2.8-0.8-8.9c0.8-7,0.7-7.8-1.9-12.5c-2.2-4-2.5-5.4-1.9-6.9c0.5-1.1,0.4-3.4-0.2-5.2
		c-0.6-1.8-1-4.2-0.9-5.4c0.1-1.2-0.6-3-1.5-4.1c-1.1-1.3-1.6-3.8-1.7-7.7c-0.1-5.6-0.2-5.8-2.5-6.7c-3-1.1-3.8-4.6-2.2-9.4
		c2.1-6.4,2.4-10.8,0.8-13.4c-1.1-1.8-1.1-2.7-0.1-3.6c1-0.9,1-1.8-0.2-3.8c-0.8-1.5-1.7-4.7-1.8-7.1c-0.4-5.7-2.6-9.1-6-9.2
		c-2.6-0.1-2.7-0.2-4.5-7.7c-1-4.2-1.7-8.4-1.6-9.4c0.7-4.5-7.8-9.3-10.6-6c-1,1.2-2.5,1.7-6.2,1.8c-4.5,0.2-5.1,0.4-7.9,3.4
		l-3.1,3.2l-6.2-0.3c-7.1-0.3-17.4,2.4-16.7,4.4c0.2,0.7-0.5,2.1-1.5,3.1c-1.6,1.5-2.6,1.7-4.9,1.1c-2.7-0.7-3.2-0.5-5.2,1.6
		c-2.2,2.3-2.3,2.3-3.3,0.4c-0.8-1.5-1.7-1.8-3.5-1.2c-1.3,0.5-3.4,0.3-4.7-0.3c-2.6-1.3-2.3-1.3-5,0.9c-2.3,1.9-2.5,1.8-4.9-6.5
		c-1.1-3.6-1.5-4-3.8-3.8c-1.4,0.1-3.3-0.2-4.2-0.7c-0.9-0.5-2.3-0.7-3.1-0.5c-0.9,0.3-4-0.5-7-1.8l-5.4-2.2l-0.4-4.9
		c-0.4-4.7-0.5-4.9-4-6.7c-2.4-1.2-4.2-1.5-5.3-0.7c-1,0.6-2.8,0.8-4,0.4c-3-1-5.1-8-4-13.2c0.5-2,0.6-4.4,0.3-5.3
		c-0.5-1.4-0.8-1.4-2.1,0c-1.4,1.4-1.7,1.4-2.3-0.6c-0.4-1.3-1.5-2.3-2.3-2.4c-2.1-0.1-2.2-4-0.2-7.5c1.4-2.4,1.4-3.2-0.3-6.1
		c-1-1.9-2.6-3.4-3.4-3.4c-2.1-0.1-2.9-3.2-1.4-6c1.1-2,1-2.8-0.7-5.3c-1.4-2-2-4-2.1-6.4c0-3.8-3.7-12-6.3-14.1
		c-1.2-1-1.4-1.8-0.6-3.5c0.5-1.2,0.9-4.8,0.9-7.9c-0.1-5.3-0.2-5.8-2.6-7.9c-3.8-3.3-4.5-6.5-1.9-8.6c1.8-1.5,1.9-2.1,0.7-3.7
		c-0.8-1-2.9-5.6-4.7-10.2c-2.9-7.3-3.2-8.9-2.5-12.6c0.5-2.7,0.2-6-0.7-8.8c-2.5-7.6-2.8-10.6-1.1-11.8c1-0.7,1.4-2.3,1-4.7
		c-0.3-2-0.8-5.2-1.1-7.2c-0.3-2-1.2-3.9-2-4.4c-1.6-1-2.4-7.8-1.2-9.3c0.4-0.5,0-2-0.8-3.4c-0.8-1.4-1.1-2.9-0.6-3.5
		c0.5-0.5,0.5-2.1,0-3.4c-0.4-1.3-0.6-3.4-0.4-4.6c0.3-1.6-0.2-3-1.7-4.9c-1.7-2.2-1.8-2.8-0.7-4.1c0.8-0.8,2.3-3.4,3.4-5.7
		c1.8-3.8,1.8-4.8,0.1-9.9c-1.5-4.4-1.6-5.7-0.5-6.1c0.9-0.3,1.1-1.4,0.6-2.8c-0.4-1.3-0.2-3.5,0.5-4.9c1.6-3.3,0.7-6-2.8-7.7
		l-2.7-1.4l1.7-2.8c0.9-1.5,2.6-4.1,3.8-5.7c1.9-2.7,1.9-3.1,0-5.5c-1.7-2.1-1.9-3.1-1.3-6.1c0.4-1.9,0.5-4.4,0.2-5.4
		c-0.7-2,0.8-14.5,2.1-17.8c0.5-1.1,0.4-2.8-0.1-3.7c-1.6-2.9,0.9-16.6,4.8-26.8c0.5-1.3,0.7-5.1,0.3-8.4c-0.3-3.3-0.1-8.2,0.6-10.9
		c0.7-2.7,1.2-6,1.1-7.4c0-1.4,1.2-5.6,2.7-9.4c1.5-3.8,3.2-9.2,3.6-12s1.4-7.4,2-10c3.8-16.2,4.3-20.1,2.8-24.4
		c-1.2-3.5-1.1-5.1,0.4-8.8c1-2.5,3.1-5.6,4.5-6.9c2.7-2.4,2.8-2.9,1-7.3c-0.8-1.9-0.4-3.8,1.3-7.3c2.7-5.3,4.4-10.2,5.4-15.2
		c0.4-1.8,1.7-5.6,2.9-8.4c1.3-2.8,3.4-8.9,4.7-13.6c1.3-4.7,3.1-9.6,4.1-10.9c0.9-1.3,2.3-4,3.1-6c0.8-2,2.3-5.4,3.4-7.6
		c1.1-2.2,2.2-5.4,2.5-7.2c0.6-3.9,5.5-12.9,7.3-13.5c0.7-0.2,1.2-1.5,1.2-2.8c-0.2-4,12.1-28.1,16.4-32.2c2.1-2.1,5.9-7.6,8.5-12.3
		c5.8-10.8,5.4-10,8.7-16.8c1.5-3.1,4-7.1,5.5-8.7c1.5-1.7,3.5-5.6,4.4-8.8c1.1-3.7,3.1-7.3,5.4-9.7c3.9-4.1,10.3-15.6,9.7-17.4
		c-0.5-1.5,2.2-4.1,4.5-4.2c3.1-0.2,7.9-7.7,7.9-12.3c0-3.2,0.4-3.9,2.1-4c1.6-0.1,2.7-1.3,4.1-4.4c1.2-2.7,2.8-4.6,4.3-5.1
		c1.4-0.5,3.8-3.1,5.7-6.1c1.8-2.9,3.8-5.5,4.4-5.7c0.6-0.2,2.5-2.9,4.3-6c1.8-3.1,4.3-6.7,5.6-8c1.3-1.3,3.6-3.7,5.1-5.2
		c1.5-1.6,4.1-4.3,5.9-6c1.7-1.8,3.7-4.6,4.4-6.4c1-2.5,1.6-3,2.8-2.4c2.8,1.3,4,0.1,4.7-4.5c0.7-4.5,4.1-9.8,7.1-10.8
		c1.5-0.5,11.5-10.6,12.8-12.9c0.3-0.6,1.4-1.4,2.4-1.7c1-0.3,2.6-1.8,3.6-3.3c1-1.5,2.3-2.9,2.9-3.1s1.5-1.2,1.9-2.2
		c0.4-1.1,2.3-2.4,4.8-3.2c2.9-1,4.3-2,4.7-3.5c0.4-1.2,2-3,3.7-3.9c1.7-1,4.5-3.1,6.3-4.8c1.8-1.7,5.6-5.2,8.5-7.8
		c2.9-2.6,5.9-6.1,6.8-7.7c0.8-1.7,2.6-3.4,4.1-3.9c3.3-1.1,7.4-4.2,11.9-8.9c2-2.1,4.9-4.2,6.5-4.7c1.6-0.5,3.1-1.7,3.5-2.7
		c0.4-0.9,1.7-2.4,2.9-3.2c1.3-0.8,3.2-2.8,4.4-4.3c1.5-2,3.1-3.1,5.7-3.6c3.4-0.7,6.5-2.9,11.4-7.9c2.8-2.9,4.3-3.3,7.7-2.1
		c2.9,1,2.9,1,7.5-3.6c2.5-2.5,6.1-5.1,7.8-5.7s4.7-2.6,6.5-4.4c1.8-1.8,4.2-3.4,5.4-3.5c1.2-0.1,3.9-1.5,5.9-3c2-1.6,4.7-2.9,5.9-3
		c1.2-0.1,5.6-2.1,9.7-4.4c14.9-8.3,16.4-9.1,19.6-9.6c2.2-0.3,4.6-1.6,7.1-3.9c2.8-2.5,7-4.7,15-7.9c7-2.8,12.2-5.4,13.9-7.1
		c1.8-1.7,5.9-3.7,11.7-5.8c5.1-1.9,9.8-4.1,10.9-5.2c3.2-3.4,12.2-9.1,15.4-9.8c1.7-0.4,3.2-1.2,3.4-1.9c0.4-1.8,3.6-2.6,4.8-1.1
		c1.8,2.2,4.8,0.3,4.2-2.7c-0.4-2,0.1-3.2,2.4-4.9c2-1.5,2.8-2.9,2.5-4.4c-0.2-1.3,0.3-2.4,1.4-2.7c1-0.3,2.4-1.1,3.1-1.8
		c1.1-0.9,1.4-0.7,1.4,0.8c0.1,5.1,5.9,4,10.3-2c1.1-1.5,3-3.2,4.3-3.6c1.2-0.4,2.6-1.4,2.9-2.1c0.9-1.8,3.6-1.5,5.7,0.7
		c1.5,1.6,2.8,1.6,10.4,0c10.1-2.2,19.5-6.3,23.1-10.2c2.7-2.9,2.8-2.9,28.2-9.5c6.4-1.7,7.9-2.4,8.6-4c0.9-2.4,4.1-3.6,4.7-1.9
		c0.4,1.1,12.1,0.8,15.5-0.3c0.5-0.2,2.4-0.2,4-0.1c1.7,0.1,4.1,0,5.5-0.4c14.6-3.8,20.3-5.1,22.6-5c2.3,0.1,6.4-0.7,24.7-4.7
		c2.4-0.5,5.6-0.7,7.2-0.4c6.1,1.1,8.5,1,13.7-0.4c6-1.7,10.8-2.2,13-1.4c0.9,0.3,3.8-0.5,6.9-1.9c3.8-1.7,6.5-2.4,9.2-2.2
		c2.1,0.1,5-0.1,6.5-0.6c1.6-0.6,3.4-0.3,4.5,0.6c1.5,1.2,2.4,1.2,4.4,0.1c1.9-1.1,4-1.1,9.2,0c3.7,0.8,7.1,1.4,7.5,1.2
		c0.4-0.2,3.1,0.4,6,1.1c2.8,0.8,6.3,1,7.8,0.5c1.4-0.5,3.2-0.6,4-0.2s3.3,0.2,5.6-0.4c8.7-2.2,11.8-2.6,13.4-1.5
		c0.9,0.6,3.1,0.7,5,0.2c3.9-1.1,7.9-0.4,11.8,2c2.2,1.3,3.3,1.4,5.4,0.1c3.3-1.9,9-1.1,17.1,2.4c3.4,1.5,8.9,2.6,13.6,2.8
		c4.4,0.2,8.4,0.5,9.1,0.7c0.6,0.2,3.7-0.2,6.8-0.9c3.1-0.7,5.8-0.8,5.9-0.4c0.7,2,4.5,2.6,9.7,1.5c4.7-1,6.2-0.8,9.5,1.1
		c3.3,1.9,4.4,2,6.4,0.8c1.6-1,4-1.2,6.9-0.8c2.5,0.4,5.6,0.3,6.9-0.2c1.6-0.6,2.9-0.2,4,1c1.1,1.3,3.7,1.9,8.8,2
		c5.5,0.1,7.9,0.8,10,2.5c2.7,2.4,6.6,2.7,14,1.4c2.7-0.5,4,0,5.7,1.8l2.2,2.4l3.5-3.8c1.9-2.1,3.6-3.9,3.8-4c0.9-0.3,6.3,5,6.9,6.8
		c0.6,1.7,1.6,1.9,7,1.1c3.4-0.5,7.8-0.5,9.6,0.1c1.8,0.6,5.6,1,8.5,0.9c2.8-0.1,5.3,0.2,5.4,0.6c0.1,0.4,2.7,0.8,5.7,0.7
		c3,0,6.5,0.3,7.8,0.6c1.3,0.4,3.1,0.4,4.1,0.1c0.9-0.3,3.1,0.6,4.7,2c3.3,2.9,8.1,3.4,11.8,1.3c2-1.1,3-0.9,5.8,1.2
		c2.6,2,4,2.4,6.3,1.6c1.6-0.5,4.5-0.4,6.5,0.2c2,0.7,7.9,1.6,13,2.2c5.1,0.5,11.6,1.7,14.5,2.7c2.9,0.9,5.6,1.6,6.1,1.4
		s3.5,0.5,6.6,1.5s5.9,1.7,6.3,1.6c0.4-0.1,2.7,0.5,5.2,1.4c2.5,0.9,5.5,1.3,6.7,0.9c1.2-0.4,4,0.1,6.3,1.2s4.9,1.7,5.9,1.5
		c3.1-0.8,23.8,3.4,26.7,5.5c1.6,1.1,4.5,1.9,6.6,1.7c2.3-0.1,4.4,0.5,5.5,1.6c1.2,1.2,4.6,2.1,10.5,2.5c5.6,0.4,9.3,1.3,10.4,2.4
		c0.9,1,3,1.6,4.7,1.4c1.7-0.2,3.8,0.1,4.7,0.7c2,1.2,12.8,2.8,16.7,2.5c1.5-0.1,3.2,0.5,3.9,1.5c0.6,1,1.5,1.5,2,1.2
		c0.5-0.3,2.3,0.2,4.1,1.2s4.3,1.4,5.5,1c2.6-0.9,7.2,0.3,7.8,2c0.2,0.7,3.7,1.7,7.6,2.3c4.4,0.7,7.4,1.7,7.7,2.6
		c0.6,1.9,5.3,4,8.5,3.9c1.3,0,5.6,1.4,9.4,3.3c6.5,3.1,8.3,3.4,11.3,2c2.4-1.2,7.9,0.9,10.5,4c1.5,1.7,3.1,2.8,3.7,2.5
		c0.6-0.3,1.9,0.3,3,1.3c1.1,1.1,4.2,2.2,7,2.4c3.1,0.3,4.9,1,4.9,1.8c-0.1,1.6,9.9,6.3,15.4,7.2c2.9,0.5,4,0.3,3.9-0.6
		c0-0.7,0.4-1.5,0.9-1.6c1-0.4,8.8,7.8,9.6,10c0.4,1.1,1.4,1,4.9-0.4l4.4-1.8l1.4,4c1.1,3.1,2.1,4.2,4.2,4.9
		c1.5,0.5,3.8,1.4,5.1,1.9c1.3,0.6,4.1,1.2,6.4,1.3c5.4,0.4,12.8,2.5,13.2,3.8c0.2,0.6,6.1,4,13.1,7.7c7,3.6,12.9,7,13.1,7.4
		c0.1,0.4,1.3,0.8,2.6,0.7c3.2-0.1,6.5,1.4,7.2,3.3c0.3,0.8,3.5,3,7.1,4.7c3.6,1.8,8.7,4.7,11.2,6.5c2.5,1.8,6.6,3.6,9.2,3.9
		c4.8,0.7,19,6.9,19.6,8.5c0.2,0.5,2.1,2,4.3,3.3c2.2,1.3,4,2.7,4.2,3.1c0.4,1.1,8.9,7.5,11.2,8.3c1,0.4,2.8,0.1,3.8-0.5
		c1.6-1,2.8-0.6,5.9,1.8c2.2,1.7,5.7,3.9,8,5.1c2.2,1.1,4.5,3,5.1,4.2c0.6,1.2,2.1,2.3,3.4,2.5c4.3,0.6,12.5,4.4,13.2,6.2
		c0.4,1,2.8,3.7,5.5,6c9.4,8.4,10.5,9,13.1,8.2c1.4-0.5,3.5-0.2,4.8,0.5c2,1.1,2.3,1.8,2.1,4.2c-0.3,2.6,0.1,3.1,3.2,4.7
		c1.9,1,4.4,1.5,5.6,1.1c1.4-0.5,4.4,0.7,9,3.3c6.2,3.6,6.9,4.4,7.5,7.5c0.5,3.1,1.1,3.7,6.2,6c6.2,2.8,10.7,6.2,13.2,9.9
		c1.1,1.7,2.4,2.2,4.4,1.9c2.9-0.4,3.8,0.1,7.4,4.5c1.4,1.7,3.5,2.8,5.9,3.1c2.1,0.2,3.9,1,4.2,1.8c0.2,0.7,2.2,2.3,4.3,3.5
		c2.1,1.2,4.2,2.9,4.5,3.9c0.9,2.8,3.8,5,5.1,3.9c0.8-0.7,1.4-0.3,2,1.4c0.7,2.1,4.7,3.9,9.3,4.1c0.6,0,0.5,0.9-0.2,2
		c-1.1,1.6-0.9,2.6,0.7,5.7c1.6,2.9,3.1,4.1,6.7,5.5c2.6,1,5.3,2.8,6.1,4.2c0.8,1.4,3.1,3.7,4.9,5.1c1.9,1.4,3.7,3.2,3.9,4
		s3.4,4.5,7,8.2c3.6,3.8,6.8,7.6,7.1,8.5c0.3,0.9,2.2,2.4,4.3,3.4s4,2.5,4.3,3.3s3.1,2.8,6.2,4.4c4.1,2,5.7,3.4,5.8,4.9
		c0.1,1.3,0.8,2.1,1.9,2.1c1.2,0,1.8,0.7,1.8,2.2c0,1.6,0.7,2.1,2.6,2.2c2.3,0.1,2.8,0.7,4.5,5.2c3.2,8.9,9.6,17.7,15.9,22
		c4.5,3.1,6,4.7,7.2,8c2.2,6.2,4.1,8.4,7.3,8.8c2.4,0.3,3.3,1.2,5.4,5.6c1.4,2.9,3,5.5,3.6,5.9c0.6,0.4,1.9,2.4,3,4.6
		s2.6,4.5,3.4,5.2c0.8,0.7,2.4,2.9,3.7,4.8c1.3,1.9,2.9,4.3,3.6,5.4c0.9,1.3,2,1.7,3.5,1.2c2-0.7,2.3-0.4,2.8,2.7
		c0.4,2.4,1.6,4.4,3.9,6.6c1.8,1.7,3.6,3.9,3.9,4.8c0.3,0.9,1.5,2.2,2.6,3c1.1,0.8,2.6,3,3.3,5.1c0.8,2.3,2.3,4.4,4,5.5
		c1.5,1,3.1,2.9,3.6,4.3s1.8,3.1,2.9,3.9c1.1,0.8,2.5,2.8,3.1,4.6c0.6,1.8,3,5.2,5.4,7.7c6.5,6.9,15.2,15.4,16.8,16.4
		c1,0.6,1.2,1.3,0.7,2.4c-1.1,2.3,0.7,6.3,3.5,7.4c1.9,0.8,2.6,1.7,2.8,3.8c0.3,2.4,1.1,3.1,5.3,4.9c4.9,2.1,5,2.2,5.8,6.9
		c1.2,6.8,4.3,15.7,12.3,34.7c10.9,26,17.4,44.3,16.9,47.5c-0.5,3.7,2.7,8.6,5.5,8.4c2.5-0.2,2.6-0.1,1,4.7
		c-0.7,2.2-0.9,5.2-0.4,6.7c7.4,21.4,10.1,30,10.6,34.3c0.3,2.8,1.7,8.7,3,13.2c1.9,6.2,2.3,9.3,1.7,12.8c-0.4,2.6-0.4,5.6-0.1,6.7
		s0.5,3.1,0.2,4.4s0.2,5.3,0.9,8.9c0.8,3.5,1.5,8.5,1.7,11c0.4,6,5.5,22.1,7.8,25.1c1.4,1.7,1.8,3.3,1.6,6.3
		c-0.3,4.2,1.6,13.2,5.8,26.8c1.4,4.5,2.3,9.3,2.1,10.6s0,3.5,0.4,4.8c0.4,1.3,0.5,2.8,0.1,3.3s-0.5,1.7-0.1,2.8s0.3,3.2-0.1,4.9
		c-0.8,2.9-0.7,3,2.1,4.1c2.6,1,2.9,1.4,2.8,4.5c0,2.2,1.3,6.8,3.9,13.3c2.7,6.7,4.3,12,4.7,16.1c0.7,5.7,0.9,6.2,2.9,6.9
		c2.1,0.7,2.1,0.9,0.8,5.7c-0.8,2.7-2.6,6-4.1,7.3c-2.5,2.2-2.7,3.8-1.1,7c0.3,0.7,0.3,1.6,0,2.1c-0.9,1.2-1.8,8.1-1.2,9.7
		c0.2,0.7-0.5,2.1-1.6,3.2c-1.1,1-2.3,3.1-2.7,4.7c-0.5,2-1.4,2.9-2.9,3c-1.4,0.1-2.4,1-3.1,2.9c-0.5,1.5-2.4,3.6-4.1,4.5
		c-2.2,1.2-3.7,3.4-5.4,7.8c-1.3,3.3-2.9,6.2-3.6,6.5c-2,0.7-2,2.7-0.1,3.9c1.6,1,1.4,1.1-1.4,1.4c-2.1,0.2-4.9,1.7-8.3,4.2
		c-3.5,2.7-7.6,4.7-12.8,6.5c-5.7,1.9-9.3,3.9-14.3,7.6c-5.8,4.4-7,5-9.8,4.7c-2.3-0.2-3.3-0.9-3.5-2.4c-0.2-1.1-0.4-1.5-0.5-0.8
		c-0.1,0.9-1.1,1.3-3.5,1.4c-1.8,0.1-4.8,0.7-6.6,1.3c-2.5,0.8-4.5,0.6-7.9-1c-2.5-1.2-5.3-1.9-6.1-1.6c-0.8,0.3-1.6,0.1-1.8-0.4
		c-0.2-0.5-1.7-1.1-3.4-1.3s-5.4-0.9-8.4-1.4c-2.9-0.5-6.1-0.4-7,0.2c-1.1,0.7-2.1,0.6-2.8-0.5c-0.6-0.8-2.9-2.5-5-3.7
		c-3-1.7-4.8-1.9-8.3-1.1c-2.5,0.6-5.2,0.8-6.1,0.4c-1.1-0.4-2.3-0.1-4,1.3c-2.8,2.3-10,3.8-12.1,2.5c-1.8-1.1-7.5-0.2-22,3.6
		c-6.1,1.6-12.7,3.1-14.6,3.4c-2.6,0.3-3.6,0.9-4,2.3c-0.9,2.7-5,5.1-6.2,3.6c-0.6-0.7-1.8-0.8-3-0.1c-1.2,0.7-5.4,0.4-11-0.7
		c-5-1-9.5-1.6-10-1.4c-0.5,0.2-2.5-0.3-4.4-1.1s-5.9-1.4-8.8-1.4c-2.9,0-6.9-0.8-8.8-1.8c-3.1-1.6-4.2-1.6-9.2,0.1
		c-4.5,1.5-6.2,1.6-8,0.6c-2.5-1.4-7-0.5-6.4,1.2c0.2,0.6-0.3,2.1-1.1,3.3c-1.7,2.7-1.2,9.1,1.2,17.1c1,3.2,1.6,7.1,1.5,8.8
		c-0.3,4.3,1.4,8.7,3,8.1c2.1-0.7,3.8,2.5,3.3,6.1c-0.4,2.5,0.1,4.4,2,8c1.4,2.7,2.6,6.3,2.7,8.4c1,13.2,2.1,21.5,3.4,26.1
		c0.5,1.7,0.4,4.2-0.3,5.7c-0.8,1.9-0.6,5.5,0.9,12.7c4,19.8,4,19.8,2.2,23.6c-1,2-1.6,4.8-1.4,6.3c0.3,2.8,0.2,4.8-1.7,21
		c-0.6,5.2-1,9.9-0.8,10.4c0.5,1.4-4.9,11.1-9.2,16.4c-2.2,2.8-4.8,6.4-5.7,8.1c-0.9,1.6-2.9,5.3-4.6,8.1s-3.3,7.5-3.6,10.4
		c-0.6,5.3-7.8,21.3-11.8,26.4c-1.8,2.2-1.8,3-0.5,5.4c2.2,3.9,1.5,12.2-1.4,15.5c-1.9,2.2-2.1,3.6-1.4,8.8c1.1,8,1,14.6-0.3,16.6
		c-0.5,0.9-0.8,2.1-0.6,2.8c0.2,0.7,0,1.9-0.6,2.8c-1.7,2.8-5.8,19-6.4,25.1c-0.4,3.9,0,6.7,1,8.5c1.1,2,1.1,3.6-0.1,7.1
		c-1.8,5.3-2.4,10.4-1.2,11.3c0.4,0.4,0.7,1.6,0.5,2.7c-0.2,1.1-0.5,3.9-0.8,6.1s-1.2,4.4-2,4.6c-1.8,0.6-2.8,8.9-1.5,11.7
		c0.5,1,0.4,2.7-0.1,3.6c-0.6,0.9-0.8,2.3-0.6,3.1c0.6,1.7-6.7,16.3-8.4,16.9c-1.4,0.5-2.1,6.8-1.3,11.8c0.3,1.8,0.9,3.1,1.4,2.9
		c0.5-0.2,1.2,0.5,1.6,1.6c0.7,2-1.5,3.5-2.8,1.8c-0.5-0.6-1.2-0.1-1.9,1.6c-17.9,39.1-18.5,40.6-17,41.5c0.9,0.6,1,1.1,0,1.9
		c-0.7,0.6-1.3,2.4-1.3,4.1c0,1.7-0.8,3.8-1.8,4.7c-2.9,2.8-9.3,15-9.8,18.7c-0.3,1.9-2,6.4-3.9,10c-2,3.9-3.2,7.8-3,9.7
		c0.2,1.9-0.6,4.4-1.9,6.3c-5.4,7.5-11.7,23.4-14.6,36.9c-0.5,2.5-1.3,5-1.7,5.5c-0.4,0.5-0.2,2.4,0.5,4.1c1,2.6,0.8,3.6-1.2,6
		c-3.3,3.7-7.7,11.4-8.2,14.4c-0.2,1.3-1.7,4.1-3.3,6.3c-1.9,2.6-2.9,5.4-3,8.6c-0.2,5.8-5.8,18-10.9,23.6c-2,2.3-4,5.5-4.4,7.3
		c-1.7,7.5-3.8,11.1-6.6,11.5c-4.3,0.6-12,5.5-18.3,11.5c-3.2,3.1-5.6,5.9-5.5,6.3c0.4,1.2-3.7,4.2-12,8.9c-4.8,2.7-7.6,4.8-7.3,5.6
		c0.2,0.7-0.9,1.9-2.5,2.7c-5.5,2.9-11.7,6.8-15,9.5c-1.8,1.4-5.2,3.5-7.4,4.6c-2.3,1.1-5.1,3-6.3,4.3c-1.2,1.3-3.1,2.6-4.3,3
		s-2.4,1.4-2.8,2.2c-0.6,1.2-1.2,1.2-2.5,0.3c-1.7-1.2-2-1-6.1,3c-2.4,2.3-7.1,7.2-10.5,10.9c-3.4,3.7-6.6,6.6-7.1,6.5
		c-0.5-0.1-2.5,1.4-4.4,3.3c-2.4,2.3-4.5,3.6-6.4,3.8c-1.6,0.2-4,1.2-5.3,2.4c-1.3,1.1-5.8,3.2-9.9,4.5c-4.2,1.3-7.9,3.1-8.4,3.9
		c-0.5,0.8-2.4,1.7-4.2,1.9c-4.1,0.6-4.9,1.6-5.3,6.4c-0.2,2.1-0.7,4.8-1.1,6.1c-0.8,2.3-0.9,2.3-6.3,1.9c-6.8-0.5-9.8,0.5-14.3,4.7
		c-1.9,1.8-6.4,4.6-10,6.2c-3.7,1.6-7.9,4.3-9.6,6.1c-2.4,2.5-5.2,4-12.5,6.6c-5.2,1.9-12.3,5-15.7,6.8s-10.1,4.8-14.7,6.5
		c-4.6,1.7-11.2,4.7-14.6,6.7c-7.8,4.4-54,19.9-61.5,20.6c-4.6,0.4-5,0.7-6.5,3.4c-0.9,1.6-1.4,3.5-1.1,4.2s-0.1,1.4-0.8,1.7
		c-0.6,0.2-2,0.9-2.9,1.5C1928.5,3392,1924.9,3392.2,1921.6,3391.8L1921.6,3391.8z M1716.8,3208.4c5.2-2.3,11-4.8,13-5.5
		s7.7-2.8,12.9-4.6c5.2-1.9,9.8-3.8,10.2-4.2c1.3-1.4,17.6-6.1,23.4-6.7c4.8-0.5,5.5-0.8,6.7-2.9c0.7-1.3,1-3.1,0.7-4.1
		c-0.7-2.2,0.5-2.7,3.4-1.2c1.6,0.8,3.9,0.6,8.5-0.9c3.4-1.1,13.3-4,21.8-6.5c14-4.1,15.8-4.8,17.9-7.2c2.2-2.6,2.7-2.7,12.8-4.3
		l10.5-1.7l2.1-3c2.1-3,2.4-3.1,13.4-5.6c10-2.2,11.8-2.9,15.5-5.7c5.6-4.2,12-7.8,21.9-12.2c5.1-2.3,9.8-5.1,12.3-7.4
		c2.7-2.5,6.5-4.7,11.4-6.7c4.9-2,8.1-3.9,9.7-5.7c1.3-1.5,3.3-3.1,4.6-3.6c1.3-0.5,3.7-2.5,5.4-4.5c1.8-2.2,4.4-4.1,6.6-4.8
		c2-0.7,4.9-2.6,6.4-4.3c1.6-1.7,4.1-3.5,5.5-4c1.5-0.5,2.7-1.6,2.7-2.5c0-0.9,1.2-2,2.8-2.5c1.7-0.6,2.8-1.7,3.1-3.2
		c0.3-1.8,1.3-2.6,5.2-3.9c2.6-0.9,5.9-2.7,7.3-4c1.4-1.3,4.1-3.2,5.9-4.2c2.9-1.5,3.3-2.3,3-4.9c-0.4-2.9-0.2-3.1,3.3-3.8
		c3.2-0.6,4-1.3,5.6-4.7c1-2.2,1.7-4.5,1.5-5.1c-0.5-1.5,2.3-4.3,4.2-4.2c0.9,0,3-1.3,4.6-3.1c1.6-1.7,4.5-4.2,6.3-5.6
		c1.9-1.4,4.9-5.3,6.9-9.1c2-3.7,5.2-8,7.2-9.7c2-1.7,6.8-6.4,10.7-10.5c3.9-4.1,8.1-8.1,9.4-8.9c1.5-1,2.2-2.4,2.1-4.1
		c-0.1-1.5,0.9-4,2.4-5.7c1.4-1.7,2.5-3.4,2.3-3.9c-0.2-0.5,0.5-1.1,1.5-1.4s2.6-2.1,3.7-3.9c1.1-1.8,3-4.4,4.4-5.7
		c3.3-3.2,13.5-24,12.8-26c-0.2-0.5,0.6-1.7,1.7-2.6s3-3.3,4.2-5.4c1.2-2.1,4-6,6.2-8.6s3.7-5.4,3.5-6c-0.6-1.8,2.8-8.9,4.6-9.5
		c2.6-0.9,9.4-11.5,8.7-13.6c-0.4-1-0.1-2.4,0.6-2.9c0.7-0.6,1.5-2.5,1.8-4.3c0.3-1.8,1.7-4.8,3.2-6.7c1.5-1.9,3.5-5,4.5-6.8
		s2.1-3.4,2.5-3.6c1.3-0.4,7.4-14.4,7.7-17.5c0.4-4.2,6.6-19.1,10.4-24.5c1.8-2.6,3.2-5.2,3-5.6c-0.1-0.5,0.8-4.7,2.1-9.5
		c1.3-4.8,2.1-9.5,1.7-10.5c-0.3-1,1.1-5.3,3.1-9.6s3.5-8.3,3.3-9c-0.2-0.6,0.2-5.9,0.9-11.8c0.9-7.1,2.1-11.8,3.7-14.1
		c1.3-1.9,2.1-4.3,1.7-5.2s0.6-4.6,2-8c3-7.1,4.3-13.9,3.2-17.1c-0.5-1.5,0-2.8,1.5-4.2c1.4-1.3,2.7-4.6,3.4-9.1
		c1.1-6.5,2.8-11.2,7.2-20c0.9-1.8,2.5-6.2,3.6-9.8c1.4-4.9,2.4-6.5,4-6.8c2.2-0.4,2.6-2.9,1-7.5c-0.4-1.3-0.5-4.3-0.1-6.6
		c0.4-2.3,0.4-5.2,0-6.4c-0.4-1.2,0.2-4.4,1.3-7.2c1.6-3.9,1.7-5.8,0.7-8.8c-1.1-3.1-0.9-4.1,0.6-5.2c2.7-1.9,4.7-6,4.9-9.9
		c0.1-1.9,0.9-5.2,1.8-7.4s1.4-4.6,1.2-5.4c-0.6-1.7,3.3-9,4.8-9c1.4,0,4.2-8.6,5.2-16.3c0.4-3.2,1.6-7.1,2.6-8.7
		c1.7-2.8,1.7-3-0.4-4.2c-2.9-1.6-3.1-2.6-1.3-4.8c0.8-1,1.3-2.5,1-3.3c-0.3-0.8,0-2.9,0.6-4.7c0.9-2.8,0.8-3.6-0.9-5.4
		c-2.6-2.8-17.8-4.4-22.8-2.4c-2,0.8-4.6,1.1-6.1,0.7c-1.4-0.4-3.4-0.2-4.4,0.4c-1,0.7-2.3,0.7-3,0.1c-0.8-0.7-3.4-0.4-7.7,1
		c-5.4,1.7-6.8,1.7-8.8,0.4c-2.3-1.6-6.3-1.3-17.9,1.4c-3,0.7-5.9,0.6-7.5-0.1c-1.5-0.7-4.5-0.8-7-0.2c-2.4,0.5-6.4,0.7-8.8,0.4
		c-2.5-0.3-5.7-0.5-7.2-0.4c-1.5,0.1-3.1-0.4-3.5-1.2c-0.9-1.6-16.1-1-24.5,1c-3.3,0.8-5.3,0.8-5.6,0c-0.3-0.8-2.3-0.9-5.6-0.2
		c-2.9,0.6-7.8,1.2-10.9,1.4c-3.1,0.2-6.8,0.5-8.2,0.6c-1.4,0.1-4-0.2-5.7-0.7c-3.6-1.1-13.1,0.7-13.6,2.6c-0.2,0.8-3.1,2-8.2,3.3
		c-7.1,1.9-8,1.9-9.2,0.2c-1.1-1.7-2.1-1.7-7.4-0.5c-7.9,1.9-9.5,1.8-12.3-0.9c-1.7-1.7-3-2-5-1.4c-1.4,0.5-3.7,0.5-4.9,0.1
		c-1.3-0.4-3.2-0.5-4.4-0.1c-1.1,0.4-2.5,0.3-3-0.1c-0.5-0.4-2.1-0.3-3.6,0.2c-1.5,0.5-3.4,0.4-4.3-0.1c-0.9-0.6-2.1-0.9-2.7-0.7
		c-0.6,0.2-3,0.1-5.3-0.3c-2.5-0.4-6-0.1-8.8,0.9c-3.4,1.1-5.2,1.2-6.9,0.2c-1.6-0.9-3.6-0.9-6.2,0c-5.2,1.8-10.4,1.9-13.2,0.4
		c-1.3-0.7-4.3-0.8-7.2-0.2c-3.7,0.7-5.5,0.5-7.2-0.8c-2.5-2-6.8-1.3-22.4,3.4c-6.7,2-9.6,2.5-12.1,1.8c-2.3-0.6-5-0.3-9.2,1.1
		c-5,1.7-6.6,1.7-10.1,0.5c-2.3-0.8-4.5-1.4-5-1.2c-0.5,0.2-2.3,0.1-4.1-0.2c-1.8-0.3-3.9-0.3-4.8,0c-0.9,0.3-3-0.7-4.6-2.1
		c-3.3-2.9-4.8-2.8-9,0.6c-2.4,1.9-3,2-6.6,0.6c-2.3-0.9-4.6-1.1-5.5-0.5c-0.9,0.6-3.2,0.4-5.6-0.7c-2.2-0.9-4.5-1.5-5.2-1.3
		c-0.6,0.2-3.7-0.2-6.8-1c-3.1-0.7-6.7-1.2-8-0.9c-8.6,1.4-19.4,2.1-21.3,1.3c-1.2-0.5-3.3-1.1-4.7-1.3c-1.3-0.2-2.9-1.3-3.5-2.4
		c-1.1-2.2-0.9-2.2-13.2,1.1c-3.5,0.9-6.6,1.8-6.9,1.8c-0.4,0.1-1.3-0.9-2-2.1c-0.8-1.3-2.8-2.3-4.9-2.6c-2-0.2-5.6-0.8-8-1.2
		c-2.5-0.4-6.6-0.1-9.3,0.7c-3.8,1.1-5.6,1.1-8.2-0.2c-4-2-5.6-1.6-7.1,1.7c-2.1,4.7-6.9,4.3-5.5-0.5c1-3.5,0.6-4.2-1.7-3.4
		c-1.1,0.4-3.3-0.2-5-1.2c-2.9-1.7-3.6-1.6-11.5,0.9c-10.6,3.3-9.9,3.3-10.6,1.1c-0.7-2-6.5-3.2-16.5-3.4c-2.9-0.1-6.3-0.6-7.6-1.3
		c-1.3-0.6-3.1-0.9-4.1-0.5c-1,0.3-4.4,0.4-7.6,0c-3.9-0.4-8.4,0.1-14,1.5c-7.4,1.9-8.6,1.9-12.1,0.3c-2.1-1-4.2-1.7-4.6-1.5
		c-0.4,0.1-3.6-0.5-6.9-1.4c-3.4-0.9-6.7-1.4-7.5-1.2s-2.1,0-2.9-0.5c-0.8-0.5-4-0.4-7,0.2c-3.6,0.7-7.9,0.6-12.4-0.3
		c-3.8-0.8-9.5-1.4-12.6-1.3c-3.4,0.1-7.6-0.7-10.6-2.1c-4-1.8-5.5-2-7.4-0.9c-2.7,1.6-10.6,0-11.4-2.2c-0.6-1.8-5.1-3.5-6-2.3
		c-0.4,0.5-2.2,0.5-4-0.1c-1.7-0.6-4.5-0.6-6.2-0.1c-1.7,0.6-3.8,0.6-4.7,0c-0.9-0.6-2.5-0.7-3.5-0.4c-1,0.3-5.4,0.8-9.8,1.1
		c-4.4,0.3-9.8,0.8-11.9,1.3c-2.2,0.5-4.8,0.5-5.8,0c-3.2-1.4-14.3-2-17.2-1c-1.9,0.7-3.9,0.3-6.4-1c-4.2-2.3-13.5-2.8-15.9-0.8
		c-3,2.6-5.6,2.9-12.2,1.4c-3.6-0.8-7.4-1.2-8.3-0.9c-0.9,0.3-4.2-0.3-7.2-1.3c-3-1-6.7-1.7-8.2-1.6c-1.5,0.1-3.3,0.1-3.9-0.1
		c-1.1-0.4-8.6,0.9-12.9,2.3c-1,0.3-4.6-0.4-8-1.5c-5.2-1.8-7-1.9-12.4-0.6c-3.9,0.9-8.3,1.2-11.7,0.7l-5.4-0.8l-2.1,3.1l-2.1,3.1
		l-2.3-1.7c-1.3-0.9-2.5-2.1-2.6-2.6c-0.2-0.5-1.7-0.7-3.3-0.3c-1.6,0.4-3.5,0.4-4.1,0.1c-0.7-0.3-3.6,0.3-6.6,1.3
		c-3,1-5.9,1.5-6.5,1c-0.6-0.5-2.5-0.1-5.1,1.2c-6,3-11.5,3.7-11.7,1.5c-0.2-2.6-8.9-4.9-11.8-3.1c-1.4,0.9-2.3,1-2.6,0.3
		c-0.7-2.1-4.7-3.5-7.2-2.7c-1.5,0.5-3.8,0.2-5.5-0.7c-1.6-0.9-4.4-1.4-6.1-1.2s-4.8,0.2-6.9,0s-6.4,0.4-9.6,1.4
		c-3.2,1-7,1.5-8.5,1.2c-2.3-0.5-2.7-0.4-3.3,1.5c-0.8,2.5-1.5,2.8-3.9,1.6c-1.1-0.6-3.7-0.3-6.3,0.5c-3.4,1.1-5.1,1.1-7.7-0.1
		c-2.5-1.2-4.5-1.2-8.5-0.1c-2.9,0.8-6.8,1.2-8.8,0.9c-2-0.3-4.5-0.2-5.6,0.1c-1.1,0.4-4.3,0.2-7.1-0.4c-3.7-0.8-5.8-0.6-7.7,0.5
		c-1.6,0.9-3.9,1.4-5.9,1.1c-2.3-0.4-3.8,0-5.3,1.2c-2.3,1.9-4.4,2.1-8.9,0.7c-2.5-0.8-4.3-0.4-9.8,1.8c-6.1,2.4-6.9,2.5-7.9,1.1
		c-1-1.5-1.9-1.3-8.7,1.2c-5.9,2.2-8.6,2.7-12,2.3c-4.7-0.6-7.2-0.1-18.4,3.8c-6.5,2.2-7.5,2.3-9.8,0.8c-2.4-1.6-2.9-1.6-8.9,1.2
		c-5,2.3-6.9,2.8-8.9,2.3c-5.2-1.3-6.8,1.9-4.1,8.2c0.6,1.3,0.4,2.2-0.5,2.6c-1.5,0.5-1.5,2.2,0.1,9.3c0.5,2.3,0.4,6.3-0.3,8.8
		c-0.7,2.5-0.9,5.5-0.5,6.7c0.4,1.2,0.9,5.4,1.1,9.4s0.7,8.2,1.1,9.4c0.4,1.2,0.2,2.3-0.3,2.5c-0.6,0.2-0.2,2.4,0.8,5.3
		c2.3,6.3,4.8,19.5,4.7,25.6c0,5.2,2.6,24,4.4,31.8c0.6,2.7,1,6,0.8,7.3c-0.2,1.6,1.1,6,3.8,12.6c3.2,7.9,3.9,10.5,3.2,11.7
		c-1.4,2.4-0.6,10.8,1.6,16.5c1.5,3.8,1.8,5.6,1,6.9c-0.6,1-0.8,2.6-0.5,3.6c0.3,1,0.3,3.9-0.1,6.4c-0.5,3.5-0.2,5.4,1.3,8.4
		c1.5,2.8,1.7,4.2,0.9,5.1c-1.1,1.3-0.1,9.1,1.9,14.2c2.4,6.3,4.7,13.2,7,21.1c2,6.9,2.1,8.3,0.8,9.1c-1.2,0.7-1.2,1.5,0,3.6
		c0.9,1.5,1.8,5.5,2.2,8.9c0.9,9.8,1.5,12.6,2.7,12.9c1.5,0.3,2.6,6,1.5,7.4c-0.6,0.7-0.4,1.8,0.4,2.9c0.9,1.2,1,3.7,0.3,7.4
		c-0.9,5.2-0.8,6.1,2.3,13.2c1.8,4.2,3.7,10.4,4.2,13.7c2.6,16.7,5.9,29.7,9.8,38.1c2.1,4.6,4.6,10.5,5.4,13s2.2,4.9,2.9,5.3
		c1,0.5,1.3,1.4,1,3.3c-0.5,3.1,2,10.1,4.5,12.4c1,0.9,3.7,6.8,6.1,13.4c3.7,10.1,4.7,12,7.2,13.8c2.8,2,2.9,2.2,2.5,6.1
		c-0.6,6.4,4,13,9.2,13c1.1,0,1.2,0.9,0.5,4l-0.9,4l2.6,1.3c2.7,1.4,6.6,6.9,8.3,11.8c1.1,3.3,8.7,13.6,14.4,19.4
		c2.1,2.2,5,5.9,6.5,8.3s3.4,4.8,4.4,5.4c3.3,1.9,13.4,12.8,14.2,15.3c0.5,1.4,1.7,2.9,2.7,3.2c1.6,0.6,7.1,6,13.1,12.7
		c1.1,1.2,2.4,2.1,2.9,1.9c0.5-0.2,1.2,0.4,1.5,1.3c0.9,2.6,12.3,11.9,15.7,12.7c5,1.3,5.7,1.8,7.9,6.4c1.4,3.1,2.8,4.6,4.5,5.1
		c1.4,0.4,3.7,2.1,5.1,3.7c3,3.4,10,7.4,11.9,6.7c0.7-0.2,2.5,0.8,4,2.3c4.7,4.6,11.2,9.4,17.8,13.4c3.5,2.1,7,4.2,7.8,4.7
		c0.8,0.5,2,0.4,2.7-0.1c2.1-1.7,4.5-0.2,4.4,2.9c-0.1,2.3,0.6,3.1,4.7,5.7c6.7,4.2,12.2,5.2,16.3,3c4-2.1,5-1.7,4.1,1.8
		c-0.9,3.7,1.3,7.1,4.2,6.6c1.6-0.3,2.6,0.3,3.4,2.2c0.8,1.7,3.3,3.5,7.4,5.4c8.1,3.7,19.2,9.1,26.4,13c3.2,1.7,8.4,4.1,11.6,5.4
		c3.2,1.2,6,3,6.4,4c0.6,1.9,14.5,8.5,18,8.7c1.2,0,4,0.9,6.3,1.8c2.3,1,4.7,1.5,5.4,1.3c0.7-0.2,2.8,0.5,4.7,1.6
		c1.9,1.1,4.4,1.7,5.5,1.3c1.1-0.4,2.4,0,3,0.8c1,1.5,10,4.3,11.8,3.6c1.2-0.4,5.8,2.2,7.3,4.1c1.2,1.5,6.2,0.6,5.6-1.1
		c-0.2-0.5,0.1-1.1,0.6-1.3s1.2,0.3,1.4,1.1c1.7,5,10.4,8.6,16.2,6.6c1.8-0.6,4-0.7,4.9-0.2c0.8,0.5,4.1,1.1,7.2,1.4
		c3.1,0.2,6.9,1.2,8.4,2.1s4.3,1.5,6.2,1.3c1.9-0.2,3.7,0,3.8,0.5c1,2.7,3,2.9,7.6,0.8c5.9-2.7,8.2-2.4,7.5,0.9
		c-0.6,2.6-0.2,2.8,5.1,2c2.2-0.3,5.4,0,7.1,0.8c4.5,2.1,17.8,2.1,40.2,0.1c5.9-0.5,12.6-1.1,14.9-1.3c2.3-0.2,6.7-1.2,9.8-2.3
		c9.8-3.5,11.1-3.7,14.3-2.1c1.7,0.8,3.3,1.4,3.7,1.3c0.4-0.1,4.7-1.1,9.5-2.1s13.7-3.3,19.7-5.1c10-3,11-3.1,14-1.7
		c3.1,1.5,3.6,1.4,10.3-1.5c5.4-2.3,8-3,10.9-2.7c2.1,0.2,4.4-0.1,5-0.6C1706.7,3213.1,1711.5,3210.8,1716.8,3208.4L1716.8,3208.4z
		 M2513.6,2410.3c0.9-1.7-0.1-7.3-1.7-9.9c-2.1-3.4-3.1-8.2-2-9.4c0.9-0.9,0.8-3.4-0.3-8c-0.8-3.6-1.6-7.7-1.7-8.9
		c-0.2-1.7-0.6-2.2-1.7-1.8c-2.2,0.7-2.3-0.5-0.4-5.8c1.3-3.7,1.4-5.2,0.1-7.5c-1.1-1.9-1.3-4-0.8-6.6c1.1-5.7-1.1-14.7-4.1-17.1
		c-2-1.6-2.5-2.6-2.6-5.7c-0.2-4-0.6-7.4-2.4-16.7c-0.6-3.3-1.4-9.1-1.8-12.9c-0.6-6.3-0.9-7.1-2.9-8.7c-1.4-1.1-2.3-2.7-2.4-4.3
		c-0.2-2.6-2.7-4.2-3.2-2.1c-0.2,0.6-0.9,1.6-1.6,2.2c-1.4,1.2-0.8,7.5,1.3,13.2c1,2.8,0.9,4-0.6,5.9c-1.3,1.6-1.6,3.2-1,5.1
		c0.5,1.5,0.6,3.1,0.2,3.6c-0.4,0.5-0.3,2.3,0.3,4c0.6,1.9,0.5,4-0.3,5.5c-0.7,1.3-1.1,3.1-0.8,4c0.3,0.9,0.1,2.4-0.5,3.3
		c-0.6,0.9-0.9,3.6-0.8,5.9s-0.1,5.2-0.6,6.3c-1.5,3.7-1.7,17.5-0.5,21.3c1.3,4,1.2,7-0.6,10.9c-0.6,1.3-0.7,4.5-0.3,7
		s0.6,5.9,0.4,7.6c-0.2,1.6,0,4.4,0.6,6l1,3l6.1-2.6c7.6-3.3,12.1-3,13.4,0.8c0.5,1.5,1.8,2.8,3.2,3.1c1.9,0.4,2.6,1.6,4.2,6.2
		C2511,2413.1,2511.9,2413.7,2513.6,2410.3L2513.6,2410.3z M2041.1,2464.6c-0.8-2.5-1.3-5.6-1.3-6.7c0-1.2,0.1-3.3,0.2-4.6
		c0.2-3.8-1-6.2-3-6.3c-3,0-6.1-1.6-6.7-3.5c-0.3-1-0.9-1.7-1.2-1.5c-1.2,0.4-3,4.5-2.6,5.8c0.2,0.7-0.1,1.5-0.7,1.7
		c-0.6,0.3-1.9,1-2.9,1.6c-1,0.6-3.6,2-5.9,3.1c-4,1.9-4.3,1.9-8.4-0.8c-2.4-1.5-4.6-3.6-4.9-4.6c-0.3-1-1.6-2.3-2.9-2.8
		c-2.1-0.9-2.5-0.8-5.7,2c-3.7,3.3-4,4.7-2,11.7c0.9,3.4,0.9,5.6-0.1,7.8c-1.2,2.6-1.2,3.2,0.3,3.5c0.9,0.2,2.2,0.3,2.7,0.1
		c2.8-0.9,15.8-0.6,17.8,0.5c1.3,0.6,3.5,1.1,5.1,1c1.5-0.1,3.5,0.2,4.5,0.6c0.9,0.5,3.1,0.4,4.7-0.2c1.7-0.6,3.6-0.8,4.3-0.5
		c1.5,0.7,8.8-1,9.6-2.3C2042.2,2469.6,2041.9,2467.1,2041.1,2464.6L2041.1,2464.6z M1986.9,2469.4c1.1-1.6,1-2.3-0.2-3.3
		c-2.3-1.9-3.5-1.6-5.3,1.2C1978.4,2472.1,1983.7,2474.1,1986.9,2469.4L1986.9,2469.4z M1893.3,2472.1c-0.2-0.5-0.5-0.9-0.7-0.8
		c-0.2,0.1-0.5,0.7-0.7,1.3c-0.1,0.6,0.2,1,0.7,0.8S1893.4,2472.6,1893.3,2472.1z M2235.1,2307.6c1.1-0.3,3.3-0.8,4.9-1.2
		c2.6-0.6,2.8-0.9,1.9-3.2c-0.6-1.5-0.5-3.7,0.4-5.7c1.2-2.6,1.1-4.3-0.2-8.2c-0.9-2.7-1.9-7.5-2.1-10.6c-0.2-3.2-2.1-10.6-4.3-17.1
		c-2.5-7.6-3.9-13.4-4.1-17c-0.3-7.7-1.8-11.7-4.6-12.1c-1.4-0.2-2.6-1.3-3.1-3.1c-1.8-5.3-6.6-4.8-8.5,0.9
		c-0.9,2.8-0.8,3.5,1.1,5.7c1.8,2.1,2.1,2.9,1.5,5.1c-1.2,4.8-0.5,13.4,1.5,19.5c2.9,8.7,4.1,17.4,2.8,20.4c-0.9,2-0.6,4.2,1,9.3
		c1.2,3.7,2.7,9.6,3.4,13.1c1.5,7.4,2,8.1,4.5,6.2C2232.3,2308.7,2234,2307.8,2235.1,2307.6L2235.1,2307.6z M1718,2456.3
		c0.3-1.8-0.2-3.2-2.1-5.9c-3.2-4.5-4.7-5.4-7.5-4.4c-1.3,0.4-3.9,0.3-5.9-0.4c-2.5-0.8-5.8-0.7-10.6,0.4c-13.7,3.1-13,2.7-11.7,5.8
		c0.6,1.5,1.7,4.1,2.3,5.8c0.7,1.9,1.6,2.9,2.3,2.6c0.7-0.2,2.3,0.2,3.6,0.9c3,1.7,4.2,1.2,6.5-2.3c2.4-3.7,6-4,6.2-0.4
		c0.2,2.1,0.6,2.4,2.2,1.8c1.1-0.4,3-0.4,4.3-0.1c1.8,0.4,2.6,0.2,3.8-1.3c1.9-2.3,2.4-2.4,2.9-0.7
		C1715.1,2460.3,1717.6,2459,1718,2456.3L1718,2456.3z M1687.9,2456.4c-1.4-0.7-1.9-1.4-1.4-2.3c0.9-1.9,3.9-1.4,4.6,0.8
		C1691.9,2457.3,1690.7,2457.8,1687.9,2456.4z M1660.9,2457.9c0.3-1.1-3.9-1.1-4.8,0c-0.3,0.4-0.5,1.1-0.3,1.6
		C1656.1,2460.7,1660.6,2459.3,1660.9,2457.9L1660.9,2457.9z M1368.7,2427.1c1.8-4.3,1.2-6-2.5-7.7c-2.7-1.2-3.1-1.9-4.8-8.3
		c-1-3.9-1.5-7.8-1.1-8.9c0.4-1.1,0.3-3.5-0.3-5.3c-0.6-1.9-0.9-5.5-0.7-8.1s0-6.2-0.6-8c-0.6-1.8-0.6-4.3,0-5.6
		c0.8-1.9,0.5-3.9-1.8-10.1c-2.8-7.6-2.8-7.7-0.6-10.3c2.7-3.1,4.1-12.1,2.9-18.4c-0.5-2.4-0.3-6.2,0.3-8.4c0.6-2.2,0.8-5,0.4-6.2
		c-0.4-1.2-0.6-3.5-0.5-5c0.2-2.4-0.1-3-2.2-4.1c-3.6-1.8-5.9,0.3-4,3.7c1.3,2.2,1.2,2.6-0.8,3.3c-3,1-3.5,2.9-2.3,9
		c0.8,4.1,0.6,5.9-1.1,8.6c-1.8,3-1.8,3.7-0.4,4.9c2.7,2.2,3.1,4.6,1.1,6.4c-1,0.9-1.8,3.3-1.8,5.2c0,1.9-0.5,4.1-1.1,4.9
		c-1.4,1.6-2.9,10-2,11.5c0.5,0.9-0.7,6.5-2.7,12.9c-0.3,1.1,0.1,2.1,1.3,3.1c2.5,2,2.7,3.1,1.5,6.5c-0.6,1.6-0.6,5.2,0,8.1
		c0.6,3,0.5,6.3-0.2,7.9c-0.9,2-0.8,3.4,0.2,5c1.6,2.5,0.4,11.4-1.8,13.2c-2.3,1.9-0.3,3.4,5.4,4.1c3.2,0.4,6.4,0.4,7.1,0
		c0.7-0.4,1.7-0.4,2.1-0.1c0.6,0.5,6.8,0.6,8.8,0.2C1366.9,2430.6,1367.9,2429,1368.7,2427.1z M1245.6,2419.6
		c-0.9-1.6-1.1-3.3-0.5-4.7c0.5-1.2,0.5-4.6-0.2-7.5c-0.8-3.6-0.7-5.9,0.3-7.2c1.1-1.5,1-2.6-0.1-4.5c-0.8-1.4-1.3-3.6-1.1-4.9
		c0.4-2.5-1.8-6.6-3.3-6.1c-1.7,0.6-2.6,7.7-1.5,11.2c1.4,4.1,0.9,8.2-1.4,11.8c-1.4,2.2-1.4,2.8,0.1,3.7c1.5,0.9,1.4,2-0.5,7.2
		c-1.2,3.4-2,6.8-1.8,7.5s0.6,1.6,0.7,2c0.1,0.4,1.5,0.1,3-0.6c1.6-0.7,2.9-0.8,3.1-0.2c0.2,0.6,1.3-0.3,2.4-2.1
		C1246.7,2422.7,1246.8,2421.6,1245.6,2419.6z M2303.2,2033.2c-0.8-2.3-9.3-9.4-11.2-9.4c-1.6,0-1.6,3,0,5.5
		c0.8,1.2,2.3,1.9,3.8,1.8c1.7-0.1,2.7,0.5,3.2,2c0.8,2.5,1.9,3.2,3.7,2.6C2303.3,2035.5,2303.6,2034.4,2303.2,2033.2z
		 M1008.7,2456.9c2-1.8,3.2-3.1,2.7-3c-0.5,0.1,0.3-2.2,1.7-5.3c2-4.2,2.4-6,1.4-7.3c-1.9-2.5-2-10.2-0.2-13.7
		c1.8-3.6,3.7-17.1,3-21.8c-0.3-1.9-1-3.4-1.7-3.6c-2-0.5-2.1-2.1-0.1-2.4c1.3-0.2,1.6-1.2,1-4c-0.4-2.1-0.3-3.7,0.2-3.8
		c1.1,0,1.7-10.2,0.6-11.5c-0.4-0.5-2.3-0.5-4.2,0c-2.8,0.8-3.4,1.3-3.2,3.3c0.1,1.3-0.8,3.3-1.9,4.4c-1.7,1.6-1.8,2.4-0.7,4.1
		c1.2,1.8,1.1,2.3-0.9,2.9c-2.3,0.8-3.2,4.2-1.4,5.7c0.5,0.4,0.4,1.6-0.1,2.6c-0.5,1.1-0.8,2.3-0.6,2.8c0.2,0.5-0.4,2.4-1.2,4.2
		c-1.2,2.6-1.2,3.7,0,4.8c1.2,1.2,0.9,2.2-1.7,5.8c-3.1,4.4-6.6,16.4-5.6,19.3c0.3,0.8-0.4,2.9-1.6,4.6c-2.6,3.7-2.4,4.6,1.1,4.9
		c3.6,0.4,3.9,1.6,1.5,5.9c-3,5.2-0.8,6.7,6.9,4.7C1004.4,2460.3,1006.7,2458.6,1008.7,2456.9L1008.7,2456.9z M1010.5,2404.5
		c0.1-0.6,0.5-1.2,0.7-1.3c0.2-0.1,0.6,0.3,0.7,0.8c0.2,0.5-0.1,1.1-0.7,1.3C1010.7,2405.5,1010.4,2405.1,1010.5,2404.5z
		 M1359.8,2303.5c0-0.9-0.8-2-1.9-2.5c-1.8-0.9-2.1-0.7-3.4,1.7c-1.9,3.5-0.3,5.5,2.9,3.7
		C1358.6,2305.6,1359.7,2304.3,1359.8,2303.5L1359.8,2303.5z M1358.3,2295c2.6-5.9,1.9-6.9-2-2.8c-2.3,2.4-3,5.3-1.5,6.5
		C1356,2299.7,1356.4,2299.3,1358.3,2295z M1018.4,2369.9c1-1.6,1.9-4.9,2.1-7.3c0.2-2.4,0.6-5.9,0.8-7.7c0.6-4.3-0.9-6.9-3.7-6.4
		c-1.4,0.3-2.1,1.1-2.1,2.6c0,1.2-0.6,2.4-1.4,2.6c-3,1-3.2,3.5-0.9,8.9c1.5,3.3,2,5.5,1.4,6.2c-0.9,1.1,0,4.9,1.1,4.4
		C1016.3,2372.9,1017.5,2371.5,1018.4,2369.9L1018.4,2369.9z M1361.2,2229.5c-0.1-1-0.8-1.5-1.7-1.2c-1.8,0.6-2.3,2.5-1,3.6
		C1359.9,2233,1361.5,2231.5,1361.2,2229.5L1361.2,2229.5z M1066.2,2013.5c0.1-2.1-4.2-3.7-4.7-1.7c-0.2,0.7-0.1,2.1,0.2,3
		C1062.4,2016.8,1066.1,2015.8,1066.2,2013.5L1066.2,2013.5z M1072.4,2005c0.8-2.5,1.9-6.5,2.5-8.9c0.6-2.4,1.5-4.5,2-4.6
		c1.8-0.6,2.6-7.7,1.1-10.3c-1.1-1.9-1.1-3.1-0.1-4.7c1.8-2.9,4.4-10.9,4.6-14.5c0.1-1.6,2-5.3,4.2-8.3c4-5.4,5.2-10.1,3-11.9
		c-0.9-0.7-1.7-0.4-3.5,1.6c-1.3,1.4-2.5,3-2.7,3.6c-0.1,0.6-1.3,1.2-2.5,1.3c-1.6,0.1-2.7,1.1-3.7,3.4c-1,2.1-2.5,3.5-4.5,4.2
		c-1.7,0.6-3.3,1.8-3.7,2.8c-0.4,1-1.8,2.4-3.3,3.3c-1.7,1-3,3.1-3.6,5.8c-0.9,3.5-1.9,4.8-6.3,7.8c-4.2,2.9-5.1,4-4.6,5.6
		c0.4,1.3,1.8,2,4.3,2.2c2,0.1,4.4,0.7,5.3,1.3c2.3,1.4,2,4.1-0.6,5c-4.9,1.7-6.1,3.2-5,6.4c0.6,1.7,2.1,4.1,3.4,5.3s2.6,3.1,3,4.3
		c0.4,1.1,1.4,2.1,2.3,2.1c0.9,0,2,1.1,2.4,2.4c0.7,2.1,1,2.2,2.7,0.9C1070.2,2010.2,1071.7,2007.5,1072.4,2005L1072.4,2005z
		 M1506.6,1810.6c1.7-2.3,2.9-5.3,2.7-6.7c-0.2-1.4-0.1-3.4,0.1-4.5c0.2-1.1,0.2-2.4,0-3.1s0.1-2.8,0.8-4.8c0.6-2,1.5-6.1,2-9
		c0.8-5.3,0.8-5.4-1.5-6.1c-1.3-0.4-3.5-0.3-5,0.2c-1.5,0.5-5.7,0.7-9.4,0.4c-3.7-0.3-8.3-0.1-10.1,0.4s-6.3,0.8-9.8,0.7
		c-3.5-0.1-8.2,0.4-10.4,1.2c-2.3,0.8-4.6,0.9-5.5,0.4c-0.9-0.5-2.7-0.6-4.1-0.1s-3.2,0.5-4,0.1c-2-1-4.5,1.3-3.1,2.9
		c0.6,0.7,0.8,2.1,0.5,2.9c-0.3,0.9-0.1,2.7,0.6,4.2c1,2.2,1.6,2.4,4.3,1.5c1.7-0.6,3.8-0.5,4.5,0.1s2.5,4.4,3.9,8.5
		c2.5,7.4,2.5,7.4,7.6,9.9c4.1,2,5.3,3.1,6.3,6.1c1.6,4.7,5.6,6.7,7.8,4.1c2.2-2.6,9-4.6,13.5-3.8c2.1,0.4,4.3,0.2,4.7-0.3
		C1503.2,1815.2,1504.9,1812.9,1506.6,1810.6L1506.6,1810.6z M1398.2,3422c-0.5-0.4-0.5-1.1-0.1-1.6c0.4-0.5,1-0.3,1.3,0.6
		C1400,3422.6,1399.5,3423,1398.2,3422L1398.2,3422z"/>
</g>
</svg>
