<?xml version="1.0" encoding="utf-8"?>
<!-- Generator: Adobe Illustrator 25.4.1, SVG Export Plug-In . SVG Version: 6.00 Build 0)  -->
<svg version="1.1"
	 id="svg221" inkscape:version="1.1 (c4e8f9e, 2021-05-24)" sodipodi:docname="ryjek.svg" xmlns:inkscape="http://www.inkscape.org/namespaces/inkscape" xmlns:sodipodi="http://sodipodi.sourceforge.net/DTD/sodipodi-0.dtd" xmlns:svg="http://www.w3.org/2000/svg"
	 xmlns="http://www.w3.org/2000/svg" xmlns:xlink="http://www.w3.org/1999/xlink" x="0px" y="0px" viewBox="0 0 3456 4608"
	 style="enable-background:new 0 0 3456 4608;" xml:space="preserve">
<sodipodi:namedview  bordercolor="#666666" borderopacity="1.0" id="namedview223" inkscape:current-layer="g227" inkscape:cx="1730.0794" inkscape:cy="2304" inkscape:pagecheckerboard="0" inkscape:pageopacity="0.0" inkscape:pageshadow="2" inkscape:window-height="776" inkscape:window-maximized="0" inkscape:window-width="1365" inkscape:window-x="0" inkscape:window-y="25" inkscape:zoom="0.12022569" pagecolor="#ffffff" showgrid="false">
	</sodipodi:namedview>
<g id="g227" inkscape:groupmode="layer" inkscape:label="Image">
	<path id="path249" d="M1828.7,3298.7c-0.1-1.8-0.4-2-2-0.8c-3.1,2.4-7.2,3.3-8.7,2c-1.1-1-3-0.7-10.1,1.8
		c-10.9,3.8-28.7,8.5-30.1,7.9c-0.5-0.2-7.8,2.1-16,5.1c-12,4.4-15.9,5.5-19.5,5.5c-2.5-0.1-9.1,1.1-14.9,2.7s-10.7,2.5-11.1,2.2
		c-0.4-0.3-3.5,0-6.9,0.8s-7.5,1.4-9.3,1.5c-5,0.2-21.4,3.7-27.3,5.9c-3,1.1-7.1,1.9-9.2,1.8c-2.1-0.1-6,0.2-8.7,0.7
		c-2.7,0.5-5,0.6-5.2,0.2s-2.4-0.4-5,0.1c-9.4,1.8-10.7,1.9-13.3,1.3c-1.5-0.4-3.4-0.1-4.3,0.5c-0.9,0.7-2.6,1-3.8,0.8
		c-1.2-0.2-5.4,0.2-9.3,0.9c-4,0.7-8.8,1.1-10.9,1c-2-0.1-3.6,0-3.5,0.4s-0.8,0.2-2.1-0.4s-5-1-8.3-1.1c-3.3,0-8.4-0.6-11.4-1.3
		c-3-0.7-6.8-1.1-8.5-0.9c-1.7,0.2-4,0.3-5.2,0.2c-4.1-0.3-8.5-0.2-13.1,0.1c-2.5,0.2-5.4,0-6.4-0.3c-3.5-1.3-23.1-4.2-26.4-3.8
		c-1.8,0.2-3.4,0-3.6-0.5s-1.1-0.6-2.2-0.2c-1,0.4-2.9,0.1-4.1-0.5c-1.2-0.6-2.9-0.9-3.6-0.6s-1.5-0.2-1.6-1
		c-0.1-0.8-0.4-1.1-0.6-0.7c-0.6,1.3-9.6-0.5-16-3.1c-3.1-1.3-6.6-2.1-7.8-1.7c-2.8,1-11.1-1.9-14.8-5.2c-0.9-0.8-1.5-0.9-1.3-0.2
		c0.2,0.7-0.1,1.3-0.6,1.5c-0.6,0.2-1-0.5-1-1.6c0-1.5-1.8-2.6-7.9-4.7c-4.3-1.5-8-3.2-8.1-3.7c-0.2-0.5-1-0.7-1.7-0.5
		c-0.8,0.3-1.7-0.4-2.1-1.4c-0.4-1.2-2.2-2.1-5.2-2.5c-2.5-0.4-4.7-0.3-4.9,0c-0.7,1.5-32.6-13.1-36.8-16.8c-1.8-1.6-3.6-2.8-4-2.6
		s-1.9-1-3.4-2.5c-1.4-1.5-4.6-3.3-7.1-4c-2.4-0.7-5.8-2-7.4-2.9s-3.8-1.3-4.7-1c-1,0.3-2.3-0.1-2.9-0.9c-1.4-1.8-6.1-4.5-7.2-4.2
		c-1.5,0.5-7.6-2.9-10.3-5.8c-1.6-1.6-5-4.1-7.7-5.4s-6.2-3.5-7.8-4.9c-4-3.3-11.1-7.3-12.3-6.9c-0.5,0.2-1.2-0.2-1.4-0.9
		c-0.2-0.7-1.6-1.8-3.1-2.4c-1.4-0.6-4.2-2.3-6-3.7c-1.9-1.4-5.3-3.8-7.5-5.4c-2.3-1.6-6.7-5.3-9.7-8.3c-3.1-3-6.9-6.6-8.5-8
		c-5.5-4.8-11.1-11.7-10.3-12.7c0.5-0.6-0.4-2.2-2.7-4.5c-1.9-1.9-3.9-5-4.5-6.8c-0.6-1.9-4-6.2-8.1-10.4
		c-11.1-11.3-12.4-13-14.1-18c-1.2-3.5-1.9-4.6-3-4.2c-1.4,0.5-2.9-1.5-4.5-5.9c-0.5-1.3-1.7-2.6-2.7-2.9c-1.2-0.4-2.4-2.2-3.6-5.7
		c-1-3-2.6-5.7-3.8-6.5c-1.1-0.8-2.4-2.4-2.8-3.6c-0.8-2.4-10.6-16.9-13.3-19.8c-1-1-4.4-9.3-7.8-19c-7.6-21.6-15.9-41.9-17.6-43.3
		c-0.7-0.6-1.8-2.6-2.3-4.4c-0.6-1.9-1.7-3.8-2.5-4.3c-1-0.6-4.2-9-9.9-26.5c-5.5-16.5-9.1-26.2-10.1-27.1
		c-2.2-2.1-6.1-11.6-5.8-14.1c0.1-1.1,0.5-3.2,0.7-4.6c0.3-1.6-1.9-10.2-6.3-24.5c-3.7-12.1-7.2-24.9-7.7-28.5
		c-0.6-3.6-2.6-12.4-4.6-19.6c-2.1-7.9-3.7-16.2-4-21.1c-0.3-4.4-1.1-9.9-1.9-12.2c-1.6-4.9-3-14.6-2.1-15.7
		c0.3-0.4,0.1-2.9-0.6-5.6c-0.6-2.7-1.3-6.8-1.4-9s-0.4-6-0.6-8.4c-0.2-2.3-0.8-5.6-1.3-7.2c-0.6-1.7-0.7-4.1-0.4-5.5
		c0.3-1.4-0.1-5.6-1-9.4c-2.9-12.1-3.5-15.6-3.7-20.9c-0.1-2.9-0.3-7.5-0.5-10.4s-1-10.4-2-16.8c-1-6.4-1.8-13.2-2-15.3
		c-0.1-2.1-0.8-5.5-1.6-7.7c-0.7-2.2-0.9-4.1-0.4-4.2c2-0.7,2.1-10.7,0.1-23.8c-0.2-1.7-0.2-3.6,0-4.4c0.6-1.6-2.8-12.4-5-15.8
		c-1.8-2.8-1.7-7.4,0.2-13.7c0.8-2.6,0.9-6.4,0.3-9.4c-0.5-2.8-0.9-6.6-0.7-8.5c0.2-2.9-0.6-9.4-2.5-19.7c-0.2-1.2-0.1-3,0.3-4
		c0.4-1,0-5-0.8-8.9c-1.3-6.4-2.2-31.1-1.3-35.3c0.8-4,0.8-7.4-0.1-11c-0.6-2.1-0.8-7.3-0.7-11.4c0.2-4.1,0-9.6-0.5-12.1
		c-0.5-2.5-0.5-7.2-0.1-10.5c1.4-11.2,1.4-13.6,0.2-18.2c-0.7-2.5-0.9-4.7-0.6-4.8c0.3-0.1,0.6-2.5,0.6-5.4c0-2.9,0.4-5.9,1-6.8
		s0.7-2.4,0.4-3.3c-0.3-0.9-0.3-2.1,0.1-2.5s0.4-2.7,0-5.1c-0.4-2.3-0.4-6.1-0.1-8.4c0.3-2.3,0.1-5.7-0.6-7.5
		c-0.6-1.9-1-4.3-0.9-5.3c0.2-1-0.1-4-0.7-6.6c-0.5-2.6-0.6-5.9-0.2-7.3c1-3.4-0.5-8.2-2.2-6.8c-0.7,0.5-1.9,0.3-2.8-0.5
		c-1.8-1.7-1.6-3,0.5-2.9c0.7,0,1.3-0.9,1.2-2.1c-0.1-1.5,0.4-2.1,1.6-2.1c3.6,0.1,6.8-9.9,3.3-10.7c-0.6-0.1-0.9-1.9-0.7-4.3
		c0.2-2.2-0.2-6.7-0.9-9.9c-0.7-3.5-0.7-7.1-0.1-9c1-2.8,2.3-11.2,2.7-17.4c0.7-12.1,1.3-19.6,1.6-20.6c0.2-0.6,0.4-4.3,0.4-8
		c0-3.8,0.9-13.8,1.9-22.4c1.1-8.5,1.9-17.5,1.8-19.9c-0.1-2.4,0.2-4.5,0.6-4.6c0.4-0.1,0.5-1.1,0.2-2.1c-0.3-1-0.1-3.7,0.5-6
		s1-5.6,0.8-7.4c-0.2-1.8,0-4.4,0.5-5.7c2.2-5.7,3.1-10.7,6.4-34.3c1.9-13.7,4.1-26.4,4.9-28.1s1.3-3.6,1.2-4.2s0.1-3.9,0.6-7.5
		c0.5-3.6,0.8-7,0.6-7.6s0.8-3.3,2.2-6.1c1.4-2.8,2.7-6.7,2.9-8.8c0.2-2.1,1.5-6.3,3-9.5c1.5-3.1,3.4-9.7,4.1-14.6
		c0.7-4.9,2.1-10.6,3-12.6c0.9-2.1,2-5.7,2.4-8.2c1.3-8.8,1.6-10,3.6-14.4c1.1-2.5,2.2-5.9,2.5-7.8c1.1-9.5,4.3-18.3,7.7-21.2
		c1-0.9,2-3.2,2.1-5.3c0.1-2,1.7-7.2,3.5-11.5c1.8-4.3,3.7-10.1,4.3-12.9s1.8-6.9,2.7-9.1c0.9-2.2,1.5-4.4,1.3-4.8
		c-0.2-0.5,1-2.2,2.5-4c1.8-2,2.4-3.6,1.7-4.4c-1.3-1.6,3-7.9,5.6-8.2c2.5-0.2,8.5-13.8,7.7-17.1c-0.3-1.2-0.2-3,0.2-4
		c0.4-1,1.6-4.1,2.7-6.9l2-5.1l5.9-1.4l5.9-1.4l3.2-6.8c1.8-3.7,4.1-8,5.3-9.5c1.1-1.5,2.2-4.3,2.3-6.2c0.2-2.8,0.9-3.9,3.6-5.4
		c1.9-1,4.2-2.9,5.2-4.2c1-1.3,2.4-2.7,3.2-3.1c1.4-0.7,4.9-8.3,7.4-16c1.4-4.3,1.3-4.7-0.4-5c-1.3-0.2-1.9,0-1.9,0.9
		c0,0.7-0.4,1.4-0.9,1.5c-0.5,0.2-0.8-0.6-0.5-1.9c0.4-2.4,0.2-2.4-7.2-1.2c-7.5,1.2-11.9,1.4-13.9,0.5c-1.2-0.5-2.7-0.8-3.2-0.6
		s-1.7-0.1-2.7-0.7c-0.9-0.6-2.7-0.7-4-0.2c-2.7,0.9-8.9,0.2-10.6-1.3c-0.7-0.6-1.8-0.8-2.5-0.6c-0.7,0.2-2.4-0.1-3.8-0.9
		c-1.4-0.7-3.5-1.1-4.8-0.9c-1.3,0.3-3.2,0.4-4.3,0.3c-1.1-0.1-3.3,0.2-5,0.7c-2.4,0.7-3.2,0.5-3.4-0.9c-0.2-1.1-1.1-1.7-2.4-1.6
		c-1.2,0.1-2.3-0.4-2.6-1.1c-0.9-2.6-14.8-2-14.9,0.6c0,0.8-1.2,0.1-2.6-1.5c-1.4-1.6-4.3-3.6-6.5-4.5c-3.3-1.4-4.4-1.4-7,0.1
		c-2.6,1.5-3.6,1.5-6.7-0.3c-2-1.1-4.1-1.8-4.7-1.6c-2.8,0.9-34.3-4.3-39.1-6.5c-1.3-0.6-3.8-1.5-5.4-2c-1.7-0.5-3.8-2.1-4.6-3.5
		c-1.6-2.7-5.7-3.6-7.9-1.8c-0.7,0.6-1.4,0.5-1.7-0.3c-0.2-0.7-2.2-2.3-4.4-3.6c-2.2-1.3-4.1-2.7-4.2-3.1c-0.1-0.4-2-0.9-4.2-1
		c-3-0.2-3.9-0.7-4-2.3c-0.1-1.3-1.1-2.3-3-2.9c-2.2-0.7-3.3-2-5-5.8c-1.3-2.9-2.9-5.2-4-5.5c-3-0.9-10.7-15.2-13.8-25.6
		c-2.6-8.5-3.4-17.8-1.6-18.4c1.8-0.6,6.2-11.4,6.6-16.6c0.5-6,3.6-15.8,7.7-24.7c1.3-2.8,3.3-8.9,4.5-13.6
		c1.2-4.7,3.2-10.6,4.3-13.1c1.1-2.5,1.9-5.7,1.8-7.3c-0.2-1.5,0.9-5.4,2.4-8.6c1.5-3.2,2.5-6.5,2.2-7.2c-0.3-0.8,0.9-3.7,2.5-6.6
		c1.6-2.9,2.8-5.7,2.6-6.4c-0.4-1.2,1.9-6.8,9.4-23.1c1.9-4.2,3.4-7.9,3.3-8.3c-0.1-0.4,0.1-1.4,0.6-2.4c0.5-0.9,1.6-4.7,2.5-8.3
		c0.9-3.6,2-6.8,2.5-6.9c1.6-0.6,6.1-11,6.9-16c0.8-5.1,4.8-14.1,6.2-13.9c0.4,0.1,0.8-0.5,0.9-1.4c0.1-0.8,0.3-2.6,0.5-4
		s0.1-3.3-0.2-4.2c-0.3-0.9,0.6-4,2.1-6.8c1.4-2.8,2.8-6.6,2.9-8.6s0.8-3.7,1.5-3.9c0.6-0.2,1.5-2.3,2-4.6c0.5-2.3,2.1-7.3,3.6-11.1
		s3.7-9.7,4.9-13.2c1.2-3.5,2.6-7.3,3.1-8.5c0.6-1.2,1.3-4.2,1.7-6.6c0.4-2.4,1.2-4.8,1.9-5.4c0.7-0.6,1-1.9,0.6-3
		c-0.4-1.1-0.1-2,0.6-2.1c0.7-0.1,1-0.9,0.8-1.7c-0.8-2.6,0.9-5.5,6.7-11.3c3.1-3.1,6-6.4,6.6-7.4s2.4-2.3,4-2.9
		c2.1-0.7,3.7-2.3,5.4-5.5c1.3-2.5,2.8-4.6,3.4-4.8c2-0.6,6.3,0.7,8.1,2.6c1.6,1.5,3.1,1.7,8.4,0.8c7.7-1.3,8.6-1.1,11.7,1.9
		c3.1,2.9,5.6,3.3,11.2,1.6c3.2-1,5.5-1,7.4-0.2c1.8,0.8,4.4,0.8,7.2,0c2.4-0.7,5.7-0.9,7.3-0.5c2.8,0.7,4.1,0.3,9.9-3.5
		c2.1-1.3,2.7-1.2,5.1,1.4c2.3,2.4,3.3,2.7,5.8,1.8c1.7-0.6,3.5-0.5,4,0.1c0.8,1,2.4,1,9.7-0.2c2.6-0.4,8.3,1,10.7,2.6
		c1,0.7,3,0.8,4.6,0.3c1.5-0.5,2.9-0.5,3.1,0s2.2,0.3,4.5-0.5c2.6-0.9,4.7-1,5.4-0.4c0.8,0.7,3.5,0.4,7.6-0.7
		c6.8-1.8,12.5-0.8,15.1,2.6c2.1,2.7,7.7,5.3,10,4.5c1.2-0.4,2.5-0.4,3,0c1,0.9,9.3-2,9.6-3.4c0.1-0.6,2.1-0.2,4.5,0.8
		c3.6,1.5,4.7,1.5,7.6,0c3-1.6,3.6-1.5,5.3,0.3c1.3,1.4,4.3,2.3,8.9,2.8c3.8,0.4,8,1.4,9.2,2.4c1.8,1.3,2.5,1.3,3.2,0.1
		c1.1-1.7,7.1-2.9,7.6-1.5c0.2,0.5-0.3,0.7-1,0.6c-0.9-0.2-0.9,0-0.2,0.6c0.7,0.6,2.1,0.4,3.6-0.5c1.4-0.8,2.9-1.2,3.3-0.8
		c0.4,0.3,2.1,0.5,3.7,0.2c1.6-0.2,4.6,0.5,6.6,1.5c2.2,1.1,5.6,1.7,8.6,1.4c2.8-0.3,7.4,0.2,10.3,1c4.5,1.3,5.5,1.2,6.7-0.3
		c1.8-2.1,4.6-1.4,5.5,1.4c1,3,3.9,2.3,5.5-1.3c0.8-1.8,2-3.5,2.7-3.7c0.7-0.2,2.9-3.2,5-6.7c5.3-8.8,9.9-15.1,13.2-18
		c1.5-1.3,3.1-3.8,3.6-5.5s1.6-4.5,2.4-6.2c5.3-10.4,5.3-10.5,10.6-13c2.9-1.3,6-3.5,7-4.8c3.2-4.1,10.7-15.6,10.7-16.6
		c0-0.5,0.6-1.1,1.4-1.4c0.7-0.2,1.2-0.8,1.1-1.3c-0.2-0.5,0.9-1.8,2.4-3.1c3.8-3.2,5.1-5.9,4.3-8.4c-1-2.9,0.3-4.2,3.7-3.7
		c2.4,0.4,3.2,0,6.2-3.3c1.9-2.1,3.9-4.7,4.4-5.9c0.5-1.2,2.4-3.1,4.2-4.3c2.3-1.6,3.2-2.8,3-4.7c-0.1-1.4,0.5-2.8,1.3-3.1
		c2.5-0.8,16-14.5,18-18.1c1.1-2.1,2.9-3.8,4.6-4.3c2.5-0.9,5.8-3.5,6.4-5.2c0.8-2.2,5.5-7.7,7.9-9.2c1.5-1,4.2-2.8,6.2-4
		c2.2-1.4,4.3-4,5.6-7c1.2-2.7,3.1-5.2,4.4-5.7c4.9-2.1,10.6-5.8,11.7-7.6c0.7-1.2,3.5-2.7,7.4-4.1c4.3-1.5,6.8-2.9,8-4.6
		c1.1-1.5,3.6-3,6.9-4.1c3.5-1.2,5.6-2.4,6.4-4c1-1.8,3.2-2.9,12.1-6c5.9-2.1,10.9-3.4,11.1-2.9c0.2,0.5,2.9-0.1,6.2-1.3
		c3.2-1.1,12-4.1,19.5-6.6c13.8-4.5,22.7-8.4,22.3-9.6c-0.4-1.2,19-7.4,20.2-6.5c0.8,0.6,1.5,0.3,2.5-1c2-2.4,2.5-2.5,2.8-0.6
		c0.5,3.8,16.5,0.6,22.2-4.4c2.4-2.1,3.1-2.4,4.3-1.6c0.8,0.5,1.3,1.3,1,1.7c-0.6,1.3,0.9,0.5,3.9-1.9c2.2-1.8,3.2-2,5.6-1.4
		c3.7,1,7.3-0.2,8.2-2.6c1.1-2.7,4.7-3.5,7.2-1.5c2.3,1.8,7.4,1.4,16.9-1.3c2.2-0.6,5.3-0.8,6.9-0.4c1.8,0.5,6-0.1,11.9-1.7
		c5-1.3,10.6-2.8,12.5-3.3c3.6-0.9,10.3-0.7,10.6,0.3c0.4,1.2,7.7-0.7,12.9-3.3c5-2.5,5.3-2.5,7.2-0.7c2.4,2.3,5.4,2.9,14.8,2.6
		c4-0.1,8.2,0.2,9.2,0.6c1,0.4,4.5,0.9,7.8,1.2c3.3,0.2,7.1,0.9,8.5,1.5c1.4,0.6,3,0.9,3.6,0.7c1.2-0.4,22.3,2.7,24.1,3.6
		c0.7,0.3,2.1,0.2,3.3-0.1c2.3-0.8,12.7,0.4,14.2,1.6c0.5,0.4,2.1,0.3,3.6-0.2c2.2-0.7,3.1-0.5,4.2,1.2c1.6,2.6,7.9,5.2,10.3,4.4
		c0.9-0.3,2.9,0,4.5,0.6c1.6,0.6,3.4,1,4,0.7c0.7-0.2,2.2,0.3,3.4,1.2s4.4,1.6,7.2,1.6c3.9,0,6.3,0.9,11.1,4
		c6.7,4.3,12.3,6,15.9,4.8c1.3-0.4,2.5-0.4,2.7,0.2c0.2,0.5,1.5,1,2.9,1.1c1.4,0.1,3.6,0.9,4.8,1.8c1.2,0.9,5.9,3,10.5,4.5
		s8.5,3,8.8,3.3c0.9,1,12.6,5.1,16,5.7c3.6,0.6,7.4,2.3,29.2,13.4c10.1,5.1,14.5,7.9,14.4,9.1c0,1,0.2,1.3,0.7,0.7
		c0.9-1.1,6.7,1.2,7.2,2.9c0.5,1.5,4.6,3.2,6.3,2.6c1.8-0.6,4.5,0.9,9.3,5.3c2.1,1.9,4.7,3.3,5.7,3.2c2.9-0.4,4.8,0.7,5.6,3.1
		c1.2,3.4,6.6,10.1,9.2,11.3c1.3,0.6,2.6,1.9,3,2.9s1.2,1.9,1.9,2.1c0.7,0.2,2.4,1.6,3.8,3.2c1.4,1.6,4.5,4.3,6.7,6
		c2.3,1.7,5.3,4.3,6.6,5.7c1.4,1.4,4.1,3.9,6,5.6c2,1.7,3.9,3.8,4.2,4.8c0.3,1,3.6,4.2,7.2,7.2s6.8,6,7,6.7c0.2,0.7,3.6,4.4,7.5,8.2
		c3.9,3.8,7.3,7.6,7.7,8.5c0.3,0.9,1.5,2.2,2.6,2.9c1.1,0.8,2.4,2.4,2.8,3.6c0.4,1.3,1.8,3.2,3,4.3c4,3.8,7.5,7.9,8.1,9.5
		c0.3,0.9,2.1,3,3.9,4.8c1.9,1.8,4.2,4.7,5.2,6.4c3.6,6.2,8.8,13.4,10,14c0.7,0.3,1.4,1.3,1.7,2.2s1.3,1.6,2.2,1.7
		c0.9,0,2,1.2,2.5,2.7c1.9,5.8,8.5,19.4,11.8,24.3c1.9,2.8,4.8,8.5,6.6,12.6c4.3,10.2,18,51.7,21.1,64.1c1.4,5.6,3.6,12.9,4.9,16.3
		s2.3,7.1,2.3,8.4c-0.1,2.9,5.8,21.4,7.4,23.3c0.7,0.9,0.6,2.4-0.4,4.3c-2.1,4.3-1.3,24.5,1.2,28.3c1.4,2.1,11.7,7.5,15.5,8.1
		c1.4,0.2,2.8,0.1,3.1-0.4c0.4-0.4,1.5-0.3,2.4,0.3c2.5,1.6,10.1,3.3,11.8,2.7c0.8-0.3,2.6,0.1,4,0.8c1.4,0.7,3.1,1.1,3.8,0.8
		c0.7-0.2,4.1,1,7.5,2.7c6.4,3.2,8.5,3.3,11.3,0.3c1.3-1.4,2.2-1.4,4.9-0.2c5.4,2.4,12.2,3.9,13.4,2.9c1.7-1.4,7.2-0.6,8.9,1.3
		c0.8,0.9,2.6,1.4,4,1.2c1.4-0.3,3.4-0.4,4.6-0.3c1.2,0.1,4.8-0.4,8-1.1c3.2-0.7,7.5-0.9,9.6-0.4c2.1,0.5,3.7,0.5,3.6,0.1
		c-0.1-0.4,0.3-0.4,0.9,0.2c1.1,0.9,11.2-1.2,17.9-3.7c1.4-0.5,4-0.1,6.3,1c2.2,1,4.8,1.5,5.9,1.2c1-0.3,3.6,0.5,5.8,1.8
		c3.9,2.4,4,2.4,7.4,0c3.2-2.3,3.7-2.3,7.7-1c2.7,0.9,4.6,2.2,5,3.6c0.9,2.8,3.8,3.8,6,2.2c1.3-0.9,2.8-0.7,5.7,0.7
		c3.3,1.6,4.4,1.7,6.6,0.4l2.7-1.6l1,4.8c1,4.6,1.2,4.9,5.1,6.3c3.8,1.4,4.3,1.9,5.8,6.5c1.3,3.7,2.8,6.1,6.2,9.2
		c4.2,3.9,4.8,5.1,9.1,16.4c4.3,11.5,4.5,12.4,3.5,16.5c-0.6,2.4-1,4.5-0.9,4.7c0.1,0.2-0.7,2.1-1.7,4.2c-1.3,2.6-1.6,4.7-0.9,6.7
		c1.1,3.2-0.6,7.7-3.2,8.6c-2.3,0.8-7.9,11.8-7.1,14c0.8,2.3-1.7,8.7-4.6,11.6c-1.3,1.4-3.4,2.4-5.2,2.7c-2.5,0.3-3,0.8-3,2.8
		c0,1.3-2.7,8.7-6.2,16.3c-3.4,7.7-6.6,15.5-7,17.4c-0.4,1.9-1.8,5.8-3,8.5c-1.2,2.8-2.6,8.3-3,12.4c-0.4,4-1.6,9.2-2.6,11.4
		c-1.9,4.2-1.8,5.4,0.7,13.4c1.4,4.3,1.3,5.6-0.7,10.6c-1.6,3.8-2,6.6-1.4,8.4c0.9,2.8-0.7,4.6-2.7,2.9c-0.9-0.7-3.5,6.7-3,8.3
		c0.1,0.4-4.5,5.5-10.3,11.3c-5.8,5.8-10.7,11.1-10.9,11.7c-0.2,0.7-0.9,1.4-1.7,1.7c-0.8,0.3-3,2.3-5,4.5c-2.8,3.3-4.6,4.4-8.8,5.6
		c-9.2,2.7-10.9,4.1-11.3,8.6c-0.3,3.4-0.6,5.4-1.5,9.2c-0.1,0.3-1.6-0.4-3.5-1.5c-2.2-1.3-3.4-1.5-3.4-0.6c-0.2,3.3-7,2.1-8.2-1.4
		c-0.3-0.8-1.3-1.5-2.4-1.5c-2.6-0.1-8.8-1.3-11-2.1c-1.8-0.7-4.5-0.6-16,0.6c-3.5,0.4-7,0.5-7.8,0.3c-0.8-0.2-2.5,0.2-3.9,0.8
		c-1.5,0.7-3.4,0.6-5.1-0.2c-2.1-1-3.8-0.9-8.2,0.6c-3.1,1-6.6,2.7-7.7,3.6c-1.8,1.5-2.2,1.5-2.7,0c-0.7-2.1-4.7-4-10.6-4.9
		c-4.7-0.8-6.6-0.5-6.8,0.9c-0.1,0.5-0.2,0.3-0.3-0.3c-0.1-1-3.1-1.4-5.3-0.7c-1.4,0.4,0.2,2.8,3.1,4.7c1.6,1,3.6,3.4,4.4,5.3
		c1.7,3.9,5.8,9.8,7.5,11c0.6,0.4,2.8,5.2,4.8,10.7c2.1,5.8,4.2,10.3,5.2,10.8c1,0.6,2.7,4.4,4.6,10.4c1.8,5.6,3.8,10.2,4.9,11.2
		c2.2,2,3.9,6.7,3,8.3c-0.3,0.7,1.2,7.3,3.4,14.6c2.2,7.4,4.6,16.1,5.3,19.3c1,4.2,2.2,7,4.4,9.9c2.6,3.3,3.1,4.6,3,7.6
		c-0.1,2.8,0.4,4.1,1.9,5.7c1.6,1.7,2.1,3.4,2.4,8.5c0.3,4.4,1.2,8.1,3,11.9c5.6,12.2,6.3,14.6,5.3,18.8c-0.8,3.4-0.4,6.1,2.9,17.5
		c2.1,7.4,4.3,16.2,4.9,19.6s1.6,6.7,2.2,7.5c1.6,1.9,4.2,0.6,5.6-2.8c0.7-1.7,1.7-3.2,2.2-3.4c0.5-0.2,0.8-0.9,0.5-1.6
		c-0.5-1.4,1.9-3.4,5.5-4.6c1.1-0.4,2.1-1.4,2.1-2.2c0-0.9,0.9-1.6,2.1-1.7c3-0.2,11.1-8.4,10.4-10.5c-0.5-1.5,0.2-2,6.4-3.9
		c6.8-2.1,7-2.2,8.9-6.5c1.7-3.9,2.6-4.6,6.9-6.3c2.7-1,7.4-2.2,10.4-2.7c3.7-0.5,7.4-1.8,11.1-3.8c4.6-2.4,6.2-2.9,9-2.5
		c1.9,0.3,7.2-0.3,11.6-1.3c5.6-1.2,9.7-1.5,13.1-0.9c2.7,0.5,6.9,1.2,9.4,1.4c2.6,0.3,5.9,1.6,7.7,3.2c3.4,2.8,6.1,3.3,8.3,1.5
		c0.9-0.7,1.7-0.3,2.7,1.2c0.8,1.2,2,2,2.7,1.8s2,0,2.9,0.6c1,0.6,2.1,0.6,2.8-0.2c0.6-0.7,2.3-1.4,3.7-1.6c2.4-0.3,2.6-0.1,3.5,4.3
		c0.9,4.1,1.3,4.8,4.3,6.1c3.9,1.7,5.9,3.2,10,7.6c1.7,1.8,3.9,3.7,5,4.2c2.2,1.1,8.5,7.3,9.1,8.9c0.2,0.6,1.9,2.1,3.8,3.5
		c2.6,1.8,3.9,3.6,5,7c1.2,3.5,2.4,5.2,5.2,7.1c4.8,3.3,10.7,11,11.1,14.6c0.3,2.5,2.2,5.9,9,15.4c1,1.4,3,5.9,4.3,9.9
		c1.6,4.9,3.2,7.9,4.6,9c1.8,1.4,3.2,5.2,8.9,23.1c4,12.8,8.2,24.3,10.3,28.6c2.7,5.4,3.8,8.7,4.2,12.8c0.4,3.1,1.1,8.3,1.7,11.6
		s1.1,10.5,1.2,15.9c0.1,5.5,0.7,11.5,1.5,13.3c0.8,1.8,1.3,3.8,1.1,4.4c-0.1,0.6-0.1,4.1,0.2,7.8c0.2,3.7-0.1,10.1-0.6,14.2
		s-0.8,8.1-0.5,8.9c0.3,0.8,0,1.7-0.7,1.9c-1.8,0.7-4.5,9.5-6,19.9c-1.7,11.7-3.3,18.2-5.9,25.2c-1.1,3-2.3,7.7-2.5,10.5
		c-0.3,2.9-1.6,6.7-3.1,9c-4.9,7.2-8.9,16.8-9.4,22.2c-0.3,4-3.2,8.8-5.8,9.7c-2.7,0.9-6.9,6.7-11,15.2c-2,4.2-3.9,7.8-4.3,7.9
		c-0.4,0.1-1.5,1.7-2.6,3.6c-1.1,1.8-4.6,5.9-7.9,9c-3.3,3.1-7,7.2-8.2,9.1c-1.3,1.9-2.9,3.6-3.7,3.9c-0.8,0.3-2.4,1.5-3.6,2.8
		c-1.2,1.3-4.1,3-6.5,3.8c-5.2,1.8-9.8,6.1-13,12.1c-2.2,4.2-2.8,4.6-10.6,7.8c-8.8,3.6-12.5,5.6-14.7,7.9c-0.8,0.8-3,2-5,2.7
		c-2,0.7-4.5,2.2-5.5,3.4c-1.1,1.2-3.4,2.7-5.2,3.3c-1.8,0.6-4.4,2.3-5.6,3.6c-1.3,1.4-3.5,3-5,3.6s-3,2.2-3.5,3.6
		c-0.7,1.9-2.3,3.1-7.2,5.1c-4.2,1.8-6.7,3.4-7.6,5c-0.9,1.7-3.1,3-7.9,4.9c-3.6,1.4-7,3.1-7.4,3.7c-1.4,2.1-4.9,4-15.3,8.1
		c-5.6,2.2-10.8,4.6-11.4,5.3c-1.9,2-14.5,7.1-35.8,14.5l-19.8,6.9l-2.5,4.5c-1.4,2.5-2.8,6.3-3.2,8.5c-1,5.7-2.7,10.8-5.8,17.6
		c-6.6,14.4-10.6,24.7-10.9,27.7c-0.1,1.8-1.5,6-3,9.5c-1.5,3.4-3.9,8.9-5.2,12.2c-1.4,3.3-3.2,7.5-4,9.3c-0.8,1.8-1.4,3.7-1.3,4.3
		s-1.6,4.9-3.8,9.7c-5,11-4.8,10.5-10,20.3c-2.9,5.5-4,8.6-3.3,9.4c0.6,0.7,0.5,2.7-0.1,4.5c-0.6,1.8-0.9,4-0.5,5
		c0.7,2.1-2,10.9-4.4,14.4c-1.5,2.2-1.6,2.3-2.2,0.4c-1.3-3.8-3.8-0.1-4.3,6.4c-0.2,1.9-0.7,3.7-1.3,3.9c-1.1,0.4-2.7,5-3.4,9.8
		c-0.2,1.7-0.8,3-1.2,3c-1.3,0.1-12.5,22.2-12.8,25.4c-0.3,3.7-3.9,10.8-7.1,14.1c-2.4,2.4-5.3,8.2-15.1,30.1
		c-3,6.6-5.8,12.1-6.4,12.3c-1.4,0.5-5.3,8.9-7.3,15.5c-0.9,3-3.1,7.4-4.9,9.6c-1.8,2.3-4.2,5.7-5.2,7.6c-1.1,1.9-3.2,5.8-4.8,8.5
		c-1.5,2.8-2.6,5.5-2.5,6c0.2,0.6,0,1.1-0.5,1.3c-0.5,0.2-1.6,2-2.6,4.1c-0.9,2.1-3.6,5.6-5.8,7.7c-2.3,2.1-4.7,4.9-5.3,6.2
		c-0.7,1.3-2.5,4-4.1,5.9c-1.6,1.9-4.2,5.6-5.8,8.2c-1.6,2.6-4.7,7.5-6.8,10.8s-4.3,7.9-4.8,10.3c-0.5,2.8-1.5,4.5-2.8,5
		c-2.3,0.8-9.8,11.2-9.6,13.4c0.1,0.8-0.2,1.6-0.7,1.7c-0.8,0.3-7.5,8.6-8.2,10.1c-0.2,0.4-3.5,3.9-7.4,7.7
		c-3.9,3.9-7.6,7.8-8.1,8.7c-0.6,0.9-2,2.3-3.2,3.1c-1.2,0.8-2.8,2.5-3.5,3.7c-2,3.2-4.6,5.9-6.2,6.4c-1.3,0.4-4.2,3.3-13.4,13.6
		c-7.4,8.2-11.9,12.5-21.6,20.5c-5,4.1-9.6,8.4-10.2,9.4c-0.6,1-1.7,1.7-2.4,1.6c-0.7-0.2-1.1,0.2-0.9,0.7c0.2,0.6-0.7,1.3-1.9,1.8
		c-2.9,1-7.6,5.1-6.5,5.7c0.5,0.2-0.5,0.9-2.1,1.4c-1.6,0.5-3.1,1.5-3.2,2.1s-1.3,1.5-2.5,1.9c-2.4,0.8-6.3,4.7-9.9,9.9
		c-1.7,2.4-2.5,2.9-4.2,2.5c-2.9-0.7-8.8,4-20.2,16.1c-0.7,0.8-2.6,1.8-4,2.3c-1.5,0.5-2.9,1.3-3.1,1.8c-0.7,1.3-6.4,5.6-8.6,6.4
		c-1.1,0.4-2.4,1.8-2.9,3.1c-0.7,1.8-2.2,2.9-5.5,4c-2.5,0.9-6,2.8-7.8,4.2c-1.8,1.5-4.2,2.9-5.2,3.3c-1.1,0.4-2.6,1.5-3.4,2.6
		c-1.9,2.5-5.3,4.6-13.5,8.4c-3.8,1.7-10.1,5.4-14.1,8.3c-4,2.8-9.4,5.8-12,6.7c-5.5,1.8-25.6,11.4-31.3,15
		c-6.7,4.2-16.2,8.9-18.3,9c-1.1,0.1-3.1,1.2-4.6,2.4c-4.8,4.2-28,13.3-36.3,14.3c-2.1,0.3-2.7,0.7-2.3,1.8c0.6,1.7-0.8,2.5-2.2,1.3
		c-1.7-1.4-5.5,0.8-6.8,3.9C1830.4,3300.9,1828.9,3301.6,1828.7,3298.7L1828.7,3298.7z M1802.4,3175.4c19.7-6.8,20.9-7.3,21.6-9.6
		c0.6-1.9,2-2.8,6.7-4.6c3.3-1.2,7.4-2.8,9.2-3.5c1.8-0.7,8.5-2.9,14.9-5c8.9-2.9,12.2-4.3,14.1-6.3c1.4-1.4,3.2-2.7,3.9-3
		s2-1.5,2.7-2.7s2.6-2.8,4.2-3.5c3.5-1.5,12.9-7.8,13.9-9.3c0.4-0.6,3.6-2.4,7.1-4c3.6-1.6,7.5-4.2,8.9-5.8c1.4-1.6,3.1-3.1,3.9-3.3
		c0.7-0.2,1.5-1.5,1.7-2.7c0.2-1.2,1.2-2.5,2.2-2.8s1.9-1.1,2.1-1.8c0.1-0.6,2.3-1.8,4.8-2.7c4.5-1.5,9-5,16.1-12.3
		c2-2.1,6.1-5.1,9-6.6c3-1.6,6-3.5,6.8-4.3c0.8-0.8,3.1-2.3,5.1-3.3c2-1,5.5-3.6,7.7-5.9c2.2-2.2,4.7-4.3,5.5-4.5
		c0.8-0.3,6.3-4.9,12.2-10.3c5.9-5.4,11.9-10.5,13.3-11.4c1.4-0.9,6.9-5.9,12.1-11c5.2-5.1,12.2-11.3,15.4-13.6
		c3.3-2.4,7.1-5.8,8.5-7.6c1.4-1.8,4.5-5.1,6.8-7.3s4.2-4.7,4.2-5.8s0.4-2,0.9-2.2c0.8-0.3,6.2-7.8,7.1-9.9c0.2-0.4,2.2-3.1,4.4-6
		s4.8-6.9,5.5-8.9c0.8-2,2.7-4.8,4.3-6.2c1.6-1.4,3.4-4,4-5.7s1.7-3,2.4-2.8c0.7,0.2,3.9-5.1,7.5-12.5c3.4-7,6.8-13,7.4-13.2
		c0.6-0.2,1.9-2.1,2.9-4.1c1-2,2.2-3.6,2.7-3.5c1,0.2,2.9-3.5,6.9-13.4c1.1-2.7,2.3-5.1,2.7-5.3c1-0.4,7.4-9,9.2-12.5
		c0.8-1.6,2.1-3,2.7-3.2s2-1.9,3-3.7c3.5-6.2,7.2-14,7-14.7c-0.1-0.4,0.6-2.8,1.7-5.3c1.1-2.5,2.4-6.5,2.9-8.8
		c0.5-2.3,2.2-5.5,3.9-7.1s3-4,3.1-5.4s1-2.7,1.9-3c1.3-0.4,1.4-1,0.5-2.3s-0.8-1.8,0.5-2.3c1-0.3,1.8-1.7,2-3
		c0.1-1.3,0.9-2.6,1.7-2.7c1.5-0.2,4.6-5.6,8.5-14.3c1-2.3,5.1-10.6,9.1-18.3c7.3-14.1,12.3-25.8,11.8-27.3
		c-0.3-1.1,1.4-5.8,5.4-14.5c1.8-3.8,2.9-7.7,2.6-8.6c-0.3-0.9,0.2-3,1.1-4.7c2.1-3.9,6.2-17.3,5.7-18.7c-0.2-0.6,0.3-1.2,1.1-1.5
		c0.8-0.3,1.5-1.6,1.5-2.9c0.1-2.7,3.7-9.7,5.9-11.5c0.8-0.7,1-1.7,0.5-2.3c-0.5-0.6-0.1-2,0.8-3c1.9-2,3.5-8.2,5.9-22.7
		c0.8-4.9,1.8-9.8,2.3-10.9c0.4-1.1,0.6-2.4,0.4-3s0-1.2,0.5-1.4c1.8-0.6,1.1-10.3-0.8-11.2c-0.7-0.3-2.2-3.3-3.3-6.6
		c-1.8-5.2-1.9-6.8-0.7-12c1.1-4.6,1.1-6.6-0.1-8.5c-1.5-2.5-1.5-2.5,2.6-3.7c3.5-1,4.4-1.7,5.9-5c2.2-4.8,2.3-7.6,0.5-10.7
		c-1-1.7-1.8-2.1-2.6-1.4c-0.7,0.6-1.6,0.9-2.2,0.8c-1-0.2,5.6-14,7-14.5c2.7-0.9,4.7-10,6.2-28.2c0.2-2.5,0.8-4.8,1.3-4.9
		c0.5-0.2,1.8-1.9,3-3.7c1.9-3.1,1.9-3.9,0.2-9.1c-1.7-5-2-9.2-0.7-11.2c1-1.6,2.6-17.6,2-19.4c-0.4-1.1-0.1-5.8,0.7-10.5
		c0.7-4.7,1.1-9.3,0.8-10.1c-1.1-3.1,0.4-18.2,1.8-18.7c0.9-0.3,1-1,0.2-2.1c-0.8-1.2-0.7-1.9,0.7-2.8c1.7-1.1,1.7-1.7,0-5.1
		c-1.7-3.4-1.7-4.4-0.2-7.9c1.2-2.8,1.4-5.1,0.6-7.3c-0.6-1.7-0.6-3.9,0-4.8c0.6-0.9,0.8-2.3,0.6-3c-0.2-0.7-0.3-2.2-0.1-3.3
		c0.2-1.1,0.2-4,0.1-6.6c-0.1-2.6,0.2-5.8,0.7-7.1c2.9-7.4,3.9-15.8,2.7-24.7c-0.2-1.9-0.2-5.7,0-8.4c0.3-2.7,0-7.2-0.6-10.1
		s-0.6-6.7,0-8.5c0.6-1.8,1-5.8,1-9c0-3.2,0.6-7.1,1.5-8.6c0.8-1.6,1.5-3,1.5-3.1s-0.7-3.6-1.6-7.7c-1.7-8.1-2.7-17.3-2.4-24
		c0.1-2.4-0.4-6-1.1-8.1c-0.7-2.1-0.9-5.1-0.4-6.7c0.5-1.6,0.4-5.1-0.1-7.9c-0.5-2.7-1.4-7.2-1.9-9.9s-0.7-5.5-0.5-6.2
		s-0.4-4.5-1.4-8.5c-1-4-1.9-8.7-1.9-10.4c-0.2-5.2-2.2-13.5-5.1-21.8c-2.2-6.3-2.6-8.6-1.9-11.8c0.7-3.3,0.5-4.3-1-5.7
		c-1.4-1.4-1.8-2.5-1.6-5.5c0.2-2.5-1-7.5-3.5-15.1c-4.1-12.2-5.7-19.5-4.6-20.8c0.9-1.1-2.8-11.9-4.2-12.2
		c-1.4-0.3-2.8-4.1-2.1-5.7c0.7-1.6-2.4-14.2-3.6-14.5c-1.2-0.3-6.3-9.3-8.1-14.2c-0.7-2.1-2-6.7-2.9-10.4c-1.3-5.6-2-7-4.6-9.2
		c-2.2-1.9-3.2-3.6-3.8-6.7c-0.6-2.9-1.4-4.4-2.8-5.2c-3.6-2.1-7.3-7.1-7.9-10.7c-0.6-3.7-5.3-11.4-6.7-11c-0.5,0.2-1-0.4-1.3-1.1
		c-0.3-0.8-1.8-2.5-3.4-3.9c-1.7-1.4-3.5-4.1-4.3-6.5c-0.8-2.2-2.3-4.8-3.4-5.7c-1.1-0.9-2.9-3.4-4-5.6c-1.8-3.6-5.1-7.4-10.6-12.3
		c-1.2-1.1-2.2-3.1-2.5-4.7c-0.2-1.9-1.1-3.3-2.5-4.1c-1.8-1-3.4-3.5-5.7-9c-0.2-0.4-0.9-0.5-1.6-0.3c-1.3,0.4-4.3-3.5-7.8-10.3
		c-1-1.8-3.2-4.9-5-6.8c-1.8-1.9-3.8-5.2-4.6-7.4c-1.4-4.2-2.3-4.6-10.5-5.4c-2-0.2-3.8-1.4-5.5-3.7c-1.7-2.4-3-3.2-4.1-2.7
		c-0.9,0.4-1.8,0.1-2-0.5c-0.5-1.5-6.4-1.7-8.1-0.2c-0.8,0.6-2.1,0.4-3.4-0.5c-1.2-0.8-2.7-1.3-3.5-1.1c-0.8,0.3-1.5,0.1-1.7-0.4
		c-0.2-0.5-2.1-0.9-4.2-0.8c-2.2,0-5.8-0.2-8-0.5c-2.5-0.4-4.2-0.1-4.4,0.6c-0.2,0.7-0.9,0.8-2,0.3c-1-0.5-3.4-0.6-5.4-0.4
		c-5,0.7-13.2,0-13.6-1.2c-0.2-0.5-1.2-0.7-2.2-0.4c-2.3,0.8-7.3,0.3-7.7-0.7c-0.1-0.4-1.1-0.5-2-0.2c-1,0.3-3,0.1-4.6-0.6
		c-1.6-0.6-3.6-0.9-4.4-0.6c-0.9,0.3-3,0.1-4.7-0.5c-1.7-0.6-3.4-1-3.9-0.8c-0.5,0.2-5.1-0.4-10.3-1.2s-11.5-1.3-14.1-1.2
		c-2.6,0.1-5.3,0-6.1-0.3c-1.9-0.6-4.1,1.2-3.5,2.9c0.3,0.7,2.4,2.2,4.9,3.2c3.5,1.5,4.5,2.4,4.6,4.3c0.1,1.3,0.7,2.6,1.3,2.7
		c0.6,0.1,1.7,2,2.4,4c1,3,1.8,3.8,3.8,4c2.4,0.2,5.7,3.6,8.7,8.7c1.6,2.8,1.1,6.9-0.8,7.5c-1,0.3-1,1.6,0.1,4.8
		c1.5,4.4,1.2,5.7-3.5,12.7c-1.3,2.1-1.5,3.7-0.6,7.1c1.1,4,0.9,4.6-2,7.4c-1.8,1.7-4.4,4.3-6,5.9c-1.5,1.6-4.4,3.7-6.3,4.8
		c-4.3,2.4-4.8,4-2,6.2c3.6,2.8,2.1,4.6-4.7,5.8c-3.2,0.5-6.6,0.8-7.7,0.6c-3.1-0.5-3.8,0-4.3,3.5c-0.7,4.6-4.1,6.9-11.1,7.6
		c-3.1,0.3-6.5,0.2-7.4-0.1c-2.4-0.9-15.2,2.5-15.5,4.1c-0.5,2,8.4,10,11.4,10.3c2.8,0.2,8.6,2.9,12.9,5.9c1.7,1.2,2.5,1.3,2.6,0.4
		c0.1-1.5,2-1.4,2.5,0.1c0.2,0.5-0.2,0.8-0.8,0.7c-2.3-0.5-0.6,1.1,2.6,2.5c3.2,1.4,27.1,4.9,29.1,4.2c0.6-0.2,1.4,0.6,1.8,1.8
		c1.6,4.7,5,8.5,7.2,8c1.7-0.3,2.7,0.4,4.3,3.1c3.6,6,10.8,15.1,14.9,19c2.2,2.1,4.2,4.5,4.6,5.5c0.3,1,1.1,1.9,1.7,2.1
		c0.6,0.1,1.6,1.6,2.2,3.3c0.6,1.7,2.1,3.9,3.5,4.8c1.9,1.4,3.6,4.6,7.4,14.4c2.7,6.9,6.7,16.7,8.8,21.6c2.6,6.2,3.8,10.3,3.9,12.9
		c0,2.1,0.1,4.6,0.3,5.4c0.1,0.8,0,3.9-0.3,6.8c-0.3,2.9-0.3,5.8-0.1,6.4s-0.2,5.6-1,11.1c-0.8,5.4-1.2,10.6-0.9,11.4
		c0.3,0.8,0,2.9-0.6,4.6s-0.9,3.5-0.7,4.1c0.2,0.6,0,1.2-0.5,1.3c-0.5,0.2-1,2.2-1.1,4.6c-0.1,2.6-2.4,8.5-5.7,15.1
		c-5.7,11.2-5.6,11-1.8,16.5c0.9,1.3,0.6,2.3-1.6,4.3c-1.6,1.5-3.2,2.4-3.9,2.1c-1.2-0.6-7.9,12.5-9,17.5c-0.3,1.6-1.3,3.1-2.2,3.4
		c-0.9,0.3-1.9,1.3-2.3,2.3s-1.2,2-1.7,2.2c-0.6,0.2-2.2,2.8-3.6,5.7c-1.4,2.9-3,6.1-3.5,6.9c-0.5,0.9-1.2,2.3-1.6,3.2
		c-1.4,3.3-5,9.4-7.6,12.9c-1.5,2-5.2,6.7-8.2,10.6c-3,3.8-6.4,8.7-7.6,10.8c-1.2,2.1-2.8,4-3.5,4.2s-2.6,2.1-4,4
		c-1.6,2.2-4,4-6.1,4.7c-1.9,0.6-4.4,2.4-5.6,4c-1.2,1.6-3.4,3.2-4.8,3.7c-1.4,0.5-2.7,1.4-2.8,2s-1.8,2.6-3.8,4.4s-3.6,3.8-3.8,4.4
		c-0.1,0.6-1.4,1.2-2.8,1.4c-1.6,0.1-3,0.9-3.7,2.3c-1,1.9-14,7.7-25.3,11.4c-1.5,0.5-3.2,1.6-3.7,2.4c-0.5,0.8-1.8,1.5-3,1.6
		c-3.1,0.2-20.7,8.1-21.4,9.6c-0.4,0.7-2.9,2.1-5.7,3c-2.8,0.9-6.3,2.8-7.9,4.2c-3.1,2.7-11.4,5-13.1,3.6c-0.6-0.5-1.3-0.2-2.1,1
		c-0.9,1.5-2.3,2-8.3,2.9c-4,0.6-9.1,0.8-11.4,0.5s-6.2-0.2-8.7,0.3s-5.2,0.6-6,0.2c-0.8-0.4-3.5-1-5.9-1.4
		c-5-0.7-10.4-4.4-11.6-7.7c-0.8-2.4-2.3-3.3-10.4-6.3c-3.1-1.2-5.4-2.7-5.8-3.9c-0.7-2.1-6.2-5-9.4-5.1c-1.2,0-2.2-1-2.8-2.7
		c-0.5-1.5-2.7-4.4-4.9-6.6c-2.2-2.1-4.1-4.4-4.3-5c-0.2-0.7-1-1-1.8-0.7c-0.8,0.3-1.6-0.2-1.9-1c-0.3-0.8-1.7-2.6-3.1-4
		c-4.7-4.5-9.7-15.6-16.1-35.9c-3.3-10.5-6.8-22-7.8-25.6c-1.1-4-2-6.2-2.5-5.7c-0.4,0.5-0.9,0.2-1.2-0.6c-0.3-0.8-0.1-1.9,0.3-2.4
		c0.5-0.6,0.2-2.1-0.6-3.5c-0.9-1.5-1.2-4.2-0.9-6.9c0.4-3-0.1-6.4-1.5-10.5c-1.1-3.3-1.7-6.6-1.4-7.4c0.6-1.2,0.1-13.1-0.8-20.1
		c-0.5-3.8,0.6-24.4,1.4-25.3c0.4-0.4,0.4-1.5,0.2-2.3c-0.3-0.8,0-2.2,0.6-3c0.6-0.9,1.4-5.5,1.8-10.2c0.4-4.8,1.1-9.3,1.6-10
		c0.5-0.7,1.1-3.3,1.5-5.7c0.3-2.4,1.4-6,2.3-7.9c0.9-1.9,1.9-4.9,2.3-6.6c0.3-1.7,1-4.4,1.5-6c0.5-1.6,1.6-6.3,2.5-10.3
		c0.8-4.1,2.4-9.4,3.5-12c1.1-2.5,2.1-6.3,2.2-8.4c0.1-2.1,1.2-5,2.4-6.4c1.2-1.4,3.8-6.2,5.7-10.7c1.9-4.4,5.7-12.5,8.4-17.8
		c2.7-5.4,4.7-10.2,4.5-10.8c-0.2-0.5,0.2-1.2,0.9-1.4c1.5-0.5,4.4-7.6,3.9-9.3c-0.7-1.9,1.3-4,5.9-6.3c3.7-1.8,4.9-3.2,7.1-7.8
		c2.5-5.3,2.8-5.5,5-4.6c2.2,1,2.5,0.7,5.8-5.9c1.9-3.8,4.6-7.9,6-9.1c1.4-1.2,2.7-3,2.9-4c0.3-1.4,0.7-1.6,1.8-1.1
		c1.1,0.5,1.3,1.3,0.9,3.1c-0.3,1.3-0.2,2.5,0.1,2.7c1,0.5,10.2-4.8,10.5-6.1c0.1-0.6,1.5-1.8,3.1-2.7c2.3-1.3,2.9-1.3,3.3-0.1
		c0.6,1.9,7.4,0,6.8-1.9c-0.2-0.7,0.6-0.6,1.7,0.2c1.1,0.8,2.8,1.9,3.8,2.5c0.9,0.6,2.2,1.7,2.9,2.5c0.6,0.8,2,1.1,3,0.8
		c1-0.3,3.4,0.4,5.3,1.6c1.9,1.3,5,2.7,7,3.2s4.6,2.1,5.9,3.5c2.4,2.7,4.7,3,3.9,0.5c-0.6-1.8,0.3-2.1,3.2-1.1
		c2.1,0.7,2.2,0.9,1.3,3c-1.2,2.9-0.4,5.6,1.5,5c0.8-0.3,3.2,0.4,5.3,1.5c3.1,1.6,4.3,1.7,6.2,0.5c6.3-4,10.9-6.3,17.5-8.6
		c5.1-1.8,7.5-3.1,8.2-4.4c0.5-1,2-2.3,3.3-2.7c3-1,5.1-2.7,4.7-3.8c-0.4-1.2-7.1-4.9-8.2-4.5c-0.5,0.2-3.8-1.2-7.2-3
		c-5.8-3-6.5-3.2-9.3-1.6c-2.8,1.6-3.2,1.5-4.5-0.7c-2.9-5-3.2-5.1-13.3-5c-5,0-6.5-0.4-7-1.9c-1-2.8-3.7-4.2-8.3-4
		c-2.2,0.1-4.2-0.2-4.3-0.6c-0.5-1.4-12.2-6.3-13.8-5.8c-0.9,0.3-2.2,0.1-2.8-0.5c-0.7-0.6-2.4-1.2-3.9-1.5
		c-2.3-0.4-2.8-0.1-3.3,1.6c-0.9,2.8-5.9,3.8-7.2,1.4c-1.3-2.4-6-4.8-8-4.2c-2.7,0.9-5,0.5-5.5-0.9c-0.2-0.7-0.9-0.9-1.6-0.3
		c-0.6,0.5-2.3,0.3-3.7-0.4c-2.1-1.1-2.9-1-4.7,0.4c-1.8,1.5-2.7,1.5-5.8,0.1c-2-0.9-6.1-2-9-2.4c-6.3-0.9-7.2-1.3-10.3-4.3
		c-1.3-1.3-4-3.1-5.9-4.2c-3.1-1.7-3.9-1.7-6.9-0.1c-1.8,1-3.8,2.6-4.3,3.5c-3.4,5.6-4.5,3.7-1.4-2.4c2.8-5.5,2.4-9.8-1-11.3
		c-2.1-0.9-2.7-1.9-3.7-6.4c-0.7-3-1.6-5.2-2.1-5c-0.5,0.2-2.7-0.5-4.9-1.5c-5.1-2.2-7.2-7.3-4.7-11.2c1.8-2.8,2-16.2,0.3-18.2
		c-0.6-0.7-0.6-2.2,0-3.4c1.9-3.9,2.4-10.2,0.8-12.7c-1.6-2.7-2-6.5-0.6-6.9c0.5-0.2,1,0.7,1.1,2c0.1,1.3,1.1,2.9,2.2,3.7
		c2,1.4,2.1,1.2,5-4.9c2.7-5.9,18.7-27.7,21.3-29.2c0.6-0.4,2-1.2,2.9-2c1-0.7,2.9-1.3,4.3-1.3c1.9,0.1,3-0.6,4.5-2.6
		c2.6-3.5,1-5.6-2.7-3.5c-2.7,1.5-2.7,1.5-3.2-2.1c-0.4-3-0.9-3.7-2.6-4c-1.2-0.2-2.3,0-2.5,0.3c-0.2,0.4-1.6,0.4-3,0
		c-1.5-0.4-4.3-0.1-6.3,0.7c-4.2,1.6-8.1-0.4-9.6-4.7c-0.9-2.7-0.7-2.7-9.1-0.4c-4.4,1.2-7.6,1-8.1-0.5c-0.3-1-1.2-0.9-3.5,0.3
		c-1.8,1-3.4,1.4-4,0.9c-0.5-0.4-2.2-0.4-3.7,0.1c-2.1,0.7-2.7,0.5-2.9-0.9c-0.1-1-1.3-2.5-2.7-3.3c-2.2-1.3-2.8-1.3-5.1,0.5
		c-3,2.3-7.9,2.2-12.3-0.2c-1.4-0.8-4.3-1.6-6.4-1.9c-2.1-0.3-5.6-0.8-7.8-1.1c-8.6-1.3-9.9-1.4-12.8-0.4c-1.7,0.6-4.4,0.5-6.1-0.1
		c-1.7-0.6-3.7-0.8-4.6-0.6c-2.3,0.8-22.1-2.1-23.1-3.4c-0.5-0.6-3.4-1-6.4-0.9c-3,0.1-6.5-0.3-7.8-1.1c-1.3-0.7-3.3-1-4.5-0.6
		c-1.2,0.4-3.5,0.7-5.2,0.6c-2.9-0.2-27.9-3.5-36.5-4.9c-2.4-0.4-7.5,0.2-12.5,1.3c-4.6,1.1-10.2,2.1-12.5,2.3
		c-2.3,0.1-5.1,0.4-6.3,0.7c-1.2,0.2-3.6-0.1-5.4-0.8c-1.8-0.6-3.7-1-4.1-0.9c-1,0.3-9.4-0.3-13.9-1c-1.5-0.2-4.3-0.2-6.2,0
		c-1.9,0.3-5.3-0.3-7.7-1.3c-2.9-1.2-4.9-1.4-6.1-0.6c-1,0.6-2.7,1-3.8,0.8c-2.9-0.5-37.5,11.3-42.9,14.6c-3.4,2.1-5.3,2.7-8.4,2.7
		c-3.2,0-5.1,0.7-9.5,3.2c-6.3,3.7-16.6,14.4-16.5,17.2c0,1.1-1.5,3.3-3.4,5c-1.9,1.7-3.7,3.3-4,3.7c-0.3,0.3-0.8,0-1.1-0.8
		c-0.5-1.4-2.8-1.9-5.2-1.1c-0.7,0.2-2.5,2.6-4,5.2c-2.6,4.6-2.8,4.8-9.9,7c-4,1.3-7.6,2.3-8,2.2s-1.9,1.7-3.2,4
		c-2.3,3.8-2.3,4.3-0.5,5.6c1.8,1.2,2.3,1.1,4.8-0.8c1.5-1.2,3.6-2.5,4.6-2.8c1-0.3,3.5-2,5.6-3.6c4.5-3.5,10.1-6.7,19.9-11.3
		c4-1.9,11-5.5,15.5-8c7-3.9,9.2-4.7,14.5-5.5c3.8-0.5,9.7-2.2,14.9-4.3c5.6-2.3,8.7-3.2,8.9-2.5c0.5,1.4,3,0.4,3-1.2
		c0-1.6,9.4-4.6,11.7-3.7c1,0.4,2.5,0.2,3.4-0.4c1.1-0.7,1.7-0.6,2,0.5c0.3,1.1,1.3,1.3,3.3,0.8c1.6-0.4,5.2-1.1,8-1.4
		c12.1-1.6,17.5-2.5,23.2-3.6c3.3-0.7,6.6-1.1,7.4-0.9c0.7,0.2,1.1-0.2,1-0.7c-0.6-1.8,2.3-2,3.6-0.3c0.7,0.9,2.9,1.6,5.1,1.5
		c5.6-0.2,8.9,0.3,12.5,1.9c2.1,0.9,4.1,0.9,6.1,0.1c1.7-0.7,3.9-0.8,5.3-0.2c1.3,0.6,3.1,0.8,3.9,0.5c2.6-0.9,8.6,1.5,9.3,3.8
		c0.8,2.4,4.5,3.6,9.3,2.9c2.6-0.3,3.8-1.1,5.1-3.2c1-1.5,2.3-2.9,3-3.1c1.6-0.5,6,2.8,5.6,4.3c-0.4,1.5,2.8,5.1,5.9,6.8
		c1.4,0.8,3,2.6,3.5,4.1c1.2,3.7,4.8,6.9,9.3,8.5c3,1.1,4.1,2.2,5.5,5.3c2.8,6.4,3.9,7.8,7.7,9.9c10.5,5.8,12.1,8.2,10.6,16.8
		c-0.6,3.7-0.4,6,0.6,7.5c0.8,1.2,1.3,3.3,1.1,4.6c-0.2,1.3-0.2,3.6,0,5.1c0.2,1.5-0.7,4.9-1.9,7.5c-1.2,2.6-2.3,6.6-2.4,8.8
		c-0.1,2.2-0.5,4.1-0.9,4.3c-1.8,0.6-4.7,7.9-5.1,12.6c-0.4,4.5-0.8,5.3-3.3,6.1c-1.6,0.5-3.2,0.7-3.7,0.3c-0.4-0.4-2.3-0.2-4.1,0.4
		c-3.3,1.1-4.7,3.5-7.2,11.8c-0.6,2-1.3,2.6-2.9,2.4c-1.2-0.1-3.6,0.2-5.5,0.7s-4.8,1.1-6.4,1.2s-4.7,0.7-6.6,1.2s-4.8,0.6-6.3,0.1
		c-1.5-0.4-4-0.4-5.4,0.1c-3.3,1.1-7.2,0.6-6.8-0.9c0.1-0.6-1.4-1.5-3.5-1.9s-7-2.8-11-5.3c-4-2.4-7.6-4.3-8-4.2
		c-0.5,0.2-3.5-1-6.7-2.5c-4.8-2.3-6.5-2.6-9.4-1.6c-1.9,0.7-4.2,0.8-5,0.3c-0.8-0.5-3.6-0.5-6.2,0c-13.1,2.6-19.1,3.5-23.6,3.4
		c-4.1-0.1-5.3,0.3-6.8,1.8c-1.4,1.5-2.5,1.9-5.6,1.6c-2.6-0.2-7.5,0.9-14.7,3.2c-16.4,5.3-16.3,5.3-20,7.7c-7.6,5-15,9.6-20,12.6
		c-2.9,1.7-6.6,4.7-8.2,6.6c-2.8,3.3-7.8,5.9-18.1,9.3c-2.1,0.7-5.2,2.3-7,3.6c-2.7,1.9-3.5,2.1-5.4,1.3c-1.2-0.5-2.9-0.8-3.7-0.5
		c-0.8,0.3-2.8,0-4.5-0.6c-1.7-0.6-3.4-0.9-3.9-0.8c-0.5,0.2-2.5-0.3-4.4-1.1c-2.8-1.1-4.1-1.1-6.5,0.2l-3,1.7l-0.8-4.4
		c-0.7-3.9-1-4.4-3.3-4.6c-1.4-0.1-2-0.3-1.3-0.4c0.9-0.1,0.5-0.9-1.3-2.7c-3.1-3-5.7-4-8.3-3.2c-1.1,0.3-4.5,0.1-7.6-0.6l-5.7-1.1
		l-1.5-5.4c-1.5-5.1-1.6-5.3-3.9-4.6c-2.3,0.8-4.1-0.7-5.9-4.8c-1.6-3.6-4.3-3-9.1,2c-2.5,2.6-5.4,4.9-6.6,5.1
		c-1.2,0.2-4-1.3-6.8-3.7c-3.9-3.3-5.1-3.8-6.8-2.8c-1.5,0.9-2.4,0.7-3.2-0.6c-1.7-2.6-2.8-1.8-4.9,3.4c-4.5,11-7.5,17.2-8.8,18.3
		c-0.8,0.7-1.3,1.6-1.1,2.1c0.2,0.5-1.6,4.9-3.9,9.7c-9.6,20-11.8,25.2-11.3,26.6c0.3,0.8-0.5,3.9-1.8,6.8s-3.3,8.9-4.4,13.4
		c-2.4,9.3-5.6,18.6-9.2,26.8c-2.3,5.3-5.1,20.5-4.3,23c0.5,1.5-2.5,12.6-5,18.5c-1.1,2.5-1.8,5.1-1.6,5.6c0.6,1.8-3,25.8-4.6,30.1
		c-1.7,4.6-4,19.5-3.4,21.3c0.2,0.6-0.5,3-1.5,5.2c-1.5,3.2-1.7,5.2-0.7,9.2c1,4.3,0.7,6.9-1.9,15.9c-1.7,5.9-2.9,11.3-2.7,11.9
		c0.2,0.6,0,3.5-0.4,6.3c-0.4,2.8-1.5,10.6-2.3,17.3c-0.8,6.7-2,14.3-2.7,16.9c-1.2,4.8-1.5,9.9-1.1,18.6c0.1,2.6-0.2,7.7-0.6,11.3
		s-0.9,9.5-1.1,13c-0.1,3.5-0.6,8.7-1.1,11.5c-0.5,2.8-0.8,7.9-0.7,11.3c0.3,10.1,0,14.2-1.3,24.8c-0.7,5.5-1.2,12.3-1,15.1
		c0.1,2.8,0.2,9.8,0.2,15.7c-0.1,12,0.3,18.4,1.6,26.4c0.5,3.1,0.2,10.2-0.7,16.3c-1.7,11.8-1.5,13.6,1.6,14.7c2,0.7,2,0.9,0.5,3
		c-0.9,1.2-1.4,2.8-1.2,3.6s0,2.2-0.5,3.3c-0.6,1.2-0.3,3.7,0.6,6.6c0.9,2.6,1.3,5.9,0.9,7.4c-0.8,3.3-0.8,8,0.3,14.8
		c1,6.3,1.7,16.7,1.3,19.6c-0.3,2.6,0.1,18.4,0.6,23.8c0.2,2.1,0.5,5.8,0.7,8.2c0.2,2.4,0.9,6.8,1.6,9.7s1,6.2,0.6,7.2
		c-1.7,4.3-1.3,13.4,1,22.4c0.8,3.2,1.3,7.4,1.1,9.3c-0.2,1.9,0,4.3,0.3,5.4c0.4,1.1,0.6,4.3,0.4,7.1c-0.1,2.8,0.5,7.5,1.4,10.4
		c0.9,2.9,1.6,7.2,1.6,9.5c-0.1,8.2,0.3,14.7,1.2,19.6c0.5,2.7,0.8,5.5,0.7,6.1c-0.4,1.9,1,12.9,2.6,20.2c0.8,3.8,1.4,7.7,1.4,8.7
		c-0.1,1,0.1,4.5,0.5,7.8c0.3,3.3,0.8,8.7,0.9,12.2c0.2,3.4,0.7,7.3,1.1,8.6c0.4,1.3,1.3,6.5,1.8,11.5c0.6,5,1.6,11.6,2.3,14.5
		c0.7,3,1.3,7.5,1.3,10c0,2.6,0.8,6.6,1.7,8.9c0.9,2.4,2.9,10.3,4.5,17.6c1.6,7.3,4.1,17.9,5.6,23.5c3.5,13.2,3.6,13.4,3.9,18.2
		c0.6,8.7,3.8,21.8,11.1,44.4c4.2,12.9,7.4,24,7.3,24.7c-0.4,1.7,4.1,15.1,5.4,16.2c0.6,0.5,1.8,0.3,2.7-0.5c1.4-1,1.7-0.9,1.7,0.5
		c-0.5,13.2,16.2,54.1,28.1,68.6c1.2,1.4,3.3,6.8,5.2,12.6c2.6,8.6,3.6,10.6,6.2,13.2c1.7,1.7,5,6.3,7.2,10.3c2.3,4,5.2,8.5,6.6,9.9
		c3.2,3.5,7.4,10.3,9.5,15.7c0.9,2.4,2.8,5.2,4.2,6.3c1.4,1.1,2.4,2.4,2.3,2.9c-0.1,0.5,1,2.6,2.5,4.7c1.5,2,3.8,5.3,5.2,7.4
		c1.3,2,3.2,3.7,4.2,3.8c2.3,0.1,3.7,1.1,4.5,3.4c0.3,1,1.7,2.9,3,4.3c12.7,13.6,16.3,16.9,21.6,20.2c3.4,2.1,6.3,4.2,6.4,4.6
		c0.1,0.4,4.2,2.8,9.1,5.4c5.8,3,10,6,12,8.5c3.5,4.3,5.9,5.6,8.7,4.7c2.1-0.7,11,2.8,14,5.5c1.1,1,2.4,1.6,2.9,1.5
		c1.2-0.4,3.8,0.5,8.2,2.9c7.4,4.1,23.3,11.3,26.1,11.8c7.3,1.3,14.7,3.1,18.9,4.5c2.5,0.9,5.7,1.2,7.1,0.7s3.7-0.5,5.2-0.2
		c1.7,0.4,2.5,0.3,2.3-0.4c-0.2-0.6,0.1-1.2,0.6-1.4s1.2,0.5,1.6,1.6c0.4,1,1,1.8,1.5,1.6s2.6,0.4,4.6,1.2c2.1,0.8,3.6,1,3.4,0.4
		c-0.2-0.6,0.1-1.2,0.6-1.4c0.5-0.2,1.3,0.7,1.7,2c0.6,1.9,1.5,2.3,4.7,2.1c2.1-0.1,4.9,0.2,6.2,0.6c1.3,0.4,4.2,0.1,6.5-0.6
		c5-1.7,10.7-1.2,13.7,1.2c2.5,1.9,8.4,2,11.2,0.2c1.3-0.9,2.1-0.7,3,0.6c1.9,2.9,6.2,2.5,17-1.5c7.9-2.9,10.4-3.5,12.2-2.8
		c3.6,1.4,10.7,2.6,12.4,2c0.9-0.3,3.1-0.2,4.8,0.3c1.8,0.5,4.1,0.3,5.2-0.3c1.1-0.7,2.8-0.7,3.8-0.1c2.5,1.5,3.3,1,5.7-3.9
		c2.1-4.5,3.9-6.1,4.2-3.8c0.1,0.7,1.2,1.3,2.6,1.5c1.8,0.2,2.5,0.8,2.6,2.7c0.2,2.2,0.4,2.3,3.2,0.8c6.2-3.3,7.1-3.5,8.9-2.2
		c1.5,1.1,3.1,0.9,7.5-0.6c3.1-1.1,11.7-3.3,19.1-5c7.4-1.7,14.4-3.6,15.4-4.4c1.5-1.1,1.8-1,1.1,0.3c-1.2,2.6-0.4,3.5,2,2
		c2.3-1.5,15.4-2.8,16.9-1.8c0.5,0.3,1.7-0.3,2.7-1.3c1.2-1.3,5.5-3.1,13.1-5.5c6.5-2.1,12.7-4.6,14.8-6.1c4.5-3.1,7-3.6,9.3-1.9
		c2.3,1.7,5.1,1.3,11-1.4C1779.4,3183.5,1790.9,3179.4,1802.4,3175.4L1802.4,3175.4z M1761.4,2993.3c-2.8,0.5-5.6,0.8-6.2,0.7
		c-0.6-0.1-6.2,1.4-12.6,3.4c-11.2,3.6-21.6,5.2-27,4.2c-1.4-0.2-3.9,0-5.7,0.7s-4,0.6-4.9,0.1c-0.9-0.6-2.3-0.8-3.1-0.5
		c-0.8,0.3-4.6,0.3-8.5,0.1c-5.5-0.3-7.3,0-8.4,1.2c-1.6,1.9-4.7,3.1-5.8,2.2c-0.4-0.4-4.3-0.1-8.6,0.6c-4.7,0.8-8.5,0.8-9.5,0.2
		c-1.1-0.7-3.3-0.6-6.2,0.3c-2.5,0.8-6.3,1.3-8.6,1c-2.2-0.2-5.3,0-6.7,0.4c-1.5,0.5-4.7,0.5-7.3,0.1c-15.9-2.5-27.6-4.1-28.5-3.8
		c-0.6,0.2-2.8-0.5-4.9-1.6c-4.1-2.1-18.7-6.3-20.3-5.7c-0.5,0.2-1.1-0.1-1.3-0.6s-0.9-0.8-1.6-0.5c-0.7,0.2-4.5-1.2-8.4-3.2
		c-3.9-2-10.7-5.2-15.2-7.1c-4.4-1.9-9-4.6-10.3-6c-4.3-5-12-10.2-15.7-10.7c-2.1-0.2-3.9-0.8-4-1.3c-0.2-0.5-1.2-0.8-2.4-0.8
		s-2.3-0.7-2.7-1.6s-1.7-2.3-3.1-3c-1.4-0.8-4-2.7-5.8-4.3s-4.4-4-5.9-5.2c-1.5-1.2-3.1-3.3-3.6-4.5c-0.5-1.2-2.4-3.3-4.3-4.6
		c-1.9-1.3-3.5-2.7-3.7-3.1c-0.2-0.5-2.6-2.8-5.3-5.1c-2.8-2.4-6.6-6.3-8.4-8.7c-1.8-2.4-4.1-4.7-5-5c-0.9-0.3-2.5-2.4-3.6-4.6
		s-2.4-4.4-3-4.7c-1.5-1-7-14.9-6.2-15.5c0.4-0.3-1-4.7-3-9.7c-2.8-7-4.2-9.4-5.9-10.1c-2.1-1-5.4-7.3-8.8-16.8
		c-1.1-3.2-1.8-3.9-4.2-4.1c-2.1-0.2-2.8-0.8-2.7-2.1c0.1-1-1.3-6.4-2.9-11.9s-3.4-12-3.8-14.3c-0.4-2.3-2.1-6.3-3.6-8.9l-2.8-4.6
		l3.5-6.9c3.6-7.1,6.5-20.4,5-22.7c-0.8-1.1-0.7-1.1,0.6-0.2c1.2,0.9,1.7,0.6,3.1-2c0.9-1.7,1.5-3.6,1.3-4.2
		c-0.2-0.6,0.1-1.9,0.7-2.9c0.7-1.1,0.6-2.5-0.2-3.7c-0.9-1.4-0.8-2.4,0.3-3.6c0.9-0.9,1.3-2.3,1.1-3c-0.8-2.2,4.7-8.4,9.6-10.7
		c2.5-1.2,5.7-3,7.1-4c1.4-1,8.4-4,15.6-6.7c12.8-4.8,13.2-4.8,18.3-3.8c2.9,0.6,5.3,1.6,5.3,2.4c0,0.8,0.8,1,2,0.7
		c1.1-0.4,2.2-0.1,2.4,0.7c0.2,0.7,2.4,1.6,4.8,2c2.4,0.4,8.2,2.5,12.7,4.8c4.6,2.2,9,3.9,9.8,3.6c2.3-0.8,7.1,0.9,7.7,2.7
		c0.3,0.9,1.5,2.1,2.5,2.7c3.8,1.9,14.4,13.1,15.6,16.5c0.6,1.8,2.2,5.1,3.5,7.2c1.8,2.9,2.4,5.1,2.6,9.2c0.3,7.3,11.7,40.7,14,41.2
		c1,0.2,2.4,2.6,4.1,6.9c1.4,3.6,3.4,7.3,4.3,8.2s2.1,2.8,2.6,4.3c1.3,3.8,18,20,21.5,20.8c0.8,0.2,1.7,0.8,1.9,1.5
		c0.2,0.6,2.4,2.2,4.8,3.5c3.8,2.1,4.9,2.2,8.4,0.8c2.9-1.1,4.1-1.1,4.2-0.2c0.1,0.7,1.3,2.3,2.7,3.5c2.5,2.2,6.9,3.1,17.7,3.6
		c3,0.1,6.7,0.5,8.3,0.8c5.6,1,11.2,0.9,14.6-0.2c1.9-0.6,4.9-0.9,6.7-0.6c1.8,0.3,5.7-0.1,8.6-0.8c2.9-0.7,6.4-1.1,7.7-0.9
		c4.5,0.7,9.7-0.1,16.7-2.7c5.5-2,7.5-2.3,8.9-1.5c2.1,1.3,4.6,0.6,5.6-1.5c0.6-1.1,3-2,10.4-3.5c5.3-1.1,12.2-2.9,15.3-4.1
		c3.1-1.2,6.6-2.1,7.8-2.1c1.5,0,2.6-0.7,3.3-2.1c0.9-1.9,2.3-2.5,10.1-4.5c7.4-1.9,9.1-2.7,9.7-4.2c0.4-1,1.8-2.2,3.2-2.7
		c1.4-0.5,2.8-1.4,3.2-2c0.3-0.6,2.4-2.2,4.6-3.6c8.8-5.4,19.6-15.6,22-20.8c0.7-1.5,2.3-4,3.7-5.5c1.3-1.6,2.4-3.1,2.2-3.4
		c-0.1-0.3,2.2-4.7,5.2-9.6c3-5,5.2-9.5,5.1-10.1c-0.2-0.6,0.7-2.2,1.9-3.5c1.2-1.4,2.6-4,3-5.8c1.1-4.9,12.7-26.8,14.4-27.4
		c2.1-0.7,8-6.6,8.4-8.4c0.7-2.8,4.9-8.8,6.5-9.2c1.4-0.4,1.4-0.3,0.1,0.6c-2.8,1.8-0.2,3,4.8,2.1c2.7-0.5,6.3-1.1,7.9-1.4
		c1.7-0.3,6.6,0.7,11,2.1c4.4,1.5,8.3,2.2,8.8,1.7c1.3-1.6,5.5-1.5,9.8,0.3c2.2,0.9,5.8,1.7,8.1,1.7c2.4,0,7.1,1.7,11.4,3.9
		c4,2.1,8.5,4.2,10,4.6c2.1,0.5,3.2,1.9,5.3,6.1c1.4,3,3.9,6.9,5.6,8.7c3.5,3.9,5.8,12.7,4.2,16.4c-1.1,2.4-2.6,9.5-4,18.4
		c-0.5,3.1-1.2,6.4-1.6,7.4c-0.4,1-1.2,5.5-1.7,10.1c-0.8,7.3-2,11.7-7.5,27.5c-0.8,2.3-2.7,5.8-4.2,7.8c-1.5,2-3.1,4.7-3.4,5.9
		c-1.4,4.8-9.9,20.4-12.6,23.2c-1.6,1.6-3,3.5-3.2,4.1s-1.2,1.5-2.4,1.9c-1.2,0.4-2.4,1.2-2.7,1.9c-1.8,3.5-18.4,21.2-20.8,22.2
		c-2.7,1.1-5.7,6.3-4.6,7.8c0.3,0.4,0,0.8-0.5,1c-0.6,0.2-0.7,0.6-0.3,0.9c0.4,0.3,0.4,1.6,0,2.8c-0.6,1.9-1.1,2.2-3.2,1.9
		c-1.5-0.2-6.2,1-11.9,3.1c-7.7,2.8-10.5,4.3-15.6,8.6c-3.4,2.8-6.5,5.6-6.9,6.1c-0.4,0.5-2.8,1.8-5.4,2.7c-2.9,1.1-5.4,2.7-6.5,4.3
		c-1,1.4-2.6,3.2-3.7,4c-1,0.8-1.8,1.8-1.6,2.3c0.2,0.5-0.3,1.1-1.1,1.4s-1.6,0-1.8-0.5c-0.2-0.6-1.1-0.5-2,0.2
		c-0.9,0.7-4.4,1.6-7.8,2.1c-6.7,1-9.7,2.6-9,4.7c0.5,1.6,0.1,1.8-2.7,1.4c-1.4-0.2-2.2,0-2.4,0.9c-0.2,0.8-3.6,2.3-9,4
		c-4.8,1.5-9.6,3.4-10.6,4.2c-1.1,0.8-2,1-2.2,0.4c-0.2-0.6-1.2-0.3-2.8,1.1c-1.4,1.1-2.4,2.4-2.2,2.8
		C1769,2991.8,1768.8,2991.9,1761.4,2993.3L1761.4,2993.3z M1880,2927.1c0.6-0.5,1.4-0.7,1.8-0.5c0.4,0.2-0.1,0.6-1.1,0.9
		C1879.6,2927.9,1879.3,2927.7,1880,2927.1L1880,2927.1z M1675.3,2653.9c-0.3-0.3-2.9,0.1-5.7,0.7s-9,1.7-13.8,2.3
		c-4.7,0.6-10.8,1.8-13.6,2.7c-3,0.9-5.4,1.1-5.9,0.5c-0.5-0.6-6.4-1.8-13.3-2.7c-6.8-0.9-13.4-2.1-14.6-2.6
		c-1.2-0.5-3.6-0.7-5.3-0.3c-1.7,0.4-3.7,0.5-4.4,0.4c-0.8-0.2-0.7,0.1,0.4,0.8c1.2,0.7,1.5,1.4,1,2.1c-1.1,1.3-10.1-1.6-13.6-4.3
		c-1.6-1.2-3.5-2-4.4-1.7c-2.4,0.8-7.9-1.6-10.5-4.5c-1.3-1.5-3.1-2.5-3.9-2.2c-0.8,0.3-3.3-0.5-5.5-1.8s-4.8-2.1-5.8-1.7
		c-1.9,0.6-15.5-6.1-16.2-8c-0.7-1.9-7.5-6.8-14.7-10.5c-3.7-1.9-7.6-4.5-8.7-5.8c-1.1-1.3-4.4-2.9-7.3-3.6c-2.9-0.7-6-1.9-6.9-2.7
		c-0.9-0.8-2.4-1.1-3.4-0.8c-0.9,0.3-1.9-0.1-2.1-0.9c-0.3-0.8-4-4.9-8.4-9.2c-4.4-4.3-8.1-8.6-8.3-9.6c-0.9-3.6-1.8-4.6-6.3-6
		c-3.8-1.2-4.9-2.2-6.7-5.7c-5.4-10.6-6.6-13.8-5.9-15.6c0.4-1.2-0.4-5.3-2.2-11.1c-2.9-9.2-2.9-9.3-0.8-13.9
		c1.2-2.5,2.7-7.6,3.4-11.2c0.7-3.6,2.1-8,3.2-9.7c1.1-1.7,1.8-3.7,1.6-4.4c-0.4-1.1,4.2-6,15.9-17.1c4.2-4,10.5-14,11.9-18.9
		c0.6-2.1,1.5-4,2-4.2c0.5-0.2,2.3-3.2,4-6.9s3.8-6.9,4.6-7.3c1.6-0.8,4-4.8,3.6-6c-0.6-1.7,3.1-14.2,5.6-18.7
		c2.4-4.3,2.5-5.1,0.9-8c-1.9-3.6-1.4-5.3,1.2-3.7c0.9,0.6,2.2,0.8,3,0.6c2.2-0.7,13.2-24.6,14-30.6c1-6.9,5.1-17.1,7.1-17.8
		c2.1-0.7,2.1-3.5,0-5.5c-1.4-1.3-1.5-1.9-0.4-3.1c2-2.2,3.7-6.1,3.3-7.3c-0.5-1.5-5.7,1.6-7.9,4.8c-1,1.4-2.7,3.2-3.9,4.1
		c-1.2,0.8-2.5,2.1-2.9,2.8c-1.7,2.7-9.8,8.4-13.9,9.8c-2.3,0.8-5.1,2.4-6.2,3.6c-1.1,1.2-3,2.5-4.3,3c-1.3,0.5-3.1,1.9-4,3.1
		c-1.3,1.8-4.1,3.1-13.7,6.3c-9.3,3.1-12.4,4.5-13.8,6.3c-1.4,1.8-3.3,2.6-8.6,3.9c-5.6,1.3-7,2-8,3.8c-1.4,2.5-1,4.6,0.9,4.6
		c1,0,1.2,0.4,0.6,1.6c-1,2.2-4.4,0.5-5.5-2.7c-0.7-2-1.4-2.2-5.2-1.5c-3.8,0.7-4.5,0.5-4.9-1.4c-0.4-1.8-1-2-3.3-1.2
		c-1.6,0.5-4.1,0.7-5.6,0.4c-1.5-0.3-3.9-0.1-5.4,0.5s-2.7,0.6-2.9,0.2c-0.1-0.4-2.1-0.5-4.3-0.2c-2.2,0.4-8-0.1-12.8-1.1
		c-4.8-0.9-9.2-1.5-9.9-1.3c-0.6,0.2-2.2-0.4-3.5-1.4c-1.7-1.3-3.6-1.6-6.8-1c-2.5,0.4-5.8,0.6-7.4,0.4s-3.4-0.3-4.1-0.1
		c-0.7,0.2-1.3,0-1.5-0.6c-0.2-0.5-0.9-0.7-1.7-0.5c-0.8,0.3-3.6-0.6-6.3-1.8c-3.6-1.7-5.6-3.5-7.8-6.9c-2.9-4.7-7.8-7.4-10.1-5.6
		c-0.7,0.5-1.4-0.2-2-2.1c-0.6-1.7-1.5-2.8-2.2-2.5c-2.1,0.7-15.2-5.4-15.2-7c0-1.1-0.5-1.1-1.9-0.2c-1.7,1.1-1.9,1-2.1-1.4
		c-0.2-2.2-1-2.9-4.7-4.3l-4.5-1.6l-5.1-15c-4.7-13.8-5-15.4-4.2-19.5c0.5-2.5,0.5-5.7,0-7.1c-1-3.1-1.7-9-2.3-21.7
		c-0.7-14.3-2.3-23-5-27.8c-2.9-5.2-3.2-8.4-1.1-11.7c1.8-2.7,2-10.8,0.4-15.5c-0.5-1.6-0.6-6.1-0.1-10c0.5-3.9,0.7-8,0.6-9.1
		c-0.1-1-0.2-2,0-2.2c0.1-0.1,1.8-2.8,3.7-5.9c1.9-3.1,4-5.8,4.5-6c0.5-0.2,1.5-1.7,2.1-3.5c1.3-3.8,6.6-10.5,9.9-12.6
		c1.3-0.8,3.3-3.1,4.4-5c1.1-1.9,3.3-4.5,4.8-5.8c1.6-1.3,4.1-3.4,5.7-4.7c1.5-1.3,3.2-3,3.7-3.8c0.5-0.8,1.9-2.1,3.1-2.8
		s3.7-2.4,5.6-3.6c1.9-1.3,6.3-3,10-3.9l6.6-1.6l2.9-5.3c1.6-2.9,3.6-5.6,4.3-5.8c0.8-0.3,3.1-2.5,5.3-4.9c2.1-2.5,4.4-4.7,5.1-4.9
		c0.7-0.2,1.6-1.2,2-2.2c0.4-1,1.4-2.1,2.3-2.4s2.3-2.1,3.1-4.1c1.2-2.8,2.6-4,6.8-6c2.9-1.4,5.6-3,6-3.7c0.4-0.6,3.1-2.5,6-4.2
		c2.9-1.7,5.9-3.9,6.8-4.9c1-1.3,5-3,12.8-5.5c7.8-2.5,11.7-4.2,12.6-5.4c0.7-1,3.9-2.9,7.2-4.2c3.2-1.4,7.1-3,8.6-3.7
		c2.2-1,2.9-0.9,3.7,0.7c1.4,2.8,10.1,5.7,12.3,4.1c3.4-2.5,8.3-3.5,11-2.4c3,1.3,9.6,2.3,11.4,1.7c0.6-0.2,2.9,0.6,5,1.8
		c2.1,1.2,4.3,1.9,4.8,1.5c1-0.8,18.6,7.5,19.1,9c0.4,1.3,16.4,7.9,17.4,7.2c0.5-0.3,1.4,0.2,2,1.2c0.6,1,2.7,2,4.5,2.3
		s4.4,1.7,5.7,3.2c1.3,1.5,2.9,2.8,3.5,3s3.5,2.1,6.5,4.4c6.1,4.7,8.1,8.3,13.5,24.8c7.3,22,12,40.2,11.7,45.1
		c-0.4,5.9,1,15.2,4,25.8c1.8,6.6,2,9,1,14.4c-0.7,3.6-1.7,10.1-2.4,14.6c-0.7,4.4-1.9,9.9-2.6,12.1c-0.7,2.2-1.1,4.7-0.8,5.5
		c0.3,0.8,0.2,1.9-0.2,2.4c-0.4,0.5-0.4,2,0.1,3.3c0.4,1.3,0.4,2.3-0.1,2.2c-0.5-0.1-1.5,0.6-2.2,1.6c-1.1,1.6-1,2,0.6,3.4
		c1.9,1.5,2.6,1.5,10.1-0.7c2.1-0.6,4.6-0.8,5.5-0.4c0.9,0.4,3.8,0.3,6.3-0.2c2.5-0.5,5.3-0.5,6.1,0c1.8,1.1,7.4-0.6,9.5-2.9
		c1.2-1.3,1.8-1.3,2.6-0.2c0.6,0.7,2.5,2.1,4.2,3c1.7,0.9,3.2,2.2,3.5,2.9c0.2,0.7,1.4,0.9,2.8,0.5c1.5-0.5,2.5-0.3,2.9,0.7
		c0.5,1.6,6.1,6,7.7,6.1c0.5,0,2.2,0.8,3.8,1.7s5,1.9,7.7,2.2c10,1.2,14.5,6,14.7,15.7c0,2.1,0.1,5.6,0.1,7.9s0.2,5.4,0.4,6.9
		c0.2,1.5-0.7,5.3-2,8.6c-1.2,3.2-2.1,6.4-1.9,7c0.2,0.6,0,4.8-0.5,9.3c-0.6,6-1.5,9-3.3,11.2c-1.4,1.7-3.1,4.4-3.8,6.2
		c-0.7,1.7-1.7,3.3-2.2,3.5c-0.5,0.2-2.2,4.2-3.7,9c-1.5,4.8-5.4,14-8.6,20.6c-3.2,6.6-7.6,16.7-9.6,22.6
		c-2.1,5.8-4.8,12.8-6.1,15.4c-1.3,2.7-2.1,5.6-1.8,6.4c0.4,1.2,0,1.6-1.7,1.8c-1.6,0.1-2.7,1.3-4.1,4.3c-1,2.3-2.5,4.6-3.2,5.2
		c-0.8,0.6-2.2,4.1-3.1,7.7s-2.8,7.8-4.1,9.1c-1.3,1.4-4.7,7.3-7.7,13.3c-3,5.9-7.4,14.5-9.8,19c-4.6,8.7-4.7,12.4-0.3,11.6
		c1.2-0.2,3.2,0.2,4.4,0.9c1.3,0.7,3.1,1,4.1,0.7s2.3,0.1,2.9,0.9c2.7,3.5,7.8,6.1,10.3,5.2c1.4-0.5,5.1-0.5,8.1-0.1
		c3,0.4,7.1,0.2,9.1-0.5c2-0.7,5.1-1,7-0.7c5.8,0.9,19.8-2,30-6.3c5.1-2.1,10.6-4,12.3-4.2c1.7-0.2,8.1-2,14.4-4.1
		c8.1-2.6,12.3-3.6,14.6-3.2c2.9,0.5,3.4,0.3,5.7-2.5c2.6-3.1,4.5-3.5,5.3-1.2c0.2,0.7,3.5,2.9,7.2,4.8c5.1,2.6,7.9,3.4,11.5,3.2
		c3.1-0.2,6.9,0.6,10.8,2.3c3.3,1.5,7,2.6,8.3,2.5c2.6-0.2,8.5,4,10.8,7.6c1,1.6,2.1,2.2,3.3,1.8c2.5-0.9,5.9,1,5.9,3.3
		c0,1.2,0.9,2.2,2.6,2.7c2.4,0.7,2.6,1.1,2.7,4.8c0.1,2.2-0.5,5.5-1.3,7.3c-0.8,1.8-1.4,4.3-1.3,5.6c0.3,5.4-0.2,8.3-1.4,8.7
		c-2.3,0.8-3.2,4.4-2,8.1c0.8,2.2,0.8,4.4,0.1,5.4c-0.6,1-1.8,3.1-2.6,4.8c-0.8,1.7-1.9,2.9-2.4,2.6c-0.5-0.2-1.5,0.5-2.4,1.5
		c-0.8,1.1-3,2.8-4.8,3.8c-2.3,1.3-3.8,3.2-4.9,6.3c-1.6,4.6-4.4,6.9-15.1,12.7c-2.3,1.3-4.9,3-5.7,3.9c-0.9,0.9-2.6,2-3.9,2.5
		c-1.3,0.4-4.6,2.2-7.4,4c-2.8,1.8-10.1,5.2-16.2,7.6c-6.1,2.4-11.7,5.1-12.6,6C1700.1,2644.1,1676.3,2654.7,1675.3,2653.9
		L1675.3,2653.9z M1436.7,2408.4c-0.2-0.5-0.8-0.8-1.3-0.6c-0.6,0.2-0.6,0.7-0.1,1.1c0.5,0.4,1.1,0.7,1.3,0.6
		C1436.9,2409.5,1436.9,2409,1436.7,2408.4z M1443.1,2307.6c1.6-1.4,4.7-3.2,7-4c3.1-1.1,4.6-2.3,6.4-5.3c1.3-2.2,3.2-4.2,4.3-4.6
		c1.1-0.4,2.6-1.6,3.4-2.7c0.8-1.1,2-2.2,2.8-2.5c1.9-0.7,4.9-7.4,4.2-9.3c-0.6-1.9,0.6-7.2,2.2-9.5c0.6-0.9,1.3-3.8,1.4-6.3
		c0.1-2.5,0.5-7.1,0.9-10.1c0.8-7,1-14.3,0.5-17.9c-0.2-1.5-0.1-3.1,0.3-3.6c0.9-1.1-0.7-5.5-1.9-5.1c-0.5,0.2-1.7-0.6-2.6-1.6
		c-1.5-1.8-2.4-1.8-9.7,0.1c-18.1,4.6-22.5,6.5-25,10.7c-1,1.7-1.7,2-4.8,2c-2.7-0.1-4.1,0.4-5.3,1.6c-0.9,0.9-2.5,1.7-3.6,1.8
		s-2.6,0.7-3.4,1.6c-0.7,0.8-0.9,1.4-0.4,1.3c1.7-0.5-2.7,7.5-5.5,10c-1.6,1.4-4.4,3.1-6.4,3.8c-1.9,0.7-3.8,2-4.2,3
		c-0.4,1-1.9,2.8-3.3,4.1c-2,1.7-2.5,3.1-2.1,5.1c0.4,1.9-0.1,3.5-1.8,5.2c-1.3,1.3-2.4,2.8-2.4,3.3c0,0.5-0.7,2.3-1.4,4.2
		s-1,6-0.6,9.4c0.4,3.4,0.2,7.2-0.4,8.5c-0.6,1.3-1,2.7-0.8,3.1c0.6,1.7,2.5,3.3,3.5,2.9c1.3-0.4,5.5,1.9,6,3.2
		c0.2,0.5,1.6,1.3,3.3,1.7c2.2,0.6,3.1,0.4,3.7-0.7c1.1-2.1,3.1-2.6,3.1-0.6c0,1,1.2,2.3,3,3.3c2.5,1.3,3.6,1.3,6.2-0.1
		c2-1.1,5.3-1.7,9-1.6C1435.7,2311.9,1439.4,2310.9,1443.1,2307.6z M1350.7,2398.8c-3.3-1.8-3.3-3.4,0-4.5c1.3-0.4,5.1,2.6,5.8,4.6
		C1357,2400.5,1353.8,2400.4,1350.7,2398.8z M1927.3,2093.8c0.1-0.6,0.5-1.2,0.7-1.3c0.2-0.1,0.6,0.3,0.7,0.8
		c0.2,0.5-0.1,1.1-0.7,1.3C1927.5,2094.8,1927.2,2094.4,1927.3,2093.8z M2372.1,2548.4c3.7-2.4,7.1-4.9,7.5-5.4
		c0.4-0.5,1.9-1.4,3.2-2.1c3.2-1.5,9.6-5.4,12.8-7.9c4.3-3.3,10.2-6.9,12.3-7.6c1.2-0.4,2.2-2,2.7-4.1c0.7-3.3,1-3.6,5.4-4.4
		c3.8-0.7,5-1.4,6.5-3.6c1-1.5,2.5-3,3.3-3.2s4.5-3.4,8.1-7c3.6-3.6,7.4-6.7,8.3-7c2.1-0.7,7.7-6.9,7.3-8.1
		c-0.4-1.3,1.9-4.4,3.8-5.1c0.9-0.3,1.5-0.9,1.4-1.4c-0.6-1.7,3.6-8.7,5.2-8.6c2,0.1,2.7-2.3,1.7-5.5c-1.5-4.5-0.3-7.5,3.6-9.2
		c4.3-1.9,4.7-2.5,7-10.9c1-3.7,2.2-8.1,2.7-9.9c0.5-1.7,0.4-4.7-0.3-6.6c-0.9-2.6-0.7-4.4,0.8-7.4c1.4-2.8,1.7-5.2,1.1-7.9
		c-1.5-6.8-1.4-24.4,0-28.2c1.1-2.9-6.1-27.6-8.5-29.1c-1.2-0.7-2.1-2.8-3-6.9c-0.7-3.2-1.6-5.8-2.1-5.6c-1.6,0.5-15.7-6.6-14.7-7.4
		c0.6-0.5,0.5-1.7-0.4-3.3c-1.2-2.1-1.1-2.7,0.7-3.6c1.9-0.9,2-1.7,0.9-5.8c-0.8-3.2-1.9-5.1-3.2-5.8c-1.1-0.6-2.1-1.5-2.2-2
		c-0.2-0.5-2-0.9-4.1-0.9c-3.3,0-3.8,0.2-3.9,1.6c0,1.2-0.9,1.8-3.2,2.1c-2.6,0.4-3.6,1.2-5.3,4.3c-1.2,2.1-3.2,4.5-4.5,5.4
		c-5,3.1-14.6,16.7-13.7,19.3c0.2,0.6-0.6,2.4-1.8,4.1c-1.7,2.5-3.6,3.6-10.5,6.2c-6,2.2-8.8,3.7-9.6,5.2c-0.7,1.1-2.2,2.7-3.4,3.4
		c-6.2,3.8-10.2,6.6-12.2,8.6c-1.2,1.2-3.4,2.6-4.9,3.1c-3.8,1.3-8.1,8-9,14.2c-0.4,3-1.2,7.3-1.7,9.7c-0.5,2.3-0.8,4.8-0.6,5.4
		s0,2.1-0.5,3.2c-0.5,1.2-0.6,3.8-0.3,6c0.4,2.1,0.1,5.5-0.6,7.5c-0.7,2-2.2,10.1-3.3,18c-1.5,10.5-1.8,15.8-0.9,19.7
		c0.7,3,0.8,6.7,0.3,8.3s-0.9,10.1-0.8,18.7c0.1,8.7-0.7,21.4-1.6,28.2s-1.6,12.7-1.5,12.9c0.1,0.3-0.3,4.1-0.9,8.5
		c-0.7,5.2-0.6,9.9,0.2,13.6l1.3,5.6l9.2-3.5C2361.3,2554.4,2368.4,2550.9,2372.1,2548.4L2372.1,2548.4z M1846.3,2347.4
		c1.4-1.8,2.4-2.3,4.3-2.1c4.1,0.5,8.5-1.6,13.7-6.4c2.7-2.5,7.2-6.3,10-8.3c2.8-2,6.1-4.9,7.4-6.3c1.2-1.5,3.1-3,4.2-3.3
		c1.9-0.6,5.5-6.9,5-8.5c-0.3-0.9,4.8-10.6,5.8-11c1.1-0.4,10.2-18.5,11.3-22.6c0.9-3.1,1.4-3.7,3.1-3.4c2.3,0.4,3.2-1,3.1-5
		c0-1.3,0.6-3.1,1.5-4c2-2.1,4.4-12.3,4.3-18c0-2.5,0.3-5.1,0.8-6c1.2-2-0.6-7-2.6-7.1c-0.9,0-1.8-0.6-2-1.3c-0.7-2.1-6.2-0.9-9,1.9
		c-1.4,1.4-3.1,2.7-3.8,2.9s-1.8,1.6-2.5,3c-0.7,1.4-2.1,2.8-3.1,3.2s-2,1.2-2.1,1.8s-1,1.2-1.8,1.2c-0.8,0-2.1,1.1-2.8,2.4
		c-0.7,1.4-2,2.8-3,3.1c-0.9,0.3-2.3,1.5-3.1,2.6c-0.8,1.1-2,2.2-2.8,2.5c-0.8,0.3-2.2,1.6-3.1,2.8c-0.9,1.3-4.2,3.4-7.3,4.6
		c-3.1,1.3-6.6,3.4-7.8,4.7c-1.9,2-16,8-27.7,11.9c-2.1,0.7-2.7,1.7-3.2,5.2c-0.4,2.4-0.1,5,0.5,5.7c0.7,0.8,0.6,2.3-0.3,3.9
		c-0.8,1.4-1.1,3.3-0.8,4.2c0.3,0.9,0.2,2.3-0.2,3.1c-0.9,1.9-1.1,8.3-0.4,14.1c0.5,4.5,0.7,8.8,0.6,15.7
		c-0.1,5.1,1.7,13.6,3.2,15.7c1,1.4,2.1,1.5,5,0.5C1842.8,2350.4,1845.3,2348.7,1846.3,2347.4L1846.3,2347.4z M1836,2347.8
		c-1-0.5-0.8-3.3,0.2-3.6c1.1-0.4,2,2.2,1.1,3.2C1837.1,2347.8,1836.4,2348,1836,2347.8L1836,2347.8z M1379.5,1980.4
		c-0.2-1.2-0.8-2-1.3-1.9c-1.5,0.5-2.3,3.8-1.3,4.7C1378.5,1984.5,1379.9,1982.8,1379.5,1980.4z"/>
</g>
</svg>
