<?xml version="1.0" encoding="utf-8"?>
<!-- Generator: Adobe Illustrator 25.4.1, SVG Export Plug-In . SVG Version: 6.00 Build 0)  -->
<svg version="1.1"
	 id="svg192" inkscape:version="1.1 (c4e8f9e, 2021-05-24)" sodipodi:docname="zaznaczenie.svg" xmlns:inkscape="http://www.inkscape.org/namespaces/inkscape" xmlns:sodipodi="http://sodipodi.sourceforge.net/DTD/sodipodi-0.dtd" xmlns:svg="http://www.w3.org/2000/svg"
	 xmlns="http://www.w3.org/2000/svg" xmlns:xlink="http://www.w3.org/1999/xlink" x="0px" y="0px" viewBox="0 0 3456 4608"
	 style="enable-background:new 0 0 3456 4608;" xml:space="preserve">
<sodipodi:namedview  bordercolor="#666666" borderopacity="1.0" id="namedview194" inkscape:current-layer="g198" inkscape:cx="1730.0794" inkscape:cy="2304" inkscape:pagecheckerboard="0" inkscape:pageopacity="0.0" inkscape:pageshadow="2" inkscape:window-height="776" inkscape:window-maximized="0" inkscape:window-width="1365" inkscape:window-x="0" inkscape:window-y="25" inkscape:zoom="0.12022569" pagecolor="#ffffff" showgrid="false">
	</sodipodi:namedview>
<g id="g198" inkscape:groupmode="layer" inkscape:label="Image">
	<path id="path202" d="M2971.9,2417.5c-0.7-0.2-29.2,10.7-33.1,12.7c-3.4,1.8-14.1,4.6-15.7,4.2c-0.7-0.2-3.9,0.3-7.1,1.1
		c-5.3,1.3-5.9,1.6-6.3,3.6c-0.3,1.8-0.7,2.1-2.4,1.6c-2.6-0.7-8.3,1.8-10.6,4.7c-1.1,1.4-2.3,2.1-3.1,1.8c-0.7-0.2-4.8,0.9-9.1,2.6
		c-5.6,2.2-9.1,3-11.8,2.6c-2.5-0.3-4.6,0.1-6.1,1.2c-2.6,1.9-16.1,6.4-17.9,5.9c-0.7-0.2-4.2,1.2-7.8,3.2c-4.2,2.3-7.6,3.5-9.4,3.4
		c-1.6,0-6.5,1.3-10.8,3c-19.8,7.7-24,9.1-26,9.1c-2.8-0.1-21,4-27.9,6.2c-4.4,1.4-5.8,2.3-7.1,4.5c-1.7,2.8-1.9,2.9-10.2,2.6
		c-1.5,0-4.8,0.5-7.2,1.2c-2.4,0.7-5.4,1.2-6.7,1c-2.8-0.3-7.1,0.8-19.7,5.2c-5.2,1.8-10.8,3.3-12.5,3.2s-4.7,0.6-6.7,1.6
		c-2,1-4.6,1.7-5.7,1.6c-2.1-0.1-17.1,3.6-20.1,5c-1,0.5-3.9,0.5-6.5,0.2c-4.8-0.7-7.5,0.6-6.3,3.1c0.4,0.8,0.3,1.5,0,1.7
		c-1.9,0.8-9.1,1.1-9.8,0.4c-0.4-0.5-1.9-0.3-3.2,0.3c-1.3,0.6-6.2,1-10.9,0.8c-8.9-0.3-12.6,0.5-16.4,3.7c-1.6,1.4-3.5,1.9-6.9,1.9
		c-2.5,0-7.2,0.8-10.3,1.9c-3.8,1.3-6.6,1.7-8.5,1.1c-2-0.6-4.1-0.3-7.3,1.1c-2.7,1.2-5.9,1.9-8.1,1.6c-2.8-0.3-5.4,0.4-10.8,3
		c-3.9,1.9-7.7,3.2-8.4,3c-0.7-0.2-3.6-0.1-6.5,0.2c-2.9,0.3-6.6,0.4-8.2,0.2c-1.6-0.2-4.5,0-6.4,0.5c-7.6,1.7-12.9,2.5-17.4,2.6
		c-2.6,0-8.3,1.3-12.5,2.8c-12,4.2-17.1,5.4-22.3,5.3c-2.8-0.1-5.5,0.4-6.6,1.3c-1.2,0.9-4.6,1.4-9.6,1.3c-4.3-0.1-9.4,0.2-11.3,0.7
		s-5.1,0.8-7.1,0.6c-2-0.2-4.4,0-5.4,0.5c-1,0.5-3.1,0.6-4.7,0.2c-1.6-0.3-5.9-0.1-9.6,0.5c-7.2,1.3-14.2,1.3-16,0.2
		c-0.7-0.4-2.2,0.1-4,1.4c-2.1,1.5-3.5,1.9-5.2,1.4c-1.3-0.4-2.6-0.4-3-0.1c-0.4,0.3-2.1,0.6-3.7,0.7c-1.7,0.1-3.4,0.3-3.9,0.6
		s-1.7,0.4-2.8,0.4c-3.6-0.1-9.7,1-10.3,1.8c-0.3,0.4-2.8,0.1-5.5-0.7c-3.8-1.1-5.8-1.1-8.4,0.2c-5.6,2.6-18.2,6.2-21.6,6.1
		c-1.7,0-4.5,0.4-6.2,1c-6.1,2.1-18,3.9-22.4,3.5c-4.2-0.4-25.3-0.3-26.3,0.2c-0.6,0.3-2.6,0.3-4.4,0c-1.8-0.3-5-0.1-7.1,0.5
		c-2.1,0.6-4.7,0.8-5.7,0.4c-1-0.4-2.8-0.3-3.9,0.3c-1.1,0.5-2.6,0.7-3.4,0.5s-5.8,0.7-11.1,2c-5.4,1.4-12,2.7-14.6,2.9
		s-6.8,0.9-9.2,1.6c-5.3,1.4-10.1,1.8-12.7,1.1c-1-0.3-4.9,0-8.6,0.6c-3.7,0.6-7.2,1-7.9,0.9c-0.7-0.1-5.1,0.1-10,0.5
		c-7.5,0.6-16.7,0.5-20.9-0.2c-2.9-0.5-12.1,0.9-16,2.3c-2.3,0.9-7.3,1.6-10.9,1.6c-3.7,0-9.1,0-12.1,0.1s-6.8-0.2-8.6-0.5
		c-1.7-0.3-5.5,0.2-8.3,1.1c-2.8,1-6.5,1.7-8.1,1.6s-4.6,0.7-6.7,1.7c-2.1,1-4,1.5-4.2,1c-0.2-0.4-5.1-0.4-10.8,0
		c-5.7,0.4-11,0.6-11.7,0.4c-0.7-0.2-2.5,0.2-4,0.9c-2.7,1.3-12,1.4-16.1,0.2c-1.2-0.3-4,0.2-6.4,1.1c-2.8,1.1-6.2,1.4-9.9,1
		c-3.1-0.4-7.6-0.4-10,0c-2.4,0.4-5.1,0.4-6,0c-0.9-0.4-2.2-0.4-3.1,0c-0.8,0.4-2.8,0.5-4.4,0.2c-1.9-0.3-4.9,0.4-8.3,1.8
		c-4.1,1.8-6,2.1-8.5,1.3c-1.8-0.6-3.6-0.5-4.3,0.2c-0.6,0.7-2,0.7-3,0.2c-2.6-1.4-11.6-0.3-16.6,2.1c-3.1,1.4-5.2,1.8-7.8,1.1
		c-4.5-1.1-9-1-11.9,0.4c-2.7,1.3-6.4,1.1-9.9-0.6c-1.5-0.7-4.2-0.8-6.2-0.2c-2,0.6-5.4,0.9-7.5,0.9c-6.6-0.3-8.2-0.2-12.7,0.6
		c-2.4,0.4-5.2,0.4-6.4,0s-5.5-0.3-9.6,0.3c-4.1,0.6-8.5,1-9.7,1c-1.2-0.1-3.5-0.1-5,0c-1.5,0-3.5,0-4.5-0.1
		c-2.7-0.3-6.7,0.1-11.7,1c-2.5,0.4-5.7,0.6-7,0.4c-1.3-0.2-3.1-0.1-3.9,0.3c-1.4,0.6-3.9,0.7-13.6,0.1c-6.9-0.4-15.3,0.5-16.2,1.7
		c-1,1.4-5.5,2.4-9.6,2.1c-1.3-0.1-5.3-0.4-9-0.7c-3.7-0.3-6.9-0.1-7.2,0.3s-0.8,0.5-1.2,0.2c-0.8-0.8-20.7-0.3-22.5,0.5
		c-0.7,0.3-3,0.3-5.1-0.1c-5-0.9-10.9-1.2-12.2-0.6c-0.6,0.3-4,0.2-7.6-0.2c-3.6-0.4-7.7-0.4-9.1,0c-1.4,0.4-6,0.5-10.4,0.2
		c-4.3-0.2-10.8,0.3-14.3,1.2c-14.4,3.6-15.3,3.7-18.9,2.2c-3.8-1.6-7.4-1.8-6.8-0.4c0.2,0.5-0.8,1.5-2.3,2.2
		c-1.8,0.9-2.9,0.8-3.4-0.1c-0.4-0.9-1.6-0.9-3.8,0.1c-1.9,0.9-3.4,1.1-3.7,0.4c-0.3-0.6-3.1-1.1-6.3-1.2c-3.1,0-9.8-0.7-14.8-1.6
		s-10.6-1.5-12.4-1.6c-8.6-0.1-24.8,1.1-27.2,2c-1.5,0.6-2.6,0.7-2.6,0.3c0.2-1.5-6.6-2.4-12.8-1.7c-3.6,0.4-9.7,0.8-13.6,0.8
		c-6.2,0.1-13.6,1-20.6,2.6c-1.2,0.3-3-0.3-4.1-1.2c-1.3-1.1-2.8-1.3-4.1-0.7c-1.1,0.5-4.9,0.6-8.4,0.1c-3.5-0.5-7-0.6-7.9-0.1
		c-2.1,1-15.2,0.7-15.7-0.4c-0.2-0.5-1.1-0.5-1.9-0.1s-2.5,0.4-3.8,0c-1.2-0.4-4.1-0.1-6.4,0.7c-2.3,0.7-5.2,1.3-6.4,1.2
		c-1.2-0.1-3.1,0.4-4.2,1.1c-1.5,1-2.1,0.8-3-1c-1.4-3-6.5-3.6-11.7-1.5c-2.8,1.2-4.8,1.4-6.4,0.6c-1.3-0.6-5-1.2-8.4-1.2
		s-7.6-0.4-9.5-0.8c-2.9-0.7-3.6-0.5-5.2,1.4c-1.9,2.3-4.1,2.7-3.9,0.9c0.1-0.6-0.4-0.5-1,0.1c-1.4,1.4-6.5-0.7-6.6-2.7
		c-0.1-0.7-1.3-1.3-2.7-1.3s-3.5,0-4.6-0.1c-1.1-0.1-2.9-0.2-4-0.3c-8-0.6-26.8-0.6-28.2,0.1c-1.4,0.7-1.8,0.3-2.3-1.9
		c-0.6-2.5-1.1-2.7-5.3-2.5c-2.5,0.1-5.3,0.6-6.1,0.9c-0.8,0.4-2.7,0-4.1-0.9c-3.4-2.1-9-1.9-10.7,0.3c-1.3,1.8-1.8,1.4-1.6-1.5
		c0.1-1.6-0.8-2.2-4.7-3c-2.6-0.5-4.9-1.2-5.1-1.5c-0.7-1.4-8.4-1.4-11.4,0c-2.3,1.1-3.5,1.1-4.4,0.1c-0.7-0.8-2.9-1.2-5.4-0.8
		c-2.3,0.3-4.9,0.3-5.9-0.2s-2.5-0.5-3.4,0c-1.8,0.8-3.7,0-4.8-2.2c-0.4-0.7-1.1-1.2-1.6-1c-3.9,1.5-9.4,1.3-13.8-0.6
		c-6.1-2.7-11-3-13.5-0.9c-1,0.9-2.1,1.2-2.3,0.8c-0.4-0.9-7.5-0.5-8.1,0.4c-0.2,0.4-1.7-0.5-3.2-1.8c-1.5-1.4-5-3.6-7.8-4.9
		c-3.9-1.9-5.7-2.1-7.8-1.1c-1.6,0.7-2.7,0.8-2.6,0.1c0.1-1.2-3-1.3-7.6-0.2c-2.1,0.5-3,0.1-3.8-1.6c-0.9-1.8-1.7-2-4.5-1.3
		c-1.9,0.5-3.6,0.5-3.8,0.1c-0.2-0.4-1.2-0.4-2.2,0c-1,0.5-2.6,0.3-3.5-0.5c-1-0.7-2.7-1.2-3.8-1s-2.7-0.4-3.5-1.3
		c-0.8-0.9-3.6-2.2-6.1-2.9c-2.5-0.7-7.9-2.6-12-4.2c-4-1.6-7.8-2.7-8.3-2.5c-1.5,0.7-9.1-1.2-9.7-2.5c-0.3-0.6-3.5-2-7-3
		c-3.6-1-7.9-2.8-9.7-3.9s-4.4-1.9-5.8-1.6c-2.5,0.5-10-1.9-10.8-3.5c-0.2-0.4-1.8-1.2-3.5-1.8c-1.7-0.5-3.4-1.3-3.8-1.6
		c-0.4-0.4-3.7-1.5-7.3-2.6c-3.6-1-11.9-3.6-18.5-5.6c-6.6-2-13.2-3.9-14.7-4.1c-4-0.6-12.3-3.7-12.8-4.7c-0.6-1.2-6.2-3-7.5-2.3
		c-0.6,0.3-1.9-0.1-2.9-0.9c-2.2-1.6-15.5-7.3-16.9-7.3c-0.5,0-2.4-0.5-4.1-1.1c-1.8-0.6-3.9-0.8-4.8-0.4c-0.9,0.4-2.7,0.2-3.9-0.5
		c-1.2-0.7-3.3-1.6-4.5-2s-2.6-1.3-3-2.2s-2.8-1.8-5.4-2.2s-5.9-1.6-7.4-2.7c-1.5-1.2-3.4-1.7-4.4-1.3c-0.9,0.4-2.2,0.3-2.8-0.3
		c-0.6-0.6-1.9-0.8-2.8-0.3c-0.9,0.4-3.1,0.2-4.9-0.5s-3.7-1-4.3-0.7c-0.6,0.3-3.3-0.1-6.1-0.8c-3.8-1-5-1.8-5.2-3.4
		c-0.3-3-1.7-4.1-8.5-6.5c-3.3-1.2-7.1-2.7-8.3-3.5c-1.2-0.7-3.4-1.4-4.8-1.5c-1.4-0.1-2.6-0.8-2.7-1.6c-0.1-0.8-1-1.4-2.1-1.3
		c-2.2,0.2-10.6-2.9-11.1-4c-0.2-0.4-0.8-0.3-1.3,0.3c-1.3,1.4-7.8-0.2-7.9-1.9c-0.1-0.8-0.9-1.6-1.9-1.9c-1-0.3-4-2-6.7-3.8
		c-2.7-1.9-8.2-4.5-12.3-5.9c-7.8-2.6-17-6.7-17.5-7.7c-0.8-1.7-17-10.1-23-12c-3.8-1.2-7.1-2.6-7.3-3.1c-0.8-1.6-24.8-12.7-26.2-12
		c-0.7,0.3-1.7-0.2-2.1-1.2c-0.8-1.7-14-7.9-16.2-7.6c-4.1,0.6-4.2,0.6-3.3-0.7c0.6-0.9-1.3-2.1-7-4.2c-11.9-4.5-20.1-8.6-24.1-12.1
		c-1.6-1.4-8-4.4-14.3-6.7c-6.3-2.3-12-4.9-12.8-5.7c-0.8-0.8-4.7-2.8-8.8-4.4s-7.6-3.4-7.9-4c-0.5-1.1-17.7-10.2-24.1-12.8
		c-2-0.8-4-2.1-4.4-3c-0.4-0.8-3.4-2.4-6.8-3.5c-13.6-4.6-24.5-8.9-25-9.9c-0.3-0.6-3.3-2.1-6.7-3.5c-3.4-1.3-6.8-3-7.5-3.6
		c-0.7-0.7-6.6-3.2-13-5.7c-6.4-2.4-12.3-5.1-13.1-6c-2.2-2.4-19-8-21.9-7.2c-2.1,0.5-2.7,0.2-3.2-1.7c-0.9-3.3-7-5.4-9.6-3.3
		c-2.1,1.7-3.1,1.4-5.5-2c-0.9-1.2-2.2-2.5-3-2.9c-0.9-0.4-1.2-1-0.8-1.7c1.1-1.6-8.3-7.1-12.8-7.4c-1.2-0.1-2.8-0.9-3.4-1.7
		c-0.6-0.9-1.9-1.6-2.7-1.7s-2-1-2.5-2c-0.8-1.6-10.4-5.4-19.6-7.7c-1.7-0.4-3-1.2-2.9-1.7c0.1-0.5-0.6-1.8-1.4-2.9
		c-1.2-1.4-2.3-1.6-4.5-0.8c-2.2,0.8-4.4,0.4-8.4-1.4c-3-1.4-6.1-3.3-6.8-4.3c-0.7-1-1.9-2.1-2.6-2.6c-0.7-0.4-1.4-1-1.6-1.2
		c-0.2-0.2-1.2-1.5-2.4-3c-1.1-1.4-3.1-3-4.3-3.5c-1.3-0.5-6.4-3.5-11.4-6.6c-11.3-7-14.2-8.2-16.7-7c-2.3,1.1-4.2-0.2-3.9-2.7
		c0.4-3.6-1.5-5.6-5-5.2c-2.3,0.2-3.4,0.7-3.3,1.4c0.2,1.7-3.3,2.9-4.6,1.6c-0.7-0.6-1.2-2.3-1.1-3.7c0.3-5.4-12.5-15.5-17.1-13.5
		c-0.9,0.4-1.1,0-0.9-1.7c0.2-2-0.5-2.6-5.6-4.8c-7.6-3.3-7.4-3.1-12.4-7.2c-2.4-1.9-4.6-3.6-5.1-3.7s-2.4-1.7-4.3-3.6
		c-2.7-2.7-4.2-3.3-6.3-2.8c-1.5,0.3-6.4-0.5-11-1.9c-7.1-2.2-8.5-3-9.7-5.6c-0.9-1.9-2.7-3.7-4.8-4.6c-1.8-0.9-3.7-2.3-4.1-3.2
		c-0.4-0.9-2.1-1.8-3.7-2c-2-0.3-3.3-1.2-4.2-3c-0.7-1.4-1.8-2.6-2.4-2.5c-0.6,0.1-2.6-2.5-4.3-5.7c-4-7.4-6.1-9.1-9.6-7.4
		c-2.7,1.3-6.5-0.3-6.2-2.7c0.1-0.7-0.5-1.5-1.3-1.9c-0.8-0.4-2.7-2.7-4.3-5.1c-1.6-2.4-5.8-7.1-9.4-10.3c-3.6-3.2-6.9-6.5-7.3-7.3
		c-0.4-0.8-3.4-3.5-6.6-5.9s-7.2-5.5-8.8-6.9c-1.6-1.4-4.2-3.4-5.6-4.6c-1.5-1.2-3.1-3.4-3.6-4.9c-0.9-2.7-2.3-3.2-10.5-4
		c-1.7-0.2-2.1-0.6-1.7-2c0.3-1-0.4-3.3-1.6-5.2c-1.1-1.9-2.3-3.9-2.6-4.5c-0.3-0.6-1.1-0.8-1.8-0.5c-1.9,0.9-4.3-3.1-7.7-12.9
		c-3.6-10.4-3.7-14.8-0.7-23.3c2.1-5.8,2.1-6.3-0.4-11.4c-3.5-7.3-2.7-8.9,7.1-14.6c4.2-2.5,8.6-5.5,9.7-6.7
		c2.1-2.3,13.5-10.4,23.9-17c3.1-2,7.2-5.4,9-7.5c1.8-2.1,4.8-4.6,6.7-5.4s5.4-3.4,8-5.6c2.6-2.2,6.2-5.1,8-6.4s4.4-3.7,5.8-5.3
		c1.5-1.7,4.9-4,8.4-5.6c3.3-1.5,6.6-3.6,7.4-4.7c0.8-1.1,5-3.6,9.2-5.6c5.8-2.7,8.7-4.7,11.6-7.8c2.8-3,6.6-5.6,14-9.5
		c5.6-3,10.5-6,10.9-6.8c0.4-0.8,7.8-4.9,16.8-9.3c8.8-4.3,16.4-8.3,16.7-8.9c1-1.5,32.1-16.7,36-17.6c2.2-0.5,4.2-1.7,5.9-3.6
		c1.5-1.7,3-2.6,3.5-2.3c0.5,0.3,4.4-1,8.6-3c14.8-6.9,16.9-7.7,24.9-9.3c4.4-0.9,8.3-2.1,8.6-2.5c0.9-1.4,27.6-13,41.9-18.3
		c3.4-1.2,11.9-4.9,18.9-8.1c12.5-5.7,12.9-5.9,17.7-5.1c4.6,0.8,5.2,0.6,8.8-2.1c4.1-3.1,12.8-6.7,16.4-6.9c1.2,0,5.5-1.4,9.6-2.9
		c4.1-1.6,8.5-2.7,9.9-2.5c1.3,0.2,5.3-0.4,8.9-1.2c3.5-0.9,8.5-1.6,11.1-1.7c2.6-0.1,6.6-1,8.9-2.2c2.4-1.1,5.9-2.8,7.9-3.7
		c2-0.9,5.5-2.9,7.8-4.4c3.4-2.2,4.5-2.5,6-1.7c1.5,0.8,3.3,0.4,8.9-2.4c7.7-3.7,9.1-3.9,10.8-1.5c1.1,1.5,2.6,1.5,10.7-0.4
		c1.4-0.3,4-0.6,5.8-0.7c1.9-0.1,9-2.5,16.4-5.7c9.2-3.9,14.2-5.6,16.7-5.5c2.9,0.1,4.3-0.5,8.3-3.4c3.6-2.6,5.4-3.4,7.4-3.3
		c1.4,0.1,4.8-0.5,7.4-1.3c11-3.2,12.7-3.4,13.8-2c0.7,0.9,0.3,2.1-0.9,3.5c-1.7,1.7-1.7,2.2-0.2,2.9c2.2,1,3.3,0.5,5.7-2.7
		c3.5-4.6,10-6.2,6.8-1.7c-1,1.4-0.6,1.6,2.9,1.5c5.2-0.2,8.5-1.8,8.6-4.2c0.1-1.7,0.5-1.8,3.8-1.2c4.7,0.8,5.4,0.5,5.3-3.1
		c0-2.6-0.3-3-2.2-3.4c-1.2-0.2-2.8,0.1-3.5,0.8c-0.9,0.8-1.8,0.7-2.8-0.3c-0.8-0.9-2.9-1.8-4.8-2.1c-3.2-0.6-4.7-0.1-17.2,5.8
		c-1.9,0.9-4.4,1.1-6.6,0.5c-2-0.5-5.2-0.5-7.3,0c-3.5,0.9-19.2,0.7-22-0.2c-0.7-0.2-2-0.1-2.9,0.3c-0.9,0.4-4.3,0.5-7.5,0.1
		c-4.2-0.5-6.4-0.2-7.9,1c-2,1.6-7.8,2-10.7,0.7c-0.8-0.4-3.3-0.3-5.7,0.1c-2.4,0.4-9.6,0.8-16.1,1c-7.1,0.2-14,1-17.2,2.1
		c-3,1-6.8,1.7-8.6,1.7c-1.8-0.1-4.4,0.4-5.8,1.1c-1.4,0.7-5.3,1.3-8.7,1.5c-3.4,0.1-8.7,0.6-11.8,1c-3.2,0.4-6.8,0.6-8.1,0.4
		s-4.1,0.2-6.2,0.8c-2.1,0.6-6.7,1.4-10,1.8s-6.2,1-6.4,1.4c-0.5,1.3-4.6,0.6-6.4-1.2c-1.6-1.5-2.4-1.4-7.6,1
		c-3.4,1.6-7.2,2.7-9.1,2.6c-4.9-0.2-13.8,0.3-16,0.9c-1.5,0.4-2.2-0.1-3-2.3c-1-2.6-1.6-2.8-7.6-2.8c-3.7,0-7.1-0.6-7.9-1.4
		c-1.6-1.7-5.5-2.1-6.9-0.7c-1.2,1.3-9.9,1.4-10.5,0.2c-0.3-0.5-0.3-2.3-0.1-3.8c0.2-1.6-0.1-3.2-0.7-3.6s-1.9-2.3-2.8-4.3
		c-1.2-2.6-2.3-3.7-3.9-3.9c-3.2-0.4-4.9-4.5-3.8-9.4c0.5-2.2,0.6-4.5,0.4-5c-0.6-1.3,2.6-10.7,4.5-13.3c0.8-1,3.4-2.8,5.9-4
		c3.2-1.5,4.6-2.8,5.2-4.5c0.8-2.5,3.6-5.1,9-8.2c1.7-1,5.8-3.6,9.2-5.9c5.4-3.6,7.1-4.3,13.4-5.4c4-0.7,7.7-1,8.2-0.7
		c1.6,1,15.2-1.2,32.4-5.3c5.5-1.3,11.9-2.3,14.4-2.3c2.4,0,7.9-0.6,12.1-1.3c9-1.6,22.6-3.2,25.4-3.1c4.4,0.2,19.5-1.5,21.6-2.5
		c2.1-1,10.4-2.6,16.7-3.2c1.7-0.2,4.8,0,7.1,0.3c2.2,0.3,7.1-0.1,10.8-1c3.7-0.9,8.9-1.4,11.4-1.1c2.5,0.3,5.8,0.4,7.2,0.2
		c1.4-0.2,3.7-0.3,5-0.1c2.8,0.3,16.1-0.4,17.3-0.9c0.4-0.2,2.1,0.3,3.8,1.1c2.8,1.4,3.1,1.3,6.2-1.4c3.6-3.2,9.7-4.6,11.7-2.7
		c0.7,0.7,2.4,0.5,4.3-0.4c1.8-0.8,4.1-1.5,5.2-1.4c1.1,0.1,3.6-0.4,5.5-0.9c2-0.6,5-0.5,6.7,0.2c1.9,0.8,4.2,0.7,5.8,0
		c1.8-0.8,3.7-0.8,5.7,0.2c2.4,1.2,4.1,1.1,8.8-0.5c8-2.7,13-1.4,8.6,2.3c-2.7,2.2-0.9,4.6,2.5,3.5c1.8-0.6,2.7-1.6,2.8-3.2
		c0.2-1.8,0.9-2.5,3.3-3.1c3.9-1,5-0.2,4.9,3.4c-0.2,4.2,0.2,4.5,3.2,3c1.5-0.7,2.5-1.7,2.3-2.2s0.3-2,1.1-3.3
		c1.4-2.3,1.8-2.4,5.4-2c2.1,0.2,5.2-0.2,6.7-0.9c3.8-1.8,15.5-3.1,18.3-2c2.1,0.8,7.3,1,8.7,0.3c2.1-1,7.6,1.1,8,3
		c0.2,0.8,1,1.1,1.7,0.8c2.7-1.1,9.3-2.5,11.3-2.5c1.1,0,2.2,0.7,2.6,1.4c0.8,1.7,3.4,0.4,4.9-2.4c1.5-2.8,1.2-2.8,8.6-1.8
		c3.5,0.5,7.1,0.5,7.9,0.1c2.4-1.1,8.3,0.6,7.7,2.2c-0.3,0.9-1,1.2-2.1,1c-0.9-0.2-3.7,0.2-6.2,1c-2.5,0.8-5,0.9-5.6,0.3
		c-0.6-0.6-2.1-0.5-3.4,0.1c-2.1,1-2.1,1.2-0.3,2.6c2.9,2.2,5.6,2.5,8.5,1.2c1.4-0.6,4.8-1.2,7.6-1.2l5.1,0l2.5-3.6
		c2.9-4.2,7-6.4,9.6-5.2c2.7,1.3,9.1,1.2,15.3-0.1c5.7-1.3,9.6-0.8,10.6,1.3c0.3,0.7-0.3,1.6-1.3,2.1c-1.6,0.7-1.6,1.1,0,2.2
		c1,0.7,2.7,0.9,3.7,0.5c1-0.5,2.7-0.5,3.6,0c1.3,0.7,2.1,0.5,3.6-1.1c1.4-1.5,2.6-1.9,4.4-1.6c1.9,0.3,2.4,0.1,2.3-0.9
		c-0.1-1,0.5-1.3,2.5-1.3l2.7,0l-1.8,2c-1.5,1.6-1.5,2-0.1,1.9c0.9-0.1,2-0.4,2.4-0.7c0.4-0.3,2.1-0.4,3.8-0.2
		c1.7,0.3,5.9-0.3,9.3-1.3c7.6-2.2,8.1-2.1,8.7,1c0.4,2.1,0.7,2.3,2,1.1c2-1.8,10.7-3.5,11.2-2.2c0.3,0.6,0.2,2.1,0,3.4
		c-0.6,3-0.2,4,1.5,3.2c1.6-0.7,4.8,2.4,3.6,3.6c-1,0.9,1,3.1,2.3,2.5c0.5-0.2,1.7-3,2.6-6.2l1.7-5.8l6.1-2.9
		c6.7-3.2,11.9-3,13.5,0.3c0.7,1.5,1.1,1.4,3.1-0.5c1.8-1.8,2.9-2.2,5.5-1.8c1.9,0.3,2.8,0.8,2.3,1.3c-0.5,0.5-0.7,1.4-0.4,2.1
		s-0.2,1.5-1.1,1.8c-1,0.4-1.4,1.4-1,2.7c0.8,2.6,4.5,2,9-1.5c2-1.6,4.6-2.8,6.8-3.2c2.4-0.4,4-1.2,4.9-2.4c1.6-2.1,6-2.4,5.8-0.4
		c-0.1,0.8,1.1,0.4,3.6-1.3c3.2-2.2,4.1-2.3,7-1.3c1.8,0.7,5.5,1.1,8.1,0.9c5.5-0.4,7.1,0.3,6.5,2.6c-0.2,0.9,0.1,3.1,0.8,4.8
		c1,2.6,1.4,3,2.5,1.9c0.7-0.7,1.3-1.8,1.4-2.4c0.1-0.7,1.4-1.3,3.5-1.5c2.7-0.3,3.6-0.8,4.8-2.8c1.4-2.2,1.9-2.4,5.9-2.5
		c4.2-0.1,4.4,0,3.7,2.3c-1.5,5,0.8,6.9,4,3.2c2.3-2.7,4-2,5,2l0.7,2.6l2.1-4.1c1.8-3.4,2.4-4,4.1-3.6c1.1,0.3,2.1,1.4,2.3,2.4
		c0.4,2.4,5.6,4.8,7.9,3.7c2.1-1,1.7-1.8-1.7-3.1l-2.8-1.1l5.1-1c6.5-1.2,7.3-1.1,8.3,1.1c0.7,1.4,0.4,1.9-1.2,2.1
		c-3.4,0.5-1.5,2,2.5,2c2.1,0,4.2-0.2,4.8-0.5c0.5-0.3,1.2-0.1,1.4,0.3c0.2,0.4,1.5,0.6,3,0.3c1.4-0.3,2.5,0,2.4,0.6
		c-0.1,0.6-0.6,1.1-1.1,1c-0.5-0.1-1.2,0.8-1.5,1.9c-0.4,1.5-0.1,2.2,1.4,3.2c1,0.7,2.4,2.2,2.9,3.4c1.2,2.6,3.9,2.6,5.6,0
		c1.6-2.4,1.3-3.1-2.1-4.3c-1.5-0.5-2.7-1.4-2.6-1.9c0.1-0.7,9.4-3.9,15.5-5.3c1-0.2,1.2,2.8,0.4,4.8c-0.6,1.4-0.6,2.7-0.2,3
		c0.5,0.3,0.4,0.8-0.1,1c-0.5,0.2-0.8,0.9-0.5,1.4c0.2,0.5,1.9,0.2,3.6-0.6c2.6-1.2,3.1-2,3-4.2c-0.1-1.8,0.5-3,1.9-3.6l2.1-0.9
		l-1.6,1.8c-1.8,2-1.5,4,0.5,3c0.7-0.3,2.4,0,3.7,0.7c2.4,1.3,2.4,1.3,2.9-1.1c0.3-1.5-0.1-3.2-1.1-4.4c-1.4-1.8-1.4-1.9,0.6-1.5
		c1.2,0.3,3.5,0.8,4.9,1.2c3.7,1,10.8-2.7,9.5-5c-1-1.8,0.8-2.9,3.1-1.8c1.3,0.6,1.4,1.6,0.4,4.9c-1.1,3.5-1.7,4.3-4.3,4.8
		c-3.2,0.7-4,2.2-2,3.5c1,0.7,1.8,0.2,4-2.2c3.8-4.2,4.4-4.3,5.2-0.9c0.4,1.6,0.9,2.9,1.1,2.8c1-0.5,4.7-5.8,5.1-7.4
		c0.7-2.7,2.2-3.1,6.5-1.4c2.1,0.8,4,1.3,4.3,1.1c0.3-0.2,1.4-0.4,2.6-0.4c1.5,0,2.2-0.7,2.5-2.3c0.4-2,0.9-2.3,3.9-2.6
		c1.9-0.2,4.5-0.8,5.8-1.4c2.4-1.1,7.1,0.1,6.5,1.7c-0.2,0.5-1,1.2-1.9,1.6c-1.5,0.7-2,4-0.6,4.5c0.4,0.1,2.8-0.7,5.4-1.9
		c2.9-1.3,5.1-1.8,5.6-1.2c0.8,0.9-0.1,1.9-2.2,2.5c-1.6,0.5-3.4,3.8-2.8,5.2c0.8,1.7,4.1-0.6,8-5.6c3.1-4,9-7.1,12.4-6.4
		c2.3,0.4,2.3,0.5,0.4,2.8c-1.1,1.3-1.8,2.6-1.6,3s0.4,1.5,0.5,2.5c0.1,1.6,0.3,1.5,1.5-0.1c0.8-1,2.6-2.5,4.1-3.2s3.5-2.2,4.5-3.4
		c1.5-1.8,2.3-1.9,6-1c3.4,0.9,3.8,1.2,1.9,1.5c-1.3,0.2-3.4,0.5-4.6,0.7c-2.1,0.3-2.1,0.5-0.4,1.3c1.1,0.5,2.4,0.7,3,0.4
		s2.6,0,4.5,0.6c4.5,1.4,7.3,0.1,7-3.3c-0.2-2.4,0.3-2.9,4.4-4.8c5-2.4,7.3-2.5,13-0.9c3.7,1.1,5.7,3.1,3.9,3.9
		c-0.6,0.3-0.3,0.9,0.9,1.8c1,0.7,2.6,1,3.7,0.5c1-0.5,1.5-1.1,1-1.4c-1.4-0.9-0.5-3.7,1.3-3.8c2.3-0.2,3.4,2.4,1.5,3.4
		c-1,0.5-1.1,0.9-0.2,1.2c0.7,0.3,4.6-0.8,8.6-2.4c4-1.6,8.3-2.8,9.7-2.8c3.1,0.1,13,3.8,13.6,5c0.7,1.5,4.4-0.2,5-2.3
		c0.9-3.4,5.4-4.7,10.5-2.9c3.1,1.1,5.4,1.2,7,0.4c1.3-0.7,4-1.2,6-1.1c3.4,0.1,3.6,0.3,5.4,5c1.2,3.3,2.3,4.9,3.3,5.1
		c2.4,0.3,2.9-0.3,1.9-2.5c-0.8-1.7-0.5-2.3,1.8-3.3c1.9-0.9,2.8-0.9,2.8,0.1c0.1,0.8,0.5,2.4,1.1,3.5c0.6,1.3,0.4,2.6-0.6,3.4
		c-0.9,0.8-1.2,2.1-0.7,3.2c0.8,1.7,1.4,1.6,5.5-0.3c4.3-2,4.5-2.3,3.1-3.8c-2.1-2.2-0.8-3.9,5.2-6.7c10-4.7,21.7-5.1,22.6-0.7
		c0.2,1.3,0.7,1.5,1.4,0.8c0.6-0.6,1.9-1.1,2.9-1.2c1.8-0.1,1.8,0,0.8,1.9c-1.3,2.4,0.2,3.8,2.8,2.5c2.4-1.1,9.5-0.9,12.7,0.5
		c1.4,0.6,3.6,0.6,4.8,0.1c1.8-0.9,2.2-0.6,2.6,1.5c0.6,3.2,5.6,4.8,8.2,2.8c1.4-1.1,1.8-1,2.1,0.6c0.5,2.6,2.8,2.7,3.9,0.2
		c0.5-1.1,1.7-2.8,2.7-3.7c1.7-1.5,1.8-1.5,2.8,2.1c0.6,2.1,1.2,4.4,1.3,5.3c0.2,0.8,0.9,1.9,1.7,2.4c1.1,0.7,1.8-0.2,3.2-4.5
		c1.8-5.6,3.4-7.4,4.5-5.1c0.4,0.7,0.2,1.6-0.3,1.8c-0.5,0.2-0.5,0.7,0,1.1c0.5,0.4,2,0.2,3.2-0.4c1.2-0.6,5.3-1.5,9.1-1.9
		c6.2-0.8,6.9-0.7,7.4,1.5c0.3,1.3,1.4,2.5,2.3,2.8c2.3,0.6,2,2.3-0.6,3.5c-2.4,1.1-2.8,5.6-0.6,7c1.1,0.7,1.8,0.4,3.9-1.7
		c1.4-1.4,3.2-2.9,4.1-3.3c1.3-0.6,1.2-1.3-0.8-4.3c-3-4.5-2.8-7.3,0.4-6.9c1.5,0.2,3.1-0.4,4.7-1.9c2-1.7,2.7-1.9,4.1-0.9
		c1.2,0.9,2.6,0.8,4.8-0.3c1.9-0.9,4.1-1.3,5.7-0.8c3.8,1.2,4.3,3,1.1,4.5c-3.2,1.5-3.5,2.8-1.3,5.4c1.3,1.6,2.1,1.7,4.4,0.5
		c1.7-0.9,2.9-2.4,3.1-3.8l0.3-2.4l0.4,2c0.3,1.4,1.4,2.2,3.5,2.6c3.3,0.6,3,0.9,6.9-6.4c0.6-1,2.3-0.8,6.2,0.8l5.5,2.2l-2.9,0.7
		c-2.4,0.6-2.8,1-2.1,2.4c1.2,2.5,7.7,4.8,8.3,3c0.3-0.8,1.8-1.7,3.3-2.1c2.2-0.5,2.7-1,2.1-2.2c-0.4-0.8-1.1-1.3-1.6-1
		c-1.2,0.5-2.3-1.9-1.5-3.1c0.3-0.5,1.8,0,3.3,1.1c1.6,1.2,3.4,1.7,4.5,1.2c1.2-0.6,1.8-0.3,1.9,0.8c0.1,0.9-0.7,2-1.7,2.4
		c-2,0.9-3.4,4.1-2.6,5.7c0.3,0.7,1.2,0.5,2.5-0.6c1.1-0.9,3.1-1.5,4.5-1.4c2,0.2,2.5,0,2.4-1.1c-0.3-3,4.1-3.3,9.8-0.8
		c3.1,1.4,6,3.1,6.3,3.7c0.4,0.9,1.8,0.5,5.2-1.3c4.4-2.4,4.6-2.6,3.3-4.8c-2.1-3.5-0.6-5.4,4-4.9c2.9,0.3,3.7,0.8,3.1,1.7
		c-1,1.6-0.3,9,1,9.8c0.5,0.3,2.3-0.4,4.1-1.6c1.8-1.2,3.6-1.9,4.2-1.5c0.5,0.4,2.6-0.1,4.5-1c3.2-1.5,7.2-1.2,8,0.5
		c0.2,0.4,1.4,0.7,2.8,0.7c1.4,0,6.4,1.2,11.2,2.6c4.8,1.4,9.3,2.3,10,2c0.7-0.3,1.7-1.9,2.3-3.6l1-3l0.4,2.5
		c0.3,2.1,1.4,2.8,6.6,4.4c6.4,1.9,6.9,1.9,12.3-1c1.8-0.9,5.4-2,8.1-2.3c2.7-0.3,7.4-1.8,10.6-3.3c4.7-2.2,6.6-2.6,10.6-2
		c2.7,0.4,5,1,5.2,1.4c0.2,0.4-0.5,1.8-1.6,3c-1.1,1.2-2.1,2.4-2.2,2.7c-0.1,0.2,1.3,0.9,3.2,1.5c2.9,0.9,3.8,0.8,5.4-0.9
		c1.2-1.3,2.4-1.9,3.2-1.6c1.8,0.7,1.3,2.8-0.9,3.9c-1.8,0.9-1.7,0.9,1.3,1.9c3.1,0.9,5.8,1.5,9.5,1.9c1.5,0.2,1.6,0.5,1,2.6
		c-0.4,1.3-0.4,3.1,0,4s0.4,1.7-0.1,1.9c-0.4,0.2-0.6,1.3-0.4,2.4c0.4,2.4,2.7,2.1,5.7-0.8c1.7-1.6,1.8-2.3,0.6-3.8
		c-2.1-2.6-0.6-4.3,2.5-2.8c2.3,1.1,2.6,1.1,3.3-0.9c0.4-1.2,1.2-2.4,1.7-2.6c2-0.9,15.4-0.3,18.3,0.8c3.5,1.4,5.5,0.8,6.2-1.8
		c0.2-0.9,1.6-2.6,3.1-3.7c2.5-1.8,2.7-1.8,2,0.1c-1,2.7-0.5,3.6,2.5,4.6c1.3,0.5,3,1.4,3.6,2c1.5,1.5,11.2-1.6,11.4-3.6
		c0.1-1,0.8-1.4,3-1.4c3.2,0,4.6,1.6,2,2.4c-1.1,0.3-1.5,1.2-1,2.7c0.4,1.2,0.3,2.3-0.2,2.6c-1.5,0.7,0.7,3.7,3.3,4.5
		c1.4,0.4,2.8,1.3,3.2,2c0.9,1.9,2.4,0.6,3.7-3.4c0.9-2.6,2.1-4.2,4.4-5.3c1.7-0.9,2.5-1,1.8-0.4c-0.8,0.6-1,1.9-0.6,2.8
		c0.4,0.9,0,2.3-1,3.1c-1.4,1.2-1.4,1.6-0.1,2.1c0.9,0.3,2,1.3,2.4,2.1c0.9,1.9,2.9,1.8,5.6-0.2c1.2-0.8,3.3-1.5,4.8-1.3
		c1.5,0.1,4.2-0.4,5.9-1.1c1.8-0.7,4.7-1.7,6.6-2.1c2.9-0.7,3.4-0.5,3.8,1.7c0.3,1.7,1.3,2.8,2.8,3.5c3,1.3,4.1,0.7,3-1.6
		c-0.5-1-0.4-2,0.1-2.2c0.5-0.2,1.4,0.6,1.9,1.8c0.6,1.2,1.6,2.1,2.3,2c2.2-0.3,0.7,3.7-1.6,4.1c-1,0.2-1.9,0.9-2,1.5
		c-0.2,1.7,5.7,1.1,7.9-0.7c1.1-0.9,3.7-1.7,5.9-1.8c2.2-0.1,5.8-1,7.9-2c3.1-1.4,4.7-1.5,7.8-0.4c2.1,0.8,4.4,1.2,5.1,0.9
		c0.7-0.3,2.4,0.2,3.9,1.2s3.6,2,4.6,2.2c2.5,0.6,8.5-2.3,10.3-5c2.1-3.4,9.5-4.4,15.9-2.2c5,1.7,5.1,1.8,4,3.9
		c-0.8,1.5-0.7,3.2,0.4,5.5c1.9,4,3.2,4.4,5.6,1.9c2.8-2.9,4.2-3.2,4.6-1.1c0.4,2.1,1.4,2.1,8.3,0.1c3.8-1.1,4-1.4,3.2-3.2
		c-0.7-1.5-0.4-2.1,1.3-2.6c1.6-0.5,2.4-0.1,2.9,1.4c0.6,1.8,1.3,1.9,4.2,0.8c2.8-1.1,3.8-0.9,5.2,0.9c1.1,1.3,1.5,2.4,1,2.9
		c-1.6,1.5,2.6,4.3,6.1,4.1c2-0.1,4.5,0.4,5.5,1.2c1,0.7,2.2,1.2,2.8,0.9c1.5-0.7,2.3-3.9,1.2-4.5c-1-0.6-7.2-0.7-10.6-0.3
		c-1,0.1-2-0.2-2.3-0.7c-0.8-1.7,2.8-2.5,7-1.7c2.3,0.4,5.2,0.8,6.6,0.7c2.5-0.1,4.1,1.4,2.4,2.2c-2.3,1.1,1.5,4.6,7,6.6
		c3.3,1.2,6.2,2.6,6.4,3.1c0.3,0.5,1.8,1.1,3.3,1.1c2.3,0.1,3.4-0.4,5.3-2.3c4.8-4.8,8.1-4.7,6.1,0.2c-0.8,2-0.7,3,0.3,3.3
		c0.8,0.3,2.1,2.6,3.1,5.3c1.7,4.7,1.8,4.7,3.2,2.8c0.8-1.1,1.4-2.7,1.4-3.5c-0.1-0.8,0.5-1.8,1.1-2.1c1.5-0.7,2.4,0.6,1.4,2.1
		c-1.4,2.2,1.4,2.1,6.2-0.2c6-2.8,6.9-2.8,16.5,0.3c7.2,2.3,7.6,2.3,9.9,0.1c1.3-1.3,2.7-2.8,3.1-3.4c0.4-0.6,1.9-0.9,3.5-0.6
		l2.8,0.5l-2.5,3.2c-3.2,4.2-2.5,5.4,1.9,3.3c2.8-1.3,3.4-2.1,3-3.5c-0.9-3.4,8.7-3.5,21.3-0.4c12.2,3,14.8,4.2,12.2,5.4
		c-0.9,0.4-1.8,1.8-1.9,3.1c-0.2,2,0,2.3,1.3,2.2c2.2-0.2,2.8,1.5,1.5,4.4c-1.5,3.3-0.4,5.1,3.4,5.2c2.4,0.1,3.3-0.3,3.8-1.4
		c0.4-1.2,0.7-1.1,1.3,0c0.4,0.9,2,1.5,3.5,1.3c4.2-0.3,4.8-0.9,3-3.1c-1.9-2.3-1.8-2.3,2.1-2.6c2.5-0.2,3-0.6,3.5-2.7
		c0.4-1.8,1.3-2.6,3.4-3.2c1.9-0.5,2.5-0.3,2,0.6c-1.3,2,2.5,3.2,5.3,1.6c2.5-1.4,8.3-1.2,9,0.4c0.2,0.5,0.8,0.7,1.4,0.4
		c0.5-0.2,3.8,0.1,7.3,0.8c3.5,0.7,7.4,1.1,8.6,1c2.2-0.3,10.5,2.7,11.1,4.1c0.7,1.5-5.4,2.4-8.4,1.2c-1.7-0.7-3.8-0.9-4.7-0.4
		c-0.9,0.4-3.7,0-6.3-0.9c-2.6-0.9-5-1.5-5.5-1.3c-0.5,0.2-1.4-0.3-2.2-1.3c-1.9-2.2-5.6,0.1-4.7,3c0.6,2,6.3,3.9,10.6,3.5
		c1-0.1,2.1,0.4,2.5,1.2c0.9,1.9,4.7,1.9,7,0c2.2-1.8,5.5-0.7,5.7,1.9c0.1,1.1,1.2,2,3.2,2.4c1.7,0.4,3.4,1.2,3.7,1.9
		c0.3,0.6,2.4,0.9,4.7,0.5c2.3-0.3,4.9,0,5.9,0.7c1,0.7,2.5,1,3.4,0.5c0.9-0.4,3.5,0.3,5.8,1.6c4.5,2.6,6.4,2.8,7.6,0.9
		c0.4-0.7,2.3-1.4,4.1-1.7c1.8-0.2,3.9-0.5,4.6-0.7c0.9-0.2,1.6,0.6,2,2.6c0.8,3.5,2.3,3.8,5,1.1c2.4-2.5,3.6-2.3,3.3,0.6
		c-0.3,3,0.6,3.1,5.7,0.7c4.8-2.3,5.2-5,0.6-4.1c-1.7,0.3-2.7,0-3-1.2c-0.3-1.3,0.5-2.1,3.2-3.3c2.8-1.2,4.4-1.2,7.2,0
		c2,0.9,4.7,1.7,6.1,1.7c3.4,0.1,4.3,2.3,1.8,4.4c-1.1,0.9-1.7,2.3-1.3,3.2c0.4,0.8,0.5,2.2,0.2,3c-0.7,1.9,1.2,3.1,3.3,2.1
		c0.9-0.4,3.3-0.4,5.2,0.1c1.9,0.5,5.1,0.8,7.1,0.7c1.9-0.1,4.3,0.2,5.3,0.7c1.8,0.9,7.1,1.2,8.8,0.4c0.5-0.2,0.6-1,0.3-1.7
		c-0.7-1.5,1.7-3.7,4.6-4.3c2.4-0.4,3.7,1.7,2.1,3.3c-1.4,1.5,0.3,5.1,2.6,5.7c1.4,0.4,2.3-0.1,3.9-2.2c2.7-3.5,3.1-3.7,2.8-0.8
		c-0.2,2.1,0.1,2.5,2.2,3c1.7,0.4,2.2,0.8,1.5,1.5c-1.6,1.6-0.3,2.6,3.7,3c4.2,0.5,7.8-0.8,7.6-2.7c-0.2-2.1,2.1-1.1,5.2,2.1
		c1.8,1.9,3.5,2.8,4.4,2.4c0.8-0.4,2.6-0.9,4-1.2c2.4-0.5,2.4-0.5,0.2-1c-2.5-0.6-2.9-2.8-0.7-3.8c1.7-0.8,8.1,0.3,11.6,1.9
		c1.4,0.7,4.6,1.4,7.1,1.5c4.5,0.3,6.2,1.6,4.9,3.6c-0.4,0.6-3.2,0.7-6.3,0.3c-7.6-1-12.8,1.5-9.5,4.6c0.7,0.7,2.1,0.4,4.2-0.9
		c2.9-1.8,3.1-1.8,2.6,0.2c-0.5,1.9-0.3,2.2,1.8,2.6c1.3,0.2,3.4-0.1,4.8-0.7c1.4-0.6,3.1-0.8,3.8-0.3c0.7,0.5,3,1.1,5.2,1.5
		c2.1,0.4,4.2,1.2,4.5,1.8c0.7,1.5,4.9,2.8,6.6,2c0.7-0.3,2.7,0.3,4.4,1.5c3.5,2.4,5.4,2.9,10.3,3.1c1.9,0.1,5,0.5,7.1,1.1
		c3.1,0.8,3.6,1.2,3.2,2.9c-0.8,3.2,1.4,4.5,4.3,2.3c1.5-1.1,2.7-1.5,2.9-0.9c0.8,1.7,3.7,0.7,6.1-2.3c1.3-1.6,2.3-3.3,2.1-3.7
		c-0.4-0.8-0.6-0.8-4.1,0.5c-2.5,0.9-4.9-0.2-5.1-2.3c-0.1-0.7-0.9-1.4-1.9-1.4c-1.4-0.1-1.6-0.4-1-1.3c0.4-0.7,1.2-1,1.8-0.7
		c0.5,0.3,3.9,0.9,7.4,1.3c7.9,0.9,14.4,2.3,14.8,3.2c0.2,0.4-0.8,1.2-2.2,1.9c-3.4,1.6-3.5,2.3-0.9,5c1.8,1.8,2.6,2,3.9,0.9
		c0.9-0.8,2.6-1.1,3.9-0.7c2.4,0.7,3.9-0.7,3-2.7c-0.3-0.7-0.2-1.5,0.3-1.7c1.6-0.7,8.1,0.9,8.7,2.2c0.5,1,0.2,1.4-1.7,2.2
		c-1.7,0.7-2.4,5.7-1,7.9c1.4,2.2,1.9,2.3,5.7,0.8c2.3-0.9,3.8-1.8,3.2-2c-0.5-0.2-0.7-1.4-0.3-2.7c0.5-1.8,1.2-2.3,2.9-2.2
		c1.6,0.1,2.4-0.4,3-1.5c0.6-1.3,1.8-1.3,5.7,0c2.7,0.9,6.1,1.9,7.4,2.1c2.4,0.5,2.4,0.5,1.4,2.6c-0.6,1.2-1.5,2.5-1.9,3
		c-0.6,0.6-0.3,1.2,0.9,2c3,2,5.5,1.9,7-0.4c1.1-1.7,2.2-2.1,6.1-2.6c5-0.6,16.9,2.1,17.8,4c0.7,1.5-1.2,2.3-4.1,1.6
		c-1.3-0.3-3.7,0.1-5.4,0.9c-2.5,1.2-3.1,1.1-3.7-0.7c-0.6-1.6-1.4-1.9-4-1.3c-1.8,0.4-3.2,0.9-3.1,1.1c0.6,1.4,5.7,4.3,6.6,3.9
		c0.6-0.3,2,0,3.1,0.7c1.3,0.8,3,0.8,4.7,0c2-1,2.9-0.9,3.5,0.4c0.5,1,2.2,1.7,4.5,1.7c2,0,4.5,0.4,5.5,0.9c1.3,0.6,2.6,0.3,4.5-1.1
		c4-2.9,6.2-2.8,13.4,0.4c7,3.2,7.4,4.8,0.5,2.4c-3-1-4.7-1-5.9,0c-0.9,0.8-2,1.6-2.4,1.8c-0.4,0.2-0.3,1.1,0.2,2.1
		c0.9,1.9,3.4,1.5,3.6-0.7c0.2-1.5,4.8-0.3,5.6,1.5c1.1,2.3,9.4,4.7,12,3.5c2.1-1,2.2-1.3,0.7-2.5c-1-0.7-2.1-2-2.5-2.8
		c-1-2.2,3.2-2.5,7.3-0.5c1.9,0.9,5.3,1.5,7.6,1.4c3.8-0.2,13.5,3.4,13,4.8c-0.1,0.3-2.2,0.5-4.6,0.5c-4.8-0.1-7.9,0.9-7.1,2.4
		c0.3,0.5,2.7,2,5.4,3.2c2.7,1.2,5.2,2.8,5.6,3.6c1,2,4.3,3.6,6,2.8c0.8-0.4,1.6-1.5,1.9-2.5c0.4-1.4,2-2.5,6.1-4.1
		c4.5-1.8,6.2-2,8.2-1c3.9,1.9,3.7,2.5-1.2,5.2c-5.5,3-5.6,4.7-0.3,4.7c4.9,0,7.1-1,7.8-3.4c0.8-3,2.3-3.1,7.3-0.7
		c2.5,1.2,5.1,2,5.8,1.7c0.6-0.3,2.2,0.2,3.4,1.1c2,1.5,2.2,1.9,1.2,3.8c-1,1.9-1.3,1.9-2.4,0.1c-1.5-2.3-3.2-2.9-6.8-2.3
		c-2.1,0.3-2.3,0.5-0.9,1.1c0.9,0.4,2.5,2.4,3.5,4.6c1.5,3.3,2.3,3.9,4.6,3.9c2.1,0,2.9-0.5,3.5-1.8c0.7-1.5,1.1-1.6,2.1-0.6
		c1.7,1.7,3.6,0.5,3.2-1.9c-0.3-1.4,0.4-2.4,2-3.1c1.3-0.6,2.5-0.8,2.7-0.4c0.2,0.4,1.9,0.9,3.7,1c1.9,0.2,5.7,1.3,8.6,2.4
		c8.5,3.4,20.2,7.1,23.7,7.5c4.2,0.4,7.7,4.7,6.2,7.6c-1.4,2.7-1.8,2.8-5.8,1.5c-1.9-0.6-3.9-0.9-4.3-0.7c-1.4,0.6,0,2.2,2.6,2.9
		c1.4,0.4,3,1.7,3.6,3c2.2,4.6,3.9,5.8,6.9,4.7c2.8-1,4.2-0.5,6.8,2.4c0.9,1,2.2,0.9,4.5-0.2c3.9-1.9,14.6,0.3,14,2.9
		c-0.2,0.8,0.2,2.1,0.9,2.7c1,0.9,1.9,0.8,3.6-0.5c2-1.5,2.5-1.5,4,0.3c0.9,1.1,2.7,2.1,3.8,2.2c1.2,0.1,2.4,0.6,2.7,1.2
		c0.7,1.6,6.7,1.2,8.6-0.5c1.4-1.3,1.7-1.1,2.9,2.6c0.9,2.7,2.3,4.9,4.2,6.4c3.2,2.6,3.2,2.6,5-0.1c1.6-2.5,3.9-1.4,4.8,2.5
		c0.5,2.2,1.1,2.6,3.1,2.2c1.6-0.3,3.3,0.4,5,2.1c1.4,1.4,3.9,2.8,5.5,3c2.7,0.4,2.9,0.3,2.8-1.3c-0.1-1-0.8-1.8-1.7-1.9
		c-1.3-0.1-1.4-0.7-0.8-2.8c0.9-3,2.4-3.2,3.7-0.6c0.5,1.1,2,1.7,3.8,1.7c6.9-0.3,11.2,3,5.6,4.3c-3.6,0.8-3.3,1.9,0.9,3.7
		c10,4.2,11.9,5.3,12.3,7.1c0.2,1.1,1.8,2.5,3.9,3.4c2.8,1.2,3.6,1.2,4.1-0.1c0.3-0.9,1.8-2.2,3.1-2.9c2.3-1.1,3.5-0.4,4.4,2.5
		c0.1,0.3,1.6,0.2,3.4-0.2c2.7-0.7,3.8-0.3,7.5,2.9c3.2,2.8,4.3,3.4,4.4,2.1c0.2-1.4,0.9-1.6,4.5-1c4.7,0.8,6.8,2.2,5.7,3.9
		c-1.1,1.7,2,4.5,4.7,4.3c1.3-0.1,3.2-1,4.3-2c3.3-2.9,8.2-2.3,12.8,1.8c2.2,1.9,4.2,4,4.5,4.6c0.3,0.6,1.6,1.5,2.8,2.1
		c2.2,0.9,2.2,1.1,1.2,3.1c-0.6,1.2-1.4,2.3-1.8,2.5c-1,0.5-1.6-1.2-0.8-2.3c1.2-1.8-0.2-2.7-2.5-1.6c-1.9,0.9-2.4,0.7-2.6-0.8
		c-0.4-2.8-2.5-4.5-4.6-3.5c-1,0.5-1.3,1.1-0.8,1.5c0.5,0.3,0.9,1.6,0.9,2.8c-0.1,1.8,0.4,2.3,2.4,2.7c1.4,0.2,2.5,1,2.4,1.7
		c-0.1,0.7,2.1,2.2,4.7,3.3s6.7,3.2,8.8,4.5c2.2,1.4,5,2.7,6.3,2.9c2.4,0.4,8.8,5.5,8.3,6.7c-0.5,1.4,4.4,2.6,6.5,1.6
		c1.2-0.6,3.2-1,4.4-0.9c1.5,0.1,2.6-0.4,3.5-1.7c1.1-1.5,1.8-1.5,4-0.2c2.1,1.3,2.6,2.1,2.4,3.8c-0.4,3.4,0.8,5,5.3,7
		c2.3,1,4.5,2.6,5,3.5s2.4,2,4.4,2.4c3.5,0.6,6.9,4.5,4.8,5.5c-2.2,1,0.7,3.1,5.3,3.8c6.3,1,7.7,2.3,3.8,3.6c-3.7,1.2-3,3.7,1,3.4
		c1.5-0.1,2.9,0.2,3.1,0.7c0.2,0.5,1.6,0.5,3,0c2.2-0.7,3.6-0.1,9.1,4.2c3.6,2.8,7,5.2,7.6,5.3c0.6,0.1,2.4,1.4,4,3
		c2.2,2.2,2.7,3.2,2.2,4.4c-0.7,1.9,0.6,5,1.8,4.4c0.5-0.2,0.9-1.3,1-2.3c0.1-1.7,0.3-1.7,2.1-0.4c1.1,0.8,3,3.3,4.2,5.5
		c1.7,3.1,3,4.3,5.5,5c4.5,1.2,6.8,3.1,8.7,7.3c1,2.1,2.8,4.1,4.4,4.9c3.4,1.7,8,8.5,7.9,11.6c-0.1,1.9,0.4,2.4,2.5,3
		c1.4,0.4,3,1.6,3.5,2.8c0.8,1.8,0.5,2.3-2.2,3.6c-4.1,1.9-3.4,3.2,1.9,3.4c2.3,0.1,5.7,0.7,7.6,1.5c3,1.2,3.7,2,5.5,6.7
		c1.2,2.9,3.9,7.7,6,10.6c2.9,4.1,4.9,8.2,8.3,17.6c2.5,6.7,4.6,13.2,4.6,14.4c0.1,1.2,1.6,4.4,3.5,7.1c3.6,5.3,3.8,7.7,0.8,9.1
		c-2.1,1-1.7,3.9,1.7,11.3c1.7,3.6,2.5,6.6,2.1,7.7c-0.3,1-0.1,2.9,0.6,4.3c3.3,6.9-3.4,48.4-9.2,57.1c-1.3,1.9-2.4,4.3-2.5,5.3
		c-0.1,1-1.1,3-2.2,4.5c-1.1,1.5-3.2,5-4.7,7.7c-1.4,2.8-3,5.2-3.6,5.5c-0.5,0.3-1.4,1.7-2,3.3c-1.3,3.7-9.5,16.5-11.1,17.3
		c-0.7,0.3-3,2.6-5.1,5.2c-2.1,2.5-4.1,4.7-4.4,4.8c-0.3,0.1-2.4,3.3-4.6,7.1c-2.3,3.8-5.6,7.9-7.4,9.2c-1.8,1.3-4.9,4.3-6.8,6.6
		s-5.4,5.5-7.8,6.9c-9.2,5.7-15.6,10.2-17.6,12.3c-1.1,1.2-3.9,3.5-6.2,5.2c-2.3,1.7-5.8,4.2-7.8,5.8c-6.4,4.8-42.8,24.5-47.5,25.8
		c-2.4,0.6-4.6,1.4-4.8,1.8c-0.2,0.3-3.4,2.1-7,3.9c-3.6,1.8-7.1,3.9-7.6,4.6C2991,2407.7,2972.8,2417.8,2971.9,2417.5
		L2971.9,2417.5z M2908.6,2344.5c0.1-1.6,0.3-1.7,2-0.9c2.1,1,12.3-3.3,12.5-5.2c0.2-1.5,8.4-5.3,14.3-6.6c3.6-0.8,5-1.5,5.6-2.9
		c0.6-1.3,6.4-4.5,20.3-11.3c19.6-9.6,30-16,37.2-22.9c1.9-1.8,7.2-5.6,11.8-8.4c4.8-2.9,9.4-6.4,10.9-8.3c1.4-1.8,3.2-3.3,3.9-3.4
		c1.7-0.2,7.4-6,12.7-13.2c3.5-4.7,5-6,7.7-6.7c2.8-0.7,3.5-1.4,3.9-3.5c0.2-1.4,1.5-3.8,2.9-5.3s3-4,3.6-5.5c3-7.2,7-15.2,9.9-20.1
		c2.7-4.5,3-5.8,1.9-8.2c-0.7-1.6-0.9-3.6-0.5-4.6c0.5-1,0.7-2.1,0.5-2.5c-0.2-0.4-0.1-3.4,0.3-6.5c0.3-3.2,0.1-6.9-0.6-8.3
		c-0.7-1.4-3.6-8.2-6.5-15.1c-4.3-10.2-5.9-13-8.4-15.3c-1.7-1.5-3.6-4-4.3-5.4c-0.7-1.5-2.8-3.8-4.7-5.3c-1.9-1.5-4.3-4.3-5.2-6.3
		c-2.1-4.5-6.2-8.3-24.1-22.7c-7.8-6.3-14.8-12.2-15.7-13.3c-0.9-1.1-2.4-2.1-3.3-2.4c-1.1-0.3-1.9-1.4-2.2-2.8
		c-0.4-1.9-1.1-2.4-3.3-2.3c-1.6,0-4.6-1.2-6.8-2.6c-13.5-9.3-19.2-13.5-19.9-14.9c-0.3-0.5-3.5-2-7.1-3.4
		c-3.6-1.3-8.2-3.7-10.1-5.2c-1.9-1.6-7.9-4.6-13.3-6.7c-5.4-2.1-12.1-5.3-14.9-7s-9.9-5.2-15.9-7.6c-17.5-7.2-25.7-10.8-31.9-14
		c-11-5.6-16.6-8.3-18.3-8.9c-0.9-0.3-4.1-1.4-6.9-2.3c-2.9-1-7.9-2.8-11.2-4.1c-3.3-1.3-6.4-2.2-6.8-2c-1.3,0.6-15-4.1-18.3-6.2
		c-1.6-1-10.4-4.7-19.4-8.1c-9.1-3.4-18.2-7.1-20.4-8.1c-2.1-1.1-5.3-2-7-2s-8.3-1.9-14.6-4.1c-6.3-2.2-15.6-5.1-20.6-6.3
		c-8.1-2.1-13.7-3.9-22.1-7.3c-1.4-0.6-4.4-1.3-6.6-1.7c-2.3-0.4-6.4-1.9-9.2-3.4c-2.8-1.5-8.9-3.8-13.5-5.3
		c-4.6-1.4-11.1-3.6-14.5-4.9c-3.3-1.2-7.7-2.3-9.8-2.4c-4.4-0.2-11.9-2.3-25.2-7.3c-5.2-1.9-10.1-3.2-10.8-2.9
		c-0.7,0.3-5.2-0.7-9.9-2.2c-4.7-1.6-12.1-4-16.3-5.3c-4.2-1.4-11.4-2.9-15.9-3.3c-4.5-0.4-13.3-2.3-19.7-4.2
		c-6.3-1.9-13.5-3.9-15.9-4.6c-2.4-0.6-6.7-1.8-9.5-2.6c-2.8-0.8-6.7-1.4-8.7-1.5c-4.5-0.1-17-2.6-17.4-3.5c-0.5-1.1-9.3-4.5-10.3-4
		c-0.5,0.3-4.7-0.3-9.2-1.2c-4.5-0.9-10.1-1.7-12.4-1.8c-2.3-0.1-6.9-1.1-10.3-2.3c-3.4-1.2-6.8-1.9-7.5-1.5s-2.3-0.1-3.5-1.1
		s-5.2-2-8.8-2.4c-3.6-0.4-8.1-1.3-10-1.9s-6.9-2.1-11.3-3.1c-4.4-1-8.9-2.4-10-3.1c-1.2-0.7-4-1.1-6.3-1
		c-3.3,0.2-14.4-3.6-19.2-6.6c-0.6-0.4-4.3,1.5-9.9,4.9c-4.1,2.5-5.7,3-7,2.4c-1-0.5-2.5-0.4-3.5,0c-1,0.5-4-0.1-6.7-1.3
		c-3-1.2-5.8-1.7-7-1.1c-1.1,0.5-2.5,0.5-3.2-0.2c-0.6-0.6-2.1-0.6-3.3-0.1c-1.2,0.6-3.1,0.4-4.4-0.3c-2.7-1.7-6,0.9-4.7,3.6
		c0.7,1.5,0.4,1.9-1.5,2.2c-9.2,1.4-22.3-0.2-25-3.2c-0.9-1-1.9-1.1-2.5-0.4c-1.9,2-5.2,1.2-5.7-1.3c-0.3-1.9-0.7-2-2.1-0.8
		c-1,0.9-2.9,1.2-4.7,0.7c-1.7-0.4-3.8-0.3-4.8,0.2c-1,0.5-2.3,0.2-3-0.6c-0.8-1-2.5-1.1-5.1-0.5c-2.1,0.5-6.8,0.7-10.5,0.2
		c-5.6-0.6-6.9-1.2-7.9-3.3c-1.5-3.1-2.1-3-3,0.7c-0.7,2.8-0.7,2.8-3.5,2c-1.7-0.5-3.8-0.3-5.4,0.6c-3.9,2.2-7.8,1.2-10.7-2.8
		c-1.4-1.9-2.7-4-2.9-4.7c-0.4-1.4-1.9-0.9-3.6,1.4c-1,1.3-1.6,1.3-3.3-0.1c-1.7-1.4-2.7-1.4-5.7,0c-2.7,1.3-5,1.4-8.9,0.6
		c-2.9-0.6-7.8-1.5-10.9-2c-3.1-0.5-6.4-1.7-7.4-2.7c-1.2-1.2-3.5-1.6-6.9-1.2c-8.4,0.8-11.7,0.5-17.7-1.8c-3.2-1.2-6.1-2-6.6-1.8
		c-0.4,0.2-1.7-0.5-2.7-1.5c-1.3-1.3-2.6-1.5-4.2-0.8c-2.2,1-12.7-0.3-32.1-4.1c-9.1-1.8-10-2.2-10.7-4.7c-0.4-1.7-1.1-2.6-1.7-2.3
		c-0.6,0.3-1.5-0.5-2.1-1.8c-1-2.1-1.2-2.1-2.8-0.1c-1,1.2-1.6,2.4-1.4,2.9c0.8,1.6-2.9,2.2-6.7,1c-2.2-0.7-8.8-1.2-14.8-1
		c-7.6,0.2-12.7-0.4-17.3-2c-4.7-1.6-7.2-1.9-9.1-1c-1.7,0.8-4.3,0.7-7.6-0.2c-9.8-2.9-11.1-3.1-12.7-2.4c-2.6,1.2-7.1,0.3-8.8-1.8
		c-1.6-1.9-7.2-2.3-8.9-0.6c-1.3,1.3-5.9,1.1-9.2-0.3c-1.4-0.6-3.1-0.8-3.8-0.5c-0.6,0.3-2.7,0.1-4.7-0.3c-1.9-0.5-5.3-0.9-7.5-0.9
		s-4.8-0.3-5.8-0.8s-2.2-0.6-2.8-0.4c-0.6,0.3-3.7,0-7-0.6c-3.3-0.6-6.7-0.7-7.5-0.3s-2.4,0.4-3.4,0c-11.8-4.8-14-5.3-17.1-4.3
		c-5.6,1.8-10.6,1.4-12.5-1.2c-1.7-2.3-4-2.4-8-0.6c-1.1,0.5-2.7,0.5-3.7,0.1s-2.4-0.5-3.1-0.2c-1.4,0.7-7.6-1.4-8-2.6
		c-0.7-2.4-1.6-2.5-5-0.4c-3.1,1.9-4.8,2.1-10.9,1.4c-15-1.7-21.6-2.9-22.2-4.2c-0.4-0.9-1.6-0.9-3.5-0.1c-3,1.3-5.2,1.4-15,1
		c-3.4-0.2-11.9-0.4-18.8-0.5c-7.3-0.1-13.6-0.8-15-1.7c-1.5-0.9-3.2-1.1-4.3-0.4c-1.9,1.1-6.5,0.6-14.4-1.5c-2.3-0.6-5-0.7-5.9-0.2
		c-2.6,1.2-15.9,1-20.9-0.3c-2.3-0.6-6.2-0.7-8.7-0.2c-2.5,0.5-5.4,0.5-6.4,0c-2.6-1.3-5.5-1.4-14.9-0.3c-4.6,0.5-9.1,0.7-10.1,0.5
		c-1-0.2-4.1-0.3-6.7-0.2s-7-0.1-9.6-0.5c-2.6-0.4-5.8-0.6-7.1-0.4c-1.3,0.2-3.7-0.5-5.5-1.4c-1.9-1.1-4-1.4-5.2-0.8
		c-1.1,0.5-4.7,1-8,1.1c-3.2,0-8.2,0.6-10.9,1.1s-6.2,0.8-7.6,0.4c-1.4-0.4-9-0.7-17-0.8c-8-0.1-16.6-0.6-19.1-1.2
		c-2.6-0.6-6.8-0.7-9.5-0.2c-2.6,0.5-6.3,0.9-8.2,0.8s-5.3,0.2-7.6,0.5c-2.3,0.3-6,0.1-8-0.6s-5.8-0.9-8.4-0.5
		c-8.9,1.3-14.1,1.8-16,1.3c-2.8-0.7-12.1-0.2-14.2,0.7c-1,0.5-4.2,0.2-7-0.6c-2.9-0.8-5.8-1.1-6.6-0.7c-0.8,0.4-2.8,0.5-4.4,0.2
		c-3.1-0.5-11.6,0.1-16,1.1c-1.4,0.3-3.7,0.4-5.1,0.2c-1.4-0.2-3.2-0.1-3.9,0.3c-1.3,0.6-4.6,0.7-11,0.4c-8.7-0.5-15.4-0.1-19.2,1
		c-4.9,1.5-9.6,1.5-14,0.1c-2.2-0.7-5.6-0.3-10.4,1c-4.9,1.4-9,1.7-13.2,1.2c-3.4-0.4-6.5-0.6-7.1-0.3c-0.5,0.3-6.6,0.6-13.5,0.7
		c-6.9,0.2-13.9,0.6-15.6,0.9c-1.7,0.3-4.2,0.6-5.5,0.5s-3.2,0.2-4.1,0.6c-0.9,0.4-6.6,0.6-12.7,0.5c-6.1-0.2-13.9,0.3-17.3,0.9
		c-7.6,1.5-13.3,2.2-14.2,1.7c-0.4-0.2-2.6-0.1-4.9,0.2c-2.3,0.3-5.8,0.4-7.7,0.2c-2-0.2-6.2,0.1-9.5,0.8c-3.3,0.6-7.5,0.6-9.4,0
		c-2.5-0.8-5-0.7-8.6,0.6c-2.8,1-7.4,1.7-10.2,1.6c-2.8-0.1-8.3,0.3-12.3,0.8c-4,0.5-11.6,0.9-16.8,0.7c-5.7-0.1-12.7,0.6-17.4,1.8
		c-9.8,2.4-21.6,4.2-22.8,3.4c-0.5-0.3-2.4,0.1-4.3,1c-2.1,1-6.4,1.5-10.9,1.4c-4.2-0.1-9.6,0.4-12.1,1.2s-6.6,1.2-9.2,1
		c-2.5-0.2-6.4,0-8.7,0.4c-3.6,0.8-16.8,2.4-28.2,3.5c-2.3,0.2-5.6,0.3-7.2,0.3c-1.6-0.1-3.9,0.3-5,0.8c-1.1,0.5-3.3,0.9-5,0.8
		c-1.7-0.1-3.7-0.1-4.6,0c-0.9,0.1-2.4,0.1-3.3,0c-5.5-0.4-10.3,0.1-17.3,1.9c-15.3,4-16.8,4.3-21.7,4.3c-2.7,0-6.3,0.7-8,1.5
		c-1.7,0.8-3.8,1-4.7,0.5c-0.9-0.5-6-0.1-11.3,1c-5.3,1-11.7,1.8-14.2,1.7c-2.5-0.1-7,0.6-10,1.4c-3,0.9-7,1.5-8.8,1.4
		c-1.9-0.1-5,0.6-7,1.6c-2,0.9-4,1.4-4.5,1.1c-0.5-0.3-3.3,0-6.1,0.6c-2.9,0.7-7.5,1.1-10.3,1c-2.8-0.1-8.5,0.6-12.8,1.7
		c-4.3,1-8.8,1.8-10,1.8c-1.3-0.1-4.9,0.4-8.1,1c-3.2,0.6-10.8,1.5-16.9,2c-13.3,1.1-25.7,3.3-29.9,5.3c-1.7,0.8-4.1,1.2-5.4,0.9
		c-1.3-0.3-4,0.2-5.9,1.1c-1.9,0.9-5.4,1.5-7.6,1.4c-5.3-0.2-13.8,0.9-16.5,2.2c-1.2,0.6-3.2,1-4.5,0.9c-3.2-0.2-17,2.7-20.1,4.1
		c-1.3,0.6-2.8,0.9-3.3,0.6c-0.9-0.6-7.4,1.1-11.4,3c-2.3,1.1-14.7,3.9-18.5,4.2c-7.3,0.6-17.4,2.7-22.8,4.9
		c-3.4,1.4-8.8,2.7-11.9,2.9c-7.8,0.6-14.5,2.2-19.4,4.5c-2.3,1.1-5.2,1.9-6.6,1.8c-1.4-0.1-5.5,1.2-9.2,2.8
		c-3.7,1.6-7.5,2.7-8.3,2.5c-0.9-0.2-4.9,0.6-9,1.9c-4.1,1.3-9.1,2.4-11.1,2.5c-4,0.2-22.1,5.1-22.9,6.3c-0.3,0.4-2.9,1.4-5.8,2.2
		c-2.9,0.8-8.2,2.4-11.7,3.4c-3.5,1-9.9,2.8-14.2,3.9c-4.3,1.1-12.7,3.9-18.7,6.1c-5.9,2.3-16.1,6-22.6,8.4
		c-11.5,4.2-93.1,42.3-109.6,51.2c-16.8,9.1-33.1,18.5-37.8,21.8c-2.7,1.9-8.6,5.7-13,8.3c-8.5,5-9.8,6.3-6.9,6.8
		c1.3,0.2,1,0.5-1.2,1.1c-3.7,1-21.4,12-23.2,14.3c-0.7,1-3,2.9-5.1,4.3c-2.1,1.4-4.3,3.5-5,4.6s-3.1,3.2-5.4,4.7
		c-4.1,2.7-7.5,6.8-6.6,8c0.3,0.3,0.6,1.6,0.7,2.9c0.3,2.5,2.7,4.7,6.8,6.5c1.6,0.7,4.1,3.7,7.2,8.4c3.9,6.1,5.7,7.9,9.9,10.5
		c2.9,1.7,6,4.2,7.1,5.5c1,1.3,2.7,2.6,3.7,2.9c1,0.3,2,1,2.3,1.6c0.3,0.6,1.4,1.4,2.4,1.6c1,0.3,2.2,1.2,2.6,2.1
		c1,2.2,8,7.3,9.2,6.7c0.5-0.2,3.3,0.9,6.1,2.6c2.8,1.7,6.5,3.5,8.3,4c1.7,0.6,3.4,1.6,3.7,2.3c0.3,0.7,2.9,2.4,5.7,3.9
		s5.5,3.4,5.9,4.2c0.4,0.9,3.6,3.1,7.1,5c7.7,4.2,13.5,8.1,14.2,9.6c0.3,0.6,2.2,1.8,4.3,2.8c11.1,4.8,19.7,9.5,25.1,13.9
		c3.4,2.7,6.3,5.2,6.5,5.7c0.2,0.5,1.7,1.2,3.3,1.5s4.3,1.8,6,3.2c1.7,1.4,4.6,2.8,6.6,3.2c2.3,0.5,3.6,1.3,3.9,2.6
		c0.5,2.7,4.9,4.4,9.6,3.9c3.5-0.4,4.3-0.1,5.7,2.3c0.9,1.5,2.2,3,3,3.3c0.8,0.3,1.7,1.7,2.1,3.2c0.5,2.1,1.2,2.8,3.1,2.9
		c1.3,0.1,2.7,0.7,3,1.5c1.1,2.4,8.9,4.9,12.3,4c3.3-0.9,5.1,0.3,7.2,4.6c0.6,1.3,2.4,2.1,5,2.3c2.2,0.2,4.3,0.9,4.6,1.6
		c0.3,0.7,1.8,1.6,3.3,2.1c1.5,0.5,4.5,2.2,6.7,3.9c2.2,1.7,6.4,3.9,9.4,4.9c3,1,5.6,2.3,5.9,2.9s2,1.3,3.7,1.5
		c1.8,0.2,3.8,0.8,4.5,1.3c0.7,0.5,1.7,0.7,2.1,0.5c1.4-0.6,15.9,5,19.4,7.4c1.8,1.3,4.9,3.1,7,4.1c2.1,1,5.2,2.5,6.9,3.4
		c1.7,0.9,5.3,2.6,7.9,3.9s6.4,3.2,8.5,4.3c4.4,2.4,13.7,5.6,14.8,5.1c0.4-0.2,1.2,0.5,1.6,1.5c1.4,2.9,4.2,4.6,6.1,3.7
		c2.5-1.2,4,0.2,2.7,2.6c-1.1,1.9-1,2,1.5,3.1c1.4,0.6,3.1,0.8,3.8,0.5c2.8-1.3,7.1-0.4,11.8,2.6c5.4,3.4,10.8,5.4,12.8,4.5
		c0.6-0.3,2,0.3,3,1.2c1,1,5.1,3.1,9.1,4.7c4,1.6,8.4,3.7,9.9,4.7c2.7,1.8,5.7,2.8,15.5,5.6c3,0.8,5.8,2.3,6.2,3.2s2.9,2.5,5.5,3.4
		c2.6,0.9,6.4,3.1,8.4,4.7c2,1.7,6.7,4.1,10.2,5.3c3.8,1.3,6.9,3.1,7.4,4.2c0.5,1.1,1.7,1.8,2.9,1.6c1.3-0.2,2.1,0.3,2.3,1.5
		c0.3,1.4,2.7,2.3,10.1,3.7c5.4,1,10.1,2.4,10.4,3.2c0.6,1.4,0.8,1.5,7.7,4.7c2.4,1.1,4.5,2.4,4.8,3c0.3,0.6,1.5,1.1,2.8,1.3
		c1.8,0.2,2.8,1.3,4.4,4.6c1.9,4.1,2.3,4.4,7.1,5c5.7,0.8,13.3,2.9,13.7,3.9c0.5,1,8.9,4,11.6,4.2c1.4,0.1,3.7,0.9,5.2,2
		s4.2,2,6.1,2.2c1.8,0.2,3.6,0.8,3.8,1.4c0.3,0.6,3.9,2.5,8,4.2c4.1,1.7,7.8,3.7,8.2,4.5c0.4,0.8,1.9,1.8,3.3,2.2
		c1.4,0.4,4,1.7,5.7,2.7c1.7,1.1,5.5,2.5,8.6,3.2c3,0.7,6.8,2.1,8.3,3.1c2.5,1.7,2.7,2,1.8,3.3c-0.8,1.2,2.3,2.7,15.6,7.7
		c23.5,8.7,25.3,9.5,28.5,11.4c1.5,1,3.9,1.5,5.2,1.3c1.3-0.3,3.9,0.5,5.7,1.7s3.7,2,4.2,1.8c0.5-0.2,1.8,0.6,3,1.8
		c1.7,1.7,3.5,2.1,8.3,1.8c3.4-0.2,7.6,0.1,9.4,0.7c1.8,0.6,3.5,0.9,3.9,0.7s0.9,0.2,1.3,0.8c0.8,1.5,5.6,3.7,6.9,3.1
		c0.5-0.3,1.2,0,1.5,0.6c0.3,0.6,2.3,2,4.5,3.1c2.2,1.1,4.1,2.3,4.3,2.6c0.1,0.3,5.3,2.4,11.6,4.6s12.2,4.7,13.2,5.4
		c1,0.7,2.6,1,3.5,0.8c0.9-0.2,2.9,0,4.3,0.5c1.4,0.5,3.3,0.5,4.3,0.1c1.9-0.9,4-0.1,2.9,1c-1.3,1.3,2.6,2.5,9.6,3
		c3.8,0.3,7.7,0.8,8.6,1.1c1,0.3,2.6,0.2,3.6-0.3c1.2-0.6,1.9-0.4,2,0.6c0.2,2.6,6.9,5.4,10.1,4.2c3-1.1,6.9,0.1,7.2,2.2
		c0.2,1.5,5.9,5.4,7.2,4.8c0.5-0.2,1.2,0.2,1.6,0.9s1,1.2,1.4,1c0.4-0.2,3.6,0.5,7.1,1.6c4.6,1.4,7.2,1.6,9.1,0.7
		c2-0.9,2.5-0.9,1.8,0.2c-1.2,1.9,1.2,3.9,8.2,7c3.3,1.5,5.9,1.9,7.3,1.3c1.3-0.6,3.3-0.3,5.2,0.7c3.8,2.1,12.4,3.6,13.3,2.3
		c0.4-0.6,1.7-0.3,3.1,0.5c3.4,2.1,16.9,4.9,18.9,4c0.9-0.4,3.3-0.8,5.3-0.7c2.7,0.1,3.7,0.6,4,2.1c0.3,1.5,1.4,2.1,4.4,2.4
		c2.2,0.2,4.7,0.9,5.5,1.5s3.9,1.2,6.9,1.2c3,0,7.4,0.5,9.9,1.1c2.5,0.6,5.1,0.7,5.9,0.4c0.8-0.4,1.8-0.3,2.2,0.2
		c0.5,0.5,2.1,0.3,3.7-0.5c2.6-1.2,3-1.1,4.1,1.2c0.7,1.4,1.5,2.4,1.9,2.2c0.4-0.2,2.4,0.2,4.5,0.9c2.4,0.7,4.9,0.7,6.6-0.1
		c2.2-1,3.3-0.8,5.3,0.8c3.8,3.2,6.6,4.1,8.9,3c4.2-2,12.5-1.6,20.1,0.9c4.3,1.4,9,2.3,10.4,2.1c3.3-0.7,14.7-0.1,16.2,0.8
		c0.6,0.4,1.2,1.3,1.3,2c0.1,0.8,0.9,1,2,0.4c1-0.5,4.2-0.5,7,0.1s6.8,0.4,8.9-0.2c2.1-0.6,4.7-0.6,5.8,0c1.1,0.6,2.3,0.7,2.6,0.1
		c0.8-1.3,6.1-1.1,5.9,0.2c-0.1,0.5,0.4,0.8,1,0.5c0.6-0.3,1-0.2,0.8,0.2c-0.1,0.4,1.2,1.3,3.1,2c2.4,0.9,4,0.8,5.5-0.3
		c1.3-1,2.7-1.2,3.7-0.7c0.9,0.5,3.6,0.4,6-0.1c5.3-1.2,7.4-0.8,8.5,1.7c1,2.1,4.4,3.1,6.8,2c2.5-1.1,12.3-0.6,13.7,0.8
		c1.1,1,2.2,0.6,7.3-2.4c6-3.6,6.8-3.7,7.7-0.4c0.1,0.4,0.5,0.4,0.9-0.2c0.4-0.6,1.5-0.2,2.6,0.8c1.1,1,3,1.9,4.3,2
		c1.3,0.1,2.3,0.6,2.2,1.1c-0.1,1.3,2.6,1,6-0.6c1.5-0.7,6.3-1.8,10.7-2.4c4.3-0.6,10.4-1.7,13.4-2.4c7.6-1.8,16.6-2.3,17.2-1
		c0.3,0.6,2.7,2.1,5.4,3.3c5.2,2.3,10.7,2.2,19.2-0.5c2.4-0.8,5.5-1.2,6.8-0.9c2.2,0.5,2.3,0.7,1.3,2.4c-0.9,1.6,1.1,1.9,14.2,2.1
		c10.6,0.2,16.4-0.3,18.7-1.3c1.9-0.9,3.6-1.2,3.8-0.7c0.2,0.5,1.4,0.4,2.7-0.2c1.2-0.6,2.4-0.8,2.6-0.4c0.5,1,6,0.8,8.6-0.4
		c1.3-0.6,3.4-0.8,4.7-0.6c1.3,0.3,3.2,0.1,4.3-0.4c1-0.5,2.9-0.7,4.2-0.5c2.1,0.3,6.9-0.4,14.1-2.1c1.5-0.4,6.3,0.4,10.8,1.6
		c4.5,1.2,8.7,2,9.4,1.6c0.7-0.3,2.8,0.5,4.7,1.9c2.9,2.2,4.1,2.4,8.5,1.4c2.8-0.6,5.8-1.1,6.7-0.9c0.9,0.1,4.1-0.9,7-2.3
		c5.4-2.5,5.4-2.5,6.4,0.1c0.9,2.3,1.2,2.4,2.7,1.1c0.9-0.8,1.9-2.1,2.2-2.7c0.8-2,3.2-2.6,5.7-1.5c2.3,1,4,0.8,7.1-1.1
		c0.9-0.5,1.7-0.2,2,0.8c0.3,0.9,1.8,1.7,3.2,1.7c1.4,0,4.4,0.8,6.7,1.6c2.5,0.9,5.4,1.1,7.6,0.5c2-0.6,5.2-1.3,7.2-1.6
		c2-0.3,5.5-1.3,7.8-2.3c2.3-0.9,5.3-1.6,6.7-1.6c1.4,0.1,3.6-0.3,4.9-0.7s2.8-0.5,3.3,0c0.6,0.6,2.1,0.1,4.2-1.2
		c3.2-2.1,3.3-2,11.4,2.4c4.5,2.5,8.2,4.3,8.3,4c0.1-0.3-0.4-1.8-1.1-3.3c-0.7-1.6-1-3-0.7-3.1c1.5-0.7,5.8,0.8,5.9,2.1
		c0.1,1.5,4.2,1.6,5.8,0.2c3.5-3.3,7-4.4,10.9-3.6c2.3,0.5,5.3,0.3,6.7-0.3c1.6-0.8,3.7-0.6,6,0.5c2,0.9,3.6,1.1,3.7,0.5
		c0.2-1.7,3.2-2.9,5.3-2.2c1,0.3,4,0.2,6.7-0.2c5.8-1,9.4-0.2,8.1,1.9c-0.6,0.9-0.1,1,1.6,0.2c1.3-0.6,2.8-0.9,3.3-0.6
		c0.5,0.3,1.9-0.2,3.3-1.1c1.5-1,3.6-1.5,5.3-1.2c1.5,0.3,3.4,0.2,4.1-0.2c0.8-0.3,3.5,0.1,6,1c2.5,0.9,5.1,1.4,5.7,1.2
		c0.6-0.3,1.7,0.3,2.6,1.3c1.5,1.8,1.5,1.7,2.1-0.7c0.4-1.7,0.9-2.2,1.6-1.6c0.6,0.5,1.9,0.5,3.1-0.1c3.5-1.7,9.4-1.4,11.7,0.5
		c1.8,1.5,2.4,1.6,3.5,0.1c1.9-2.5,4.5-3.6,6.6-2.6c1,0.5,2.4,0.3,3.2-0.5c1.9-1.8,9.4-2.9,13.9-2c2,0.4,4.5,0.6,5.5,0.5
		c1-0.1,2.2,0.6,2.7,1.6c0.9,2,3.7,1.2,11.2-2.9c3-1.7,3.4-1.6,3.6,0.2c0.2,1.1,0.8,2.1,1.5,2.2c0.7,0.1,0.9-0.5,0.5-1.3
		c-1-2.1,2-3,3.6-1.2c0.9,1.1,1.8,1.2,2.7,0.3c1.8-1.7,12.2-2.1,13-0.4c0.3,0.7,1.5,0.8,2.8,0.2c1.2-0.6,2.7-0.7,3.2-0.4
		s1.3,0.2,1.6-0.3s3.3,0,6.6,1.3c3.3,1.3,6.2,2.1,6.6,2s1-1.3,1.5-2.4c1.2-2.9,9.4-4.7,11.3-2.4c0.7,0.8,1.9,1.2,2.7,0.8
		c0.8-0.4,3.3-0.4,5.7,0s6.3,0,8.8-0.8c2.5-0.8,5.6-1.5,7-1.6s3.5-0.6,4.6-1.2c1.2-0.6,2.6-0.7,3.2-0.3c0.6,0.4,2,0,3.2-0.8
		c1.4-1,4.3-1.3,8.7-0.9c3.7,0.3,7.1,0.4,7.7,0.1c0.5-0.3,2.8,0.1,5,0.9c3.7,1.2,4.3,1.1,9.3-1.7c4.1-2.3,5.2-2.7,5.1-1.6
		c-0.1,0.9,0.1,1,0.6,0.3c0.4-0.6,2.2-0.8,4-0.4s4.1,0.4,5.2-0.1c1.1-0.5,3-0.6,4.4-0.4c1.5,0.3,3.3-0.1,4.6-1.1
		c1.4-1.1,2.9-1.4,4.2-0.9c1.1,0.4,3,0.2,4.1-0.5c1.6-1,2.3-0.8,3.5,1.1c1,1.7,2,2.1,3.2,1.5c1-0.5,1.5-1.3,1.3-1.8
		c-0.7-1.6,6.2-3.2,9.3-2.2c1.5,0.5,3.6,0.6,4.6,0.3c1.2-0.3,2.7,0.5,4,2.1c2.3,2.8,5.6,2.4,5.4-0.7c-0.2-2.8,7.9-5.3,10.5-3.3
		c1.9,1.5,8.7,1.6,11.9,0.2c0.8-0.3,1.9-0.5,2.6-0.3c1.4,0.3,11.2-2,16.1-3.8c1.8-0.7,4.7-0.8,6.3-0.3c1.6,0.5,3.6,0.6,4.4,0.2
		c0.8-0.4,1.8-0.1,2.2,0.6c0.8,1.6,1.8,1.2,4.1-1.5c1.5-1.7,2.4-2,5.4-1.4c2,0.4,4.6,0.2,5.8-0.4c1.2-0.6,3.2-0.8,4.6-0.5
		c1.3,0.3,3.2,0.1,4.3-0.4c1.1-0.5,3.3-0.5,5.1-0.2c1.7,0.4,3.4,0.6,3.8,0.4c0.3-0.2,2,0,3.8,0.4c1.7,0.4,4.3,0.2,5.7-0.5
		c1.4-0.7,3.7-0.8,5.2-0.3c1.5,0.6,3.2,0.4,4.2-0.4c1-0.9,2.3-0.9,3.6-0.1c1.5,1,2.7,0.8,5-0.6c4.1-2.6,8.1-2.2,10.9,0.9l2.3,2.6
		l4.3-2.8c2.4-1.5,5-3.5,5.8-4.3c2-2,6.9-2.5,8.5-0.7c1.9,2,4.3,1.7,10.5-1.5c5.8-3,11.1-3.6,15.2-1.5c1.9,0.9,2.6,0.8,4.3-1
		c2.1-2.2,2.1-2.2,5.4,1.5c1.1,1.2,5.1-0.6,6.9-3c0.7-1,1.5-1.4,1.7-1c0.4,0.8,10.9-0.5,13.5-1.7c0.9-0.4,2.2-0.3,2.8,0.3
		c0.6,0.6,0.8,1.3,0.3,1.5c-1.1,0.5,0.2,2.4,1.9,2.7c1.7,0.3,4.7-1.2,3.6-1.8c-0.5-0.3-0.5-1.4-0.1-2.3c0.6-1.2,1-1.4,1.3-0.7
		c0.7,1.4,2.3,0.5,3.1-1.9c0.4-1.1,1-2.1,1.4-2.3c1.3-0.6,11.3,2.6,11.9,3.9c0.7,1.5,3.1,0.6,3.3-1.1c0.2-2,3.5-2.9,5.4-1.4
		c1.3,0.9,2.3,0.9,3.3,0.1c0.8-0.7,1.9-1,2.5-0.6c0.7,0.5,2.4-0.1,4.6-1.6c4.2-2.8,9.8-3,12.8-0.5c1.1,0.9,2.8,1.6,3.8,1.4
		s2.9,0.4,4.3,1.2c2.6,1.6,6.2-0.1,5.1-2.5c-0.7-1.4,0.1-2,2.3-1.7c0.8,0.1,1.6,1,1.6,2c0.1,1.5,0.8,1.5,5.1-0.6
		c3.4-1.6,5.3-3.1,5.8-4.5c1.1-3.2,5.5-3.8,6.8-0.9c0.6,1.2,1.6,2.3,2.3,2.3c0.7,0.1,1.4,1,1.6,2.1c0.4,2.3,0.6,2.2,3.2-1.1
		c1.5-2,3-2.8,6-3.5c2.4-0.5,4.1-1.3,4.2-1.9c0.1-0.6,0.7-1.3,1.5-1.7s1.3-0.1,1.2,0.5c-0.1,1.2,1.9,0.7,5-1.1
		c0.9-0.6,2.4-0.7,3.2-0.3c0.8,0.4,5,0.9,9.4,1c7.4,0.3,8.2,0.1,12.4-2.8c3-2,5.1-3,6.1-2.7c0.9,0.2,3.1-0.1,4.9-0.8
		s4.3-0.9,5.4-0.5c1.1,0.4,4.5-0.1,7.5-1.2c13.7-4.9,22.5-7,24.6-6c0.8,0.4,4.3,0,7.8-1c3.5-0.9,8.4-1.9,10.9-2.2
		c2.5-0.3,5.1-1.1,5.7-1.7c0.6-0.7,2.9-1,5.1-0.8c2.2,0.2,5.5-0.4,7.4-1.3c1.9-0.9,5.2-1.7,7.3-1.8s4.8-0.6,6-1.2
		c1.2-0.5,2.9-0.7,3.8-0.4c2.4,0.8,11.3-1,18.3-3.8c3.3-1.3,7-2.4,8.2-2.4c3.4-0.1,7.9-1.2,11.9-2.9c2-0.9,6.4-1.5,9.7-1.4
		c3.3,0.1,6.6-0.1,7.3-0.5c0.8-0.4,1.9,0,2.6,0.8c1.3,1.5,6.4,0.1,6.7-1.8c0.1-1.2,9.6-4.7,11.6-4.2c1,0.2,3-0.8,5.7-2.8
		c3.5-2.7,4.7-3.2,7.7-3c2,0.1,4.4,0.2,5.5,0.2c1,0,5.4-1.3,9.7-3c4.3-1.6,10-3.1,12.8-3.3c3.4-0.2,7.2-1.3,11.8-3.5
		c3.7-1.8,7.2-2.9,7.8-2.5c0.6,0.4,3.3-0.7,7.3-3c5.2-3,6.6-3.5,8.1-2.8c1,0.5,3.1,0.3,4.5-0.3c1.4-0.7,3.2-0.7,4.1-0.1
		c1.2,0.9,3.4,0.3,11.5-3.3c9.5-4.2,17.1-6.8,30.4-10.4c14.1-3.8,32.3-9.6,36.7-11.8c1.6-0.8,3.3-1.1,3.8-0.8
		c0.5,0.3,2.7-0.2,4.7-1.2c2.1-1,7.7-2.9,12.5-4.3c7.5-2.2,8.8-2.8,9.9-4.7c1.1-1.9,1.5-2.1,3.7-1.4c2,0.6,3.8,0,9.6-2.9
		c6.3-3.3,7.4-3.6,9.3-2.5C2907.3,2347.3,2908.4,2346.9,2908.6,2344.5L2908.6,2344.5z M2013.3,2504.2c-0.4-0.7-0.2-1.5,0.3-1.8
		c0.5-0.2,1.2,0.2,1.5,0.9c0.4,0.7,0.2,1.5-0.3,1.8C2014.3,2505.4,2013.6,2504.9,2013.3,2504.2z M2282.3,2485.1
		c0.1-0.6-0.6-1-1.4-0.9c-0.8,0.1-1.5,0.8-1.4,1.6C2279.7,2487.5,2282.1,2486.8,2282.3,2485.1z M2076.8,2503.8
		c-0.9-0.3-2,1.8-1.5,2.8c0.3,0.6,0.8,0.3,1.3-0.8C2077,2504.8,2077.1,2503.9,2076.8,2503.8z M1825.2,2522.9c-0.9-2-2.9-2.6-3.1-0.9
		c-0.2,1.4,2.1,3.6,3.1,3.1C1825.7,2524.8,1825.7,2523.8,1825.2,2522.9L1825.2,2522.9z M1782.4,2520.3c-1.2-1.2-3.9-0.5-3.3,0.8
		c0.5,1.1,2,1.5,3.3,0.8C1783.1,2521.7,1783.1,2521,1782.4,2520.3z M2897.1,1968.5c-0.1-0.2-0.7-0.5-1.4-0.5c-0.6-0.1-1,0.3-0.7,0.8
		s0.9,0.8,1.4,0.5C2896.9,1969.1,2897.2,1968.7,2897.1,1968.5z M1682.9,2522.5c-1.5-1-10.4-1.9-10.7-1.1c-0.4,1.1,1.7,2.1,3.1,1.5
		c0.7-0.3,1.8,0,2.4,0.6c0.7,0.6,1.5,0.7,1.8,0.2c0.3-0.5,1.1-0.6,1.6-0.3c0.6,0.4,1.4,0.5,1.9,0.2
		C1683.5,2523.4,1683.5,2522.9,1682.9,2522.5z M2729.5,1956.9c0.5-3.6-1.5-5.7-3.9-4.1c-2.1,1.4-1.3,5.2,1.3,6.4
		C2729.1,1960.3,2729.1,1960.3,2729.5,1956.9z M1348.6,2588.6c-0.2-0.5-0.8-0.7-1.3-0.4c-0.5,0.2-0.6,1.1-0.2,1.8s1,1,1.3,0.4
		C1348.8,2589.9,1348.9,2589,1348.6,2588.6z M2589.1,1913.9c-0.2-1-1-1.4-1.8-1c-0.8,0.4-1.1,1.4-0.5,2.6
		C2587.8,1917.7,2589.8,1916.4,2589.1,1913.9z M2593.8,1902.2c-0.5-1.1-2.8-1.4-3.1-0.4s1.6,2.2,2.7,1.7
		C2593.8,1903.2,2594,1902.6,2593.8,1902.2L2593.8,1902.2z M2599.6,1863.1c-0.4-0.9-7.9-2.1-9.3-1.4c-1.1,0.5,0.3,4.5,1.8,5
		C2593.4,1867.2,2600,1864,2599.6,1863.1L2599.6,1863.1z M2492.5,1891.5c-1.4-2.9-2.4-3.5-3.7-2.1c-0.9,0.9-0.1,2.5,2.7,5.6
		C2493,1896.6,2493.7,1894.1,2492.5,1891.5z M2508.3,1873.3c0.3-1.1,0.1-2.1-0.3-2.2c-1-0.3-2.7,2.9-2.1,4.1
		C2506.4,1876.5,2507.7,1875.4,2508.3,1873.3L2508.3,1873.3z M2482.2,1869.6c-0.5-1.1-3.6-1-4,0.1c-0.4,1.2,1.7,2.2,3.1,1.5
		C2482,1870.8,2482.4,1870.1,2482.2,1869.6z M2473.8,1869.4c-0.4-0.1-1.6,0-2.7,0.3c-2.1,0.6-1.9,2.3,0.2,2.1
		C2472.9,1871.6,2474.8,1869.8,2473.8,1869.4z M2451.9,1838.4c-0.2-0.4-1.9-0.7-3.8-0.8c-3.1-0.1-3.6,0.1-4.2,1.9
		c-0.4,1.1-0.3,2.3,0.3,2.6C2445.2,1842.8,2452.4,1839.4,2451.9,1838.4L2451.9,1838.4z M2365.4,1861.2c-0.4-0.7-1-1.2-1.5-0.9
		s-0.6,1-0.3,1.8c0.4,0.7,1,1.2,1.5,0.9C2365.6,1862.8,2365.8,1862,2365.4,1861.2z M2289.5,1883.2c0.8-1.3,0.8-1.4-0.4-0.8
		c-0.7,0.4-2,1.4-2.8,2.3l-1.4,1.6l1.8-0.8C2287.8,1885.1,2289,1884.1,2289.5,1883.2z M2323.9,1825c-0.2-0.5-0.8-0.7-1.3-0.5
		c-0.5,0.2-0.9,0.9-1,1.6c-0.1,0.6,0.5,0.9,1.3,0.5C2323.7,1826.2,2324.2,1825.5,2323.9,1825z M2306.4,1818.8
		c-1.1-0.7-2.4-0.8-3-0.3c-0.5,0.6-1.4,1.2-1.8,1.4c-0.5,0.2-0.7,0.8-0.4,1.2c0.4,0.9,2.7,0.7,5.6-0.5
		C2308.2,1820.2,2308.1,1820,2306.4,1818.8z M2314,1810.9c-0.2-0.5-0.8-0.7-1.3-0.5s-0.9,0.9-1,1.6c-0.1,0.6,0.5,0.9,1.3,0.5
		C2313.8,1812.1,2314.2,1811.4,2314,1810.9z M2273.1,1818c-0.2-0.5-1-0.6-1.8-0.3c-0.7,0.4-1.2,1-0.9,1.5c0.2,0.5,1,0.6,1.8,0.3
		C2272.9,1819.2,2273.3,1818.5,2273.1,1818z M2253.9,1792.2c-0.4-0.7-1-1.2-1.3-1c-1,0.5-1.1,2.3-0.1,2.6
		C2254,1794.4,2254.6,1793.6,2253.9,1792.2z M2219.8,1801.2c-0.2-0.5-0.9-0.7-1.4-0.5c-0.5,0.2-0.5,0.7,0,1.1
		c0.5,0.4,1.2,0.6,1.4,0.5S2220,1801.7,2219.8,1801.2z M2077.8,1765.1c0.8-1.8,2.1-4,2.8-5c1-1.5,0.9-2-0.5-2.6
		c-2.3-1.1-9.7-0.1-11.1,1.4c-1.5,1.6,0.1,5.1,2,4.2c1.8-0.9,4.1,1.4,3,3c-0.4,0.7-0.3,1.6,0.3,2
		C2075.7,1769.1,2076,1768.8,2077.8,1765.1L2077.8,1765.1z M1991.8,1761.5c0.8-2.1-1.1-5.9-2.6-5.2c-0.6,0.3-1.4,1.3-1.8,2.2
		c-0.4,1.3-1.1,1.6-2.8,1.4c-3.5-0.4-3,0.8,1,2.5C1989.7,1764.1,1991,1763.9,1991.8,1761.5L1991.8,1761.5z M1894.9,1762.8
		c1.1-2.1,1-2.1-1.4-1c-1.6,0.7-2.3,1.6-1.9,2.5C1892.4,1766,1893.4,1765.5,1894.9,1762.8L1894.9,1762.8z M1881.7,1759.6
		c0.5-0.8,0.5-1.6,0-1.8c-1.2-0.4-3.3,1.8-2.7,3C1879.5,1762,1880.4,1761.6,1881.7,1759.6L1881.7,1759.6z M1815.4,1745.7
		c-0.5-1-3.1-0.9-5.5,0.3c-1.7,0.8-1.8,2-0.1,2.6C1811.1,1749.1,1815.8,1746.6,1815.4,1745.7L1815.4,1745.7z M1786.1,1750.5
		c0.1-0.6-0.3-1-0.8-0.7c-0.5,0.2-0.8,0.9-0.5,1.4c0.2,0.5,0.6,0.8,0.8,0.7C1785.8,1751.8,1786.1,1751.2,1786.1,1750.5z
		 M1752.9,1741.3c-0.1-0.9-0.5-1.4-1-1.2c-0.5,0.2-0.6,1-0.2,1.8c0.4,0.7,0.8,1.3,1,1.2C1752.9,1743,1753,1742.2,1752.9,1741.3z
		 M1745.6,1738.9c-1.1-3-2.8-3.5-3.1-1c-0.1,0.7-0.8,1.9-1.6,2.8c-1.4,1.5-1.4,1.6,0.8,2.4
		C1745.2,1744.4,1746.9,1742.5,1745.6,1738.9L1745.6,1738.9z M1726.8,1740.8c-1-2.2-3.5-2.1-5.1,0.2c-1,1.5-1,1.6,0.3,1.1
		c0.8-0.4,2.1,0.1,2.9,1C1726.6,1745,1728,1743.4,1726.8,1740.8L1726.8,1740.8z M1700.1,1741.8c-0.2-2.1-2.3-3.2-3.3-1.6
		c-1,1.6,0.7,4.7,2.2,4C1699.6,1743.8,1700.2,1742.7,1700.1,1741.8z M1678.3,1739.9c-0.6-0.6-1.5-1.8-1.9-2.6
		c-1.2-2.5-1.9,2.8-0.7,5.4c0.9,1.9,1.2,1.9,2.4,0.2C1679,1741.7,1679,1740.5,1678.3,1739.9L1678.3,1739.9z M1619.2,1735.4
		c-1-0.7-2-1.3-2.3-1.1c-0.2,0.1,0.4,0.8,1.4,1.6c1,0.7,2,1.3,2.3,1.1C1620.8,1736.8,1620.2,1736.1,1619.2,1735.4z M1439.5,1752.9
		c-0.2-0.3-0.9-1-1.7-1.5c-1.2-0.8-1.6-0.6-2.5,1.6c-0.6,1.4-0.7,2.7-0.3,3C1435.7,1756.6,1439.9,1753.8,1439.5,1752.9
		L1439.5,1752.9z M1379.1,1750.3c0.1-0.6-0.5-0.9-1.3-0.5c-0.8,0.4-1,1-0.5,1.3c0.5,0.4,1.1,0.6,1.3,0.5
		C1378.8,1751.6,1379,1751,1379.1,1750.3z M1375.5,1737.4c0.2-0.9-0.1-3-0.7-4.9l-1-3.3l-1.2,4.1c-0.7,2.3-0.9,4.7-0.6,5.4
		C1372.7,1740.4,1374.9,1739.5,1375.5,1737.4L1375.5,1737.4z M1361.4,1736.3c-0.4-1.3-1.2-1.4-3.2-0.4c-2.5,1.2-2.8,3.2-0.6,4
		C1359.4,1740.4,1362,1738,1361.4,1736.3L1361.4,1736.3z M1318.3,1737c-3.3-1.1-4-0.9-3.2,0.9c0.5,1.1,2.3,1.3,5.1,0.3
		C1320.7,1738.1,1319.8,1737.5,1318.3,1737z M1259.9,1736.9c0.1-0.6-0.3-1-0.8-0.7c-0.5,0.2-0.8,0.9-0.5,1.4
		c0.2,0.5,0.6,0.8,0.8,0.7C1259.6,1738.2,1259.9,1737.6,1259.9,1736.9z M1167.6,1745.2c0.1-0.6-0.6-1.1-1.6-1
		c-2,0.2-2.7,1.3-1.2,2.3C1166.2,1747.3,1167.4,1746.7,1167.6,1745.2L1167.6,1745.2z M1172,1726.5c0.1-0.6-0.3-1-0.8-0.7
		c-0.5,0.2-0.8,0.9-0.5,1.4c0.2,0.5,0.6,0.8,0.8,0.7C1171.7,1727.7,1172,1727.1,1172,1726.5z M959.3,1811.4
		c-0.1-5.1-1.7-5.8-6.8-3.4c-5.2,2.5-6.6,5.2-3.2,6.4c1.2,0.4,2.7,0.5,3.3,0.2c0.6-0.3,2-0.2,2.9,0.3
		C958.3,1816.1,959.4,1815.1,959.3,1811.4z M939.1,1811.8c-0.9-0.9-1.8-0.8-2.8,0.1c-2.5,2.3-6.2,2.5-8.7,0.4
		c-2.3-1.8-2.6-1.8-9.4,1.4c-3.9,1.8-7,3.4-6.9,3.5c0.1,0.1,2.7,1.1,5.8,2.3c4.6,1.7,6.3,1.7,9.3,0.5c2-0.9,5.7-2.1,8.1-2.7
		C939.6,1816.1,941.3,1813.9,939.1,1811.8L939.1,1811.8z M1005.8,1734.4c-0.1-0.7-0.8-0.9-1.6-0.6c-0.8,0.4-1.1,1.3-0.8,2.1
		C1004.2,1737.6,1006,1736.4,1005.8,1734.4z M928.3,1737.1c1-1.9,0.9-2.2-0.7-2.4c-1-0.1-3.1,0.4-4.7,1.1c-2.3,1.1-2.8,1.8-2.2,3
		c0.4,0.9,1.2,1.8,1.7,2C924,1741.3,927.1,1739.4,928.3,1737.1L928.3,1737.1z M2903.4,1964.9c0.3-2.4,1.9-4.7,3.1-4.3
		c1,0.4-0.7,5.3-2.1,6C2903.4,1967.1,2903.2,1966.8,2903.4,1964.9z M2874.3,1953.5c-1.9-2.6-1.2-6.5,1.1-6.7c2.2-0.2,3.1,2.5,2,5.8
		C2876.3,1956.2,2876.2,1956.2,2874.3,1953.5z M2859.2,1948c-1.5-1,0.6-4.9,2.3-4.3c0.8,0.3,1.1,1.2,0.8,2.4
		C2861.7,1948.4,2860.7,1949,2859.2,1948L2859.2,1948z M2848.7,1939.2c-1.5-0.8-2.6-1.9-2.5-2.3c0.3-0.9,6.6,0.9,7.2,2.1
		C2854.1,1940.5,2851.3,1940.7,2848.7,1939.2L2848.7,1939.2z M2798.5,1929.3c0.1-0.6,0.3-1.3,0.5-1.4c0.2-0.1,0.6,0.2,0.8,0.7
		c0.2,0.5,0,1.1-0.5,1.4C2798.8,1930.3,2798.4,1929.9,2798.5,1929.3z M2643.3,1873.7c-0.4-0.8-0.1-1.4,0.5-1.3
		c0.6,0.1,1.3,0.5,1.6,1c0.2,0.5,0,1-0.5,1.3C2644.4,1874.9,2643.7,1874.4,2643.3,1873.7z M2609.4,1863.8c-0.5-0.4-0.4-0.9,0.4-1.3
		c0.8-0.4,1.6-0.3,1.8,0.2c0.2,0.5,0,1.1-0.4,1.3S2609.9,1864.1,2609.4,1863.8z M2565.5,1852.6c-0.7-0.4-1.1-1.2-1-1.6
		c0.4-1.2,1.9-0.4,2.1,1.1C2566.7,1853.1,2566.5,1853.2,2565.5,1852.6L2565.5,1852.6z M2527.5,1845.1c-8.3-1.2-17.6-5.2-14.9-6.4
		c0.4-0.2,2.1,0,3.8,0.4s3.4,0.6,3.8,0.4c1.4-0.6,13.2,3,13.8,4.2C2534.9,1845.5,2532.9,1845.9,2527.5,1845.1z M997.4,2492.4
		c-0.5-0.4-0.6-0.8,0-1.1c0.5-0.2,1.1,0,1.4,0.5c0.2,0.5,0.2,1,0,1.1C998.6,2493,998,2492.8,997.4,2492.4z M989,2490.9
		c-0.5-0.4-0.1-1,0.9-1.5c1-0.5,2.1-0.5,2.3,0c0.2,0.5-0.2,1.2-0.9,1.5C990.5,2491.2,989.5,2491.2,989,2490.9z M2402,1816.9
		c-0.9-2,1.8-4.1,3.7-2.8c1.3,0.8,1.2,1.1-1.1,3.1C2403.2,1818.5,2402.7,1818.4,2402,1816.9z M2371.6,1809.4c-2,0.4-3.6-2-1.9-2.8
		c0.6-0.3,2,0,3.1,0.7C2374.9,1808.7,2374.8,1808.8,2371.6,1809.4z M2268.3,1791c-1.9,0.1-3.8-0.5-4.2-1.3c-0.4-0.8-1.3-1.1-2-0.8
		c-0.7,0.4-1.6,0-2-0.7c-0.9-2,1-2.5,7.2-1.7c3.8,0.5,5.6,1.2,5.7,2.3C2273.1,1790.7,2272.9,1790.8,2268.3,1791L2268.3,1791z
		 M2172.9,1780.2c0.1-0.6,0.5-1.3,1-1.6s1,0,1.3,0.5c0.2,0.5-0.2,1.2-1,1.6C2173.4,1781.1,2172.8,1780.8,2172.9,1780.2z
		 M2044.5,1751.4c-1.2,0.1-1.8-0.4-1.6-1.3c0.1-1.2,0.5-1.3,2-0.7C2047.1,1750.4,2047,1751.1,2044.5,1751.4L2044.5,1751.4z
		 M637.7,2327.7c-1.6-1.6-1.4-2.2,0.9-2.4c1.9-0.1,2.6,1.6,1.3,2.9C639.4,2328.6,638.4,2328.3,637.7,2327.7L637.7,2327.7z
		 M1796.1,1725.9c-0.2-0.5,0.2-1.2,0.9-1.5s1.5-0.2,1.8,0.3c0.2,0.5-0.2,1.2-0.9,1.5C1797.1,1726.5,1796.3,1726.4,1796.1,1725.9z
		 M1789.7,1727.8c-0.7-0.3-3.1,0-5.2,0.5c-2.5,0.6-4.3,0.4-5-0.5c-1.5-2.1,4.6-4.7,9.6-4.1c4.3,0.5,5.2,1.3,3.5,3.1
		C1791.1,1728.4,1791.3,1728.4,1789.7,1727.8L1789.7,1727.8z M1657,1721.8c-0.2-0.5,0.1-0.9,0.7-0.8c0.6,0.1,1.3,0.3,1.4,0.5
		c0.1,0.2-0.2,0.6-0.7,0.8C1657.9,1722.6,1657.3,1722.4,1657,1721.8z M515.6,2257.7c-0.2-0.5,0-1.1,0.5-1.3s1.1,0,1.3,0.5
		s0,1.1-0.5,1.3S515.8,2258.2,515.6,2257.7z M1326.5,1724.4c-1.4,0.2-3-0.2-3.6-1c-1.6-2.2,2.8-3.7,6.5-2.2c2.9,1.2,3.1,1.3,1.4,2
		C1329.8,1723.7,1327.9,1724.2,1326.5,1724.4L1326.5,1724.4z M1090.2,1725.3c-0.2-0.5,0-1.1,0.5-1.4c0.5-0.2,0.9,0.1,0.8,0.7
		c-0.1,0.6-0.3,1.3-0.5,1.4C1090.8,1726.1,1090.5,1725.8,1090.2,1725.3z M894.5,1815.5c0.1-0.6,0.5-1.3,1-1.6c0.5-0.2,1,0,1.3,0.5
		c0.2,0.5-0.2,1.2-1,1.6C895,1816.4,894.4,1816.2,894.5,1815.5z"/>
</g>
</svg>
